<svg id="NEW_NO_Container" data-name="NEW NO Container" xmlns="http://www.w3.org/2000/svg" viewBox="0 0 16 16"><defs><style>.cls-1{fill:#404040;}</style></defs><title>icon-alarm</title><g id="icon-alarm"><path class="cls-1" d="M8,3A5.5,5.5,0,1,1,2.5,8.5,5.5062,5.5062,0,0,1,8,3M8,1a7.5,7.5,0,1,0,7.5,7.5A7.5,7.5,0,0,0,8,1Z" transform="translate(-0.0001 0)"/><path class="cls-1" d="M10.4991,11.5a.9975.9975,0,0,1-.624-.2192L7,8.9805V5.5a1,1,0,0,1,2,0V8.02l2.125,1.7a1,1,0,0,1-.626,1.7808Z" transform="translate(-0.0001 0)"/><path class="cls-1" d="M15,3a.9969.9969,0,0,1-.707-.293l-1-1A1,1,0,1,1,14.7071.293l1,1A1,1,0,0,1,15,3Z" transform="translate(-0.0001 0)"/><path class="cls-1" d="M1,3a1,1,0,0,1-.707-1.707l1-1a1,1,0,0,1,1.414,1.414l-1,1A.9967.9967,0,0,1,1,3Z" transform="translate(-0.0001 0)"/></g></svg>