<?xml version="1.0" encoding="utf-8"?>
<!-- Generator: Adobe Illustrator 23.1.1, SVG Export Plug-In . SVG Version: 6.00 Build 0)  -->
<svg version="1.1" xmlns="http://www.w3.org/2000/svg" xmlns:xlink="http://www.w3.org/1999/xlink" x="0px" y="0px"
	 viewBox="0 0 16 16" style="enable-background:new 0 0 16 16;" xml:space="preserve">
<style type="text/css">
	.st0{display:none;}
	.st1{display:inline;}
	.st2{fill:#404040;}
	.st3{fill:#FFFFFF;}
	.st4{fill:none;}
	.st5{opacity:0.3;fill:none;}
	.st6{fill:#FF0000;}
	.st7{fill-rule:evenodd;clip-rule:evenodd;fill:#404040;}
	.st8{fill-rule:evenodd;clip-rule:evenodd;fill:#FFFFFF;}
	.st9{fill-rule:evenodd;clip-rule:evenodd;fill:#2867B2;}
	.st10{fill:#EE1376;}
	.st11{fill:#1DA1F2;}
	.st12{fill:#1877F2;}
	.st13{display:inline;fill:none;}
	.st14{display:inline;fill:#404040;}
	.st15{display:inline;opacity:0.3;fill:none;}
	.st16{display:inline;fill-rule:evenodd;clip-rule:evenodd;fill:#404040;}
	.st17{fill:none;stroke:#404040;stroke-width:2;stroke-linecap:round;}
</style>
<g id="Outter_Container" class="st0">
</g>
<g id="NEW" class="st0">
</g>
<g id="NEW_NO_Container">
	<g id="icon-alarm_2_">
		<g>
			<g>
				<path class="st2" d="M8.0003,3c3.0327,0,5.5,2.4673,5.5,5.5s-2.4673,5.5-5.5,5.5s-5.5-2.4673-5.5-5.5S4.9676,3,8.0003,3
					 M8.0003,1c-4.1421,0-7.5,3.3579-7.5,7.5c0,4.1422,3.3579,7.5,7.5,7.5c4.1422,0,7.5-3.3578,7.5-7.5
					C15.5003,4.3579,12.1425,1,8.0003,1L8.0003,1z"/>
			</g>
			<path class="st2" d="M10.4991,11.5c-0.2188,0-0.4395-0.0718-0.624-0.2192l-2.875-2.3003V5.5c0-0.5522,0.4473-1,1-1s1,0.4478,1,1
				v2.5195l2.125,1.6997c0.4307,0.3447,0.501,0.9741,0.1562,1.4053C11.0831,11.3716,10.7931,11.5,10.4991,11.5z"/>
			<path class="st2" d="M15.0001,3c-0.2559,0-0.5117-0.0977-0.707-0.293l-1-1c-0.3906-0.3906-0.3906-1.0234,0-1.4141
				s1.0234-0.3906,1.4141,0l1,1c0.3906,0.3906,0.3906,1.0234,0,1.4141C15.5118,2.9023,15.256,3,15.0001,3z"/>
			<path class="st2" d="M1.0001,3c-0.2559,0-0.5117-0.0977-0.707-0.293c-0.3906-0.3906-0.3906-1.0234,0-1.4141l1-1
				c0.3906-0.3906,1.0234-0.3906,1.4141,0s0.3906,1.0234,0,1.4141l-1,1C1.5118,2.9023,1.256,3,1.0001,3z"/>
		</g>
	</g>
</g>
</svg>
