<?xml version="1.0" encoding="utf-8"?>
<!-- Generator: Adobe Illustrator 24.0.0, SVG Export Plug-In . SVG Version: 6.00 Build 0)  -->
<svg version="1.1" id="Layer_1" xmlns="http://www.w3.org/2000/svg" xmlns:xlink="http://www.w3.org/1999/xlink" x="0px" y="0px"
	 viewBox="0 0 16 16" style="enable-background:new 0 0 16 16;" xml:space="preserve">
<style type="text/css">
	.st0{fill:#404040;}
</style>
<title>alarm-dark</title>
<path class="st0" d="M8,3c3,0,5.5,2.5,5.5,5.5S11.1,14,8,14s-5.5-2.5-5.5-5.5S5,3,8,3 M8,1C3.9,1,0.5,4.4,0.5,8.5S3.9,16,8,16
	s7.5-3.4,7.5-7.5S12.2,1,8,1z"/>
<path class="st0" d="M10.5,11.5c-0.2,0-0.4-0.1-0.6-0.2L7,9V5.5c0-0.6,0.4-1,1-1c0.6,0,1,0.4,1,1V8l2.1,1.7c0.4,0.3,0.5,1,0.1,1.4
	C11.1,11.4,10.8,11.5,10.5,11.5z"/>
<path class="st0" d="M15,3c-0.3,0-0.5-0.1-0.7-0.3l-1-1c-0.4-0.4-0.4-1,0-1.4c0.4-0.4,1-0.4,1.4,0c0,0,0,0,0,0l1,1
	c0.4,0.4,0.4,1,0,1.4C15.6,2.9,15.3,3,15,3z"/>
<path class="st0" d="M1,3C0.8,3,0.5,2.9,0.3,2.7c-0.4-0.4-0.4-1,0-1.4l1-1c0.4-0.4,1-0.4,1.4,0c0,0,0,0,0,0c0.4,0.4,0.4,1,0,1.4
	l-1,1C1.6,2.9,1.3,3,1,3z"/>
</svg>
