<svg id="NEW_NO_Container" data-name="NEW NO Container" xmlns="http://www.w3.org/2000/svg" viewBox="0 0 14.8484 15.5"><defs><style>.cls-1{fill:#404040;}</style></defs><title>icon-alert-notification</title><g id="icon-alert-notification"><path class="cls-1" d="M12.5179,8.0236A.044.044,0,0,1,12.5,7.9885V6.2333A4.6974,4.6974,0,0,0,8.9746,1.6274.9423.9423,0,0,0,9,1.5a1,1,0,0,0-2,0,.9376.9376,0,0,0,.0229.1132A4.4972,4.4972,0,0,0,3.5,6V7.9885a.0434.0434,0,0,1-.0175.035A7.4959,7.4959,0,0,0,.5875,12.8562,1.0014,1.0014,0,0,0,1.58,14H6a2,2,0,0,0,4,0h4.4166a1.0044,1.0044,0,0,0,.996-1.1463A7.4959,7.4959,0,0,0,12.5179,8.0236ZM2.8762,12A5.5,5.5,0,0,1,4.6876,9.62L5.5,8.9848V6A2.5028,2.5028,0,0,1,8,3.5q.1137,0,.23.01A2.6811,2.6811,0,0,1,10.5,6.2333V7.9885l.0175,1.03.7929.6A5.5047,5.5047,0,0,1,13.1244,12Z" transform="translate(-0.576 -0.5)"/></g></svg>