<?xml version="1.0" encoding="utf-8"?>
<!-- Generator: Adobe Illustrator 23.1.1, SVG Export Plug-In . SVG Version: 6.00 Build 0)  -->
<svg version="1.1" xmlns="http://www.w3.org/2000/svg" xmlns:xlink="http://www.w3.org/1999/xlink" x="0px" y="0px"
	 viewBox="0 0 16 16" style="enable-background:new 0 0 16 16;" xml:space="preserve">
<style type="text/css">
	.st0{display:none;}
	.st1{display:inline;}
	.st2{fill:#404040;}
	.st3{fill:#FFFFFF;}
	.st4{fill:none;}
	.st5{opacity:0.3;fill:none;}
	.st6{fill:#FF0000;}
	.st7{fill-rule:evenodd;clip-rule:evenodd;fill:#404040;}
	.st8{fill-rule:evenodd;clip-rule:evenodd;fill:#FFFFFF;}
	.st9{fill-rule:evenodd;clip-rule:evenodd;fill:#2867B2;}
	.st10{fill:#EE1376;}
	.st11{fill:#1DA1F2;}
	.st12{fill:#1877F2;}
	.st13{display:inline;fill:none;}
	.st14{display:inline;fill:#404040;}
	.st15{display:inline;opacity:0.3;fill:none;}
	.st16{display:inline;fill-rule:evenodd;clip-rule:evenodd;fill:#404040;}
	.st17{fill:none;stroke:#404040;stroke-width:2;stroke-linecap:round;}
</style>
<g id="Outter_Container" class="st0">
</g>
<g id="NEW" class="st0">
</g>
<g id="NEW_NO_Container">
	<g id="icon-arrow-left_2_">
		<g>
			<path class="st2" d="M6.2933,1.293l-6,6c-0.3906,0.3906-0.3906,1.0234,0,1.4141l6,6c0.3906,0.3906,1.0234,0.3906,1.4141,0
				c0.1953-0.1953,0.293-0.4512,0.293-0.707s-0.0977-0.5117-0.293-0.707L3.39,8.9756h11.6104c0.5522,0,1-0.4478,1-1s-0.4478-1-1-1
				H3.4388L7.7074,2.707C7.9027,2.5117,8.0003,2.2559,8.0003,2s-0.0977-0.5117-0.293-0.707
				C7.3167,0.9023,6.6839,0.9023,6.2933,1.293z"/>
		</g>
	</g>
</g>
</svg>
