<?xml version="1.0" encoding="utf-8"?>
<!-- Generator: Adobe Illustrator 23.1.1, SVG Export Plug-In . SVG Version: 6.00 Build 0)  -->
<svg version="1.1" xmlns="http://www.w3.org/2000/svg" xmlns:xlink="http://www.w3.org/1999/xlink" x="0px" y="0px"
	 viewBox="0 0 16 16" style="enable-background:new 0 0 16 16;" xml:space="preserve">
<style type="text/css">
	.st0{display:none;}
	.st1{display:inline;}
	.st2{fill:#404040;}
	.st3{fill:#FFFFFF;}
	.st4{fill:none;}
	.st5{opacity:0.3;fill:none;}
	.st6{fill:#FF0000;}
	.st7{fill-rule:evenodd;clip-rule:evenodd;fill:#404040;}
	.st8{fill-rule:evenodd;clip-rule:evenodd;fill:#FFFFFF;}
	.st9{fill-rule:evenodd;clip-rule:evenodd;fill:#2867B2;}
	.st10{fill:#EE1376;}
	.st11{fill:#1DA1F2;}
	.st12{fill:#1877F2;}
	.st13{display:inline;fill:none;}
	.st14{display:inline;fill:#404040;}
	.st15{display:inline;opacity:0.3;fill:none;}
	.st16{display:inline;fill-rule:evenodd;clip-rule:evenodd;fill:#404040;}
	.st17{fill:none;stroke:#404040;stroke-width:2;stroke-linecap:round;}
</style>
<g id="Outter_Container" class="st0">
</g>
<g id="NEW" class="st0">
</g>
<g id="NEW_NO_Container">
	<g id="icon-arrow-down_2_">
		<g>
			<path class="st2" d="M1.2933,9.707l6,6c0.3906,0.3906,1.0234,0.3906,1.4141,0l6-6c0.3906-0.3906,0.3906-1.0234,0-1.4141
				C14.512,8.0977,14.2562,8,14.0003,8s-0.5117,0.0977-0.707,0.293l-4.3174,4.3174V1c0-0.5522-0.4478-1-1-1s-1,0.4478-1,1v11.5615
				L2.7074,8.293C2.512,8.0977,2.2562,8,2.0003,8s-0.5117,0.0977-0.707,0.293C0.9027,8.6836,0.9027,9.3164,1.2933,9.707z"/>
		</g>
	</g>
</g>
</svg>
