<?xml version="1.0" encoding="utf-8"?>
<!-- Generator: Adobe Illustrator 23.1.1, SVG Export Plug-In . SVG Version: 6.00 Build 0)  -->
<svg version="1.1" xmlns="http://www.w3.org/2000/svg" xmlns:xlink="http://www.w3.org/1999/xlink" x="0px" y="0px"
	 viewBox="0 0 16 16" style="enable-background:new 0 0 16 16;" xml:space="preserve">
<style type="text/css">
	.st0{display:none;}
	.st1{display:inline;}
	.st2{fill:#404040;}
	.st3{fill:#FFFFFF;}
	.st4{fill:none;}
	.st5{opacity:0.3;fill:none;}
	.st6{fill:#FF0000;}
	.st7{fill-rule:evenodd;clip-rule:evenodd;fill:#404040;}
	.st8{fill-rule:evenodd;clip-rule:evenodd;fill:#FFFFFF;}
	.st9{fill-rule:evenodd;clip-rule:evenodd;fill:#2867B2;}
	.st10{fill:#EE1376;}
	.st11{fill:#1DA1F2;}
	.st12{fill:#1877F2;}
	.st13{display:inline;fill:none;}
	.st14{display:inline;fill:#404040;}
	.st15{display:inline;opacity:0.3;fill:none;}
	.st16{display:inline;fill-rule:evenodd;clip-rule:evenodd;fill:#404040;}
	.st17{fill:none;stroke:#404040;stroke-width:2;stroke-linecap:round;}
</style>
<g id="Outter_Container" class="st0">
</g>
<g id="NEW" class="st0">
</g>
<g id="NEW_NO_Container">
	<g id="icon-attachment_2_">
		<g>
			<path class="st2" d="M8.5-0.0002c-3.0327,0-5.5,2.4678-5.5,5.5v6.5c0,2.2061,1.7944,4,4,4s4-1.7939,4-4v-6.5
				c0-1.3789-1.1216-2.5-2.5-2.5S6,4.1209,6,5.4998v6.5c0,0.5527,0.4478,1,1,1s1-0.4473,1-1v-6.5c0-0.2754,0.2241-0.5,0.5-0.5
				S9,5.2244,9,5.4998v6.5c0,1.1025-0.897,2-2,2s-2-0.8975-2-2v-6.5c0-1.9297,1.5703-3.5,3.5-3.5s3.5,1.5703,3.5,3.5v6.5
				c0,0.5527,0.4478,1,1,1s1-0.4473,1-1v-6.5C14,2.4675,11.5327-0.0002,8.5-0.0002z"/>
		</g>
	</g>
</g>
</svg>
