<?xml version="1.0" encoding="utf-8"?>
<!-- Generator: Adobe Illustrator 23.1.1, SVG Export Plug-In . SVG Version: 6.00 Build 0)  -->
<svg version="1.1" xmlns="http://www.w3.org/2000/svg" xmlns:xlink="http://www.w3.org/1999/xlink" x="0px" y="0px"
	 viewBox="0 0 16 16" style="enable-background:new 0 0 16 16;" xml:space="preserve">
<style type="text/css">
	.st0{display:none;}
	.st1{display:inline;}
	.st2{fill:#404040;}
	.st3{fill:#FFFFFF;}
	.st4{fill:none;}
	.st5{opacity:0.3;fill:none;}
	.st6{fill:#FF0000;}
	.st7{fill-rule:evenodd;clip-rule:evenodd;fill:#404040;}
	.st8{fill-rule:evenodd;clip-rule:evenodd;fill:#FFFFFF;}
	.st9{fill-rule:evenodd;clip-rule:evenodd;fill:#2867B2;}
	.st10{fill:#EE1376;}
	.st11{fill:#1DA1F2;}
	.st12{fill:#1877F2;}
	.st13{display:inline;fill:none;}
	.st14{display:inline;fill:#404040;}
	.st15{display:inline;opacity:0.3;fill:none;}
	.st16{display:inline;fill-rule:evenodd;clip-rule:evenodd;fill:#404040;}
	.st17{fill:none;stroke:#404040;stroke-width:2;stroke-linecap:round;}
</style>
<g id="Outter_Container" class="st0">
</g>
<g id="NEW" class="st0">
</g>
<g id="NEW_NO_Container">
	<g id="icon-basket_2_">
		<g>
			<g>
				<path class="st2" d="M12.5002,15.9999h-9c-0.4375,0-0.8242-0.2842-0.9541-0.7017l-2.5-8
					c-0.0957-0.3037-0.04-0.6343,0.1484-0.8906s0.4873-0.4077,0.8057-0.4077h14c0.3184,0,0.6172,0.1514,0.8057,0.4077
					s0.2441,0.5869,0.1484,0.8906l-2.5,8C13.3245,15.7157,12.9377,15.9999,12.5002,15.9999z M4.2356,13.9999h7.5293l1.875-6H2.3606
					L4.2356,13.9999z"/>
			</g>
			<path class="st2" d="M8.0003,5c-0.5527,0-1-0.4478-1-1V1c0-0.5522,0.4473-1,1-1s1,0.4478,1,1v3C9.0003,4.5522,8.5531,5,8.0003,5z
				"/>
		</g>
	</g>
</g>
</svg>
