<svg id="NEW_NO_Container" data-name="NEW NO Container" xmlns="http://www.w3.org/2000/svg" viewBox="0 0 16.0002 15.9999"><defs><style>.cls-1{fill:#404040;}</style></defs><title>icon-basket</title><g id="icon-basket"><path class="cls-1" d="M12.5,16h-9a.9989.9989,0,0,1-.9541-.7017l-2.5-8A1,1,0,0,1,1,6H15a1,1,0,0,1,.9541,1.2983l-2.5,8A.9988.9988,0,0,1,12.5,16ZM4.2356,14h7.5293L13.64,8H2.3606Z" transform="translate(-0.0002 0)"/><path class="cls-1" d="M8,5A1,1,0,0,1,7,4V1A1,1,0,1,1,9,1V4A1,1,0,0,1,8,5Z" transform="translate(-0.0002 0)"/></g></svg>