<svg id="NEW_NO_Container" data-name="NEW NO Container" xmlns="http://www.w3.org/2000/svg" viewBox="0 0 10 16"><defs><style>.cls-1{fill:#404040;}</style></defs><title>icon-bookmark</title><g id="icon-bookmark"><path class="cls-1" d="M12.0005,0H4A1,1,0,0,0,3,1V15.4759A.5828.5828,0,0,0,3.63,16a.6773.6773,0,0,0,.4374-.1542L8,13l3.9329,2.8458A.6776.6776,0,0,0,12.3705,16a.5828.5828,0,0,0,.63-.5241V1A1,1,0,0,0,12.0005,0ZM10.9544,2.0456V3.9769H5.0456V2.0456Zm-1.7552,9.297L8,10.475l-1.1992.8676-1.7553,1.27v-6.59h5.9088v6.59Z" transform="translate(-3.0001 0)"/></g></svg>