<svg id="NEW_NO_Container" data-name="NEW NO Container" xmlns="http://www.w3.org/2000/svg" viewBox="0 0 16 16"><defs><style>.cls-1{fill:#404040;}</style></defs><title>icon-calendar</title><g id="icon-calendar"><path class="cls-1" d="M15,2H13V1a1,1,0,1,0-2,0V2H5V1A1,1,0,0,0,3,1V2H1A1,1,0,0,0,0,3V15a.9994.9994,0,0,0,1,1H11.0264a1.01,1.01,0,0,0,.7085-.2946l.0005,0,3.97-3.9968.0024-.0025.0007-.0007c.0046-.0046.0058-.011.01-.0157a.9064.9064,0,0,0,.2674-.6239C15.9883,11.0429,16,11.0235,16,11V3A1,1,0,0,0,15,2ZM11.0264,13.5815V11h2.5642ZM14,4V9H10.0264a.9994.9994,0,0,0-1,1v4H2V4Z" transform="translate(0 -0.0002)"/></g></svg>