<svg id="NEW_NO_Container" data-name="NEW NO Container" xmlns="http://www.w3.org/2000/svg" viewBox="0 0 16.0002 14"><defs><style>.cls-1{fill:#404040;}</style></defs><title>icon-cart</title><g id="icon-cart"><circle class="cls-1" cx="5.5" cy="13" r="1"/><circle class="cls-1" cx="12.5" cy="13" r="1"/><path class="cls-1" d="M15.7989,3.3979A1.002,1.002,0,0,0,15,3H4.2472L3.9767,1.7832A1.0012,1.0012,0,0,0,3,1H1A1,1,0,0,0,1,3H2.1984L2.463,4.1933c.0029.0166.0068.0327.0107.0488l1.55,6.9747A1.0012,1.0012,0,0,0,5,12h8a1.0009,1.0009,0,0,0,.9619-.7251l2-7A1.0022,1.0022,0,0,0,15.7989,3.3979ZM12.2462,10H5.8019l-1.11-5h8.9824Z" transform="translate(-0.0001 -1)"/></g></svg>