<svg id="NEW_NO_Container" data-name="NEW NO Container" xmlns="http://www.w3.org/2000/svg" viewBox="0 0 16 12.0004"><defs><style>.cls-1{fill:#404040;}</style></defs><title>icon-check</title><g id="icon-check"><path class="cls-1" d="M15.669,2.2566a.9986.9986,0,0,0-1.4121.0742l-8.295,9.2167L1.7071,7.2927A1,1,0,1,0,.2931,8.7068l5,5c.0065.0065.0155.0084.0222.0147s.009.0153.0158.0214a.9689.9689,0,0,0,.1979.1206.9979.9979,0,0,0,.1074.0655A.9978.9978,0,0,0,6,14H6a.9982.9982,0,0,0,.387-.0805,1.0023,1.0023,0,0,0,.1151-.0764.9606.9606,0,0,0,.2049-.1361c.0068-.0068.0088-.0161.0153-.023s.0149-.0084.0209-.0151l9-10A1,1,0,0,0,15.669,2.2566Z" transform="translate(-0.0001 -1.9994)"/></g></svg>