<?xml version="1.0" encoding="utf-8"?>
<!-- Generator: Adobe Illustrator 23.1.1, SVG Export Plug-In . SVG Version: 6.00 Build 0)  -->
<svg version="1.1" xmlns="http://www.w3.org/2000/svg" xmlns:xlink="http://www.w3.org/1999/xlink" x="0px" y="0px"
	 viewBox="0 0 16 16" style="enable-background:new 0 0 16 16;" xml:space="preserve">
<style type="text/css">
	.st0{display:none;}
	.st1{display:inline;}
	.st2{fill:#404040;}
	.st3{fill:#FFFFFF;}
	.st4{fill:none;}
	.st5{opacity:0.3;fill:none;}
	.st6{fill:#FF0000;}
	.st7{fill-rule:evenodd;clip-rule:evenodd;fill:#404040;}
	.st8{fill-rule:evenodd;clip-rule:evenodd;fill:#FFFFFF;}
	.st9{fill-rule:evenodd;clip-rule:evenodd;fill:#2867B2;}
	.st10{fill:#EE1376;}
	.st11{fill:#1DA1F2;}
	.st12{fill:#1877F2;}
	.st13{display:inline;fill:none;}
	.st14{display:inline;fill:#404040;}
	.st15{display:inline;opacity:0.3;fill:none;}
	.st16{display:inline;fill-rule:evenodd;clip-rule:evenodd;fill:#404040;}
	.st17{fill:none;stroke:#404040;stroke-width:2;stroke-linecap:round;}
</style>
<g id="Outter_Container" class="st0">
</g>
<g id="NEW" class="st0">
</g>
<g id="NEW_NO_Container">
	<g id="icon-collapse_1_">
		<g>
			<g>
				<path class="st2" d="M15,5.02H12.414l3.293-3.293c0.3906-0.3906,0.3906-1.0234,0-1.4141c-0.3906-0.3906-1.0234-0.3906-1.4141,0
					L11,3.6059V1.02c0-0.5527-0.4473-1-1-1s-1,0.4473-1,1v5c0,0.5527,0.4473,1,1,1h5c0.5527,0,1-0.4473,1-1S15.5527,5.02,15,5.02z"
					/>
				<path class="st2" d="M6,9.02H1c-0.5522,0-1,0.4473-1,1s0.4478,1,1,1h2.5859l-3.293,3.293c-0.3906,0.3906-0.3906,1.0234,0,1.4141
					C0.4882,15.9223,0.7441,16.02,1,16.02s0.5117-0.0977,0.707-0.293L5,12.434V15.02c0,0.5527,0.4478,1,1,1s1-0.4473,1-1v-5
					C7,9.4672,6.5522,9.02,6,9.02z"/>
			</g>
		</g>
	</g>
</g>
</svg>
