<?xml version="1.0" encoding="utf-8"?>
<!-- Generator: Adobe Illustrator 23.1.1, SVG Export Plug-In . SVG Version: 6.00 Build 0)  -->
<svg version="1.1" xmlns="http://www.w3.org/2000/svg" xmlns:xlink="http://www.w3.org/1999/xlink" x="0px" y="0px"
	 viewBox="0 0 16 16" style="enable-background:new 0 0 16 16;" xml:space="preserve">
<style type="text/css">
	.st0{display:none;}
	.st1{display:inline;}
	.st2{fill:#404040;}
	.st3{fill:#FFFFFF;}
	.st4{fill:none;}
	.st5{opacity:0.3;fill:none;}
	.st6{fill:#FF0000;}
	.st7{fill-rule:evenodd;clip-rule:evenodd;fill:#404040;}
	.st8{fill-rule:evenodd;clip-rule:evenodd;fill:#FFFFFF;}
	.st9{fill-rule:evenodd;clip-rule:evenodd;fill:#2867B2;}
	.st10{fill:#EE1376;}
	.st11{fill:#1DA1F2;}
	.st12{fill:#1877F2;}
	.st13{display:inline;fill:none;}
	.st14{display:inline;fill:#404040;}
	.st15{display:inline;opacity:0.3;fill:none;}
	.st16{display:inline;fill-rule:evenodd;clip-rule:evenodd;fill:#404040;}
	.st17{fill:none;stroke:#404040;stroke-width:2;stroke-linecap:round;}
</style>
<g id="Outter_Container" class="st0">
</g>
<g id="NEW" class="st0">
</g>
<g id="NEW_NO_Container">
	<g id="icon-comment_2_">
		<g>
			<path class="st2" d="M15,0.0002H1c-0.5522,0-1,0.4473-1,1v14c0,0.1302,0.0266,0.2599,0.0771,0.3821
				c0.1013,0.2447,0.2962,0.4395,0.5408,0.5408C0.7402,15.9737,0.8698,16.0002,1,16.0002s0.2598-0.0266,0.382-0.0771
				c0.1226-0.0508,0.2333-0.124,0.3257-0.2166l3.7064-3.7064H15c0.5522,0,1-0.4473,1-1v-10C16,0.4475,15.5522,0.0002,15,0.0002z
				 M5,10.0002c-0.1301,0-0.2598,0.0265-0.3819,0.077c-0.1227,0.0508-0.2335,0.1241-0.3258,0.2166L2,12.5862V2.0002h12v8H5z"/>
		</g>
	</g>
</g>
</svg>
