<svg id="NEW_NO_Container" data-name="NEW NO Container" xmlns="http://www.w3.org/2000/svg" viewBox="0 0 16 16.0003"><defs><style>.cls-1{fill:#404040;}</style></defs><title>icon-cut</title><g id="icon-cut"><path class="cls-1" d="M9.4139,8l6.2929-6.2933A1,1,0,1,0,14.2928.2927L8,6.586l-2.3-2.3A2.9936,2.9936,0,1,0,3,6a2.9721,2.9721,0,0,0,1.2859-.3l2.3,2.3-2.3,2.3A2.9937,2.9937,0,1,0,6,13a2.9714,2.9714,0,0,0-.3-1.2859l2.3-2.3,6.2929,6.2927a1,1,0,0,0,1.414-1.4141ZM2,3A1,1,0,1,1,3,4,1.0011,1.0011,0,0,1,2,3ZM3,14a1,1,0,1,1,1-1A1.0011,1.0011,0,0,1,3,14Z" transform="translate(0.0002 0.0002)"/></g></svg>