<?xml version="1.0" encoding="utf-8"?>
<!-- Generator: Adobe Illustrator 23.1.1, SVG Export Plug-In . SVG Version: 6.00 Build 0)  -->
<svg version="1.1" xmlns="http://www.w3.org/2000/svg" xmlns:xlink="http://www.w3.org/1999/xlink" x="0px" y="0px"
	 viewBox="0 0 16 16" style="enable-background:new 0 0 16 16;" xml:space="preserve">
<style type="text/css">
	.st0{display:none;}
	.st1{display:inline;}
	.st2{fill:#404040;}
	.st3{fill:#FFFFFF;}
	.st4{fill:none;}
	.st5{opacity:0.3;fill:none;}
	.st6{fill:#FF0000;}
	.st7{fill-rule:evenodd;clip-rule:evenodd;fill:#404040;}
	.st8{fill-rule:evenodd;clip-rule:evenodd;fill:#FFFFFF;}
	.st9{fill-rule:evenodd;clip-rule:evenodd;fill:#2867B2;}
	.st10{fill:#EE1376;}
	.st11{fill:#1DA1F2;}
	.st12{fill:#1877F2;}
	.st13{display:inline;fill:none;}
	.st14{display:inline;fill:#404040;}
	.st15{display:inline;opacity:0.3;fill:none;}
	.st16{display:inline;fill-rule:evenodd;clip-rule:evenodd;fill:#404040;}
	.st17{fill:none;stroke:#404040;stroke-width:2;stroke-linecap:round;}
</style>
<g id="Outter_Container" class="st0">
</g>
<g id="NEW" class="st0">
</g>
<g id="NEW_NO_Container">
	<g id="icon-cut_2_">
		<g>
			<path class="st2" d="M9.4139,8.0001l6.293-6.2933c0.3906-0.3906,0.3906-1.0234,0-1.4141s-1.0234-0.3906-1.4141,0L7.9998,6.586
				L5.6998,4.2861c0.1868-0.3911,0.3-0.8237,0.3-1.2861c0-1.6568-1.3431-3-3-3s-3,1.3432-3,3c0,1.6569,1.3431,3,3,3
				c0.4622,0,0.8948-0.1132,1.2859-0.2999l2.3,2.3l-2.2999,2.3c-0.3911-0.1868-0.8237-0.3-1.2861-0.3c-1.6569,0-3,1.3432-3,3
				c0,1.6569,1.3431,3,3,3s3-1.3431,3-3c0-0.4622-0.1132-0.8948-0.2999-1.2859l2.3-2.3l6.2929,6.2927
				c0.1953,0.1953,0.4512,0.293,0.707,0.293s0.5117-0.0977,0.707-0.293c0.3906-0.3906,0.3906-1.0234,0-1.4141L9.4139,8.0001z
				 M1.9998,3.0001c0-0.5514,0.4486-1,1-1s1,0.4486,1,1s-0.4486,1-1,1S1.9998,3.5515,1.9998,3.0001z M2.9998,14.0001
				c-0.5514,0-1-0.4486-1-1s0.4486-1,1-1s1,0.4486,1,1S3.5512,14.0001,2.9998,14.0001z"/>
		</g>
	</g>
</g>
</svg>
