<svg id="NEW_NO_Container" data-name="NEW NO Container" xmlns="http://www.w3.org/2000/svg" viewBox="0 0 16 16"><defs><style>.cls-1{fill:#404040;}</style></defs><title>icon-discussion</title><g id="icon-discussion"><path class="cls-1" d="M15,0H1A1,1,0,0,0,0,1V15a1.0013,1.0013,0,0,0,1.7077.7064L5.4141,12H15a1,1,0,0,0,1-1V1A1,1,0,0,0,15,0ZM5,10a1.0138,1.0138,0,0,0-.7077.2937L2,12.5862V2H14v8Z" transform="translate(0 -0.0002)"/><path class="cls-1" d="M11.5,3.5h-7a1,1,0,1,0,0,2h7a1,1,0,0,0,0-2Z" transform="translate(0 -0.0002)"/><path class="cls-1" d="M10,6.5H4.5a1,1,0,0,0,0,2H10a1,1,0,0,0,0-2Z" transform="translate(0 -0.0002)"/></g></svg>