<svg id="NEW_NO_Container" data-name="NEW NO Container" xmlns="http://www.w3.org/2000/svg" viewBox="0 0 16 16"><defs><style>.cls-1{fill:#404040;}</style></defs><title>icon-download</title><g id="icon-download"><path class="cls-1" d="M12.7068,7.2927a1,1,0,0,0-1.414,0l-2.314,2.314L9,1.0017A1,1,0,0,0,8.0018,0H8a1,1,0,0,0-1,.998l-.021,8.567L4.7068,7.2927a1,1,0,0,0-1.414,1.4141l4,4a.9995.9995,0,0,0,1.414,0l4-4A1,1,0,0,0,12.7068,7.2927Z" transform="translate(0.0002 0.0002)"/><path class="cls-1" d="M15,16H1a1,1,0,0,1,0-2H15a1,1,0,0,1,0,2Z" transform="translate(0.0002 0.0002)"/></g></svg>