<?xml version="1.0" encoding="utf-8"?>
<!-- Generator: Adobe Illustrator 23.1.1, SVG Export Plug-In . SVG Version: 6.00 Build 0)  -->
<svg version="1.1" xmlns="http://www.w3.org/2000/svg" xmlns:xlink="http://www.w3.org/1999/xlink" x="0px" y="0px"
	 viewBox="0 0 16 16" style="enable-background:new 0 0 16 16;" xml:space="preserve">
<style type="text/css">
	.st0{display:none;}
	.st1{display:inline;}
	.st2{fill:#404040;}
	.st3{fill:#FFFFFF;}
	.st4{fill:none;}
	.st5{opacity:0.3;fill:none;}
	.st6{fill:#FF0000;}
	.st7{fill-rule:evenodd;clip-rule:evenodd;fill:#404040;}
	.st8{fill-rule:evenodd;clip-rule:evenodd;fill:#FFFFFF;}
	.st9{fill-rule:evenodd;clip-rule:evenodd;fill:#2867B2;}
	.st10{fill:#EE1376;}
	.st11{fill:#1DA1F2;}
	.st12{fill:#1877F2;}
	.st13{display:inline;fill:none;}
	.st14{display:inline;fill:#404040;}
	.st15{display:inline;opacity:0.3;fill:none;}
	.st16{display:inline;fill-rule:evenodd;clip-rule:evenodd;fill:#404040;}
	.st17{fill:none;stroke:#404040;stroke-width:2;stroke-linecap:round;}
</style>
<g id="Outter_Container" class="st0">
</g>
<g id="NEW" class="st0">
</g>
<g id="NEW_NO_Container">
	<g id="icon-download_2_">
		<g>
			<g>
				<path class="st2" d="M12.7068,7.2927c-0.3906-0.3906-1.0234-0.3906-1.4141,0l-2.314,2.314l0.021-8.605
					c0.001-0.5518-0.4453-1.001-0.998-1.002c0,0-0.001,0-0.002,0c-0.5508,0-0.999,0.4463-1,0.998l-0.021,8.567l-2.272-2.272
					c-0.3906-0.3906-1.0234-0.3906-1.4141,0s-0.3906,1.0234,0,1.4141l4,4c0.1953,0.1953,0.4512,0.293,0.707,0.293
					s0.5117-0.0977,0.707-0.293l4-4C13.0975,8.3162,13.0975,7.6833,12.7068,7.2927z"/>
				<path class="st2" d="M14.9998,15.9998h-14c-0.5527,0-1-0.4473-1-1s0.4473-1,1-1h14c0.5527,0,1,0.4473,1,1
					S15.5525,15.9998,14.9998,15.9998z"/>
			</g>
		</g>
	</g>
</g>
</svg>
