<?xml version="1.0" encoding="utf-8"?>
<!-- Generator: Adobe Illustrator 23.1.1, SVG Export Plug-In . SVG Version: 6.00 Build 0)  -->
<svg version="1.1" xmlns="http://www.w3.org/2000/svg" xmlns:xlink="http://www.w3.org/1999/xlink" x="0px" y="0px"
	 viewBox="0 0 16 16" style="enable-background:new 0 0 16 16;" xml:space="preserve">
<style type="text/css">
	.st0{display:none;}
	.st1{display:inline;}
	.st2{fill:#404040;}
	.st3{fill:#FFFFFF;}
	.st4{fill:none;}
	.st5{opacity:0.3;fill:none;}
	.st6{fill:#FF0000;}
	.st7{fill-rule:evenodd;clip-rule:evenodd;fill:#404040;}
	.st8{fill-rule:evenodd;clip-rule:evenodd;fill:#FFFFFF;}
	.st9{fill-rule:evenodd;clip-rule:evenodd;fill:#2867B2;}
	.st10{fill:#EE1376;}
	.st11{fill:#1DA1F2;}
	.st12{fill:#1877F2;}
	.st13{display:inline;fill:none;}
	.st14{display:inline;fill:#404040;}
	.st15{display:inline;opacity:0.3;fill:none;}
	.st16{display:inline;fill-rule:evenodd;clip-rule:evenodd;fill:#404040;}
	.st17{fill:none;stroke:#404040;stroke-width:2;stroke-linecap:round;}
</style>
<g id="Outter_Container" class="st0">
</g>
<g id="NEW" class="st0">
</g>
<g id="NEW_NO_Container">
	<g id="icon-edit_2_">
		<g>
			<path class="st2" d="M15.707,3.2932l-3-3c-0.3906-0.3906-1.0234-0.3906-1.4141,0l-11,11C0.1055,11.4807,0,11.7346,0,12.0002v3
				c0,0.5527,0.4473,1,1,1h3c0.2656,0,0.5195-0.1055,0.707-0.293l11-11C16.0977,4.3166,16.0977,3.6838,15.707,3.2932z
				 M3.5859,14.0002H2v-1.5859l7.5-7.5l1.5859,1.5859L3.5859,14.0002z M12.5,5.0862l-1.5859-1.5859L12,2.4143l1.5859,1.5859
				L12.5,5.0862z"/>
		</g>
	</g>
</g>
</svg>
