<svg id="NEW_NO_Container" data-name="NEW NO Container" xmlns="http://www.w3.org/2000/svg" viewBox="0 0 16 16"><defs><style>.cls-1{fill:#404040;}</style></defs><title>icon-edit</title><g id="icon-edit"><path class="cls-1" d="M15.707,3.2932l-3-3a1,1,0,0,0-1.414,0l-11,11A.9993.9993,0,0,0,0,12v3a.9994.9994,0,0,0,1,1H4a.9992.9992,0,0,0,.707-.2929l11-11A1,1,0,0,0,15.707,3.2932ZM3.5859,14H2V12.4143l7.5-7.5L11.0859,6.5ZM12.5,5.0862,10.9141,3.5,12,2.4143,13.5859,4Z" transform="translate(0 -0.0002)"/></g></svg>