<svg id="NEW_NO_Container" data-name="NEW NO Container" xmlns="http://www.w3.org/2000/svg" viewBox="0 0 16 12"><defs><style>.cls-1{fill:#404040;}</style></defs><title>icon-email</title><g id="icon-email"><path class="cls-1" d="M15,2H1A1,1,0,0,0,0,3V13a1,1,0,0,0,1,1H15a1,1,0,0,0,1-1V3A1,1,0,0,0,15,2ZM8,7.6984l-4.3315-3.61h8.6626ZM2.0893,11.911V5.3756L7.36,9.768a.9569.9569,0,0,0,.1532.0875.9748.9748,0,0,0,.1084.0619A.992.992,0,0,0,8,10l0,0,.0005,0a.8483.8483,0,0,0,.4865-.1445.9657.9657,0,0,0,.1532-.0875l5.2709-4.3921V11.911Z" transform="translate(-0.0003 -2)"/></g></svg>