<svg id="NEW_NO_Container" data-name="NEW NO Container" xmlns="http://www.w3.org/2000/svg" viewBox="0 0 16 16"><defs><style>.cls-1{fill:#404040;}</style></defs><title>icon-expand</title><g id="icon-expand"><path class="cls-1" d="M15,0H10a1,1,0,0,0,0,2h2.5859L9.2928,5.2927a1,1,0,1,0,1.414,1.4141L14,3.4138V6a1,1,0,1,0,2,0V1A.9994.9994,0,0,0,15,0Z" transform="translate(0.0002 0.0002)"/><path class="cls-1" d="M6.7068,9.2927a1,1,0,0,0-1.414,0L2,12.5857V10a1,1,0,0,0-2,0v5a1,1,0,0,0,1,1H6a1,1,0,1,0,0-2H3.4139l3.2929-3.293A1,1,0,0,0,6.7068,9.2927Z" transform="translate(0.0002 0.0002)"/></g></svg>