<?xml version="1.0" encoding="utf-8"?>
<!-- Generator: Adobe Illustrator 23.1.1, SVG Export Plug-In . SVG Version: 6.00 Build 0)  -->
<svg version="1.1" xmlns="http://www.w3.org/2000/svg" xmlns:xlink="http://www.w3.org/1999/xlink" x="0px" y="0px"
	 viewBox="0 0 16 16" style="enable-background:new 0 0 16 16;" xml:space="preserve">
<style type="text/css">
	.st0{display:none;}
	.st1{display:inline;}
	.st2{fill:#404040;}
	.st3{fill:#FFFFFF;}
	.st4{fill:none;}
	.st5{opacity:0.3;fill:none;}
	.st6{fill:#FF0000;}
	.st7{fill-rule:evenodd;clip-rule:evenodd;fill:#404040;}
	.st8{fill-rule:evenodd;clip-rule:evenodd;fill:#FFFFFF;}
	.st9{fill-rule:evenodd;clip-rule:evenodd;fill:#2867B2;}
	.st10{fill:#EE1376;}
	.st11{fill:#1DA1F2;}
	.st12{fill:#1877F2;}
	.st13{display:inline;fill:none;}
	.st14{display:inline;fill:#404040;}
	.st15{display:inline;opacity:0.3;fill:none;}
	.st16{display:inline;fill-rule:evenodd;clip-rule:evenodd;fill:#404040;}
	.st17{fill:none;stroke:#404040;stroke-width:2;stroke-linecap:round;}
</style>
<g id="Outter_Container" class="st0">
</g>
<g id="NEW" class="st0">
</g>
<g id="NEW_NO_Container">
	<g id="icon-expand_2_">
		<g>
			<g>
				<path class="st2" d="M14.9998-0.0002h-5c-0.5527,0-1,0.4473-1,1s0.4473,1,1,1h2.5859l-3.293,3.293
					c-0.3906,0.3906-0.3906,1.0234,0,1.4141c0.1953,0.1953,0.4512,0.293,0.707,0.293s0.5117-0.0977,0.707-0.293l3.293-3.293v2.5859
					c0,0.5527,0.4473,1,1,1s1-0.4473,1-1v-5C15.9998,0.447,15.5525-0.0002,14.9998-0.0002z"/>
				<path class="st2" d="M6.7068,9.2927c-0.3906-0.3906-1.0234-0.3906-1.4141,0l-3.293,3.293V9.9998c0-0.5527-0.4473-1-1-1
					s-1,0.4473-1,1v5c0,0.5527,0.4473,1,1,1h5c0.5527,0,1-0.4473,1-1s-0.4473-1-1-1H3.4139l3.293-3.293
					C7.0975,10.3162,7.0975,9.6833,6.7068,9.2927z"/>
			</g>
		</g>
	</g>
</g>
</svg>
