<svg id="NEW_NO_Container" data-name="NEW NO Container" xmlns="http://www.w3.org/2000/svg" viewBox="0 0 15.9925 13.604"><defs><style>.cls-1{fill:#404040;}</style></defs><title>icon-favorite</title><g id="icon-favorite"><path class="cls-1" d="M11.5059,3a2.5354,2.5354,0,0,1,1.7839.7116,2.3229,2.3229,0,0,1-.0218,3.3566l-.2982.3-4.9651,4.84L3.0537,7.39l-.3418-.3433A2.3166,2.3166,0,0,1,2.7037,3.72,2.5984,2.5984,0,0,1,6.28,3.7118l.33.3215L8.0276,5.4146l1.396-1.4029.2983-.3A2.5356,2.5356,0,0,1,11.5059,3m0-2a4.5437,4.5437,0,0,0-3.18,1.2794l-.32.3216-.33-.3216a4.5981,4.5981,0,0,0-6.36,0,4.3165,4.3165,0,0,0,0,6.1994l.32.3217,5.672,5.52A1,1,0,0,0,8.7033,14.32l5.6625-5.52.32-.3217a4.3222,4.3222,0,0,0,0-6.1994A4.5437,4.5437,0,0,0,11.5059,1Z" transform="translate(-0.0034 -1)"/></g></svg>