<svg id="NEW_NO_Container" data-name="NEW NO Container" xmlns="http://www.w3.org/2000/svg" viewBox="0 0 16 16"><defs><style>.cls-1{fill:#404040;}</style></defs><title>icon-feedback</title><g id="icon-feedback"><path class="cls-1" d="M16,5a1,1,0,0,0-1-1H12V1a1,1,0,0,0-1-1H1A1,1,0,0,0,0,1V8.1428a1,1,0,0,0,1,1H4v3a1,1,0,0,0,1,1h6.7289l2.5634,2.5638A1.0013,1.0013,0,0,0,16,15Zm-3.475,6.22a1,1,0,0,0-.3819-.077H6V6h8v6.5857l-1.1492-1.1495A1,1,0,0,0,12.525,11.22ZM2,7.1428V2h8V4H5A1,1,0,0,0,4,5V7.1428Z" transform="translate(0 -0.0002)"/></g></svg>