<svg id="NEW_NO_Container" data-name="NEW NO Container" xmlns="http://www.w3.org/2000/svg" viewBox="0 0 16 16"><defs><style>.cls-1{fill:#404040;}</style></defs><title>icon-filter</title><g id="icon-filter"><path class="cls-1" d="M1,3.9994h.1868c.0314.0879.0528.178.0926.2637A3.01,3.01,0,0,0,4,6a2.9915,2.9915,0,0,0,2.8232-2H15a1,1,0,0,0,0-2H6.8119c-.0312-.0877-.0513-.177-.0913-.263A3.01,3.01,0,0,0,3.9993,0h0A3,3,0,0,0,1.1827,1.9692c-.0036.01-.0043.02-.0078.03H1a1,1,0,0,0,0,2ZM3.5789,2.093a1,1,0,1,1-.4858,1.3278A.9951.9951,0,0,1,3.5789,2.093Z" transform="translate(0.0002 0.0002)"/><path class="cls-1" d="M15,6.9994h-.1869c-.0313-.0877-.0526-.1776-.0923-.2631A3.01,3.01,0,0,0,11.9993,5h0A3,3,0,0,0,9.1827,6.9692c-.0036.01-.0042.02-.0078.03H1a1,1,0,0,0,0,2H9.1866c.0314.0879.0528.178.0926.2637A3.01,3.01,0,0,0,12.0005,11a3.0007,3.0007,0,0,0,2.8166-1.97c.0038-.01.0044-.0207.008-.0308H15a1,1,0,0,0,0-2ZM12.421,8.9065a1,1,0,1,1,.4857-1.3278A.9974.9974,0,0,1,12.421,8.9065Z" transform="translate(0.0002 0.0002)"/><path class="cls-1" d="M15,11.9994H9.8119c-.0312-.0877-.0513-.177-.0913-.263A3.01,3.01,0,0,0,6.9993,10h0a3,3,0,0,0-2.8165,1.9694c-.0036.01-.0043.02-.0078.03H1a1,1,0,0,0,0,2H4.1866c.0314.0879.0528.178.0926.2637A3.01,3.01,0,0,0,7.0005,16a2.9915,2.9915,0,0,0,2.8232-2H15a1,1,0,0,0,0-2ZM7.421,13.9065a1,1,0,1,1,.4857-1.3278A.9974.9974,0,0,1,7.421,13.9065Z" transform="translate(0.0002 0.0002)"/></g></svg>