<?xml version="1.0" encoding="utf-8"?>
<!-- Generator: Adobe Illustrator 23.1.1, SVG Export Plug-In . SVG Version: 6.00 Build 0)  -->
<svg version="1.1" xmlns="http://www.w3.org/2000/svg" xmlns:xlink="http://www.w3.org/1999/xlink" x="0px" y="0px"
	 viewBox="0 0 16 16" style="enable-background:new 0 0 16 16;" xml:space="preserve">
<style type="text/css">
	.st0{display:none;}
	.st1{display:inline;}
	.st2{fill:#404040;}
	.st3{fill:#FFFFFF;}
	.st4{fill:none;}
	.st5{opacity:0.3;fill:none;}
	.st6{fill:#FF0000;}
	.st7{fill-rule:evenodd;clip-rule:evenodd;fill:#404040;}
	.st8{fill-rule:evenodd;clip-rule:evenodd;fill:#FFFFFF;}
	.st9{fill-rule:evenodd;clip-rule:evenodd;fill:#2867B2;}
	.st10{fill:#EE1376;}
	.st11{fill:#1DA1F2;}
	.st12{fill:#1877F2;}
	.st13{display:inline;fill:none;}
	.st14{display:inline;fill:#404040;}
	.st15{display:inline;opacity:0.3;fill:none;}
	.st16{display:inline;fill-rule:evenodd;clip-rule:evenodd;fill:#404040;}
	.st17{fill:none;stroke:#404040;stroke-width:2;stroke-linecap:round;}
</style>
<g id="Outter_Container" class="st0">
</g>
<g id="NEW" class="st0">
</g>
<g id="NEW_NO_Container">
	<g id="icon-filter_2_">
		<g>
			<path class="st2" d="M0.9998,3.9994h0.1868c0.0314,0.0879,0.0527,0.178,0.0925,0.2637C1.769,5.3181,2.8373,5.9998,4.0005,5.9998
				c0.4388,0,0.8637-0.094,1.2628-0.2793c0.7603-0.3531,1.3005-0.9871,1.5604-1.7211h8.1761c0.5522,0,1-0.4473,1-1s-0.4478-1-1-1
				H6.8119c-0.0312-0.0876-0.0513-0.177-0.0912-0.263c-0.4899-1.055-1.558-1.7366-2.7213-1.7366H3.9992
				c-0.4389,0-0.8637,0.0939-1.2627,0.2792C2.0098,0.6165,1.4579,1.2167,1.1827,1.9692C1.1791,1.9791,1.1784,1.9895,1.1749,1.9994
				h-0.175c-0.5522,0-1,0.4473-1,1S0.4476,3.9994,0.9998,3.9994z M3.5789,2.093c0.1362-0.0632,0.2795-0.0932,0.4204-0.0932
				c0.3771-0.0001,0.7381,0.2144,0.9074,0.5789C5.1392,3.0795,4.9217,3.674,4.421,3.9065C4.2847,3.9697,4.1415,3.9997,4.0005,3.9997
				c-0.3771,0-0.7381-0.2144-0.9074-0.5789C2.8606,2.92,3.0781,2.3255,3.5789,2.093z"/>
			<path class="st2" d="M14.9998,6.9994h-0.1869c-0.0313-0.0876-0.0526-0.1776-0.0923-0.2631
				c-0.4899-1.0549-1.558-1.7366-2.7213-1.7366h-0.0001c-0.4389,0-0.8637,0.0939-1.2627,0.2792
				c-0.7267,0.3375-1.2786,0.9377-1.5538,1.6902C9.1791,6.9791,9.1785,6.9895,9.1749,6.9994H0.9998c-0.5522,0-1,0.4473-1,1
				s0.4478,1,1,1h8.1868c0.0314,0.0879,0.0527,0.178,0.0925,0.2637c0.4899,1.0549,1.5581,1.7366,2.7214,1.7366
				c0.4388,0,0.8637-0.094,1.2628-0.2793c0.7267-0.3375,1.2786-0.9377,1.5538-1.6902c0.0037-0.0101,0.0044-0.0207,0.008-0.0308
				h0.1747c0.5522,0,1-0.4473,1-1S15.5521,6.9994,14.9998,6.9994z M12.421,8.9065c-0.1362,0.0632-0.2795,0.0932-0.4204,0.0932
				c-0.3771,0-0.7381-0.2144-0.9074-0.5789C10.8606,7.92,11.0781,7.3255,11.5789,7.093c0.1362-0.0632,0.2795-0.0932,0.4204-0.0932
				c0.3771-0.0001,0.7381,0.2144,0.9074,0.5789C13.1392,8.0795,12.9217,8.674,12.421,8.9065z"/>
			<path class="st2" d="M14.9998,11.9994H9.8119c-0.0312-0.0876-0.0513-0.177-0.0912-0.263
				c-0.4899-1.055-1.558-1.7366-2.7213-1.7366H6.9992c-0.4389,0-0.8637,0.0939-1.2627,0.2792
				c-0.7267,0.3375-1.2786,0.9377-1.5538,1.6902c-0.0036,0.0099-0.0043,0.0203-0.0078,0.0302h-3.175c-0.5522,0-1,0.4473-1,1
				s0.4478,1,1,1h3.1868c0.0314,0.0879,0.0527,0.178,0.0925,0.2637c0.4899,1.0549,1.5581,1.7366,2.7214,1.7366
				c0.4388,0,0.8637-0.094,1.2628-0.2793c0.7603-0.3531,1.3005-0.9871,1.5604-1.7211h5.1761c0.5522,0,1-0.4473,1-1
				S15.5521,11.9994,14.9998,11.9994z M7.421,13.9065c-0.1362,0.0632-0.2795,0.0932-0.4204,0.0932
				c-0.3771,0-0.7381-0.2144-0.9074-0.5789C5.8606,12.92,6.0781,12.3255,6.5789,12.093c0.1362-0.0632,0.2795-0.0932,0.4204-0.0932
				c0.3771-0.0001,0.7381,0.2144,0.9074,0.5789C8.1392,13.0795,7.9217,13.674,7.421,13.9065z"/>
		</g>
	</g>
</g>
</svg>
