<svg id="NEW_NO_Container" data-name="NEW NO Container" xmlns="http://www.w3.org/2000/svg" viewBox="0 0 15.9999 16"><defs><style>.cls-1{fill:#404040;}</style></defs><title>icon-flag</title><g id="icon-flag"><path class="cls-1" d="M1,16a1,1,0,0,1-1-1V1A1,1,0,0,1,1,0H8A1,1,0,0,1,9,1V3h6a1,1,0,0,1,.814,1.5811L13.7288,7.5l2.085,2.919A1,1,0,0,1,15,12H8a1,1,0,0,1-1-1V9H2v6A1,1,0,0,1,1,16Zm8-6h4.0567L11.6858,8.0812a1.0006,1.0006,0,0,1,0-1.1621L13.0565,5H9ZM2,7H7V2H2Z" transform="translate(0.0002 -0.0001)"/></g></svg>