<svg id="NEW_NO_Container" data-name="NEW NO Container" xmlns="http://www.w3.org/2000/svg" viewBox="0 0 16 12"><defs><style>.cls-1{fill:#404040;}</style></defs><title>icon-gallery</title><g id="icon-gallery"><path class="cls-1" d="M14.5,2H1.5A1.5016,1.5016,0,0,0,0,3.5v9A1.5017,1.5017,0,0,0,1.5,14h13A1.5016,1.5016,0,0,0,16,12.5v-9A1.5016,1.5016,0,0,0,14.5,2ZM10,7.72,13.0565,12H6.9432ZM4.4856,12H2.868L5,8.8023l.8544,1.2811ZM14,4V9.88L10.8133,5.4185a1.0367,1.0367,0,0,0-1.627,0L7.0975,8.343,5.8318,6.4449a1.0377,1.0377,0,0,0-1.664,0L2,9.6965V4Z" transform="translate(0.0002 -1.9996)"/></g></svg>