<?xml version="1.0" encoding="utf-8"?>
<!-- Generator: Adobe Illustrator 23.1.1, SVG Export Plug-In . SVG Version: 6.00 Build 0)  -->
<svg version="1.1" xmlns="http://www.w3.org/2000/svg" xmlns:xlink="http://www.w3.org/1999/xlink" x="0px" y="0px"
	 viewBox="0 0 16 16" style="enable-background:new 0 0 16 16;" xml:space="preserve">
<style type="text/css">
	.st0{display:none;}
	.st1{display:inline;}
	.st2{fill:#404040;}
	.st3{fill:#FFFFFF;}
	.st4{fill:none;}
	.st5{opacity:0.3;fill:none;}
	.st6{fill:#FF0000;}
	.st7{fill-rule:evenodd;clip-rule:evenodd;fill:#404040;}
	.st8{fill-rule:evenodd;clip-rule:evenodd;fill:#FFFFFF;}
	.st9{fill-rule:evenodd;clip-rule:evenodd;fill:#2867B2;}
	.st10{fill:#EE1376;}
	.st11{fill:#1DA1F2;}
	.st12{fill:#1877F2;}
	.st13{display:inline;fill:none;}
	.st14{display:inline;fill:#404040;}
	.st15{display:inline;opacity:0.3;fill:none;}
	.st16{display:inline;fill-rule:evenodd;clip-rule:evenodd;fill:#404040;}
	.st17{fill:none;stroke:#404040;stroke-width:2;stroke-linecap:round;}
</style>
<g id="Outter_Container" class="st0">
</g>
<g id="NEW" class="st0">
</g>
<g id="NEW_NO_Container">
	<g id="icon-graph_1_">
		<path class="st2" d="M15,14.0197V0.52c0-0.2761-0.2239-0.5-0.5-0.5h-5C9.2238,0.02,9,0.2438,9,0.52v4.5H5.5
			C5.2238,5.02,5,5.2438,5,5.52v4.5H1.5c-0.2761,0-0.5,0.2239-0.5,0.5v3.4997c-0.5527,0-1,0.4473-1,1s0.4473,1,1,1V16.02h4h2h2h2h4
			v-0.0003c0.5527,0,1-0.4473,1-1S15.5527,14.0197,15,14.0197z M11,2.02h2v11.9997h-2V5.52V2.02z M7,7.02h2v6.9997H7V10.52V7.02z
			 M3,12.02h2v1.9997H3V12.02z"/>
	</g>
</g>
</svg>
