<svg id="NEW_NO_Container" data-name="NEW NO Container" xmlns="http://www.w3.org/2000/svg" viewBox="0 0 16.0004 16"><defs><style>.cls-1{fill:none;stroke:#404040;stroke-linecap:round;stroke-width:2px;}.cls-2{fill:#404040;}</style></defs><title>icon-graph</title><g id="icon-graph"><path class="cls-1" d="M5,11" transform="translate(0.0002 0.0002)"/><path class="cls-2" d="M15,14H2V1A1,1,0,0,0,0,1V15a1,1,0,0,0,1,1H15a1,1,0,0,0,0-2Z" transform="translate(0.0002 0.0002)"/><path class="cls-2" d="M3.7571,12.97A.9982.9982,0,0,0,4.97,12.2419l.8516-3.4052,6.4321-1.4844,1.3914-3.8256.46.92a1,1,0,1,0,1.789-.8945l-1.5-3A1.0027,1.0027,0,0,0,13.0525.1052l-3,1.5a1,1,0,0,0,.8946,1.7891l.7559-.378-.9571,2.6309L4.178,7.1628,3.03,11.7576A1,1,0,0,0,3.7571,12.97Z" transform="translate(0.0002 0.0002)"/></g></svg>