<svg id="NEW_NO_Container" data-name="NEW NO Container" xmlns="http://www.w3.org/2000/svg" viewBox="0 0 16.0002 16.0002"><defs><style>.cls-1{fill:#404040;}</style></defs><title>icon-home</title><g id="icon-home"><path class="cls-1" d="M15.6511,6.241l-7-6a.9994.9994,0,0,0-1.3017,0l-7,6a1,1,0,0,0-.1084,1.41A.9846.9846,0,0,0,1,7.9877V15a1,1,0,0,0,1,1H14a1,1,0,0,0,1-1V8a1,1,0,0,0,.6509-1.7591ZM8,10a1,1,0,0,0-1,1v3H3V6.6031l5-4.286,5,4.286V14H9V11A1,1,0,0,0,8,10Z" transform="translate(-0.0002 0)"/></g></svg>