<svg id="NEW_NO_Container" data-name="NEW NO Container" xmlns="http://www.w3.org/2000/svg" viewBox="0 0 16 16"><defs><style>.cls-1{fill:#404040;}</style></defs><title>icon-info</title><g id="icon-info"><path class="cls-1" d="M8,2A6,6,0,1,1,2,8,6.0068,6.0068,0,0,1,8,2M8,0a8,8,0,1,0,8,8A8,8,0,0,0,8,0Z" transform="translate(-0.0003 0)"/><path class="cls-1" d="M8,12a1,1,0,0,1-1-1V8A1,1,0,0,1,9,8v3A1,1,0,0,1,8,12Z" transform="translate(-0.0003 0)"/><circle class="cls-1" cx="8" cy="5" r="1"/></g></svg>