<svg id="NEW_NO_Container" data-name="NEW NO Container" xmlns="http://www.w3.org/2000/svg" viewBox="0 0 15.9997 16.0004"><defs><style>.cls-1{fill:#404040;}</style></defs><title>icon-key</title><g id="icon-key"><path class="cls-1" d="M15.5807,4.1865,12.5123,1.9948l.2959-.4069A1,1,0,0,0,11.191.4121L5.4648,8.2859A3.9953,3.9953,0,1,0,8,12,3.9628,3.9628,0,0,0,7.0752,9.471L8.9784,6.854l1.94,1.3862a1,1,0,0,0,1.1621-1.627L10.1544,5.237l1.1819-1.6252,3.0823,2.2016a1,1,0,0,0,1.1621-1.6269ZM4,14a2,2,0,1,1,2-2A2.0023,2.0023,0,0,1,4,14Z" transform="translate(0.0002 0.0002)"/></g></svg>