<svg id="NEW_NO_Container" data-name="NEW NO Container" xmlns="http://www.w3.org/2000/svg" viewBox="0 0 11 16.0003"><defs><style>.cls-1{fill:#404040;}</style></defs><title>icon-light-bulb</title><g id="icon-light-bulb"><path class="cls-1" d="M8,2a3.5039,3.5039,0,0,1,3.5,3.5,3.4558,3.4558,0,0,1-.8009,2.228A2,2,0,0,0,10.33,8.41L9.5263,11H6.4727L5.6671,8.4064a2,2,0,0,0-.3679-.68,3.5,3.5,0,0,1,1.9253-5.645A3.8043,3.8043,0,0,1,8,2M8,0A5.8013,5.8013,0,0,0,6.8166.1232,5.5,5.5,0,0,0,3.7571,9h0l1.0243,3.2968A1,1,0,0,0,5.7363,13h4.5268a1,1,0,0,0,.9551-.7036L12.24,9.0023A5.5,5.5,0,0,0,8,0Z" transform="translate(-2.4998 0.0002)"/><path class="cls-1" d="M9.5,16h-3a1,1,0,0,1,0-2h3a1,1,0,0,1,0,2Z" transform="translate(-2.4998 0.0002)"/></g></svg>