<svg id="NEW_NO_Container" data-name="NEW NO Container" xmlns="http://www.w3.org/2000/svg" viewBox="0 0 16 16"><defs><style>.cls-1{fill:#404040;}</style></defs><title>icon-link</title><g id="icon-link"><path class="cls-1" d="M5.9993,10.9989a1,1,0,0,1-.7069-1.7065L9.2917,5.2939a1,1,0,0,1,1.4138,1.4135L6.7062,10.706A.9969.9969,0,0,1,5.9993,10.9989Z" transform="translate(-0.0003 0)"/><path class="cls-1" d="M12.7046,10.7289a1,1,0,0,1-.7069-1.7069l.9657-.965A3.5506,3.5506,0,0,0,7.9413,3.0364l-.9651.965A1,1,0,0,1,5.5623,2.5878l.9652-.965a5.55,5.55,0,0,1,7.85,7.8483l-.9657.9655A.9981.9981,0,0,1,12.7046,10.7289Z" transform="translate(-0.0003 0)"/><path class="cls-1" d="M5.5453,16A5.5511,5.5511,0,0,1,1.6206,6.5293l.9647-.9655A1,1,0,0,1,4,6.9774l-.9652.9654A3.55,3.55,0,1,0,8.056,12.9635l.9652-.965a1,1,0,0,1,1.4138,1.4136L9.47,14.377A5.5323,5.5323,0,0,1,5.5453,16Z" transform="translate(-0.0003 0)"/></g></svg>