<?xml version="1.0" encoding="utf-8"?>
<!-- Generator: Adobe Illustrator 23.1.1, SVG Export Plug-In . SVG Version: 6.00 Build 0)  -->
<svg version="1.1" xmlns="http://www.w3.org/2000/svg" xmlns:xlink="http://www.w3.org/1999/xlink" x="0px" y="0px"
	 viewBox="0 0 16 16" style="enable-background:new 0 0 16 16;" xml:space="preserve">
<style type="text/css">
	.st0{display:none;}
	.st1{display:inline;}
	.st2{fill:#404040;}
	.st3{fill:#FFFFFF;}
	.st4{fill:none;}
	.st5{opacity:0.3;fill:none;}
	.st6{fill:#FF0000;}
	.st7{fill-rule:evenodd;clip-rule:evenodd;fill:#404040;}
	.st8{fill-rule:evenodd;clip-rule:evenodd;fill:#FFFFFF;}
	.st9{fill-rule:evenodd;clip-rule:evenodd;fill:#2867B2;}
	.st10{fill:#EE1376;}
	.st11{fill:#1DA1F2;}
	.st12{fill:#1877F2;}
	.st13{display:inline;fill:none;}
	.st14{display:inline;fill:#404040;}
	.st15{display:inline;opacity:0.3;fill:none;}
	.st16{display:inline;fill-rule:evenodd;clip-rule:evenodd;fill:#404040;}
	.st17{fill:none;stroke:#404040;stroke-width:2;stroke-linecap:round;}
</style>
<g id="Outter_Container" class="st0">
</g>
<g id="NEW" class="st0">
</g>
<g id="NEW_NO_Container">
	<g id="icon-link_2_">
		<g>
			<path class="st2" d="M5.9993,10.9989c-0.2558,0-0.5116-0.0976-0.7069-0.2929c-0.3906-0.3905-0.3906-1.0231,0-1.4136
				l3.9993-3.9986c0.3906-0.3905,1.0233-0.3905,1.4138,0s0.3906,1.0231,0,1.4136L6.7062,10.706
				C6.5109,10.9012,6.2551,10.9989,5.9993,10.9989z"/>
			<g>
				<path class="st2" d="M12.7046,10.7289c-0.2558,0-0.5121-0.0976-0.7074-0.2929c-0.3901-0.3905-0.3901-1.0236,0.0005-1.414
					l0.9657-0.965c1.384-1.3843,1.3845-3.6364,0-5.0207c-1.3845-1.3838-3.6375-1.3848-5.0221,0l-0.9652,0.965
					c-0.3906,0.3905-1.0233,0.3905-1.4138,0c-0.3906-0.3905-0.3906-1.0231,0-1.4136l0.9652-0.965
					c2.1647-2.1643,5.687-2.1633,7.8497,0c2.1642,2.1633,2.1642,5.684,0,7.8483l-0.9657,0.9655
					C13.2163,10.6313,12.9605,10.7289,12.7046,10.7289z"/>
				<path class="st2" d="M5.5453,16c-1.4211,0-2.8428-0.5408-3.9246-1.623c-1.0452-1.0445-1.6203-2.4381-1.6203-3.9239
					s0.5751-2.8793,1.6203-3.9239l0.9647-0.9655c0.3906-0.3905,1.0237-0.39,1.4143-0.0005c0.3906,0.3905,0.3906,1.0236,0.0005,1.414
					L3.0349,7.9428C2.3671,8.6101,2,9.5014,2,10.4532c0,0.9518,0.3671,1.8431,1.0345,2.5103c1.385,1.3843,3.6375,1.3843,5.0216,0
					l0.9652-0.965c0.3906-0.3905,1.0233-0.3905,1.4138,0c0.3906,0.3905,0.3906,1.0231,0,1.4136l-0.9652,0.965
					C8.388,15.4592,6.9664,16,5.5453,16z"/>
			</g>
		</g>
	</g>
</g>
</svg>
