<svg id="NEW_NO_Container" data-name="NEW NO Container" xmlns="http://www.w3.org/2000/svg" viewBox="0 0 12 16"><defs><style>.cls-1{fill:#404040;}</style></defs><title>icon-map-location</title><g id="icon-map-location"><path class="cls-1" d="M13,16H3a1,1,0,0,1,0-2H13a1,1,0,0,1,0,2Z" transform="translate(-1.9999 0.0002)"/><path class="cls-1" d="M8,0a4.2621,4.2621,0,0,0-4.2621,4.262c0,2.8485,2.35,6.6167,3.56,8.3679a.8505.8505,0,0,0,1.4036,0c1.21-1.7512,3.56-5.5194,3.56-8.3679A4.2621,4.2621,0,0,0,8,0Zm-.501,1.7527A2.5589,2.5589,0,1,1,5.4905,3.7607,2.5624,2.5624,0,0,1,7.4988,1.7525Z" transform="translate(-1.9999 0.0002)"/></g></svg>