<svg id="NEW_NO_Container" data-name="NEW NO Container" xmlns="http://www.w3.org/2000/svg" viewBox="0 0 16 14.9998"><defs><style>.cls-1{fill:#404040;}</style></defs><title>icon-map</title><g id="icon-map"><path class="cls-1" d="M15.5605,3.1717a1.0021,1.0021,0,0,0-.9321-.1006L10.34,4.787,7.8,1.4a1.0025,1.0025,0,0,0-1.1162-.3487l-6,2A1,1,0,0,0,0,4v9a1,1,0,0,0,1.3716.9287l4.3877-1.7554L9.293,15.7069a1.0009,1.0009,0,0,0,1.0786.2217l5-2A1.0014,1.0014,0,0,0,16,13V4A1,1,0,0,0,15.5605,3.1717ZM9,6.333v6.2528l-2-2V3.6668ZM2,4.7206l3-1v6.6018l-3,1.2Zm12,7.602-3,1.2V6.6772l3-1.2Z" transform="translate(0 -1.0001)"/></g></svg>