<svg id="NEW_NO_Container" data-name="NEW NO Container" xmlns="http://www.w3.org/2000/svg" viewBox="0 0 16 14"><defs><style>.cls-1{fill:#404040;}</style></defs><title>icon-menu</title><g id="icon-menu"><g id="Group_557" data-name="Group 557"><g id="Group_552" data-name="Group 552"><path class="cls-1" d="M15,3H1A1,1,0,0,1,1,1H15a1,1,0,0,1,0,2Z" transform="translate(-0.0003 -1)"/><path class="cls-1" d="M15,9H1A1,1,0,0,1,1,7H15a1,1,0,0,1,0,2Z" transform="translate(-0.0003 -1)"/><path class="cls-1" d="M9,15H1a1,1,0,1,1,0-2H9a1,1,0,0,1,0,2Z" transform="translate(-0.0003 -1)"/></g></g></g></svg>