<?xml version="1.0" encoding="utf-8"?>
<!-- Generator: Adobe Illustrator 23.1.1, SVG Export Plug-In . SVG Version: 6.00 Build 0)  -->
<svg version="1.1" xmlns="http://www.w3.org/2000/svg" xmlns:xlink="http://www.w3.org/1999/xlink" x="0px" y="0px"
	 viewBox="0 0 16 16" style="enable-background:new 0 0 16 16;" xml:space="preserve">
<style type="text/css">
	.st0{display:none;}
	.st1{display:inline;}
	.st2{fill:#404040;}
	.st3{fill:#FFFFFF;}
	.st4{fill:none;}
	.st5{opacity:0.3;fill:none;}
	.st6{fill:#FF0000;}
	.st7{fill-rule:evenodd;clip-rule:evenodd;fill:#404040;}
	.st8{fill-rule:evenodd;clip-rule:evenodd;fill:#FFFFFF;}
	.st9{fill-rule:evenodd;clip-rule:evenodd;fill:#2867B2;}
	.st10{fill:#EE1376;}
	.st11{fill:#1DA1F2;}
	.st12{fill:#1877F2;}
	.st13{display:inline;fill:none;}
	.st14{display:inline;fill:#404040;}
	.st15{display:inline;opacity:0.3;fill:none;}
	.st16{display:inline;fill-rule:evenodd;clip-rule:evenodd;fill:#404040;}
	.st17{fill:none;stroke:#404040;stroke-width:2;stroke-linecap:round;}
</style>
<g id="Outter_Container" class="st0">
</g>
<g id="NEW" class="st0">
</g>
<g id="NEW_NO_Container">
	<g id="icon-next_2_">
		<g>
			<g>
				<path class="st2" d="M2,2c0.167,0,0.335,0.042,0.4854,0.126l9.0005,5C11.8032,7.3018,12,7.6367,12,8
					c0,0.3633-0.1968,0.6982-0.5142,0.874l-9.0005,5c-0.3076,0.1729-0.6865,0.168-0.9922-0.0117S1,13.3545,1,13V3
					c0-0.3545,0.1875-0.6826,0.4932-0.8623C1.6494,2.0459,1.8242,2,2,2z M8.9409,8L3,4.6992v6.6016L8.9409,8z"/>
			</g>
			<path class="st2" d="M14,2c0.5522,0,1,0.4473,1,1v10c0,0.5527-0.4478,1-1,1s-1-0.4473-1-1V3C13,2.4473,13.4478,2,14,2z"/>
		</g>
	</g>
</g>
</svg>
