<svg id="NEW_NO_Container" data-name="NEW NO Container" xmlns="http://www.w3.org/2000/svg" viewBox="0 0 14 12.0004"><defs><style>.cls-1{fill:#404040;}</style></defs><title>icon-next</title><g id="icon-next"><path class="cls-1" d="M2,2a.9967.9967,0,0,1,.4854.126l9,5a1,1,0,0,1,0,1.748l-9,5A1,1,0,0,1,1,13V3A.9994.9994,0,0,1,2,2ZM8.9409,8,3,4.6992v6.6016Z" transform="translate(-1 -2)"/><path class="cls-1" d="M14,2a1,1,0,0,1,1,1V13a1,1,0,0,1-2,0V3A1,1,0,0,1,14,2Z" transform="translate(-1 -2)"/></g></svg>