<svg id="NEW_NO_Container" data-name="NEW NO Container" xmlns="http://www.w3.org/2000/svg" viewBox="0 0 14.0002 14.0002"><defs><style>.cls-1{fill:#404040;}</style></defs><title>icon-phone</title><g id="icon-phone"><path class="cls-1" d="M15,10.4389a1,1,0,0,0-.9-.995l-3.3042-.33a1,1,0,0,0-1.0481.6788L9.25,11.285A13.17,13.17,0,0,1,4.7153,6.75L6.208,6.2528a1,1,0,0,0,.6789-1.0482l-.33-3.3041A1,1,0,0,0,5.5614,1H2s-.0877.0024-.1367.01A1.0005,1.0005,0,0,0,1.01,2.1369a15.1062,15.1062,0,0,0,12.854,12.854,1.0008,1.0008,0,0,0,1.1274-.854C14.9978,14.0876,15,14,15,14Z" transform="translate(-1.0002 -1)"/></g></svg>