<svg id="NEW_NO_Container" data-name="NEW NO Container" xmlns="http://www.w3.org/2000/svg" viewBox="0 0 16 15.0236"><defs><style>.cls-1{fill:#404040;}</style></defs><title>icon-photos</title><g id="icon-photos"><path class="cls-1" d="M8,6A2,2,0,1,1,6,8,2.0023,2.0023,0,0,1,8,6M8,4a4,4,0,1,0,4,4A4,4,0,0,0,8,4Z" transform="translate(-0.0003 0)"/><path class="cls-1" d="M9.7643,2l.4472.8944L10.7642,4H14v9.0236H2V4H5.2364l.5528-1.1056L6.2364,2H9.7643M11,0H5L4,2H2A2.0059,2.0059,0,0,0,0,4v9.0236a2.0059,2.0059,0,0,0,2,2H14a2.0059,2.0059,0,0,0,2-2V4a2.0059,2.0059,0,0,0-2-2H12L11,0Z" transform="translate(-0.0003 0)"/></g></svg>