<svg id="NEW_NO_Container" data-name="NEW NO Container" xmlns="http://www.w3.org/2000/svg" viewBox="0 0 16 16"><defs><style>.cls-1{fill:#404040;}</style></defs><title>icon-play-circle</title><g id="icon-play-circle"><path class="cls-1" d="M11.4019,8.7539l-4.62,2.5668A.8627.8627,0,0,1,5.5,10.5666V5.433a.8628.8628,0,0,1,1.2817-.7542l4.62,2.5668A.8627.8627,0,0,1,11.4019,8.7539Z" transform="translate(0 0.0002)"/><path class="cls-1" d="M8,2A6,6,0,1,1,2,8,6.0068,6.0068,0,0,1,8,2M8,0a8,8,0,1,0,8,8A8,8,0,0,0,8,0Z" transform="translate(0 0.0002)"/></g></svg>