<svg id="NEW_NO_Container" data-name="NEW NO Container" xmlns="http://www.w3.org/2000/svg" viewBox="0 0 14 12.0004"><defs><style>.cls-1{fill:#404040;}</style></defs><title>icon-previous</title><g id="icon-previous"><path class="cls-1" d="M14,14a.9977.9977,0,0,1-.4854-.1259l-9-5a1,1,0,0,1,0-1.7481l9-5A1,1,0,0,1,15,3V13a.9994.9994,0,0,1-1,1ZM7.0591,8,13,11.3V4.6988Z" transform="translate(-1 -1.9991)"/><path class="cls-1" d="M2,14a1,1,0,0,1-1-1V3A1,1,0,0,1,3,3V13A1,1,0,0,1,2,14Z" transform="translate(-1 -1.9991)"/></g></svg>