<?xml version="1.0" encoding="utf-8"?>
<!-- Generator: Adobe Illustrator 23.1.1, SVG Export Plug-In . SVG Version: 6.00 Build 0)  -->
<svg version="1.1" xmlns="http://www.w3.org/2000/svg" xmlns:xlink="http://www.w3.org/1999/xlink" x="0px" y="0px"
	 viewBox="0 0 16 16" style="enable-background:new 0 0 16 16;" xml:space="preserve">
<style type="text/css">
	.st0{display:none;}
	.st1{display:inline;}
	.st2{fill:#404040;}
	.st3{fill:#FFFFFF;}
	.st4{fill:none;}
	.st5{opacity:0.3;fill:none;}
	.st6{fill:#FF0000;}
	.st7{fill-rule:evenodd;clip-rule:evenodd;fill:#404040;}
	.st8{fill-rule:evenodd;clip-rule:evenodd;fill:#FFFFFF;}
	.st9{fill-rule:evenodd;clip-rule:evenodd;fill:#2867B2;}
	.st10{fill:#EE1376;}
	.st11{fill:#1DA1F2;}
	.st12{fill:#1877F2;}
	.st13{display:inline;fill:none;}
	.st14{display:inline;fill:#404040;}
	.st15{display:inline;opacity:0.3;fill:none;}
	.st16{display:inline;fill-rule:evenodd;clip-rule:evenodd;fill:#404040;}
	.st17{fill:none;stroke:#404040;stroke-width:2;stroke-linecap:round;}
</style>
<g id="Outter_Container" class="st0">
</g>
<g id="NEW" class="st0">
</g>
<g id="NEW_NO_Container">
	<g id="icon-previous_2_">
		<g>
			<g>
				<path class="st2" d="M14,13.9995c-0.167,0-0.335-0.042-0.4854-0.126l-9.0005-5C4.1968,8.6978,4,8.3628,4,7.9995
					s0.1968-0.6982,0.5142-0.874l9.0005-5c0.3076-0.1729,0.6865-0.168,0.9922,0.0117S15,2.645,15,2.9995v10
					c0,0.3545-0.1875,0.6826-0.4932,0.8623C14.3506,13.9536,14.1758,13.9995,14,13.9995z M7.0591,7.9995L13,11.3003V4.6988
					L7.0591,7.9995z"/>
			</g>
			<path class="st2" d="M2,13.9995c-0.5522,0-1-0.4473-1-1v-10c0-0.5527,0.4478-1,1-1s1,0.4473,1,1v10
				C3,13.5523,2.5522,13.9995,2,13.9995z"/>
		</g>
	</g>
</g>
</svg>
