<svg id="NEW_NO_Container" data-name="NEW NO Container" xmlns="http://www.w3.org/2000/svg" viewBox="0 0 16 16"><defs><style>.cls-1{fill:#404040;}</style></defs><title>icon-print</title><g id="icon-print"><path class="cls-1" d="M15,10H14V5a1.0122,1.0122,0,0,0-.2938-.7079L9.7076.2934A1.0131,1.0131,0,0,0,9,0H3A1,1,0,0,0,2,1v9H1a1,1,0,0,0-1,1v4a1,1,0,0,0,1,1H15a1,1,0,0,0,1-1V11A1,1,0,0,0,15,10Zm-1,2v2H2V12ZM9,2.4138,11.5859,5H9ZM4,2H7V6A1,1,0,0,0,8,7h4v3H4Z" transform="translate(0.0001 0.0002)"/></g></svg>