<svg id="NEW_NO_Container" data-name="NEW NO Container" xmlns="http://www.w3.org/2000/svg" viewBox="0 0 16 16"><defs><style>.cls-1{fill:#404040;}</style></defs><title>icon-profile</title><g id="icon-profile"><path class="cls-1" d="M8,0a8,8,0,1,0,8,8A8,8,0,0,0,8,0ZM8,2a5.9915,5.9915,0,0,1,4.9049,9.4445,9.0468,9.0468,0,0,0-9.81,0A5.9916,5.9916,0,0,1,8,2ZM4.55,12.9008a7.0509,7.0509,0,0,1,6.8993,0,5.9636,5.9636,0,0,1-6.8993,0Z" transform="translate(0 0.0002)"/><path class="cls-1" d="M8,9A3,3,0,1,0,5,6,3.0035,3.0035,0,0,0,8,9ZM8,5A1,1,0,1,1,7,6,1,1,0,0,1,8,5Z" transform="translate(0 0.0002)"/></g></svg>