<svg id="NEW_NO_Container" data-name="NEW NO Container" xmlns="http://www.w3.org/2000/svg" viewBox="0 0 16 16"><defs><style>.cls-1{fill:#404040;}</style></defs><title>icon-rate</title><g id="icon-rate"><path class="cls-1" d="M4.1341,16a1.583,1.583,0,0,1-1.5085-2.0524l1.1667-3.7411L.6144,7.737a1.581,1.581,0,0,1,.968-2.83H5.2363L6.5017,1.0836a1.5785,1.5785,0,0,1,2.9978,0l1.2653,3.8236h3.6534a1.5812,1.5812,0,0,1,.9685,2.83l-3.1984,2.4846L13.3389,13.93a1.58,1.58,0,0,1-2.474,1.72L8.0018,13.4324,5.0967,15.6709A1.5777,1.5777,0,0,1,4.1341,16ZM2.8058,6.9074,6.1141,9.4779,4.93,13.2742l3.0744-2.3684,3.03,2.3464-1.1662-3.76,3.3264-2.5847H9.3208L8,2.9187,6.68,6.9074Z" transform="translate(-0.0003 0)"/></g></svg>