<?xml version="1.0" encoding="utf-8"?>
<!-- Generator: Adobe Illustrator 23.1.1, SVG Export Plug-In . SVG Version: 6.00 Build 0)  -->
<svg version="1.1" xmlns="http://www.w3.org/2000/svg" xmlns:xlink="http://www.w3.org/1999/xlink" x="0px" y="0px"
	 viewBox="0 0 16 16" style="enable-background:new 0 0 16 16;" xml:space="preserve">
<style type="text/css">
	.st0{display:none;}
	.st1{display:inline;}
	.st2{fill:#404040;}
	.st3{fill:#FFFFFF;}
	.st4{fill:none;}
	.st5{opacity:0.3;fill:none;}
	.st6{fill:#FF0000;}
	.st7{fill-rule:evenodd;clip-rule:evenodd;fill:#404040;}
	.st8{fill-rule:evenodd;clip-rule:evenodd;fill:#FFFFFF;}
	.st9{fill-rule:evenodd;clip-rule:evenodd;fill:#2867B2;}
	.st10{fill:#EE1376;}
	.st11{fill:#1DA1F2;}
	.st12{fill:#1877F2;}
	.st13{display:inline;fill:none;}
	.st14{display:inline;fill:#404040;}
	.st15{display:inline;opacity:0.3;fill:none;}
	.st16{display:inline;fill-rule:evenodd;clip-rule:evenodd;fill:#404040;}
	.st17{fill:none;stroke:#404040;stroke-width:2;stroke-linecap:round;}
</style>
<g id="Outter_Container" class="st0">
</g>
<g id="NEW" class="st0">
</g>
<g id="NEW_NO_Container">
	<g id="icon-refresh_2_">
		<g>
			<path class="st2" d="M14.9998,6.9998c-0.5522,0-1,0.4473-1,1c0,0.2832-0.02,0.5693-0.0596,0.8496
				c-0.4155,2.9365-2.9692,5.1504-5.9404,5.1504c-3.3086,0-6-2.6914-6-6s2.6914-6,6-6c1.7156,0,3.3401,0.7367,4.4717,2h-1.9717
				c-0.5522,0-1,0.4473-1,1s0.4478,1,1,1h4c0.5522,0,1-0.4473,1-1v-4c0-0.5527-0.4478-1-1-1s-1,0.4473-1,1v1.2085
				c-1.4731-1.3972-3.4323-2.2085-5.5-2.2085c-4.4111,0-8,3.5889-8,8s3.5889,8,8,8c3.9609,0,7.3662-2.9531,7.9209-6.8711
				c0.0527-0.373,0.0791-0.7529,0.0791-1.1289C15.9998,7.447,15.5521,6.9998,14.9998,6.9998z"/>
		</g>
	</g>
</g>
</svg>
