<svg id="NEW_NO_Container" data-name="NEW NO Container" xmlns="http://www.w3.org/2000/svg" viewBox="0 0 16 16"><defs><style>.cls-1{fill:#404040;}</style></defs><title>icon-save</title><g id="icon-save"><path class="cls-1" d="M15.9227,3.6177a.9969.9969,0,0,0-.2167-.3258L12.7075.2934A1.0131,1.0131,0,0,0,12,0H1A1,1,0,0,0,0,1V15a1,1,0,0,0,1,1H15a1,1,0,0,0,1-1V4A.9991.9991,0,0,0,15.9227,3.6177ZM12,9H4a1,1,0,0,0-1,1v4H2V2H4V5A1,1,0,0,0,5,6h6a1,1,0,0,0,1-1V2.4138l2,2V14H13V10A1,1,0,0,0,12,9ZM10,4H8V2h2ZM5,14V11h6v3Z" transform="translate(0.0002 0.0002)"/></g></svg>