<?xml version="1.0" encoding="utf-8"?>
<!-- Generator: Adobe Illustrator 23.1.1, SVG Export Plug-In . SVG Version: 6.00 Build 0)  -->
<svg version="1.1" xmlns="http://www.w3.org/2000/svg" xmlns:xlink="http://www.w3.org/1999/xlink" x="0px" y="0px"
	 viewBox="0 0 16 16" style="enable-background:new 0 0 16 16;" xml:space="preserve">
<style type="text/css">
	.st0{display:none;}
	.st1{display:inline;}
	.st2{fill:#404040;}
	.st3{fill:#FFFFFF;}
	.st4{fill:none;}
	.st5{opacity:0.3;fill:none;}
	.st6{fill:#FF0000;}
	.st7{fill-rule:evenodd;clip-rule:evenodd;fill:#404040;}
	.st8{fill-rule:evenodd;clip-rule:evenodd;fill:#FFFFFF;}
	.st9{fill-rule:evenodd;clip-rule:evenodd;fill:#2867B2;}
	.st10{fill:#EE1376;}
	.st11{fill:#1DA1F2;}
	.st12{fill:#1877F2;}
	.st13{display:inline;fill:none;}
	.st14{display:inline;fill:#404040;}
	.st15{display:inline;opacity:0.3;fill:none;}
	.st16{display:inline;fill-rule:evenodd;clip-rule:evenodd;fill:#404040;}
	.st17{fill:none;stroke:#404040;stroke-width:2;stroke-linecap:round;}
</style>
<g id="Outter_Container" class="st0">
</g>
<g id="NEW" class="st0">
</g>
<g id="NEW_NO_Container">
	<g id="icon-search_1_">
		<g>
			<path class="st2" d="M15.7074,14.293l-3.9633-3.9633c0.7864-1.0748,1.2563-2.3958,1.2563-3.8297c0-3.5898-2.9102-6.5-6.5-6.5
				s-6.5,2.9102-6.5,6.5s2.9102,6.5,6.5,6.5c1.4338,0,2.7548-0.4698,3.8297-1.2563l3.9633,3.9633
				C14.4886,15.9023,14.7445,16,15.0003,16s0.5117-0.0977,0.707-0.293C16.098,15.3164,16.098,14.6836,15.7074,14.293z M2.0003,6.5
				c0-2.4813,2.0187-4.5,4.5-4.5s4.5,2.0187,4.5,4.5c0,1.202-0.4681,2.332-1.318,3.1819C8.8324,10.5319,7.7024,11,6.5003,11
				C4.019,11,2.0003,8.9813,2.0003,6.5z"/>
		</g>
	</g>
</g>
</svg>
