<?xml version="1.0" encoding="utf-8"?>
<!-- Generator: Adobe Illustrator 23.1.1, SVG Export Plug-In . SVG Version: 6.00 Build 0)  -->
<svg version="1.1" xmlns="http://www.w3.org/2000/svg" xmlns:xlink="http://www.w3.org/1999/xlink" x="0px" y="0px"
	 viewBox="0 0 16 16" style="enable-background:new 0 0 16 16;" xml:space="preserve">
<style type="text/css">
	.st0{display:none;}
	.st1{display:inline;}
	.st2{fill:#404040;}
	.st3{fill:#FFFFFF;}
	.st4{fill:none;}
	.st5{opacity:0.3;fill:none;}
	.st6{fill:#FF0000;}
	.st7{fill-rule:evenodd;clip-rule:evenodd;fill:#404040;}
	.st8{fill-rule:evenodd;clip-rule:evenodd;fill:#FFFFFF;}
	.st9{fill-rule:evenodd;clip-rule:evenodd;fill:#2867B2;}
	.st10{fill:#EE1376;}
	.st11{fill:#1DA1F2;}
	.st12{fill:#1877F2;}
	.st13{display:inline;fill:none;}
	.st14{display:inline;fill:#404040;}
	.st15{display:inline;opacity:0.3;fill:none;}
	.st16{display:inline;fill-rule:evenodd;clip-rule:evenodd;fill:#404040;}
	.st17{fill:none;stroke:#404040;stroke-width:2;stroke-linecap:round;}
</style>
<g id="Outter_Container" class="st0">
</g>
<g id="NEW" class="st0">
</g>
<g id="NEW_NO_Container">
	<g id="icon-secure_2_">
		<g>
			<g>
				<path class="st2" d="M8.0003,12.5c0.5527,0,1-0.4478,1-1v-1c0-0.5522-0.4473-1-1-1s-1,0.4478-1,1v1
					C7.0003,12.0522,7.4476,12.5,8.0003,12.5z"/>
				<path class="st2" d="M12.5311,6H12.013V4c0-2.2056-1.7939-4-4-4s-4,1.7944-4,4v2H3.4949C2.9548,6,2.513,6.4419,2.513,6.9819
					v3.5181C2.513,13.525,4.988,16,8.0129,16H8.013c3.0249,0,5.5-2.475,5.5-5.4999V6.9819C13.513,6.4419,13.0711,6,12.5311,6z
					 M6.013,4c0-1.103,0.8975-2,2-2s2,0.897,2,2v2h-4V4z M11.513,10.5001C11.513,12.4299,9.9428,14,8.0129,14
					c-1.9298,0-3.4999-1.5701-3.4999-3.4999V8h7V10.5001z"/>
			</g>
		</g>
	</g>
</g>
</svg>
