<svg id="NEW_NO_Container" data-name="NEW NO Container" xmlns="http://www.w3.org/2000/svg" viewBox="0 0 11 16"><defs><style>.cls-1{fill:#404040;}</style></defs><title>icon-secure</title><g id="icon-secure"><path class="cls-1" d="M8,12.5a1,1,0,0,0,1-1v-1a1,1,0,0,0-2,0v1A1,1,0,0,0,8,12.5Z" transform="translate(-2.513 0)"/><path class="cls-1" d="M12.5311,6H12.013V4a4,4,0,0,0-8,0V6H3.4949a.9848.9848,0,0,0-.9819.9819V10.5a5.5161,5.5161,0,0,0,5.5,5.5h0a5.5162,5.5162,0,0,0,5.5-5.5V6.9819A.9848.9848,0,0,0,12.5311,6ZM6.013,4a2,2,0,0,1,4,0V6h-4Zm5.5,6.5a3.5,3.5,0,0,1-7,0V8h7Z" transform="translate(-2.513 0)"/></g></svg>