<svg id="NEW_NO_Container" data-name="NEW NO Container" xmlns="http://www.w3.org/2000/svg" viewBox="0 0 15.9997 15.9998"><defs><style>.cls-1{fill:#404040;}</style></defs><title>icon-send</title><g id="icon-send"><path class="cls-1" d="M10,16a1,1,0,0,1-.8946-.5527L6.2547,9.745.5526,6.8944A1,1,0,0,1,.6639,5.058l14-5a1,1,0,0,1,1.2774,1.2783l-5,14a1,1,0,0,1-.8809.6616C10.04,15.9994,10.0194,16,10,16ZM8.2166,9.1972l1.63,3.26,3.502-9.8052L3.5428,6.1537l3.26,1.6294,1.49-1.49a1,1,0,0,1,1.4141,1.414Z" transform="translate(0.0001 -0.0001)"/></g></svg>