<?xml version="1.0" encoding="utf-8"?>
<!-- Generator: Adobe Illustrator 23.1.1, SVG Export Plug-In . SVG Version: 6.00 Build 0)  -->
<svg version="1.1" xmlns="http://www.w3.org/2000/svg" xmlns:xlink="http://www.w3.org/1999/xlink" x="0px" y="0px"
	 viewBox="0 0 16 16" style="enable-background:new 0 0 16 16;" xml:space="preserve">
<style type="text/css">
	.st0{display:none;}
	.st1{display:inline;}
	.st2{fill:#404040;}
	.st3{fill:#FFFFFF;}
	.st4{fill:none;}
	.st5{opacity:0.3;fill:none;}
	.st6{fill:#FF0000;}
	.st7{fill-rule:evenodd;clip-rule:evenodd;fill:#404040;}
	.st8{fill-rule:evenodd;clip-rule:evenodd;fill:#FFFFFF;}
	.st9{fill-rule:evenodd;clip-rule:evenodd;fill:#2867B2;}
	.st10{fill:#EE1376;}
	.st11{fill:#1DA1F2;}
	.st12{fill:#1877F2;}
	.st13{display:inline;fill:none;}
	.st14{display:inline;fill:#404040;}
	.st15{display:inline;opacity:0.3;fill:none;}
	.st16{display:inline;fill-rule:evenodd;clip-rule:evenodd;fill:#404040;}
	.st17{fill:none;stroke:#404040;stroke-width:2;stroke-linecap:round;}
</style>
<g id="Outter_Container" class="st0">
</g>
<g id="NEW" class="st0">
</g>
<g id="NEW_NO_Container">
	<g id="icon-settings_2_">
		<path class="st2" d="M15.6584,6.886l-1.92-0.6401c-0.1133-0.3707-0.2618-0.7255-0.4409-1.0619l0.9056-1.8115
			c0.0963-0.1925,0.0585-0.425-0.0936-0.5772l-0.9045-0.9045c-0.1522-0.1522-0.3848-0.1899-0.5771-0.0936l-1.8115,0.9057
			c-0.3364-0.1791-0.6912-0.3278-1.0619-0.4409l-0.64-1.9201C9.0462,0.1378,8.8551,0,8.64,0H7.3607
			C7.1455,0,6.9544,0.1378,6.8863,0.3419l-0.64,1.9201C5.8756,2.3752,5.5207,2.5238,5.1844,2.703L3.3729,1.7972
			C3.1804,1.701,2.9478,1.7387,2.7957,1.8909L1.8912,2.7954C1.739,2.9476,1.7013,3.1801,1.7974,3.3726l0.9058,1.8115
			C2.524,5.5205,2.3756,5.8753,2.2623,6.246L0.3421,6.886C0.138,6.9541,0.0003,7.1452,0.0003,7.3604v1.2792
			c0,0.2152,0.1377,0.4062,0.3418,0.4743L2.2623,9.754c0.1133,0.3707,0.2618,0.7255,0.4409,1.0619l-0.9058,1.8115
			c-0.0962,0.1925-0.0585,0.425,0.0938,0.5771l0.9045,0.9045c0.1521,0.1522,0.3846,0.1899,0.5771,0.0937l1.8115-0.9058
			c0.3364,0.1791,0.6912,0.3278,1.0619,0.4409l0.64,1.9202C6.9544,15.8623,7.1455,16,7.3607,16H8.64
			c0.2151,0,0.4062-0.1377,0.4744-0.3419l0.64-1.9202c0.3707-0.1132,0.7255-0.2617,1.0619-0.4409l1.8115,0.9058
			c0.1924,0.0963,0.4249,0.0585,0.5771-0.0937l0.9045-0.9045c0.1521-0.1522,0.1899-0.3846,0.0936-0.5771l-0.9058-1.8115
			c0.1792-0.3364,0.3278-0.6913,0.441-1.062l1.92-0.6401c0.2042-0.0681,0.3419-0.2591,0.3419-0.4743V7.3604
			C16.0003,7.1452,15.8626,6.9541,15.6584,6.886z M8.0003,12c-2.2056,0-4-1.7944-4-4c0-2.2056,1.7944-4,4-4s4,1.7944,4,4
			C12.0003,10.2056,10.2059,12,8.0003,12z"/>
	</g>
</g>
</svg>
