<svg id="NEW_NO_Container" data-name="NEW NO Container" xmlns="http://www.w3.org/2000/svg" viewBox="0 0 16 16"><defs><style>.cls-1{fill:#404040;}</style></defs><title>icon-settings</title><g id="icon-settings"><path class="cls-1" d="M15.6584,6.886l-1.92-.64a5.9723,5.9723,0,0,0-.441-1.0619l.9057-1.8115a.5.5,0,0,0-.0936-.5772l-.9046-.9045a.5.5,0,0,0-.5771-.0937l-1.8116.9057A5.9666,5.9666,0,0,0,9.7544,2.262l-.64-1.92A.5.5,0,0,0,8.64,0H7.3607a.5.5,0,0,0-.4744.3419l-.64,1.92a5.9575,5.9575,0,0,0-1.0619.441L3.3729,1.7972a.5.5,0,0,0-.5772.0937l-.9045.9045a.5.5,0,0,0-.0938.5772l.9058,1.8115A5.9676,5.9676,0,0,0,2.2623,6.246l-1.92.64A.5.5,0,0,0,0,7.36V8.64a.5.5,0,0,0,.3418.4744l1.92.64a5.972,5.972,0,0,0,.4409,1.0619l-.9058,1.8115a.5.5,0,0,0,.0938.5772l.9045.9045a.5.5,0,0,0,.5772.0937l1.8115-.9057a5.9676,5.9676,0,0,0,1.0619.4409l.64,1.92A.5.5,0,0,0,7.3607,16H8.64a.5.5,0,0,0,.4743-.3419l.64-1.92a5.9592,5.9592,0,0,0,1.0618-.4409l1.8116.9057a.5.5,0,0,0,.5771-.0937l.9046-.9045a.5.5,0,0,0,.0936-.5772l-.9058-1.8114a5.9693,5.9693,0,0,0,.4411-1.062l1.92-.64A.5.5,0,0,0,16,8.64V7.36A.5.5,0,0,0,15.6584,6.886ZM8,12a4,4,0,1,1,4-4A4.0046,4.0046,0,0,1,8,12Z" transform="translate(-0.0003 0)"/></g></svg>