<svg id="NEW_NO_Container" data-name="NEW NO Container" xmlns="http://www.w3.org/2000/svg" viewBox="0 0 16 16.0001"><defs><style>.cls-1{fill:none;}.cls-2{fill:#404040;}</style></defs><title>icon-share</title><g id="icon-share"><rect class="cls-1" width="16" height="16"/><path class="cls-2" d="M12.4981,10a2.8779,2.8779,0,0,0-1.9717.76L6.4555,8.4983a2.9831,2.9831,0,0,0-.01-.9919l4.0705-2.2611a3.0113,3.0113,0,1,0-.9626-1.7527L5.4829,5.7542a2.9982,2.9982,0,1,0-.72,4.9661,2.9665,2.9665,0,0,0,.7106-.48l4.0707,2.2613A2.9976,2.9976,0,1,0,12.4981,10Zm-.419-7.9063A.9879.9879,0,0,1,12.4981,2a1,1,0,0,1,.4227,1.9063A.9875.9875,0,0,1,12.5019,4a1,1,0,0,1-.4228-1.9063ZM3.9208,8.9063A.9875.9875,0,0,1,3.5019,9a1,1,0,0,1-.4228-1.9063A.9879.9879,0,0,1,3.4981,7a1,1,0,0,1,.4227,1.9063Zm9,5A.9875.9875,0,0,1,12.5019,14a1,1,0,0,1-.4228-1.9063A.9879.9879,0,0,1,12.4981,12a1,1,0,0,1,.4227,1.9063Z" transform="translate(0 0)"/></g></svg>