<svg id="NEW_NO_Container" data-name="NEW NO Container" xmlns="http://www.w3.org/2000/svg" viewBox="0 0 14 11.3777"><defs><style>.cls-1{fill:#404040;}</style></defs><title>icon-social-twitter</title><g id="icon-social-twitter"><path class="cls-1" d="M13.5672,5.1446c.0054.1231.0082.2475.0082.3716a8.1168,8.1168,0,0,1-8.1725,8.1727A8.1279,8.1279,0,0,1,1,12.3979a5.7968,5.7968,0,0,0,4.2523-1.1894A2.8747,2.8747,0,0,1,2.57,9.2144a2.9358,2.9358,0,0,0,.5406.0513,2.86,2.86,0,0,0,.756-.1012,2.873,2.873,0,0,1-2.3033-2.816v-.037a2.8651,2.8651,0,0,0,1.3.36,2.8783,2.8783,0,0,1-.8893-3.835A8.1584,8.1584,0,0,0,7.8947,5.8375a2.874,2.874,0,0,1,4.8946-2.6192,5.76,5.76,0,0,0,1.8243-.6973A2.8842,2.8842,0,0,1,13.3493,4.11,5.761,5.761,0,0,0,15,3.6585,5.8579,5.8579,0,0,1,13.5672,5.1446Z" transform="translate(-1 -2.3111)"/></g></svg>