<?xml version="1.0" encoding="utf-8"?>
<!-- Generator: Adobe Illustrator 23.1.1, SVG Export Plug-In . SVG Version: 6.00 Build 0)  -->
<svg version="1.1" xmlns="http://www.w3.org/2000/svg" xmlns:xlink="http://www.w3.org/1999/xlink" x="0px" y="0px"
	 viewBox="0 0 16 16" style="enable-background:new 0 0 16 16;" xml:space="preserve">
<style type="text/css">
	.st0{display:none;}
	.st1{display:inline;}
	.st2{fill:#404040;}
	.st3{fill:#FFFFFF;}
	.st4{fill:none;}
	.st5{opacity:0.3;fill:none;}
	.st6{fill:#FF0000;}
	.st7{fill-rule:evenodd;clip-rule:evenodd;fill:#404040;}
	.st8{fill-rule:evenodd;clip-rule:evenodd;fill:#FFFFFF;}
	.st9{fill-rule:evenodd;clip-rule:evenodd;fill:#2867B2;}
	.st10{fill:#EE1376;}
	.st11{fill:#1DA1F2;}
	.st12{fill:#1877F2;}
	.st13{display:inline;fill:none;}
	.st14{display:inline;fill:#404040;}
	.st15{display:inline;opacity:0.3;fill:none;}
	.st16{display:inline;fill-rule:evenodd;clip-rule:evenodd;fill:#404040;}
	.st17{fill:none;stroke:#404040;stroke-width:2;stroke-linecap:round;}
</style>
<g id="Outter_Container" class="st0">
</g>
<g id="NEW" class="st0">
</g>
<g id="NEW_NO_Container">
	<g id="icon-social-twitter_2_">
		<g>
			<path class="st2" d="M13.5672,5.1446c0.0054,0.1231,0.0082,0.2474,0.0082,0.3715c0,3.7957-2.8889,8.1727-8.1725,8.1727
				c-1.6225,0-3.1314-0.4758-4.4029-1.291c0.2246,0.027,0.4534,0.0404,0.6855,0.0404c1.3458,0,2.5843-0.4594,3.5668-1.2298
				c-1.2573-0.0236-2.3172-0.8531-2.6828-1.9941C2.7451,9.2472,2.925,9.2657,3.1101,9.2657c0.261,0,0.5154-0.0352,0.756-0.1011
				c-1.3144-0.2639-2.3033-1.425-2.3033-2.8161c0-0.0123,0-0.0243,0-0.0369c0.3874,0.2157,0.8304,0.3445,1.3004,0.3603
				C2.0927,6.156,1.586,5.2776,1.586,4.2809c0-0.5264,0.1419-1.0203,0.3879-1.4441c1.4178,1.7373,3.5337,2.881,5.9208,3.0006
				C7.846,5.6276,7.8214,5.4085,7.8214,5.1829c0-1.5856,1.2855-2.8718,2.871-2.8718c0.8267,0,1.5731,0.3486,2.0968,0.9071
				c0.6545-0.1289,1.2688-0.3681,1.8243-0.6973c-0.2147,0.6706-0.6708,1.2335-1.2643,1.5893C13.9313,4.041,14.4851,3.8861,15,3.6585
				C14.6148,4.2338,14.1277,4.7396,13.5672,5.1446z"/>
		</g>
	</g>
</g>
</svg>
