<svg id="NEW_NO_Container" data-name="NEW NO Container" xmlns="http://www.w3.org/2000/svg" viewBox="0 0 12 12"><defs><style>.cls-1{fill:#404040;}</style></defs><title>icon-social-instagram</title><g id="icon-social-instagram"><path class="cls-1" d="M8,4.9189A3.0811,3.0811,0,1,0,11.0811,8,3.0812,3.0812,0,0,0,8,4.9189ZM8,10a2,2,0,1,1,2-2A2,2,0,0,1,8,10Z" transform="translate(-2 -2)"/><circle class="cls-1" cx="9.2028" cy="2.7972" r="0.72"/><path class="cls-1" d="M10.6021,3.1A2.3006,2.3006,0,0,1,12.9,5.3979v5.2042A2.3006,2.3006,0,0,1,10.6021,12.9H5.3979A2.3006,2.3006,0,0,1,3.1,10.6021V5.3979A2.3006,2.3006,0,0,1,5.3979,3.1h5.2042m0-1.1H5.3979A3.3979,3.3979,0,0,0,2,5.3979v5.2042A3.3979,3.3979,0,0,0,5.3979,14h5.2042A3.3979,3.3979,0,0,0,14,10.6021V5.3979A3.3979,3.3979,0,0,0,10.6021,2Z" transform="translate(-2 -2)"/></g></svg>