<svg id="NEW_NO_Container" data-name="NEW NO Container" xmlns="http://www.w3.org/2000/svg" viewBox="0 0 12 12"><defs><style>.cls-1{fill:#404040;fill-rule:evenodd;}</style></defs><title>icon-social-linkedin</title><g id="icon-social-linkedin"><path class="cls-1" d="M13.0016,2H2.9984A.9984.9984,0,0,0,2,2.9984V13.0016A.9984.9984,0,0,0,2.9984,14H13.0016A.9984.9984,0,0,0,14,13.0016V2.9984A.9984.9984,0,0,0,13.0016,2ZM5.6476,12.1184H3.8V6.5609h1.848Zm-.924-6.3126A1.0282,1.0282,0,1,1,5.7518,4.7776,1.0282,1.0282,0,0,1,4.7236,5.8058Zm7.5852,6.3126H10.4609V9.1451c0-.7468-.2673-1.257-.9362-1.257a1.0119,1.0119,0,0,0-.9475.676,1.2811,1.2811,0,0,0-.06.4507v3.1036H6.6688s.0247-5.0362,0-5.5575H8.5169v.7875A1.8311,1.8311,0,0,1,10.1813,6.43c1.2159,0,2.1275.7942,2.1275,2.5015Z" transform="translate(-2 -2)"/></g></svg>