<svg id="NEW_NO_Container" data-name="NEW NO Container" xmlns="http://www.w3.org/2000/svg" viewBox="0 0 16 11.2727"><defs><style>.cls-1{fill:#404040;}</style></defs><title>icon-social-youtube</title><g id="icon-social-youtube"><path class="cls-1" d="M15.6657,4.1239A2.01,2.01,0,0,0,14.2511,2.7,47.5106,47.5106,0,0,0,8,2.3636,47.5114,47.5114,0,0,0,1.7489,2.7,2.01,2.01,0,0,0,.3344,4.1239,21.086,21.086,0,0,0,0,8a21.086,21.086,0,0,0,.3344,3.8761A2.0105,2.0105,0,0,0,1.7489,13.3,47.5114,47.5114,0,0,0,8,13.6364,47.5106,47.5106,0,0,0,14.2511,13.3a2.0106,2.0106,0,0,0,1.4146-1.4238A21.0922,21.0922,0,0,0,16,8,21.0922,21.0922,0,0,0,15.6657,4.1239ZM6.3636,10.379V5.621L10.5455,8Z" transform="translate(0 -2.3636)"/></g></svg>