<?xml version="1.0" encoding="utf-8"?>
<!-- Generator: Adobe Illustrator 23.1.1, SVG Export Plug-In . SVG Version: 6.00 Build 0)  -->
<svg version="1.1" xmlns="http://www.w3.org/2000/svg" xmlns:xlink="http://www.w3.org/1999/xlink" x="0px" y="0px"
	 viewBox="0 0 16 16" style="enable-background:new 0 0 16 16;" xml:space="preserve">
<style type="text/css">
	.st0{display:none;}
	.st1{display:inline;}
	.st2{fill:#404040;}
	.st3{fill:#FFFFFF;}
	.st4{fill:none;}
	.st5{opacity:0.3;fill:none;}
	.st6{fill:#FF0000;}
	.st7{fill-rule:evenodd;clip-rule:evenodd;fill:#404040;}
	.st8{fill-rule:evenodd;clip-rule:evenodd;fill:#FFFFFF;}
	.st9{fill-rule:evenodd;clip-rule:evenodd;fill:#2867B2;}
	.st10{fill:#EE1376;}
	.st11{fill:#1DA1F2;}
	.st12{fill:#1877F2;}
	.st13{display:inline;fill:none;}
	.st14{display:inline;fill:#404040;}
	.st15{display:inline;opacity:0.3;fill:none;}
	.st16{display:inline;fill-rule:evenodd;clip-rule:evenodd;fill:#404040;}
	.st17{fill:none;stroke:#404040;stroke-width:2;stroke-linecap:round;}
</style>
<g id="Outter_Container" class="st0">
</g>
<g id="NEW" class="st0">
</g>
<g id="NEW_NO_Container">
	<g id="icon-social-youtube_2_">
		<path class="st2" d="M15.6657,4.1239c-0.184-0.6929-0.7262-1.2386-1.4146-1.4238C13.0034,2.3636,8,2.3636,8,2.3636
			s-5.0033,0-6.2511,0.3365C1.0605,2.8853,0.5184,3.431,0.3344,4.1239C0,5.3798,0,8,0,8s0,2.6202,0.3344,3.8761
			c0.184,0.6929,0.7262,1.2385,1.4146,1.4238C2.9967,13.6364,8,13.6364,8,13.6364s5.0034,0,6.2511-0.3365
			c0.6884-0.1852,1.2306-0.7309,1.4146-1.4238C16,10.6202,16,8,16,8S16,5.3798,15.6657,4.1239z M6.3636,10.379V5.621l4.1818,2.3791
			L6.3636,10.379z"/>
	</g>
</g>
</svg>
