<?xml version="1.0" encoding="utf-8"?>
<!-- Generator: Adobe Illustrator 23.1.1, SVG Export Plug-In . SVG Version: 6.00 Build 0)  -->
<svg version="1.1" xmlns="http://www.w3.org/2000/svg" xmlns:xlink="http://www.w3.org/1999/xlink" x="0px" y="0px"
	 viewBox="0 0 16 16" style="enable-background:new 0 0 16 16;" xml:space="preserve">
<style type="text/css">
	.st0{display:none;}
	.st1{display:inline;}
	.st2{fill:#404040;}
	.st3{fill:#FFFFFF;}
	.st4{fill:none;}
	.st5{opacity:0.3;fill:none;}
	.st6{fill:#FF0000;}
	.st7{fill-rule:evenodd;clip-rule:evenodd;fill:#404040;}
	.st8{fill-rule:evenodd;clip-rule:evenodd;fill:#FFFFFF;}
	.st9{fill-rule:evenodd;clip-rule:evenodd;fill:#2867B2;}
	.st10{fill:#EE1376;}
	.st11{fill:#1DA1F2;}
	.st12{fill:#1877F2;}
	.st13{display:inline;fill:none;}
	.st14{display:inline;fill:#404040;}
	.st15{display:inline;opacity:0.3;fill:none;}
	.st16{display:inline;fill-rule:evenodd;clip-rule:evenodd;fill:#404040;}
	.st17{fill:none;stroke:#404040;stroke-width:2;stroke-linecap:round;}
</style>
<g id="Outter_Container" class="st0">
</g>
<g id="NEW" class="st0">
</g>
<g id="NEW_NO_Container">
	<g id="icon-tent_2_">
		<g>
			<path class="st2" d="M15.8637,14.4962L8.8773,2.5206C8.8681,2.504,8.8588,2.4874,8.8485,2.4708L7.6967,0.4962
				C7.4184,0.0196,6.808-0.1405,6.329,0.1359C5.852,0.4142,5.6908,1.0265,5.9691,1.504l0.873,1.4961L0.1361,14.4962
				c-0.1807,0.3096-0.1816,0.6914-0.0034,1.002s0.5093,0.502,0.8672,0.502h14c0.3579,0,0.689-0.1914,0.8672-0.502
				S16.0443,14.8058,15.8637,14.4962z M8.9999,14.0001v-3c0-0.5527-0.4478-1-1-1s-1,0.4473-1,1v3H2.7411l5.2588-9.0156
				l5.2588,9.0156H8.9999z"/>
		</g>
	</g>
</g>
</svg>
