<svg id="NEW_NO_Container" data-name="NEW NO Container" xmlns="http://www.w3.org/2000/svg" viewBox="0 0 16 16"><defs><style>.cls-1{fill:#404040;}</style></defs><title>icon-time</title><g id="icon-time"><path class="cls-1" d="M8,2A6,6,0,1,1,2,8,6.0068,6.0068,0,0,1,8,2M8,0a8,8,0,1,0,8,8A8,8,0,0,0,8,0Z" transform="translate(-0.0003 0)"/><path class="cls-1" d="M10.4993,11a.997.997,0,0,1-.624-.2193L7,8.48V5A1,1,0,1,1,9,5V7.52l2.125,1.7A1,1,0,0,1,10.4993,11Z" transform="translate(-0.0003 0)"/></g></svg>