<?xml version="1.0" encoding="utf-8"?>
<!-- Generator: Adobe Illustrator 23.1.1, SVG Export Plug-In . SVG Version: 6.00 Build 0)  -->
<svg version="1.1" xmlns="http://www.w3.org/2000/svg" xmlns:xlink="http://www.w3.org/1999/xlink" x="0px" y="0px"
	 viewBox="0 0 16 16" style="enable-background:new 0 0 16 16;" xml:space="preserve">
<style type="text/css">
	.st0{display:none;}
	.st1{display:inline;}
	.st2{fill:#404040;}
	.st3{fill:#FFFFFF;}
	.st4{fill:none;}
	.st5{opacity:0.3;fill:none;}
	.st6{fill:#FF0000;}
	.st7{fill-rule:evenodd;clip-rule:evenodd;fill:#404040;}
	.st8{fill-rule:evenodd;clip-rule:evenodd;fill:#FFFFFF;}
	.st9{fill-rule:evenodd;clip-rule:evenodd;fill:#2867B2;}
	.st10{fill:#EE1376;}
	.st11{fill:#1DA1F2;}
	.st12{fill:#1877F2;}
	.st13{display:inline;fill:none;}
	.st14{display:inline;fill:#404040;}
	.st15{display:inline;opacity:0.3;fill:none;}
	.st16{display:inline;fill-rule:evenodd;clip-rule:evenodd;fill:#404040;}
	.st17{fill:none;stroke:#404040;stroke-width:2;stroke-linecap:round;}
</style>
<g id="Outter_Container" class="st0">
</g>
<g id="NEW" class="st0">
</g>
<g id="NEW_NO_Container">
	<g id="icon-time_2_">
		<g>
			<g>
				<path class="st2" d="M8.0003,2c3.3084,0,6,2.6916,6,6s-2.6916,6-6,6s-6-2.6916-6-6S4.6919,2,8.0003,2 M8.0003,0
					c-4.4183,0-8,3.5817-8,8c0,4.4183,3.5817,8,8,8s8-3.5817,8-8C16.0003,3.5817,12.4186,0,8.0003,0L8.0003,0z"/>
			</g>
			<path class="st2" d="M10.4993,11c-0.2188,0-0.4395-0.0718-0.624-0.2192l-2.875-2.3003V5c0-0.5522,0.4473-1,1-1s1,0.4478,1,1
				v2.5195l2.125,1.6997c0.4307,0.3447,0.501,0.9741,0.1562,1.4053C11.0833,10.8716,10.7933,11,10.4993,11z"/>
		</g>
	</g>
</g>
</svg>
