<svg id="NEW_NO_Container" data-name="NEW NO Container" xmlns="http://www.w3.org/2000/svg" viewBox="0 0 15 16"><defs><style>.cls-1{fill:#404040;}</style></defs><title>icon-trash</title><g id="icon-trash"><path class="cls-1" d="M14.5,3H12V1.9985A2.0007,2.0007,0,0,0,10.0017,0H5.9983A2.0008,2.0008,0,0,0,4,1.9985V3H1.5a1,1,0,0,0,0,2h.5866l.9173,10.09A1,1,0,0,0,4,16h8a1,1,0,0,0,.9961-.91L13.9132,5H14.5a1,1,0,0,0,0-2ZM5.9983,2,10,1.9985V3H5.999Zm5.0884,12H4.9129L4.095,5h7.81Z" transform="translate(-0.4998 0.0001)"/></g></svg>