<svg id="NEW_NO_Container" data-name="NEW NO Container" xmlns="http://www.w3.org/2000/svg" viewBox="0 0 16 11.8936"><defs><style>.cls-1{fill:#404040;}</style></defs><title>icon-video-slideshow</title><g id="icon-video-slideshow"><path class="cls-1" d="M15,2.0531H1a1,1,0,0,0-1,1v9.8935a.9994.9994,0,0,0,1,1H15a.9994.9994,0,0,0,1-1V3.0531A1,1,0,0,0,15,2.0531Zm-1,2v7.8935H2V4.0531Z" transform="translate(0 -2.0531)"/><path class="cls-1" d="M7.2472,9.9357,9.9407,8.4394a.503.503,0,0,0,0-.8793L7.2472,6.0638a.5029.5029,0,0,0-.7472.44V9.4961A.5029.5029,0,0,0,7.2472,9.9357Z" transform="translate(0 -2.0531)"/></g></svg>