<svg id="NEW_NO_Container" data-name="NEW NO Container" xmlns="http://www.w3.org/2000/svg" viewBox="0 0 16 16.0005"><defs><style>.cls-1{fill:#404040;}</style></defs><title>icon-warning-caution</title><g id="icon-warning-caution"><path class="cls-1" d="M7,5V8A1,1,0,0,0,9,8V5A1,1,0,0,0,7,5Z" transform="translate(0.0002 0.0002)"/><path class="cls-1" d="M15,2A12.9662,12.9662,0,0,1,8.5545.1682a.9975.9975,0,0,0-1.1094,0A12.822,12.822,0,0,1,1,2,1,1,0,0,0,0,3c0,10.74,6.6836,13,8,13s8-2.26,8-13A1,1,0,0,0,15,2ZM8,14C7.0359,13.9534,2.366,12.0159,2.02,3.9612A15.119,15.119,0,0,0,8,2.1624a15.119,15.119,0,0,0,5.98,1.7988C13.6336,12.0159,8.9637,13.9534,8,14Z" transform="translate(0.0002 0.0002)"/><circle class="cls-1" cx="8.0004" cy="11.0001" r="1"/></g></svg>