<svg id="NEW_NO_Container" data-name="NEW NO Container" xmlns="http://www.w3.org/2000/svg" viewBox="0 0 16 16.0005"><defs><style>.cls-1{fill:#404040;}</style></defs><title>icon-warning-stop</title><g id="icon-warning-stop"><path class="cls-1" d="M9.4139,8l1.2929-1.2929a1,1,0,1,0-1.414-1.4141L8,6.5862l-1.293-1.293a1,1,0,1,0-1.414,1.4141L6.5857,8,5.2928,9.2932a1,1,0,1,0,1.414,1.4141L8,9.4143l1.293,1.293a1,1,0,1,0,1.414-1.4141Z" transform="translate(0.0002 0.0002)"/><path class="cls-1" d="M15,2A12.9662,12.9662,0,0,1,8.5545.1682a.9975.9975,0,0,0-1.1094,0A12.822,12.822,0,0,1,1,2,1,1,0,0,0,0,3c0,10.74,6.6836,13,8,13s8-2.26,8-13A1,1,0,0,0,15,2ZM8.0027,14c-.9565-.0425-5.6189-1.9917-5.969-10.0463A15.1631,15.1631,0,0,0,8,2.1624a15.1637,15.1637,0,0,0,5.9661,1.7911C13.6158,12.0081,8.9537,13.9573,8.0027,14Z" transform="translate(0.0002 0.0002)"/></g></svg>