<?xml version="1.0" encoding="utf-8"?>
<!-- Generator: Adobe Illustrator 23.1.1, SVG Export Plug-In . SVG Version: 6.00 Build 0)  -->
<svg version="1.1" xmlns="http://www.w3.org/2000/svg" xmlns:xlink="http://www.w3.org/1999/xlink" x="0px" y="0px"
	 viewBox="0 0 16 16" style="enable-background:new 0 0 16 16;" xml:space="preserve">
<style type="text/css">
	.st0{display:none;}
	.st1{display:inline;}
	.st2{fill:#404040;}
	.st3{fill:#FFFFFF;}
	.st4{fill:none;}
	.st5{opacity:0.3;fill:none;}
	.st6{fill:#FF0000;}
	.st7{fill-rule:evenodd;clip-rule:evenodd;fill:#404040;}
	.st8{fill-rule:evenodd;clip-rule:evenodd;fill:#FFFFFF;}
	.st9{fill-rule:evenodd;clip-rule:evenodd;fill:#2867B2;}
	.st10{fill:#EE1376;}
	.st11{fill:#1DA1F2;}
	.st12{fill:#1877F2;}
	.st13{display:inline;fill:none;}
	.st14{display:inline;fill:#404040;}
	.st15{display:inline;opacity:0.3;fill:none;}
	.st16{display:inline;fill-rule:evenodd;clip-rule:evenodd;fill:#404040;}
	.st17{fill:none;stroke:#404040;stroke-width:2;stroke-linecap:round;}
</style>
<g id="Outter_Container" class="st0">
</g>
<g id="NEW" class="st0">
</g>
<g id="NEW_NO_Container">
	<g id="icon-x-close_2_">
		<g>
			<path class="st2" d="M9.4145,7.9999l4.2928-4.2928c0.3906-0.3906,0.3906-1.0234,0-1.4141s-1.0234-0.3906-1.4141,0L8.0004,6.5858
				L3.7074,2.293c-0.3906-0.3906-1.0234-0.3906-1.4141,0s-0.3906,1.0234,0,1.4141l4.2931,4.2928L2.2933,12.293
				c-0.3906,0.3906-0.3906,1.0234,0,1.4141C2.4886,13.9023,2.7445,14,3.0003,14s0.5117-0.0977,0.707-0.293l4.2931-4.2931
				l4.2811,4.2809c0.1953,0.1953,0.4512,0.293,0.707,0.293s0.5117-0.0977,0.707-0.293c0.3906-0.3906,0.3906-1.0234,0-1.4141
				L9.4145,7.9999z"/>
		</g>
	</g>
</g>
</svg>
