<?xml version="1.0" encoding="utf-8"?>
<!-- Generator: Adobe Illustrator 23.1.1, SVG Export Plug-In . SVG Version: 6.00 Build 0)  -->
<svg version="1.1" xmlns="http://www.w3.org/2000/svg" xmlns:xlink="http://www.w3.org/1999/xlink" x="0px" y="0px"
	 viewBox="0 0 16 16" style="enable-background:new 0 0 16 16;" xml:space="preserve">
<style type="text/css">
	.st0{display:none;}
	.st1{display:inline;}
	.st2{fill:#404040;}
	.st3{fill:#FFFFFF;}
	.st4{fill:none;}
	.st5{opacity:0.3;fill:none;}
	.st6{fill:#FF0000;}
	.st7{fill-rule:evenodd;clip-rule:evenodd;fill:#404040;}
	.st8{fill-rule:evenodd;clip-rule:evenodd;fill:#FFFFFF;}
	.st9{fill-rule:evenodd;clip-rule:evenodd;fill:#2867B2;}
	.st10{fill:#EE1376;}
	.st11{fill:#1DA1F2;}
	.st12{fill:#1877F2;}
	.st13{display:inline;fill:none;}
	.st14{display:inline;fill:#404040;}
	.st15{display:inline;opacity:0.3;fill:none;}
	.st16{display:inline;fill-rule:evenodd;clip-rule:evenodd;fill:#404040;}
	.st17{fill:none;stroke:#404040;stroke-width:2;stroke-linecap:round;}
</style>
<g id="Outter_Container" class="st0">
</g>
<g id="NEW" class="st0">
</g>
<g id="NEW_NO_Container">
	<g id="icon-zoom-out_2_">
		<g>
			<g>
				<path class="st2" d="M15.7068,14.2931l-3.1066-3.1066c0.8749-1.1685,1.3996-2.6146,1.3996-4.1867c0-3.866-3.134-7-7-7
					s-7,3.134-7,7c0,3.866,3.134,7,7,7c1.572,0,3.0179-0.5244,4.1863-1.3993l3.1067,3.1067c0.1953,0.1953,0.4512,0.293,0.707,0.293
					s0.5117-0.0977,0.707-0.293C16.0975,15.3165,16.0975,14.6837,15.7068,14.2931z M1.9998,6.9998c0-2.757,2.243-5,5-5s5,2.243,5,5
					c0,1.3355-0.5201,2.5912-1.4644,3.5355c-0.9444,0.9444-2.2001,1.4645-3.5356,1.4645C4.2428,11.9998,1.9998,9.7568,1.9998,6.9998
					z"/>
				<path class="st2" d="M10.9998,7.0001c0-0.5527-0.4473-1-1-1h-6c-0.5527,0-1,0.4473-1,1s0.4473,1,1,1h6
					C10.5525,8.0001,10.9998,7.5529,10.9998,7.0001z"/>
			</g>
		</g>
	</g>
</g>
</svg>
