<svg id="NEW_NO_Container" data-name="NEW NO Container" xmlns="http://www.w3.org/2000/svg" viewBox="0 0 16 16.0004"><defs><style>.cls-1{fill:#404040;}</style></defs><title>icon-zoom-out</title><g id="icon-zoom-out"><path class="cls-1" d="M15.7068,14.2931,12.6,11.1865a7.0192,7.0192,0,1,0-1.4141,1.414l3.1067,3.1067a1,1,0,1,0,1.414-1.4141ZM2,7a5,5,0,1,1,5,5A5.0056,5.0056,0,0,1,2,7Z" transform="translate(0.0002 0.0002)"/><path class="cls-1" d="M11,7a1,1,0,0,0-1-1H4A1,1,0,0,0,4,8h6A.9994.9994,0,0,0,11,7Z" transform="translate(0.0002 0.0002)"/></g></svg>