<?xml version="1.0" standalone="no"?>
<!DOCTYPE svg PUBLIC "-//W3C//DTD SVG 1.1//EN" "http://www.w3.org/Graphics/SVG/1.1/DTD/svg11.dtd" >
<svg xmlns="http://www.w3.org/2000/svg">
<defs>
  <font id="wsu-icons" horiz-adv-x="7000">
    <font-face font-family="wsu-icons"
      units-per-em="1000" ascent="1000"
      descent="0" />
    <missing-glyph horiz-adv-x="0" />
    <glyph glyph-name="alarm"
      unicode="&#xF101;"
      horiz-adv-x="7000" d="M499.99375 812.5A343.74999999999994 343.74999999999994 0 1 0 156.24375 468.75A344.1375 344.1375 0 0 0 499.99375 812.5M499.99375 937.5A468.74999999999994 468.74999999999994 0 1 1 968.74375 468.75A468.74999999999994 468.74999999999994 0 0 1 499.99375 937.5zM656.1875 281.25A62.34375 62.34375 0 0 0 617.1875 294.9500000000001L437.4937500000001 438.71875V656.25A62.5 62.5 0 0 0 562.49375 656.25V498.75L695.30625 392.5000000000001A62.5 62.5 0 0 0 656.1812500000001 281.2000000000002zM937.49375 812.5A62.30625 62.30625 0 0 0 893.30625 830.8125L830.80625 893.3125A62.5 62.5 0 1 0 919.1875 981.6875L981.6875 919.1875A62.5 62.5 0 0 0 937.49375 812.5zM62.49375 812.5A62.5 62.5 0 0 0 18.30625 919.1875L80.80625 981.6875A62.5 62.5 0 0 0 169.18125 893.3125L106.68125 830.8125A62.29375 62.29375 0 0 0 62.49375 812.5z" />
    <glyph glyph-name="alarm-1"
      unicode="&#x61;&#x6C;&#x61;&#x72;&#x6D;"
      horiz-adv-x="7000" d="M499.99375 812.5A343.74999999999994 343.74999999999994 0 1 0 156.24375 468.75A344.1375 344.1375 0 0 0 499.99375 812.5M499.99375 937.5A468.74999999999994 468.74999999999994 0 1 1 968.74375 468.75A468.74999999999994 468.74999999999994 0 0 1 499.99375 937.5zM656.1875 281.25A62.34375 62.34375 0 0 0 617.1875 294.9500000000001L437.4937500000001 438.71875V656.25A62.5 62.5 0 0 0 562.49375 656.25V498.75L695.30625 392.5000000000001A62.5 62.5 0 0 0 656.1812500000001 281.2000000000002zM937.49375 812.5A62.30625 62.30625 0 0 0 893.30625 830.8125L830.80625 893.3125A62.5 62.5 0 1 0 919.1875 981.6875L981.6875 919.1875A62.5 62.5 0 0 0 937.49375 812.5zM62.49375 812.5A62.5 62.5 0 0 0 18.30625 919.1875L80.80625 981.6875A62.5 62.5 0 0 0 169.18125 893.3125L106.68125 830.8125A62.29375 62.29375 0 0 0 62.49375 812.5z" />
    <glyph glyph-name="alert-notification"
      unicode="&#xF102;"
      horiz-adv-x="7000" d="M770.4451612903225 514.6064516129032A2.838709677419354 2.838709677419354 0 0 0 769.2903225806451 516.8709677419355V630.1096774193549A303.058064516129 303.058064516129 0 0 1 541.8451612903226 927.2645161290322A60.79354838709677 60.79354838709677 0 0 1 543.483870967742 935.483870967742A64.51612903225806 64.51612903225806 0 0 1 414.4516129032258 935.483870967742A60.490322580645156 60.490322580645156 0 0 1 415.9290322580645 928.1806451612904A290.14193548387095 290.14193548387095 0 0 1 188.6451612903226 645.1612903225807V516.8709677419355A2.8 2.8 0 0 0 187.5161290322581 514.6129032258065A483.6064516129032 483.6064516129032 0 0 1 0.741935483871 202.825806451613A64.60645161290321 64.60645161290321 0 0 1 64.7741935483871 129.0322580645161H349.9354838709678A129.03225806451613 129.03225806451613 0 0 1 608 129.0322580645161H892.9419354838709A64.8 64.8 0 0 1 957.2 202.9870967741936A483.6064516129032 483.6064516129032 0 0 1 770.4451612903225 514.6064516129032zM148.4 258.0645161290323A354.83870967741933 354.83870967741933 0 0 0 265.2645161290323 411.6129032258065L317.6774193548387 452.5935483870968V645.1612903225807A161.47096774193548 161.47096774193548 0 0 0 478.9677419354839 806.4516129032259Q486.3032258064516 806.4516129032259 493.8064516129033 805.8064516129032A172.9741935483871 172.9741935483871 0 0 0 640.258064516129 630.1096774193549V516.8709677419355L641.3870967741935 450.4193548387098L692.5419354838709 411.7096774193549A355.14193548387095 355.14193548387095 0 0 0 809.574193548387 258.0645161290323z" />
    <glyph glyph-name="alert-notification-1"
      unicode="&#x61;&#x6C;&#x65;&#x72;&#x74;&#x2D;&#x6E;&#x6F;&#x74;&#x69;&#x66;&#x69;&#x63;&#x61;&#x74;&#x69;&#x6F;&#x6E;"
      horiz-adv-x="7000" d="M770.4451612903225 514.6064516129032A2.838709677419354 2.838709677419354 0 0 0 769.2903225806451 516.8709677419355V630.1096774193549A303.058064516129 303.058064516129 0 0 1 541.8451612903226 927.2645161290322A60.79354838709677 60.79354838709677 0 0 1 543.483870967742 935.483870967742A64.51612903225806 64.51612903225806 0 0 1 414.4516129032258 935.483870967742A60.490322580645156 60.490322580645156 0 0 1 415.9290322580645 928.1806451612904A290.14193548387095 290.14193548387095 0 0 1 188.6451612903226 645.1612903225807V516.8709677419355A2.8 2.8 0 0 0 187.5161290322581 514.6129032258065A483.6064516129032 483.6064516129032 0 0 1 0.741935483871 202.825806451613A64.60645161290321 64.60645161290321 0 0 1 64.7741935483871 129.0322580645161H349.9354838709678A129.03225806451613 129.03225806451613 0 0 1 608 129.0322580645161H892.9419354838709A64.8 64.8 0 0 1 957.2 202.9870967741936A483.6064516129032 483.6064516129032 0 0 1 770.4451612903225 514.6064516129032zM148.4 258.0645161290323A354.83870967741933 354.83870967741933 0 0 0 265.2645161290323 411.6129032258065L317.6774193548387 452.5935483870968V645.1612903225807A161.47096774193548 161.47096774193548 0 0 0 478.9677419354839 806.4516129032259Q486.3032258064516 806.4516129032259 493.8064516129033 805.8064516129032A172.9741935483871 172.9741935483871 0 0 0 640.258064516129 630.1096774193549V516.8709677419355L641.3870967741935 450.4193548387098L692.5419354838709 411.7096774193549A355.14193548387095 355.14193548387095 0 0 0 809.574193548387 258.0645161290323z" />
    <glyph glyph-name="arrow-down-carrot"
      unicode="&#xF103;"
      horiz-adv-x="7000" d="M1713.3875 963.375A125 125 0 0 1 1536.6250000000002 963.375L874.9625 301.7625L213.3875 963.375A125 125 0 0 1 36.625 786.625L786.625 36.625A125 125 0 0 1 963.3875 36.625L1713.3875 786.625A125 125 0 0 1 1713.3875 963.375z" />
    <glyph glyph-name="arrow-down-carrot-1"
      unicode="&#x61;&#x72;&#x72;&#x6F;&#x77;&#x2D;&#x64;&#x6F;&#x77;&#x6E;&#x2D;&#x63;&#x61;&#x72;&#x72;&#x6F;&#x74;"
      horiz-adv-x="7000" d="M1713.3875 963.375A125 125 0 0 1 1536.6250000000002 963.375L874.9625 301.7625L213.3875 963.375A125 125 0 0 1 36.625 786.625L786.625 36.625A125 125 0 0 1 963.3875 36.625L1713.3875 786.625A125 125 0 0 1 1713.3875 963.375z" />
    <glyph glyph-name="arrow-down"
      unicode="&#xF104;"
      horiz-adv-x="7000" d="M18.3125 393.3125L393.3125 18.3125A62.5 62.5 0 0 1 481.69375 18.3125L856.69375 393.3125A62.5 62.5 0 1 1 768.3125000000001 481.6874999999999L498.475 211.875V937.5A62.5 62.5 0 1 1 373.475 937.5V214.90625L106.69375 481.6875A62.5 62.5 0 0 1 18.3125 393.3125z" />
    <glyph glyph-name="arrow-down-1"
      unicode="&#x61;&#x72;&#x72;&#x6F;&#x77;&#x2D;&#x64;&#x6F;&#x77;&#x6E;"
      horiz-adv-x="7000" d="M18.3125 393.3125L393.3125 18.3125A62.5 62.5 0 0 1 481.69375 18.3125L856.69375 393.3125A62.5 62.5 0 1 1 768.3125000000001 481.6874999999999L498.475 211.875V937.5A62.5 62.5 0 1 1 373.475 937.5V214.90625L106.69375 481.6875A62.5 62.5 0 0 1 18.3125 393.3125z" />
    <glyph glyph-name="arrow-left-carrot"
      unicode="&#xF105;"
      horiz-adv-x="7000" d="M172.4357142857143 500L550.5071428571429 878.0714285714286A71.42857142857143 71.42857142857143 0 1 1 449.5 979.0714285714286L20.9285714285714 550.5A71.42857142857143 71.42857142857143 0 0 1 20.9285714285714 449.5L449.5 20.9285714285713A71.42857142857143 71.42857142857143 0 1 1 550.5071428571428 121.9285714285713z" />
    <glyph glyph-name="arrow-left-carrot-1"
      unicode="&#x61;&#x72;&#x72;&#x6F;&#x77;&#x2D;&#x6C;&#x65;&#x66;&#x74;&#x2D;&#x63;&#x61;&#x72;&#x72;&#x6F;&#x74;"
      horiz-adv-x="7000" d="M172.4357142857143 500L550.5071428571429 878.0714285714286A71.42857142857143 71.42857142857143 0 1 1 449.5 979.0714285714286L20.9285714285714 550.5A71.42857142857143 71.42857142857143 0 0 1 20.9285714285714 449.5L449.5 20.9285714285713A71.42857142857143 71.42857142857143 0 1 1 550.5071428571428 121.9285714285713z" />
    <glyph glyph-name="arrow-left"
      unicode="&#xF106;"
      horiz-adv-x="7000" d="M449.5 979.0714285714286L20.9285714285714 550.5A71.42857142857143 71.42857142857143 0 0 1 20.9285714285714 449.5L449.5 20.9285714285713A71.42857142857143 71.42857142857143 0 1 1 550.5071428571429 121.9285714285713L242.1214285714286 430.3142857142857H1071.4071428571428A71.42857142857143 71.42857142857143 0 0 1 1071.4071428571428 573.1714285714286H245.6071428571429L550.5071428571429 878.0714285714286A71.42857142857143 71.42857142857143 0 0 1 449.5 979.0714285714286z" />
    <glyph glyph-name="arrow-left-1"
      unicode="&#x61;&#x72;&#x72;&#x6F;&#x77;&#x2D;&#x6C;&#x65;&#x66;&#x74;"
      horiz-adv-x="7000" d="M449.5 979.0714285714286L20.9285714285714 550.5A71.42857142857143 71.42857142857143 0 0 1 20.9285714285714 449.5L449.5 20.9285714285713A71.42857142857143 71.42857142857143 0 1 1 550.5071428571429 121.9285714285713L242.1214285714286 430.3142857142857H1071.4071428571428A71.42857142857143 71.42857142857143 0 0 1 1071.4071428571428 573.1714285714286H245.6071428571429L550.5071428571429 878.0714285714286A71.42857142857143 71.42857142857143 0 0 1 449.5 979.0714285714286z" />
    <glyph glyph-name="arrow-right-carrot"
      unicode="&#xF107;"
      horiz-adv-x="7000" d="M550.5071428571429 550.5L121.9357142857143 979.0714285714286A71.42857142857143 71.42857142857143 0 0 1 20.9285714285714 878.0714285714286L399 500L20.9285714285714 121.9285714285715A71.42857142857143 71.42857142857143 0 1 1 121.9357142857142 20.9285714285714L550.5071428571428 449.5000000000001A71.42857142857143 71.42857142857143 0 0 1 550.5071428571429 550.5z" />
    <glyph glyph-name="arrow-right-carrot-1"
      unicode="&#x61;&#x72;&#x72;&#x6F;&#x77;&#x2D;&#x72;&#x69;&#x67;&#x68;&#x74;&#x2D;&#x63;&#x61;&#x72;&#x72;&#x6F;&#x74;"
      horiz-adv-x="7000" d="M550.5071428571429 550.5L121.9357142857143 979.0714285714286A71.42857142857143 71.42857142857143 0 0 1 20.9285714285714 878.0714285714286L399 500L20.9285714285714 121.9285714285715A71.42857142857143 71.42857142857143 0 1 1 121.9357142857142 20.9285714285714L550.5071428571428 449.5000000000001A71.42857142857143 71.42857142857143 0 0 1 550.5071428571429 550.5z" />
    <glyph glyph-name="arrow-right"
      unicode="&#xF108;"
      horiz-adv-x="7000" d="M693.3571428571429 20.9285714285713L1121.9285714285716 449.4999999999999A71.42857142857143 71.42857142857143 0 0 1 1121.9285714285716 550.4999999999999L693.3571428571429 979.0714285714284A71.42857142857143 71.42857142857143 0 1 1 592.357142857143 878.0714285714284L900.7357142857144 569.6857142857142H71.4071428571429A71.42857142857143 71.42857142857143 0 1 1 71.4071428571429 426.8285714285714H897.2500000000001L592.357142857143 121.9285714285715A71.42857142857143 71.42857142857143 0 1 1 693.3571428571429 20.9285714285714z" />
    <glyph glyph-name="arrow-right-1"
      unicode="&#x61;&#x72;&#x72;&#x6F;&#x77;&#x2D;&#x72;&#x69;&#x67;&#x68;&#x74;"
      horiz-adv-x="7000" d="M693.3571428571429 20.9285714285713L1121.9285714285716 449.4999999999999A71.42857142857143 71.42857142857143 0 0 1 1121.9285714285716 550.4999999999999L693.3571428571429 979.0714285714284A71.42857142857143 71.42857142857143 0 1 1 592.357142857143 878.0714285714284L900.7357142857144 569.6857142857142H71.4071428571429A71.42857142857143 71.42857142857143 0 1 1 71.4071428571429 426.8285714285714H897.2500000000001L592.357142857143 121.9285714285715A71.42857142857143 71.42857142857143 0 1 1 693.3571428571429 20.9285714285714z" />
    <glyph glyph-name="arrow-up-carrot"
      unicode="&#xF109;"
      horiz-adv-x="7000" d="M1713.3875 213.3750000000001L963.3875 963.3750000000002A125 125 0 0 1 786.6250000000001 963.3750000000002L36.6250000000001 213.3750000000001A125 125 0 1 1 213.3875000000001 36.6250000000001L874.9625 698.2375L1536.5875 36.6249999999999A125 125 0 1 1 1713.35 213.3749999999999z" />
    <glyph glyph-name="arrow-up-carrot-1"
      unicode="&#x61;&#x72;&#x72;&#x6F;&#x77;&#x2D;&#x75;&#x70;&#x2D;&#x63;&#x61;&#x72;&#x72;&#x6F;&#x74;"
      horiz-adv-x="7000" d="M1713.3875 213.3750000000001L963.3875 963.3750000000002A125 125 0 0 1 786.6250000000001 963.3750000000002L36.6250000000001 213.3750000000001A125 125 0 1 1 213.3875000000001 36.6250000000001L874.9625 698.2375L1536.5875 36.6249999999999A125 125 0 1 1 1713.35 213.3749999999999z" />
    <glyph glyph-name="arrow-up"
      unicode="&#xF10A;"
      horiz-adv-x="7000" d="M856.69375 606.6875L481.69375 981.6875A62.5 62.5 0 0 1 393.3125000000001 981.6875L18.3125000000001 606.6875A62.5 62.5 0 1 1 106.69375 518.3062500000001L376.525 788.125V62.5A62.5 62.5 0 0 1 501.525 62.5V785.09375L768.3125 518.30625A62.5 62.5 0 1 1 856.69375 606.6875z" />
    <glyph glyph-name="arrow-up-1"
      unicode="&#x61;&#x72;&#x72;&#x6F;&#x77;&#x2D;&#x75;&#x70;"
      horiz-adv-x="7000" d="M856.69375 606.6875L481.69375 981.6875A62.5 62.5 0 0 1 393.3125000000001 981.6875L18.3125000000001 606.6875A62.5 62.5 0 1 1 106.69375 518.3062500000001L376.525 788.125V62.5A62.5 62.5 0 0 1 501.525 62.5V785.09375L768.3125 518.30625A62.5 62.5 0 1 1 856.69375 606.6875z" />
    <glyph glyph-name="attachment"
      unicode="&#xF10B;"
      horiz-adv-x="7000" d="M343.75 999.9875A344.15625 344.15625 0 0 1 0 656.2375V249.9875000000001A250 250 0 0 1 500 249.9875000000001V656.2375A156.25 156.25 0 1 1 187.5 656.2375V249.9875000000001A62.5 62.5 0 0 1 312.5 249.9875000000001V656.2375A31.25 31.25 0 0 0 375 656.2375V249.9875000000001A125 125 0 0 0 125 249.9875000000001V656.2375A218.75 218.75 0 1 0 562.5 656.2375V249.9875000000001A62.5 62.5 0 0 1 687.5 249.9875000000001V656.2375A344.15625 344.15625 0 0 1 343.75 999.9875z" />
    <glyph glyph-name="attachment-1"
      unicode="&#x61;&#x74;&#x74;&#x61;&#x63;&#x68;&#x6D;&#x65;&#x6E;&#x74;"
      horiz-adv-x="7000" d="M343.75 999.9875A344.15625 344.15625 0 0 1 0 656.2375V249.9875000000001A250 250 0 0 1 500 249.9875000000001V656.2375A156.25 156.25 0 1 1 187.5 656.2375V249.9875000000001A62.5 62.5 0 0 1 312.5 249.9875000000001V656.2375A31.25 31.25 0 0 0 375 656.2375V249.9875000000001A125 125 0 0 0 125 249.9875000000001V656.2375A218.75 218.75 0 1 0 562.5 656.2375V249.9875000000001A62.5 62.5 0 0 1 687.5 249.9875000000001V656.2375A344.15625 344.15625 0 0 1 343.75 999.9875z" />
    <glyph glyph-name="basket"
      unicode="&#xF10C;"
      horiz-adv-x="7000" d="M781.2423827648922 -0.0062500390627H218.7388671179195A62.43164019775124 62.43164019775124 0 0 0 159.1072444202777 43.850274064213L2.8562678516741 543.8533990837443A62.50039062744142 62.50039062744142 0 0 0 62.4878905493159 624.9976562353515H937.4933593334958A62.50039062744142 62.50039062744142 0 0 0 997.1249820311378 543.8533990837443L840.8740054625341 43.8502740642128A62.425390158688494 62.425390158688494 0 0 0 781.2423827648922 -0.0062500390627zM264.7141544634653 124.9945312158202H735.29834561466L852.4928280801755 499.9968749804686H147.5259220370127zM499.9906249414058 687.4980468627929A62.50039062744142 62.50039062744142 0 0 0 437.4902343139645 749.9984374902343V937.4996093725586A62.50039062744142 62.50039062744142 0 1 0 562.4910155688473 937.4996093725586V749.9984374902343A62.50039062744142 62.50039062744142 0 0 0 499.9906249414058 687.4980468627929z" />
    <glyph glyph-name="basket-1"
      unicode="&#x62;&#x61;&#x73;&#x6B;&#x65;&#x74;"
      horiz-adv-x="7000" d="M781.2423827648922 -0.0062500390627H218.7388671179195A62.43164019775124 62.43164019775124 0 0 0 159.1072444202777 43.850274064213L2.8562678516741 543.8533990837443A62.50039062744142 62.50039062744142 0 0 0 62.4878905493159 624.9976562353515H937.4933593334958A62.50039062744142 62.50039062744142 0 0 0 997.1249820311378 543.8533990837443L840.8740054625341 43.8502740642128A62.425390158688494 62.425390158688494 0 0 0 781.2423827648922 -0.0062500390627zM264.7141544634653 124.9945312158202H735.29834561466L852.4928280801755 499.9968749804686H147.5259220370127zM499.9906249414058 687.4980468627929A62.50039062744142 62.50039062744142 0 0 0 437.4902343139645 749.9984374902343V937.4996093725586A62.50039062744142 62.50039062744142 0 1 0 562.4910155688473 937.4996093725586V749.9984374902343A62.50039062744142 62.50039062744142 0 0 0 499.9906249414058 687.4980468627929z" />
    <glyph glyph-name="bookmark"
      unicode="&#xF10D;"
      horiz-adv-x="7000" d="M562.5250000000001 1000H62.49375A62.5 62.5 0 0 1 -0.00625 937.5V32.75625A36.425 36.425 0 0 1 39.36875 0A42.331250000000004 42.331250000000004 0 0 1 66.70625 9.6374999999999L312.4937500000001 187.5L558.3000000000001 9.6374999999999A42.35 42.35 0 0 1 585.65 0A36.425 36.425 0 0 1 625.0250000000001 32.75625V937.5A62.5 62.5 0 0 1 562.5250000000001 1000zM497.14375 872.15V751.44375H127.84375V872.15zM387.44375 291.0875L312.4937500000001 345.3125L237.54375 291.0875000000001L127.8375 211.7125000000001V623.5875000000001H497.1375V211.7125000000001z" />
    <glyph glyph-name="bookmark-1"
      unicode="&#x62;&#x6F;&#x6F;&#x6B;&#x6D;&#x61;&#x72;&#x6B;"
      horiz-adv-x="7000" d="M562.5250000000001 1000H62.49375A62.5 62.5 0 0 1 -0.00625 937.5V32.75625A36.425 36.425 0 0 1 39.36875 0A42.331250000000004 42.331250000000004 0 0 1 66.70625 9.6374999999999L312.4937500000001 187.5L558.3000000000001 9.6374999999999A42.35 42.35 0 0 1 585.65 0A36.425 36.425 0 0 1 625.0250000000001 32.75625V937.5A62.5 62.5 0 0 1 562.5250000000001 1000zM497.14375 872.15V751.44375H127.84375V872.15zM387.44375 291.0875L312.4937500000001 345.3125L237.54375 291.0875000000001L127.8375 211.7125000000001V623.5875000000001H497.1375V211.7125000000001z" />
    <glyph glyph-name="calendar"
      unicode="&#xF10E;"
      horiz-adv-x="7000" d="M937.5 875.0125H812.5V937.5125A62.5 62.5 0 1 1 687.5 937.5125V875.0125H312.5V937.5125A62.5 62.5 0 0 1 187.5 937.5125V875.0125H62.5A62.5 62.5 0 0 1 0 812.5125V62.5124999999999A62.4625 62.4625 0 0 1 62.5 0.0124999999999H689.1500000000001A63.12500000000001 63.12500000000001 0 0 1 733.4312500000001 18.425L733.4625000000001 18.425L981.5875000000002 268.2249999999999L981.7375000000002 268.3812499999999L981.7812500000002 268.425C982.0687500000003 268.7124999999999 982.1437500000002 269.1124999999999 982.4062500000002 269.40625A56.650000000000006 56.650000000000006 0 0 1 999.1187500000002 308.4C999.26875 309.83125 1000 311.04375 1000 312.5125V812.5125A62.5 62.5 0 0 1 937.5 875.0125zM689.1500000000001 151.1687499999999V312.5125H849.4125zM875 750.0125V437.5125H626.6500000000001A62.4625 62.4625 0 0 1 564.1500000000001 375.0125V125.0124999999999H125V750.0125z" />
    <glyph glyph-name="calendar-1"
      unicode="&#x63;&#x61;&#x6C;&#x65;&#x6E;&#x64;&#x61;&#x72;"
      horiz-adv-x="7000" d="M937.5 875.0125H812.5V937.5125A62.5 62.5 0 1 1 687.5 937.5125V875.0125H312.5V937.5125A62.5 62.5 0 0 1 187.5 937.5125V875.0125H62.5A62.5 62.5 0 0 1 0 812.5125V62.5124999999999A62.4625 62.4625 0 0 1 62.5 0.0124999999999H689.1500000000001A63.12500000000001 63.12500000000001 0 0 1 733.4312500000001 18.425L733.4625000000001 18.425L981.5875000000002 268.2249999999999L981.7375000000002 268.3812499999999L981.7812500000002 268.425C982.0687500000003 268.7124999999999 982.1437500000002 269.1124999999999 982.4062500000002 269.40625A56.650000000000006 56.650000000000006 0 0 1 999.1187500000002 308.4C999.26875 309.83125 1000 311.04375 1000 312.5125V812.5125A62.5 62.5 0 0 1 937.5 875.0125zM689.1500000000001 151.1687499999999V312.5125H849.4125zM875 750.0125V437.5125H626.6500000000001A62.4625 62.4625 0 0 1 564.1500000000001 375.0125V125.0124999999999H125V750.0125z" />
    <glyph glyph-name="cart"
      unicode="&#xF10F;"
      horiz-adv-x="7000" d="M321.4285714285715 71.4285714285715A71.42857142857143 71.42857142857143 0 0 1 464.2857142857143 71.4285714285715A71.42857142857143 71.42857142857143 0 0 1 321.4285714285715 71.4285714285715M821.4285714285714 71.4285714285715A71.42857142857143 71.42857142857143 0 0 1 964.2857142857144 71.4285714285715A71.42857142857143 71.42857142857143 0 0 1 821.4285714285714 71.4285714285715M1128.4857142857143 828.7214285714285A71.57142857142857 71.57142857142857 0 0 1 1071.4214285714286 857.1428571428571H303.3642857142858L284.0428571428572 944.0571428571428A71.51428571428572 71.51428571428572 0 0 1 214.2785714285714 1000H71.4214285714286A71.42857142857143 71.42857142857143 0 0 1 71.4214285714286 857.1428571428571H157.0214285714286L175.9214285714286 771.9071428571428C176.1285714285714 770.7214285714285 176.4071428571429 769.5714285714286 176.6857142857143 768.4214285714286L287.4000000000001 270.2285714285715A71.51428571428572 71.51428571428572 0 0 1 357.1357142857143 214.2857142857142H928.5642857142858A71.49285714285713 71.49285714285713 0 0 1 997.2714285714286 266.0785714285714L1140.1285714285714 766.0785714285714A71.58571428571427 71.58571428571427 0 0 1 1128.4857142857143 828.7214285714285zM874.7214285714286 357.1428571428571H414.4142857142857L335.1285714285715 714.2857142857142H976.7285714285714z" />
    <glyph glyph-name="cart-1"
      unicode="&#x63;&#x61;&#x72;&#x74;"
      horiz-adv-x="7000" d="M321.4285714285715 71.4285714285715A71.42857142857143 71.42857142857143 0 0 1 464.2857142857143 71.4285714285715A71.42857142857143 71.42857142857143 0 0 1 321.4285714285715 71.4285714285715M821.4285714285714 71.4285714285715A71.42857142857143 71.42857142857143 0 0 1 964.2857142857144 71.4285714285715A71.42857142857143 71.42857142857143 0 0 1 821.4285714285714 71.4285714285715M1128.4857142857143 828.7214285714285A71.57142857142857 71.57142857142857 0 0 1 1071.4214285714286 857.1428571428571H303.3642857142858L284.0428571428572 944.0571428571428A71.51428571428572 71.51428571428572 0 0 1 214.2785714285714 1000H71.4214285714286A71.42857142857143 71.42857142857143 0 0 1 71.4214285714286 857.1428571428571H157.0214285714286L175.9214285714286 771.9071428571428C176.1285714285714 770.7214285714285 176.4071428571429 769.5714285714286 176.6857142857143 768.4214285714286L287.4000000000001 270.2285714285715A71.51428571428572 71.51428571428572 0 0 1 357.1357142857143 214.2857142857142H928.5642857142858A71.49285714285713 71.49285714285713 0 0 1 997.2714285714286 266.0785714285714L1140.1285714285714 766.0785714285714A71.58571428571427 71.58571428571427 0 0 1 1128.4857142857143 828.7214285714285zM874.7214285714286 357.1428571428571H414.4142857142857L335.1285714285715 714.2857142857142H976.7285714285714z" />
    <glyph glyph-name="check"
      unicode="&#xF110;"
      horiz-adv-x="7000" d="M1305.69814339522 978.567381087297A83.21389287023764 83.21389287023764 0 0 1 1188.0270657644744 972.3842538582046L496.8001066631112 204.3515216159461L142.2452584913836 558.9063697876736A83.33055564814505 83.33055564814505 0 1 1 24.4158528049065 441.0686310456319L441.0686310456318 24.4158528049065C441.6102796573448 23.8742041931936 442.3602546581781 23.7158761374621 442.9185693810206 23.1908936368789S443.6685443818539 21.9159361354623 444.2351921602613 21.4076197460086A80.73897536748774 80.73897536748774 0 0 1 460.7263091230291 11.3579547348423A83.15556148128395 83.15556148128395 0 0 1 469.6760107996399 5.8998033398888A83.14722842571913 83.14722842571913 0 0 1 499.9750008333055 -0.0166661111297H499.9750008333055A83.1805606479784 83.1805606479784 0 0 1 532.2239258691377 6.6914436185461A83.5222159261358 83.5222159261358 0 0 1 541.8152728242392 13.0578980700643A80.04733175560814 80.04733175560814 0 0 1 558.8897036765442 24.399186693777C559.4563514549516 24.9658344721844 559.6230125662478 25.7408086397121 560.1646611779607 26.3157894736843S561.4062864571181 27.0157661411287 561.9062697910069 27.5740808639713L1311.8812706243125 860.8796373454218A83.33055564814505 83.33055564814505 0 0 1 1305.69814339522 978.567381087297z" />
    <glyph glyph-name="check-1"
      unicode="&#x63;&#x68;&#x65;&#x63;&#x6B;"
      horiz-adv-x="7000" d="M1305.69814339522 978.567381087297A83.21389287023764 83.21389287023764 0 0 1 1188.0270657644744 972.3842538582046L496.8001066631112 204.3515216159461L142.2452584913836 558.9063697876736A83.33055564814505 83.33055564814505 0 1 1 24.4158528049065 441.0686310456319L441.0686310456318 24.4158528049065C441.6102796573448 23.8742041931936 442.3602546581781 23.7158761374621 442.9185693810206 23.1908936368789S443.6685443818539 21.9159361354623 444.2351921602613 21.4076197460086A80.73897536748774 80.73897536748774 0 0 1 460.7263091230291 11.3579547348423A83.15556148128395 83.15556148128395 0 0 1 469.6760107996399 5.8998033398888A83.14722842571913 83.14722842571913 0 0 1 499.9750008333055 -0.0166661111297H499.9750008333055A83.1805606479784 83.1805606479784 0 0 1 532.2239258691377 6.6914436185461A83.5222159261358 83.5222159261358 0 0 1 541.8152728242392 13.0578980700643A80.04733175560814 80.04733175560814 0 0 1 558.8897036765442 24.399186693777C559.4563514549516 24.9658344721844 559.6230125662478 25.7408086397121 560.1646611779607 26.3157894736843S561.4062864571181 27.0157661411287 561.9062697910069 27.5740808639713L1311.8812706243125 860.8796373454218A83.33055564814505 83.33055564814505 0 0 1 1305.69814339522 978.567381087297z" />
    <glyph glyph-name="comment"
      unicode="&#xF111;"
      horiz-adv-x="7000" d="M937.5 1000.0125H62.5A62.5 62.5 0 0 1 0 937.5125V62.5124999999999A62.581250000000004 62.581250000000004 0 0 1 106.73125 18.3625L338.38125 250.0125H937.5A62.5 62.5 0 0 1 1000 312.5125V937.5125A62.5 62.5 0 0 1 937.5 1000.0125zM312.5 375.0125A63.3625 63.3625 0 0 1 268.26875 356.65625L125 213.375V875.0125H875V375.0125z" />
    <glyph glyph-name="comment-1"
      unicode="&#x63;&#x6F;&#x6D;&#x6D;&#x65;&#x6E;&#x74;"
      horiz-adv-x="7000" d="M937.5 1000.0125H62.5A62.5 62.5 0 0 1 0 937.5125V62.5124999999999A62.581250000000004 62.581250000000004 0 0 1 106.73125 18.3625L338.38125 250.0125H937.5A62.5 62.5 0 0 1 1000 312.5125V937.5125A62.5 62.5 0 0 1 937.5 1000.0125zM312.5 375.0125A63.3625 63.3625 0 0 1 268.26875 356.65625L125 213.375V875.0125H875V375.0125z" />
    <glyph glyph-name="cut"
      unicode="&#xF112;"
      horiz-adv-x="7000" d="M588.3702180584114 499.9968750585927L981.669093704493 893.3207502359331A62.498828146972244 62.498828146972244 0 1 1 893.2957507046742 981.6940932357518L500.0031249414073 588.3702180584114L356.2558202033712 732.1175227964475A187.09649194077608 187.09649194077608 0 1 1 187.5089842065461 624.9945313525371A185.7527671356162 185.7527671356162 0 0 1 267.8762273207378 643.7441797966287L411.6235320587739 499.9968750585927L267.8762273207378 356.2495703205565A187.10274182359078 187.10274182359078 0 1 1 375.0054686474629 187.5027343237315A185.7090179559133 185.7090179559133 0 0 1 356.2558202033713 267.869977437923L500.0031249414073 411.6172821759592L893.3020005874889 18.3309062955069A62.498828146972244 62.498828146972244 0 0 1 981.6753435873076 106.7104991781404zM125.0101560595739 812.4910157934539A62.498828146972244 62.498828146972244 0 1 0 187.5089842065461 749.9921876464816A62.56757685793392 62.56757685793392 0 0 0 125.0101560595739 812.4910157934539zM187.5089842065461 125.0039061767592A62.498828146972244 62.498828146972244 0 1 0 250.0078123535184 187.5027343237315A62.56757685793392 62.56757685793392 0 0 0 187.5089842065461 125.0039061767592z" />
    <glyph glyph-name="cut-1"
      unicode="&#x63;&#x75;&#x74;"
      horiz-adv-x="7000" d="M588.3702180584114 499.9968750585927L981.669093704493 893.3207502359331A62.498828146972244 62.498828146972244 0 1 1 893.2957507046742 981.6940932357518L500.0031249414073 588.3702180584114L356.2558202033712 732.1175227964475A187.09649194077608 187.09649194077608 0 1 1 187.5089842065461 624.9945313525371A185.7527671356162 185.7527671356162 0 0 1 267.8762273207379 643.7441797966287L411.6235320587739 499.9968750585927L267.8762273207379 356.2495703205565A187.10274182359078 187.10274182359078 0 1 1 375.0054686474629 187.5027343237315A185.7090179559133 185.7090179559133 0 0 1 356.2558202033713 267.869977437923L500.0031249414073 411.6172821759592L893.3020005874889 18.3309062955069A62.498828146972244 62.498828146972244 0 0 1 981.6753435873076 106.7104991781404zM125.0101560595739 812.4910157934539A62.498828146972244 62.498828146972244 0 1 0 187.5089842065461 749.9921876464816A62.56757685793392 62.56757685793392 0 0 0 125.0101560595739 812.4910157934539zM187.5089842065461 125.0039061767592A62.498828146972244 62.498828146972244 0 1 0 250.0078123535184 187.5027343237315A62.56757685793392 62.56757685793392 0 0 0 187.5089842065461 125.0039061767592z" />
    <glyph glyph-name="discussion"
      unicode="&#xF113;"
      horiz-adv-x="7000" d="M937.5 1000.0125H62.5A62.5 62.5 0 0 1 0 937.5125V62.5124999999999A62.581250000000004 62.581250000000004 0 0 1 106.73125 18.3625L338.38125 250.0125H937.5A62.5 62.5 0 0 1 1000 312.5125V937.5125A62.5 62.5 0 0 1 937.5 1000.0125zM312.5 375.0125A63.3625 63.3625 0 0 1 268.26875 356.65625L125 213.375V875.0125H875V375.0125zM718.75 781.2625H281.25A62.5 62.5 0 1 1 281.25 656.2625H718.75A62.5 62.5 0 0 1 718.75 781.2624999999999zM625 593.7625H281.25A62.5 62.5 0 0 1 281.25 468.7624999999999H625A62.5 62.5 0 0 1 625 593.7625z" />
    <glyph glyph-name="discussion-1"
      unicode="&#x64;&#x69;&#x73;&#x63;&#x75;&#x73;&#x73;&#x69;&#x6F;&#x6E;"
      horiz-adv-x="7000" d="M937.5 1000.0125H62.5A62.5 62.5 0 0 1 0 937.5125V62.5124999999999A62.581250000000004 62.581250000000004 0 0 1 106.73125 18.3625L338.38125 250.0125H937.5A62.5 62.5 0 0 1 1000 312.5125V937.5125A62.5 62.5 0 0 1 937.5 1000.0125zM312.5 375.0125A63.3625 63.3625 0 0 1 268.26875 356.65625L125 213.375V875.0125H875V375.0125zM718.75 781.2625H281.25A62.5 62.5 0 1 1 281.25 656.2625H718.75A62.5 62.5 0 0 1 718.75 781.2624999999999zM625 593.7625H281.25A62.5 62.5 0 0 1 281.25 468.7624999999999H625A62.5 62.5 0 0 1 625 593.7625z" />
    <glyph glyph-name="document"
      unicode="&#xF114;"
      horiz-adv-x="7000" d="M745.18125 711.38125A62.43749999999999 62.43749999999999 0 0 1 731.6375 731.7437500000001L481.73125 981.64375A63.3625 63.3625 0 0 1 437.5 1000.0125H62.5A62.5 62.5 0 0 1 0 937.5125V62.5124999999999A62.5 62.5 0 0 1 62.5 0.0124999999999H687.5A62.5 62.5 0 0 1 750 62.5124999999999V687.5125A62.562499999999986 62.562499999999986 0 0 1 745.18125 711.38125zM599.11875 687.5125H437.5V849.11875zM312.5 625.0125A62.5 62.5 0 0 1 375 562.5125H625V125.0124999999999H125V875.0125H312.5z" />
    <glyph glyph-name="document-1"
      unicode="&#x64;&#x6F;&#x63;&#x75;&#x6D;&#x65;&#x6E;&#x74;"
      horiz-adv-x="7000" d="M745.18125 711.38125A62.43749999999999 62.43749999999999 0 0 1 731.6375 731.7437500000001L481.73125 981.64375A63.3625 63.3625 0 0 1 437.5 1000.0125H62.5A62.5 62.5 0 0 1 0 937.5125V62.5124999999999A62.5 62.5 0 0 1 62.5 0.0124999999999H687.5A62.5 62.5 0 0 1 750 62.5124999999999V687.5125A62.562499999999986 62.562499999999986 0 0 1 745.18125 711.38125zM599.11875 687.5125H437.5V849.11875zM312.5 625.0125A62.5 62.5 0 0 1 375 562.5125H625V125.0124999999999H125V875.0125H312.5z" />
    <glyph glyph-name="download"
      unicode="&#xF115;"
      horiz-adv-x="7000" d="M794.1874999999999 544.1937499999999A62.5 62.5 0 0 1 705.8125 544.1937499999999L561.1875 399.56875L562.5124999999999 937.38125A62.5 62.5 0 0 1 500.1249999999999 999.9875H500.0125A62.5 62.5 0 0 1 437.5125 937.6125L436.2 402.175L294.1875000000001 544.1937499999999A62.5 62.5 0 0 1 205.8125000000001 455.8125L455.8125000000001 205.8125A62.46875 62.46875 0 0 1 544.1875 205.8125L794.1875 455.8125A62.5 62.5 0 0 1 794.1874999999999 544.1937499999999zM937.5125 -0.0124999999999H62.5125A62.5 62.5 0 0 0 62.5125 124.9875000000001H937.5125A62.5 62.5 0 0 0 937.5125 -0.0124999999999z" />
    <glyph glyph-name="download-1"
      unicode="&#x64;&#x6F;&#x77;&#x6E;&#x6C;&#x6F;&#x61;&#x64;"
      horiz-adv-x="7000" d="M794.1874999999999 544.1937499999999A62.5 62.5 0 0 1 705.8125 544.1937499999999L561.1875 399.56875L562.5124999999999 937.38125A62.5 62.5 0 0 1 500.1249999999999 999.9875H500.0125A62.5 62.5 0 0 1 437.5125 937.6125L436.2 402.175L294.1875000000001 544.1937499999999A62.5 62.5 0 0 1 205.8125000000001 455.8125L455.8125000000001 205.8125A62.46875 62.46875 0 0 1 544.1875 205.8125L794.1875 455.8125A62.5 62.5 0 0 1 794.1874999999999 544.1937499999999zM937.5125 -0.0124999999999H62.5125A62.5 62.5 0 0 0 62.5125 124.9875000000001H937.5125A62.5 62.5 0 0 0 937.5125 -0.0124999999999z" />
    <glyph glyph-name="edit"
      unicode="&#xF116;"
      horiz-adv-x="7000" d="M981.6875 794.1875L794.1875 981.6875A62.5 62.5 0 0 1 705.8125000000001 981.6875L18.3125000000001 294.1875A62.45625 62.45625 0 0 1 0 250.0125V62.5124999999999A62.4625 62.4625 0 0 1 62.5 0.0124999999999H250A62.45 62.45 0 0 1 294.1875 18.3187499999999L981.6875 705.8187499999999A62.5 62.5 0 0 1 981.6875 794.1875zM224.11875 125.0124999999999H125V224.11875L593.75 692.8687499999999L692.86875 593.7625zM781.25 682.125L682.13125 781.2625L750 849.11875L849.11875 750.0125z" />
    <glyph glyph-name="edit-1"
      unicode="&#x65;&#x64;&#x69;&#x74;"
      horiz-adv-x="7000" d="M981.6875 794.1875L794.1875 981.6875A62.5 62.5 0 0 1 705.8125000000001 981.6875L18.3125000000001 294.1875A62.45625 62.45625 0 0 1 0 250.0125V62.5124999999999A62.4625 62.4625 0 0 1 62.5 0.0124999999999H250A62.45 62.45 0 0 1 294.1875 18.3187499999999L981.6875 705.8187499999999A62.5 62.5 0 0 1 981.6875 794.1875zM224.11875 125.0124999999999H125V224.11875L593.75 692.8687499999999L692.86875 593.7625zM781.25 682.125L682.13125 781.2625L750 849.11875L849.11875 750.0125z" />
    <glyph glyph-name="email"
      unicode="&#xF117;"
      horiz-adv-x="7000" d="M1249.975 1000H83.3083333333333A83.33333333333333 83.33333333333333 0 0 1 -0.025 916.6666666666666V83.3333333333334A83.33333333333333 83.33333333333333 0 0 1 83.3083333333333 0H1249.975A83.33333333333333 83.33333333333333 0 0 1 1333.3083333333334 83.3333333333334V916.6666666666666A83.33333333333333 83.33333333333333 0 0 1 1249.975 1000zM666.6416666666667 525.1333333333333L305.6833333333333 825.9666666666667H1027.5666666666666zM174.0833333333333 174.0833333333334V718.7L613.3083333333333 352.6666666666667A79.74166666666666 79.74166666666666 0 0 1 626.0749999999999 345.375A81.23333333333333 81.23333333333333 0 0 1 635.1083333333332 340.2166666666667A82.66666666666664 82.66666666666664 0 0 1 666.6416666666667 333.3333333333334L666.6416666666667 333.3333333333334L666.6833333333333 333.3333333333334A70.69166666666666 70.69166666666666 0 0 1 707.2249999999999 345.375A80.475 80.475 0 0 1 719.9916666666666 352.6666666666668L1159.2333333333331 718.6750000000001V174.0833333333334z" />
    <glyph glyph-name="email-1"
      unicode="&#x65;&#x6D;&#x61;&#x69;&#x6C;"
      horiz-adv-x="7000" d="M1249.975 1000H83.3083333333333A83.33333333333333 83.33333333333333 0 0 1 -0.025 916.6666666666666V83.3333333333334A83.33333333333333 83.33333333333333 0 0 1 83.3083333333333 0H1249.975A83.33333333333333 83.33333333333333 0 0 1 1333.3083333333334 83.3333333333334V916.6666666666666A83.33333333333333 83.33333333333333 0 0 1 1249.975 1000zM666.6416666666667 525.1333333333333L305.6833333333333 825.9666666666667H1027.5666666666666zM174.0833333333333 174.0833333333334V718.7L613.3083333333333 352.6666666666667A79.74166666666666 79.74166666666666 0 0 1 626.0749999999999 345.375A81.23333333333333 81.23333333333333 0 0 1 635.1083333333332 340.2166666666667A82.66666666666664 82.66666666666664 0 0 1 666.6416666666667 333.3333333333335L666.6416666666667 333.3333333333335L666.6833333333333 333.3333333333335A70.69166666666666 70.69166666666666 0 0 1 707.2249999999999 345.375A80.475 80.475 0 0 1 719.9916666666666 352.6666666666668L1159.2333333333331 718.6750000000001V174.0833333333334z" />
    <glyph glyph-name="expand"
      unicode="&#xF118;"
      horiz-adv-x="7000" d="M937.5125 999.9875H625.0124999999999A62.5 62.5 0 0 1 625.0124999999999 874.9875H786.63125L580.8125 669.1937499999999A62.5 62.5 0 1 1 669.1874999999999 580.8125L875.0124999999999 786.625V624.9875A62.5 62.5 0 1 1 1000.0125 624.9875V937.4875A62.4625 62.4625 0 0 1 937.5125 999.9875zM419.1875000000001 419.19375A62.5 62.5 0 0 1 330.8125000000001 419.19375L125.0125 213.38125V374.9875000000001A62.5 62.5 0 0 1 0.0125 374.9875000000001V62.4875000000001A62.5 62.5 0 0 1 62.5125 -0.0124999999999H375.0125000000001A62.5 62.5 0 1 1 375.0125000000001 124.9875000000001H213.38125L419.1875 330.8A62.5 62.5 0 0 1 419.1875000000001 419.19375z" />
    <glyph glyph-name="expand-1"
      unicode="&#x65;&#x78;&#x70;&#x61;&#x6E;&#x64;"
      horiz-adv-x="7000" d="M937.5125 999.9875H625.0124999999999A62.5 62.5 0 0 1 625.0124999999999 874.9875H786.63125L580.8125 669.1937499999999A62.5 62.5 0 1 1 669.1874999999999 580.8125L875.0124999999999 786.625V624.9875A62.5 62.5 0 1 1 1000.0125 624.9875V937.4875A62.4625 62.4625 0 0 1 937.5125 999.9875zM419.1875000000001 419.19375A62.5 62.5 0 0 1 330.8125000000001 419.19375L125.0125 213.38125V374.9875000000002A62.5 62.5 0 0 1 0.0125 374.9875000000002V62.4875000000001A62.5 62.5 0 0 1 62.5125 -0.0124999999999H375.0125000000001A62.5 62.5 0 1 1 375.0125000000001 124.9875000000001H213.38125L419.1875 330.8A62.5 62.5 0 0 1 419.1875000000001 419.19375z" />
    <glyph glyph-name="favorite"
      unicode="&#xF119;"
      horiz-adv-x="7000" d="M845.5233754778008 852.9844163481329A186.37165539547195 186.37165539547195 0 0 0 976.6539253160836 800.6762716847986A170.75124963246105 170.75124963246105 0 0 0 975.0514554542782 553.9400176418701L953.1314319317848 531.88768009409L588.1578947368422 176.1099676565717L224.2208174066451 530.2852102322846L199.095854160541 555.5204351661276A170.2881505439577 170.2881505439577 0 0 0 198.4930902675684 800.0588062334607A191.00264628050576 191.00264628050576 0 0 0 461.3790061746545 800.6615701264334L485.6365774772126 777.0288150543957L589.841223169656 675.4925022052337L692.4581005586593 778.6165833578359L714.3854748603353 800.668920905616A186.38635695383712 186.38635695383712 0 0 0 845.5233754778008 852.9844163481329M845.5233754778008 1000A333.9973537194943 333.9973537194943 0 0 1 611.7685974713321 905.9541311379006L588.2461040870334 882.3140252866804L563.9885327844753 905.9541311379006A337.9961775948251 337.9961775948251 0 0 1 96.4789767715379 905.9541311379006A317.2963834166422 317.2963834166422 0 0 1 96.4789767715379 450.2499264922082L120.0014701558366 426.6024698618054L536.9376653925317 20.8394589826522A73.50779182593355 73.50779182593355 0 0 1 639.5104381064394 20.8762128785651L1055.7483093207882 426.6392237577183L1079.270802705087 450.2866803881211A317.71537783005 317.71537783005 0 0 1 1079.270802705087 905.9908850338134A333.9973537194943 333.9973537194943 0 0 1 845.5233754778008 1000z" />
    <glyph glyph-name="favorite-1"
      unicode="&#x66;&#x61;&#x76;&#x6F;&#x72;&#x69;&#x74;&#x65;"
      horiz-adv-x="7000" d="M845.5233754778008 852.9844163481329A186.37165539547195 186.37165539547195 0 0 0 976.6539253160836 800.6762716847986A170.75124963246105 170.75124963246105 0 0 0 975.0514554542782 553.9400176418701L953.1314319317848 531.88768009409L588.1578947368422 176.1099676565717L224.2208174066451 530.2852102322846L199.095854160541 555.5204351661276A170.2881505439577 170.2881505439577 0 0 0 198.4930902675684 800.0588062334607A191.00264628050576 191.00264628050576 0 0 0 461.3790061746545 800.6615701264334L485.6365774772126 777.0288150543957L589.841223169656 675.4925022052337L692.4581005586593 778.6165833578359L714.3854748603353 800.668920905616A186.38635695383712 186.38635695383712 0 0 0 845.5233754778008 852.9844163481329M845.5233754778008 1000A333.9973537194943 333.9973537194943 0 0 1 611.7685974713321 905.9541311379006L588.2461040870334 882.3140252866804L563.9885327844753 905.9541311379006A337.9961775948251 337.9961775948251 0 0 1 96.4789767715379 905.9541311379006A317.2963834166422 317.2963834166422 0 0 1 96.4789767715379 450.2499264922082L120.0014701558366 426.6024698618054L536.9376653925317 20.8394589826522A73.50779182593355 73.50779182593355 0 0 1 639.5104381064394 20.8762128785651L1055.7483093207882 426.6392237577183L1079.270802705087 450.2866803881211A317.71537783005 317.71537783005 0 0 1 1079.270802705087 905.9908850338134A333.9973537194943 333.9973537194943 0 0 1 845.5233754778008 1000z" />
    <glyph glyph-name="feedback"
      unicode="&#xF11A;"
      horiz-adv-x="7000" d="M1000 687.5125A62.5 62.5 0 0 1 937.5 750.0125H750V937.5125A62.5 62.5 0 0 1 687.5 1000.0125H62.5A62.5 62.5 0 0 1 0 937.5125V491.0875A62.5 62.5 0 0 1 62.5 428.5875H250V241.0875A62.5 62.5 0 0 1 312.5 178.5875H733.05625L893.26875 18.35A62.581250000000004 62.581250000000004 0 0 1 1000 62.5124999999999zM782.8125 298.7625000000001A62.5 62.5 0 0 1 758.94375 303.5750000000001H375V625.0125H875V213.40625L803.175 285.25A62.5 62.5 0 0 1 782.8125 298.7625zM125 553.5875000000001V875.0125H625V750.0125H312.5A62.5 62.5 0 0 1 250 687.5125V553.5875000000001z" />
    <glyph glyph-name="feedback-1"
      unicode="&#x66;&#x65;&#x65;&#x64;&#x62;&#x61;&#x63;&#x6B;"
      horiz-adv-x="7000" d="M1000 687.5125A62.5 62.5 0 0 1 937.5 750.0125H750V937.5125A62.5 62.5 0 0 1 687.5 1000.0125H62.5A62.5 62.5 0 0 1 0 937.5125V491.0875A62.5 62.5 0 0 1 62.5 428.5875H250V241.0875A62.5 62.5 0 0 1 312.5 178.5875H733.05625L893.26875 18.35A62.581250000000004 62.581250000000004 0 0 1 1000 62.5124999999999zM782.8125 298.7625000000001A62.5 62.5 0 0 1 758.94375 303.5750000000001H375V625.0125H875V213.40625L803.175 285.25A62.5 62.5 0 0 1 782.8125 298.7625zM125 553.5875000000001V875.0125H625V750.0125H312.5A62.5 62.5 0 0 1 250 687.5125V553.5875000000001z" />
    <glyph glyph-name="filter"
      unicode="&#xF11B;"
      horiz-adv-x="7000" d="M62.5125 750.025H74.1875C76.15 744.53125 77.4875 738.9 79.975 733.54375A188.125 188.125 0 0 1 250.0125 624.9875A186.96874999999997 186.96874999999997 0 0 1 426.4625000000001 749.9875H937.5125A62.5 62.5 0 0 1 937.5125 874.9875H425.75625C423.80625 880.46875 422.55 886.05 420.05 891.425A188.125 188.125 0 0 1 249.96875 999.9875H249.96875A187.5 187.5 0 0 1 73.93125 876.9125C73.70625 876.2875 73.6625 875.6625 73.44375 875.0375H62.5125A62.5 62.5 0 0 1 62.5125 750.0375zM223.69375 869.175A62.5 62.5 0 1 0 193.33125 786.1875A62.19375 62.19375 0 0 0 223.69375 869.175zM937.5125 562.525H925.83125C923.875 568.0062499999999 922.54375 573.625 920.0625 578.96875A188.125 188.125 0 0 1 749.96875 687.4875H749.96875A187.5 187.5 0 0 1 573.93125 564.4124999999999C573.70625 563.7875 573.6687499999999 563.1625 573.44375 562.5374999999999H62.5125A62.5 62.5 0 0 1 62.5125 437.5374999999999H574.175C576.1374999999999 432.04375 577.4749999999999 426.4124999999999 579.9625 421.0562499999999A188.125 188.125 0 0 1 750.04375 312.4875000000001A187.54375 187.54375 0 0 1 926.08125 435.6125000000001C926.31875 436.2375000000001 926.35625 436.90625 926.58125 437.5375H937.5125A62.5 62.5 0 0 1 937.5125 562.5375zM776.3249999999999 443.3312500000001A62.5 62.5 0 1 0 806.6812499999999 526.3187500000001A62.3375 62.3375 0 0 0 776.3249999999999 443.3312500000001zM937.5125 250.0250000000001H613.2562499999999C611.30625 255.50625 610.05 261.0875 607.55 266.4625000000001A188.125 188.125 0 0 1 437.46875 374.9875000000001H437.46875A187.5 187.5 0 0 1 261.4375 251.9C261.2125000000001 251.275 261.16875 250.6500000000001 260.95 250.0250000000001H62.5125A62.5 62.5 0 0 1 62.5125 125.0250000000001H261.6750000000001C263.6375000000001 119.5312500000001 264.9750000000001 113.9 267.4625000000001 108.5437500000001A188.125 188.125 0 0 1 437.54375 -0.0124999999999A186.96874999999997 186.96874999999997 0 0 1 613.99375 124.9875000000001H937.5125A62.5 62.5 0 0 1 937.5125 249.9875000000001zM463.825 130.8312500000001A62.5 62.5 0 1 0 494.18125 213.81875A62.3375 62.3375 0 0 0 463.825 130.8312500000001z" />
    <glyph glyph-name="filter-1"
      unicode="&#x66;&#x69;&#x6C;&#x74;&#x65;&#x72;"
      horiz-adv-x="7000" d="M62.5125 750.025H74.1875C76.15 744.53125 77.4875 738.9 79.975 733.54375A188.125 188.125 0 0 1 250.0125 624.9875A186.96874999999997 186.96874999999997 0 0 1 426.4625000000001 749.9875H937.5125A62.5 62.5 0 0 1 937.5125 874.9875H425.75625C423.80625 880.46875 422.55 886.05 420.05 891.425A188.125 188.125 0 0 1 249.96875 999.9875H249.96875A187.5 187.5 0 0 1 73.93125 876.9125C73.70625 876.2875 73.6625 875.6625 73.44375 875.0375H62.5125A62.5 62.5 0 0 1 62.5125 750.0375zM223.69375 869.175A62.5 62.5 0 1 0 193.33125 786.1875A62.19375 62.19375 0 0 0 223.69375 869.175zM937.5125 562.525H925.83125C923.875 568.0062499999999 922.54375 573.625 920.0625 578.96875A188.125 188.125 0 0 1 749.96875 687.4875H749.96875A187.5 187.5 0 0 1 573.93125 564.4124999999999C573.70625 563.7875 573.6687499999999 563.1625 573.44375 562.5374999999999H62.5125A62.5 62.5 0 0 1 62.5125 437.5374999999999H574.175C576.1374999999999 432.04375 577.4749999999999 426.4124999999999 579.9625 421.0562499999999A188.125 188.125 0 0 1 750.04375 312.4875000000002A187.54375 187.54375 0 0 1 926.08125 435.6125000000002C926.31875 436.2375000000002 926.35625 436.90625 926.58125 437.5375H937.5125A62.5 62.5 0 0 1 937.5125 562.5375zM776.3249999999999 443.3312500000002A62.5 62.5 0 1 0 806.6812499999999 526.3187500000001A62.3375 62.3375 0 0 0 776.3249999999999 443.3312500000002zM937.5125 250.0250000000001H613.2562499999999C611.30625 255.50625 610.05 261.0875 607.55 266.4625000000001A188.125 188.125 0 0 1 437.46875 374.9875000000002H437.46875A187.5 187.5 0 0 1 261.4375 251.9C261.2125000000001 251.275 261.16875 250.6500000000001 260.95 250.0250000000001H62.5125A62.5 62.5 0 0 1 62.5125 125.0250000000001H261.6750000000002C263.6375000000001 119.5312500000001 264.9750000000001 113.9 267.4625000000001 108.5437500000001A188.125 188.125 0 0 1 437.54375 -0.0124999999999A186.96874999999997 186.96874999999997 0 0 1 613.99375 124.9875000000001H937.5125A62.5 62.5 0 0 1 937.5125 249.9875000000001zM463.825 130.8312500000001A62.5 62.5 0 1 0 494.18125 213.81875A62.3375 62.3375 0 0 0 463.825 130.8312500000001z" />
    <glyph glyph-name="flag"
      unicode="&#xF11C;"
      horiz-adv-x="7000" d="M62.5125 0.00625A62.5 62.5 0 0 0 0.0125 62.50625V937.50625A62.5 62.5 0 0 0 62.5125 1000.00625H500.0125A62.5 62.5 0 0 0 562.5124999999999 937.50625V812.50625H937.5125A62.5 62.5 0 0 0 988.3875 713.6875L858.0625 531.2562499999999L988.375 348.8187499999999A62.5 62.5 0 0 0 937.5125 250.00625H500.0125A62.5 62.5 0 0 0 437.5125 312.50625V437.50625H125.0125V62.50625A62.5 62.5 0 0 0 62.5125 0.00625zM562.5124999999999 375.00625H816.05625L730.375 494.9312499999999A62.537499999999994 62.537499999999994 0 0 0 730.375 567.5624999999999L816.0437499999999 687.5062499999999H562.5124999999999zM125.0125 562.5062499999999H437.5125000000001V875.00625H125.0125z" />
    <glyph glyph-name="flag-1"
      unicode="&#x66;&#x6C;&#x61;&#x67;"
      horiz-adv-x="7000" d="M62.5125 0.00625A62.5 62.5 0 0 0 0.0125 62.50625V937.50625A62.5 62.5 0 0 0 62.5125 1000.00625H500.0125A62.5 62.5 0 0 0 562.5124999999999 937.50625V812.50625H937.5125A62.5 62.5 0 0 0 988.3875 713.6875L858.0625 531.2562499999999L988.375 348.8187499999999A62.5 62.5 0 0 0 937.5125 250.00625H500.0125A62.5 62.5 0 0 0 437.5125 312.50625V437.50625H125.0125V62.50625A62.5 62.5 0 0 0 62.5125 0.00625zM562.5124999999999 375.00625H816.05625L730.375 494.9312499999999A62.537499999999994 62.537499999999994 0 0 0 730.375 567.5624999999999L816.0437499999999 687.5062499999999H562.5124999999999zM125.0125 562.5062499999999H437.5125000000001V875.00625H125.0125z" />
    <glyph glyph-name="gallery"
      unicode="&#xF11D;"
      horiz-adv-x="7000" d="M1208.35 999.9666666666666H125.0166666666667A125.13333333333334 125.13333333333334 0 0 1 0.0166666666667 874.9666666666667V124.9666666666668A125.14166666666667 125.14166666666667 0 0 1 125.0166666666667 -0.0333333333332H1208.35A125.13333333333334 125.13333333333334 0 0 1 1333.35 124.9666666666668V874.9666666666667A125.13333333333334 125.13333333333334 0 0 1 1208.35 999.9666666666666zM833.3499999999999 523.3000000000001L1088.0583333333332 166.6333333333335H578.6166666666667zM373.8166666666667 166.6333333333335H239.0166666666667L416.6833333333334 433.1083333333334L487.8833333333333 326.35zM1166.6833333333332 833.3V343.3L901.1249999999998 715.0916666666667A86.39166666666665 86.39166666666665 0 0 1 765.5416666666665 715.0916666666667L591.475 471.3833333333333L486.0000000000001 629.5583333333334A86.475 86.475 0 0 1 347.3333333333335 629.5583333333334L166.6833333333333 358.5916666666667V833.3z" />
    <glyph glyph-name="gallery-1"
      unicode="&#x67;&#x61;&#x6C;&#x6C;&#x65;&#x72;&#x79;"
      horiz-adv-x="7000" d="M1208.35 999.9666666666666H125.0166666666667A125.13333333333334 125.13333333333334 0 0 1 0.0166666666667 874.9666666666667V124.9666666666668A125.14166666666667 125.14166666666667 0 0 1 125.0166666666667 -0.0333333333332H1208.35A125.13333333333334 125.13333333333334 0 0 1 1333.35 124.9666666666668V874.9666666666667A125.13333333333334 125.13333333333334 0 0 1 1208.35 999.9666666666666zM833.3499999999999 523.3000000000001L1088.0583333333332 166.6333333333335H578.6166666666667zM373.8166666666667 166.6333333333335H239.0166666666667L416.6833333333334 433.1083333333334L487.8833333333333 326.35zM1166.6833333333332 833.3V343.3L901.1249999999998 715.0916666666667A86.39166666666665 86.39166666666665 0 0 1 765.5416666666665 715.0916666666667L591.475 471.3833333333333L486.0000000000001 629.5583333333334A86.475 86.475 0 0 1 347.3333333333335 629.5583333333334L166.6833333333333 358.5916666666667V833.3z" />
    <glyph glyph-name="graph"
      unicode="&#xF11E;"
      horiz-adv-x="7000" d="M312.5125000000001 312.4875000000001M937.5125 124.9875000000001H125.0125V937.4875A62.5 62.5 0 0 1 0.0125 937.4875V62.4875000000001A62.5 62.5 0 0 1 62.5125 -0.0124999999999H937.5125A62.5 62.5 0 0 1 937.5125 124.9875000000001zM234.83125 189.3625A62.3875 62.3875 0 0 1 310.6375 234.8687500000001L363.8625 447.69375L765.8687500000001 540.46875L852.8312500000002 779.56875L881.5812500000002 722.0687499999999A62.5 62.5 0 1 1 993.3937500000002 777.9749999999999L899.6437500000002 965.475A62.66875 62.66875 0 0 1 815.7937499999999 993.4125L628.2937499999999 899.6625A62.5 62.5 0 0 1 684.2062500000001 787.84375L731.45 811.46875L671.63125 647.0375L261.1375000000001 552.3125L189.3875 265.1375000000001A62.5 62.5 0 0 1 234.83125 189.3625z" />
    <glyph glyph-name="graph-1"
      unicode="&#x67;&#x72;&#x61;&#x70;&#x68;"
      horiz-adv-x="7000" d="M312.5125000000001 312.4875000000002M937.5125 124.9875000000001H125.0125V937.4875A62.5 62.5 0 0 1 0.0125 937.4875V62.4875000000001A62.5 62.5 0 0 1 62.5125 -0.0124999999999H937.5125A62.5 62.5 0 0 1 937.5125 124.9875000000001zM234.83125 189.3625A62.3875 62.3875 0 0 1 310.6375 234.8687500000001L363.8625 447.69375L765.8687500000001 540.46875L852.8312500000002 779.56875L881.5812500000002 722.0687499999999A62.5 62.5 0 1 1 993.3937500000002 777.9749999999999L899.6437500000002 965.475A62.66875 62.66875 0 0 1 815.7937499999999 993.4125L628.2937499999999 899.6625A62.5 62.5 0 0 1 684.2062500000001 787.84375L731.45 811.46875L671.63125 647.0375L261.1375000000001 552.3125L189.3875 265.1375000000001A62.5 62.5 0 0 1 234.83125 189.3625z" />
    <glyph glyph-name="home"
      unicode="&#xF11F;"
      horiz-adv-x="7000" d="M978.169022887214 609.9423757203035L540.6744915688554 984.9376882788966A62.461719228509644 62.461719228509644 0 0 1 459.3192585092686 984.9376882788966L21.8247271909101 609.9423757203035A62.499218759765505 62.499218759765505 0 0 1 15.0498118773515 521.8184772690341A61.536730790865114 61.536730790865114 0 0 1 62.4867189160136 500.7749903126211V62.5117186035175A62.499218759765505 62.499218759765505 0 0 1 124.9859376757791 0.0124998437519H874.9765627929652A62.499218759765505 62.499218759765505 0 0 1 937.4757815527306 62.5117186035175V500.006249921876A62.499218759765505 62.499218759765505 0 0 1 978.156523043462 609.9486256421794zM499.9812502343721 375.007812402345A62.499218759765505 62.499218759765505 0 0 1 437.4820314746066 312.5085936425794V125.0109373632829H187.4851564355446V587.3114086073924L499.9812502343721 855.1830602117473L812.4773440331996 587.3114086073924V125.0109373632829H562.4804689941376V312.5085936425794A62.499218759765505 62.499218759765505 0 0 1 499.9812502343721 375.007812402345z" />
    <glyph glyph-name="home-1"
      unicode="&#x68;&#x6F;&#x6D;&#x65;"
      horiz-adv-x="7000" d="M978.169022887214 609.9423757203035L540.6744915688554 984.9376882788966A62.461719228509644 62.461719228509644 0 0 1 459.3192585092686 984.9376882788966L21.8247271909101 609.9423757203035A62.499218759765505 62.499218759765505 0 0 1 15.0498118773515 521.8184772690341A61.536730790865114 61.536730790865114 0 0 1 62.4867189160136 500.7749903126211V62.5117186035175A62.499218759765505 62.499218759765505 0 0 1 124.9859376757791 0.0124998437519H874.9765627929652A62.499218759765505 62.499218759765505 0 0 1 937.4757815527306 62.5117186035175V500.006249921876A62.499218759765505 62.499218759765505 0 0 1 978.156523043462 609.9486256421794zM499.9812502343721 375.007812402345A62.499218759765505 62.499218759765505 0 0 1 437.4820314746066 312.5085936425794V125.0109373632829H187.4851564355446V587.3114086073924L499.9812502343721 855.1830602117473L812.4773440331996 587.3114086073924V125.0109373632829H562.4804689941376V312.5085936425794A62.499218759765505 62.499218759765505 0 0 1 499.9812502343721 375.007812402345z" />
    <glyph glyph-name="info"
      unicode="&#xF120;"
      horiz-adv-x="7000" d="M499.98125 875A375 375 0 1 0 124.98125 500A375.425 375.425 0 0 0 499.98125 875M499.98125 1000A500 500 0 1 1 999.98125 500A500 500 0 0 1 499.98125 1000zM499.98125 250A62.5 62.5 0 0 0 437.48125 312.5V500A62.5 62.5 0 0 0 562.48125 500V312.5A62.5 62.5 0 0 0 499.98125 250zM437.5 687.5A62.5 62.5 0 0 1 562.5 687.5A62.5 62.5 0 0 1 437.5 687.5" />
    <glyph glyph-name="info-1"
      unicode="&#x69;&#x6E;&#x66;&#x6F;"
      horiz-adv-x="7000" d="M499.98125 875A375 375 0 1 0 124.98125 500A375.425 375.425 0 0 0 499.98125 875M499.98125 1000A500 500 0 1 1 999.98125 500A500 500 0 0 1 499.98125 1000zM499.98125 250A62.5 62.5 0 0 0 437.48125 312.5V500A62.5 62.5 0 0 0 562.48125 500V312.5A62.5 62.5 0 0 0 499.98125 250zM437.5 687.5A62.5 62.5 0 0 1 562.5 687.5A62.5 62.5 0 0 1 437.5 687.5" />
    <glyph glyph-name="key"
      unicode="&#xF121;"
      horiz-adv-x="7000" d="M973.7819054523638 738.3377915552111L782.0116997075073 875.3156171095723L800.5049873753156 900.7462313442164A62.49843753906153 62.49843753906153 0 0 1 699.4325141871453 974.231894202645L341.5539611509713 482.1316967075824A249.7000074998125 249.7000074998125 0 1 1 500 250.006249843754A247.668808279793 247.668808279793 0 0 1 442.201444963876 408.0647983800406L561.1484712882178 571.6232094197644L682.3954401139972 484.9878753031173A62.49843753906153 62.49843753906153 0 0 1 755.0248743781406 586.6728331791704L634.6466338341542 672.6831829204269L708.5135371615711 774.2556436089097L901.1524711882204 636.6590835229118A62.49843753906153 62.49843753906153 0 0 1 973.7819054523638 738.337791555211zM250.006249843754 125.0093747656308A124.99687507812305 124.99687507812305 0 1 0 375.003124921877 250.006249843754A125.1406214844629 125.1406214844629 0 0 0 250.006249843754 125.0093747656308z" />
    <glyph glyph-name="key-1"
      unicode="&#x6B;&#x65;&#x79;"
      horiz-adv-x="7000" d="M973.7819054523638 738.3377915552111L782.0116997075073 875.3156171095723L800.5049873753156 900.7462313442164A62.49843753906153 62.49843753906153 0 0 1 699.4325141871453 974.231894202645L341.5539611509713 482.1316967075824A249.7000074998125 249.7000074998125 0 1 1 500 250.006249843754A247.668808279793 247.668808279793 0 0 1 442.201444963876 408.0647983800406L561.1484712882178 571.6232094197644L682.3954401139972 484.9878753031173A62.49843753906153 62.49843753906153 0 0 1 755.0248743781406 586.6728331791704L634.6466338341542 672.6831829204269L708.5135371615711 774.2556436089097L901.1524711882204 636.6590835229118A62.49843753906153 62.49843753906153 0 0 1 973.7819054523638 738.337791555211zM250.006249843754 125.0093747656308A124.99687507812305 124.99687507812305 0 1 0 375.003124921877 250.006249843754A125.1406214844629 125.1406214844629 0 0 0 250.006249843754 125.0093747656308z" />
    <glyph glyph-name="light-bulb"
      unicode="&#xF122;"
      horiz-adv-x="7000" d="M343.7560545739767 874.9898439404261A218.98964394417604 218.98964394417604 0 0 0 562.5019530883795 656.2439454260233A215.9834503103067 215.9834503103067 0 0 0 512.4466416254695 516.9965563145691A124.99765629394449 124.99765629394449 0 0 1 489.378324156422 474.3723555183341L439.1480159747005 312.500390617676H248.301594345106L197.9525383899052 474.5973512996632A124.99765629394449 124.99765629394449 0 0 1 174.9592195146341 517.0965544396042A218.74589851440288 218.74589851440288 0 0 0 295.2882133459998 869.9024393292626A237.76429191952653 237.76429191952653 0 0 0 343.7560545739767 874.9898439404261M343.7560545739767 999.9875002343706A362.5744517290301 362.5744517290301 0 0 1 269.7949413448498 992.2876446066635A343.7435548083473 343.7435548083473 0 0 1 78.5797766291882 437.4980469116205H78.5797766291882L142.5973263001319 231.4519102766823A62.498828146972244 62.498828146972244 0 0 1 202.2774572976757 187.5027343237315H485.1971525533896A62.498828146972244 62.498828146972244 0 0 1 544.8897833165628 231.4769098079411L608.751085917139 437.3542996068824A343.7435548083473 343.7435548083473 0 0 1 343.7560545739767 999.9875002343706zM437.5042967944351 0.0062498828147H250.0078123535184A62.498828146972244 62.498828146972244 0 0 0 250.0078123535184 125.0039061767592H437.5042967944351A62.498828146972244 62.498828146972244 0 0 0 437.5042967944351 0.0062498828147z" />
    <glyph glyph-name="light-bulb-1"
      unicode="&#x6C;&#x69;&#x67;&#x68;&#x74;&#x2D;&#x62;&#x75;&#x6C;&#x62;"
      horiz-adv-x="7000" d="M343.7560545739767 874.9898439404261A218.98964394417604 218.98964394417604 0 0 0 562.5019530883795 656.2439454260233A215.9834503103067 215.9834503103067 0 0 0 512.4466416254695 516.9965563145691A124.99765629394449 124.99765629394449 0 0 1 489.378324156422 474.3723555183341L439.1480159747005 312.500390617676H248.301594345106L197.9525383899052 474.5973512996632A124.99765629394449 124.99765629394449 0 0 1 174.9592195146341 517.0965544396042A218.74589851440288 218.74589851440288 0 0 0 295.2882133459998 869.9024393292626A237.76429191952653 237.76429191952653 0 0 0 343.7560545739767 874.9898439404261M343.7560545739767 999.9875002343706A362.5744517290301 362.5744517290301 0 0 1 269.7949413448498 992.2876446066635A343.7435548083473 343.7435548083473 0 0 1 78.5797766291882 437.4980469116205H78.5797766291882L142.5973263001319 231.4519102766823A62.498828146972244 62.498828146972244 0 0 1 202.2774572976757 187.5027343237315H485.1971525533896A62.498828146972244 62.498828146972244 0 0 1 544.8897833165628 231.4769098079411L608.751085917139 437.3542996068824A343.7435548083473 343.7435548083473 0 0 1 343.7560545739767 999.9875002343706zM437.5042967944351 0.0062498828147H250.0078123535184A62.498828146972244 62.498828146972244 0 0 0 250.0078123535184 125.0039061767592H437.5042967944351A62.498828146972244 62.498828146972244 0 0 0 437.5042967944351 0.0062498828147z" />
    <glyph glyph-name="link"
      unicode="&#xF123;"
      horiz-adv-x="7000" d="M374.9375 312.5687499999999A62.5 62.5 0 0 0 330.75625 419.2249999999999L580.7125000000001 669.13125A62.5 62.5 0 0 0 669.075 580.7875L419.11875 330.875A62.30625 62.30625 0 0 0 374.9375 312.5687499999999zM794.01875 329.44375A62.5 62.5 0 0 0 749.8375000000001 436.1250000000001L810.19375 496.4375000000001A221.91250000000002 221.91250000000002 0 0 1 496.3125 810.225L435.9937500000001 749.9125A62.5 62.5 0 0 0 347.625 838.2625L407.95 898.575A346.875 346.875 0 0 0 898.5749999999999 408.05625L838.2187499999999 347.7125A62.38125 62.38125 0 0 0 794.01875 329.44375zM346.5625 0A346.94374999999997 346.94374999999997 0 0 0 101.26875 591.91875L161.5625 652.2625A62.5 62.5 0 0 0 249.98125 563.9124999999999L189.65625 503.575A221.87499999999997 221.87499999999997 0 1 1 503.48125 189.78125L563.80625 250.09375A62.5 62.5 0 0 0 652.1687499999999 161.74375L591.85625 101.4375A345.76875 345.76875 0 0 0 346.5625 0z" />
    <glyph glyph-name="link-1"
      unicode="&#x6C;&#x69;&#x6E;&#x6B;"
      horiz-adv-x="7000" d="M374.9375 312.5687499999999A62.5 62.5 0 0 0 330.75625 419.2249999999999L580.7125000000001 669.13125A62.5 62.5 0 0 0 669.075 580.7875L419.11875 330.875A62.30625 62.30625 0 0 0 374.9375 312.5687499999999zM794.01875 329.44375A62.5 62.5 0 0 0 749.8375000000001 436.1250000000001L810.19375 496.4375000000001A221.91250000000002 221.91250000000002 0 0 1 496.3125 810.225L435.9937500000001 749.9125A62.5 62.5 0 0 0 347.625 838.2625L407.95 898.575A346.875 346.875 0 0 0 898.5749999999999 408.05625L838.2187499999999 347.7125A62.38125 62.38125 0 0 0 794.01875 329.44375zM346.5625 0A346.94374999999997 346.94374999999997 0 0 0 101.26875 591.91875L161.5625 652.2625A62.5 62.5 0 0 0 249.98125 563.9124999999999L189.65625 503.575A221.87499999999997 221.87499999999997 0 1 1 503.48125 189.78125L563.80625 250.09375A62.5 62.5 0 0 0 652.1687499999999 161.74375L591.85625 101.4375A345.76875 345.76875 0 0 0 346.5625 0z" />
    <glyph glyph-name="location"
      unicode="&#xF124;"
      horiz-adv-x="7000" d="M327.8319825845201 999.9999999999998A327.85165368374106 327.85165368374106 0 0 1 -0.019671099221 672.1483463162588C-0.019671099221 453.0319720932672 180.7708448081412 163.1717680383979 273.8479292889553 28.4706376058961A65.4195189760537 65.4195189760537 0 0 1 381.816035880085 28.4706376058961C474.9127914601201 163.1717680383979 655.6836362682614 453.0319720932672 655.6836362682614 672.1483463162588A327.85165368374106 327.85165368374106 0 0 1 327.8319825845201 999.9999999999998zM289.3094132766805 865.1742859390981A196.8355758386445 196.8355758386445 0 1 0 134.8322710939754 710.697143756393A197.11097122773884 197.11097122773884 0 0 0 289.3094132766805 865.1742859390981z" />
    <glyph glyph-name="location-1"
      unicode="&#x6C;&#x6F;&#x63;&#x61;&#x74;&#x69;&#x6F;&#x6E;"
      horiz-adv-x="7000" d="M327.8319825845201 999.9999999999998A327.85165368374106 327.85165368374106 0 0 1 -0.019671099221 672.1483463162588C-0.019671099221 453.0319720932672 180.7708448081412 163.1717680383979 273.8479292889553 28.4706376058961A65.4195189760537 65.4195189760537 0 0 1 381.816035880085 28.4706376058961C474.9127914601201 163.1717680383979 655.6836362682614 453.0319720932672 655.6836362682614 672.1483463162588A327.85165368374106 327.85165368374106 0 0 1 327.8319825845201 999.9999999999998zM289.3094132766805 865.1742859390981A196.8355758386445 196.8355758386445 0 1 0 134.8322710939754 710.697143756393A197.11097122773884 197.11097122773884 0 0 0 289.3094132766805 865.1742859390981z" />
    <glyph glyph-name="map-location"
      unicode="&#xF125;"
      horiz-adv-x="7000" d="M687.50625 -0.0124999999999H62.50625A62.5 62.5 0 0 0 62.50625 124.9875000000001H687.50625A62.5 62.5 0 0 0 687.50625 -0.0124999999999zM375.00625 999.9875A266.38125 266.38125 0 0 1 108.625 733.6125C108.625 555.58125 255.5 320.06875 331.125 210.61875A53.15625 53.15625 0 0 1 418.85 210.61875C494.475 320.06875 641.35 555.58125 641.35 733.6125A266.38125 266.38125 0 0 1 375.00625 999.9875zM343.69375 890.44375A159.93124999999998 159.93124999999998 0 1 0 218.1625 764.94375A160.14999999999998 160.14999999999998 0 0 0 343.68125 890.45625z" />
    <glyph glyph-name="map-location-1"
      unicode="&#x6D;&#x61;&#x70;&#x2D;&#x6C;&#x6F;&#x63;&#x61;&#x74;&#x69;&#x6F;&#x6E;"
      horiz-adv-x="7000" d="M687.50625 -0.0124999999999H62.50625A62.5 62.5 0 0 0 62.50625 124.9875000000001H687.50625A62.5 62.5 0 0 0 687.50625 -0.0124999999999zM375.00625 999.9875A266.38125 266.38125 0 0 1 108.625 733.6125C108.625 555.58125 255.5 320.06875 331.125 210.61875A53.15625 53.15625 0 0 1 418.85 210.61875C494.475 320.06875 641.35 555.58125 641.35 733.6125A266.38125 266.38125 0 0 1 375.00625 999.9875zM343.69375 890.44375A159.93124999999998 159.93124999999998 0 1 0 218.1625 764.94375A160.14999999999998 160.14999999999998 0 0 0 343.68125 890.45625z" />
    <glyph glyph-name="map"
      unicode="&#xF126;"
      horiz-adv-x="7000" d="M1037.3804984066453 855.2247363298177A66.80755743409911 66.80755743409911 0 0 1 975.2396698622646 861.931492419899L689.3425245669941 747.5366338217843L520.0069334257789 973.3396445285936A66.83422445632607 66.83422445632607 0 0 1 445.5926079014386 996.5866211549488L45.5872744969933 863.2515100201337A66.66755556740756 66.66755556740756 0 0 1 0 800.004000053334V199.995999946666A66.66755556740756 66.66755556740756 0 0 1 91.4412192162562 138.0818410912147L383.9584527793704 255.1100681342419L619.5415938879185 19.5335937812505A66.72755636741822 66.72755636741822 0 0 1 691.4492193229243 4.7533967119563L1024.786997159962 138.0885078467713A66.76089014520194 66.76089014520194 0 0 1 1066.680889078521 199.995999946666V800.004000053334A66.66755556740756 66.66755556740756 0 0 1 1037.3804984066453 855.2247363298177zM600.0080001066681 644.4685929145721V227.6097014626863L466.6728889718529 360.9448125975014V822.2176295683943zM133.3351111348151 751.9633595114601L333.3377778370379 818.6309150788677V378.5050467339566L133.3351111348151 298.5039800530675zM933.3457779437058 245.1566020880278L733.3431112414831 165.1555354071388V621.5216202882705L933.3457779437058 701.5226869691596z" />
    <glyph glyph-name="map-1"
      unicode="&#x6D;&#x61;&#x70;"
      horiz-adv-x="7000" d="M1037.3804984066453 855.2247363298177A66.80755743409911 66.80755743409911 0 0 1 975.2396698622646 861.931492419899L689.3425245669941 747.5366338217843L520.0069334257789 973.3396445285936A66.83422445632607 66.83422445632607 0 0 1 445.5926079014386 996.5866211549488L45.5872744969933 863.2515100201337A66.66755556740756 66.66755556740756 0 0 1 0 800.004000053334V199.995999946666A66.66755556740756 66.66755556740756 0 0 1 91.4412192162562 138.0818410912147L383.9584527793704 255.1100681342419L619.5415938879185 19.5335937812505A66.72755636741822 66.72755636741822 0 0 1 691.4492193229243 4.7533967119563L1024.786997159962 138.0885078467713A66.76089014520194 66.76089014520194 0 0 1 1066.680889078521 199.995999946666V800.004000053334A66.66755556740756 66.66755556740756 0 0 1 1037.3804984066453 855.2247363298177zM600.0080001066681 644.4685929145721V227.6097014626863L466.6728889718529 360.9448125975014V822.2176295683943zM133.3351111348151 751.9633595114601L333.3377778370379 818.6309150788677V378.5050467339566L133.3351111348151 298.5039800530675zM933.3457779437058 245.1566020880278L733.3431112414831 165.1555354071388V621.5216202882705L933.3457779437058 701.5226869691596z" />
    <glyph glyph-name="menu"
      unicode="&#xF127;"
      horiz-adv-x="7000" d="M1071.4071428571428 857.1428571428571H71.4071428571429A71.42857142857143 71.42857142857143 0 0 0 71.4071428571429 1000H1071.4071428571428A71.42857142857143 71.42857142857143 0 0 0 1071.4071428571428 857.1428571428571zM1071.4071428571428 428.5714285714286H71.4071428571429A71.42857142857143 71.42857142857143 0 0 0 71.4071428571429 571.4285714285714H1071.4071428571428A71.42857142857143 71.42857142857143 0 0 0 1071.4071428571428 428.5714285714286zM642.8357142857144 0H71.4071428571429A71.42857142857143 71.42857142857143 0 1 0 71.4071428571429 142.8571428571429H642.8357142857144A71.42857142857143 71.42857142857143 0 0 0 642.8357142857144 0z" />
    <glyph glyph-name="menu-1"
      unicode="&#x6D;&#x65;&#x6E;&#x75;"
      horiz-adv-x="7000" d="M1071.4071428571428 857.1428571428571H71.4071428571429A71.42857142857143 71.42857142857143 0 0 0 71.4071428571429 1000H1071.4071428571428A71.42857142857143 71.42857142857143 0 0 0 1071.4071428571428 857.1428571428571zM1071.4071428571428 428.5714285714286H71.4071428571429A71.42857142857143 71.42857142857143 0 0 0 71.4071428571429 571.4285714285714H1071.4071428571428A71.42857142857143 71.42857142857143 0 0 0 1071.4071428571428 428.5714285714286zM642.8357142857144 0H71.4071428571429A71.42857142857143 71.42857142857143 0 1 0 71.4071428571429 142.8571428571429H642.8357142857144A71.42857142857143 71.42857142857143 0 0 0 642.8357142857144 0z" />
    <glyph glyph-name="minus-circle"
      unicode="&#xF128;"
      horiz-adv-x="7000" d="M500 1000A500 500 0 1 1 1000 500A500 500 0 0 1 500 1000zM718.75 437.5H281.25A62.5 62.5 0 0 0 281.25 562.5H718.75A62.5 62.5 0 0 0 718.75 437.5z" />
    <glyph glyph-name="minus-circle-1"
      unicode="&#x6D;&#x69;&#x6E;&#x75;&#x73;&#x2D;&#x63;&#x69;&#x72;&#x63;&#x6C;&#x65;"
      horiz-adv-x="7000" d="M500 1000A500 500 0 1 1 1000 500A500 500 0 0 1 500 1000zM718.75 437.5H281.25A62.5 62.5 0 0 0 281.25 562.5H718.75A62.5 62.5 0 0 0 718.75 437.5z" />
    <glyph glyph-name="minus"
      unicode="&#xF129;"
      horiz-adv-x="7000" d="M6499.85 0H499.85A500 500 0 0 0 499.85 1000H6499.85A500 500 0 0 0 6499.85 0z" />
    <glyph glyph-name="minus-1"
      unicode="&#x6D;&#x69;&#x6E;&#x75;&#x73;"
      horiz-adv-x="7000" d="M6499.85 0H499.85A500 500 0 0 0 499.85 1000H6499.85A500 500 0 0 0 6499.85 0z" />
    <glyph glyph-name="more"
      unicode="&#xF12A;"
      horiz-adv-x="7000" d="M1831.3 500A500 500 0 0 1 2831.2999999999997 500A500 500 0 0 1 1831.3 500M0 500A500 500 0 0 1 1000 500A500 500 0 0 1 0 500M3666.6666666666665 500A500 500 0 0 1 4666.666666666666 500A500 500 0 0 1 3666.6666666666665 500" />
    <glyph glyph-name="more-1"
      unicode="&#x6D;&#x6F;&#x72;&#x65;"
      horiz-adv-x="7000" d="M1831.3 500A500 500 0 0 1 2831.2999999999997 500A500 500 0 0 1 1831.3 500M0 500A500 500 0 0 1 1000 500A500 500 0 0 1 0 500M3666.6666666666665 500A500 500 0 0 1 4666.666666666666 500A500 500 0 0 1 3666.6666666666665 500" />
    <glyph glyph-name="next"
      unicode="&#xF12B;"
      horiz-adv-x="7000" d="M83.3305556481451 999.9999999999998A83.05556481450618 83.05556481450618 0 0 0 123.7792073597547 989.5003499883336L873.7542081930601 572.8475717476083A83.33055564814505 83.33055564814505 0 0 0 873.7542081930601 427.1857604746508L123.7792073597547 10.5329822339255A83.33055564814505 83.33055564814505 0 0 0 0 83.3638878704044V916.6694443518548A83.28055731475617 83.28055731475617 0 0 0 83.3305556481451 999.9999999999998zM661.719609346355 500.0166661111296L166.6611112962901 775.0741641945267V224.9591680277323zM1083.2972234258857 999.9999999999998A83.33055564814505 83.33055564814505 0 0 0 1166.6277790740307 916.6694443518548V83.3638878704044A83.33055564814505 83.33055564814505 0 0 0 999.9666677777406 83.3638878704044V916.6694443518548A83.33055564814505 83.33055564814505 0 0 0 1083.2972234258857 999.9999999999998z" />
    <glyph glyph-name="next-1"
      unicode="&#x6E;&#x65;&#x78;&#x74;"
      horiz-adv-x="7000" d="M83.3305556481451 999.9999999999998A83.05556481450618 83.05556481450618 0 0 0 123.7792073597547 989.5003499883336L873.7542081930601 572.8475717476083A83.33055564814505 83.33055564814505 0 0 0 873.7542081930601 427.1857604746508L123.7792073597547 10.5329822339255A83.33055564814505 83.33055564814505 0 0 0 0 83.3638878704044V916.6694443518548A83.28055731475617 83.28055731475617 0 0 0 83.3305556481451 999.9999999999998zM661.719609346355 500.0166661111296L166.6611112962901 775.0741641945267V224.9591680277323zM1083.2972234258857 999.9999999999998A83.33055564814505 83.33055564814505 0 0 0 1166.6277790740307 916.6694443518548V83.3638878704044A83.33055564814505 83.33055564814505 0 0 0 999.9666677777406 83.3638878704044V916.6694443518548A83.33055564814505 83.33055564814505 0 0 0 1083.2972234258857 999.9999999999998z" />
    <glyph glyph-name="pause"
      unicode="&#xF12C;"
      horiz-adv-x="7000" d="M83.3333333333333 -0.0416666666666A83.33333333333333 83.33333333333333 0 0 0 0 83.2916666666666V916.625A83.33333333333333 83.33333333333333 0 0 0 166.6666666666667 916.625V83.2916666666666A83.33333333333333 83.33333333333333 0 0 0 83.3333333333333 -0.0416666666666zM500 -0.0416666666666A83.33333333333333 83.33333333333333 0 0 0 416.6666666666667 83.2916666666666V916.625A83.33333333333333 83.33333333333333 0 1 0 583.3333333333333 916.625V83.2916666666666A83.33333333333333 83.33333333333333 0 0 0 500 -0.0416666666666z" />
    <glyph glyph-name="pause-1"
      unicode="&#x70;&#x61;&#x75;&#x73;&#x65;"
      horiz-adv-x="7000" d="M83.3333333333333 -0.0416666666666A83.33333333333333 83.33333333333333 0 0 0 0 83.2916666666666V916.625A83.33333333333333 83.33333333333333 0 0 0 166.6666666666667 916.625V83.2916666666666A83.33333333333333 83.33333333333333 0 0 0 83.3333333333333 -0.0416666666666zM500 -0.0416666666666A83.33333333333333 83.33333333333333 0 0 0 416.6666666666667 83.2916666666666V916.625A83.33333333333333 83.33333333333333 0 1 0 583.3333333333333 916.625V83.2916666666666A83.33333333333333 83.33333333333333 0 0 0 500 -0.0416666666666z" />
    <glyph glyph-name="phone"
      unicode="&#xF12D;"
      horiz-adv-x="7000" d="M999.971428979586 325.8024885358781A71.42755103498521 71.42755103498521 0 0 1 935.6866330480995 396.8729018156883L699.6757189183012 420.4439936572334A71.42755103498521 71.42755103498521 0 0 1 624.8125026785332 371.9589720146854L589.2630105284211 265.3676376051771A940.7008471307554 940.7008471307554 0 0 0 265.3604948500736 589.291581548835L371.9804002799961 624.8053599234297A71.42755103498521 71.42755103498521 0 0 1 420.4725646776475 699.6757189183013L396.9014728361024 935.6794902929958A71.42755103498521 71.42755103498521 0 0 1 325.7953457807746 1000H71.4132655247782S65.14906929901 999.828573877516 61.6491192982957 999.2857244896502A71.46326481050271 71.46326481050271 0 0 1 0.6999900001429 918.7940172283252A1078.9988714446938 1078.9988714446938 0 0 1 918.8297310038428 0.6642762246254A71.48469307581321 71.48469307581321 0 0 1 999.357152040685 61.6634048085027C999.814288367309 65.1847830745276 999.971428979586 71.4418365451923 999.971428979586 71.4418365451923z" />
    <glyph glyph-name="phone-1"
      unicode="&#x70;&#x68;&#x6F;&#x6E;&#x65;"
      horiz-adv-x="7000" d="M999.971428979586 325.8024885358782A71.42755103498521 71.42755103498521 0 0 1 935.6866330480995 396.8729018156883L699.6757189183012 420.4439936572334A71.42755103498521 71.42755103498521 0 0 1 624.8125026785332 371.9589720146854L589.2630105284211 265.3676376051771A940.7008471307554 940.7008471307554 0 0 0 265.3604948500736 589.291581548835L371.9804002799961 624.8053599234297A71.42755103498521 71.42755103498521 0 0 1 420.4725646776475 699.6757189183013L396.9014728361024 935.6794902929958A71.42755103498521 71.42755103498521 0 0 1 325.7953457807746 1000H71.4132655247782S65.14906929901 999.828573877516 61.6491192982957 999.2857244896502A71.46326481050271 71.46326481050271 0 0 1 0.6999900001429 918.7940172283252A1078.9988714446938 1078.9988714446938 0 0 1 918.8297310038428 0.6642762246254A71.48469307581321 71.48469307581321 0 0 1 999.357152040685 61.6634048085027C999.814288367309 65.1847830745276 999.971428979586 71.4418365451923 999.971428979586 71.4418365451923z" />
    <glyph glyph-name="photos"
      unicode="&#xF12E;"
      horiz-adv-x="7000" d="M532.4755717670864 600.6283447376127A133.12388508746238 133.12388508746238 0 1 0 399.3516866796241 467.5044596501504A133.27697755531295 133.27697755531295 0 0 0 532.4755717670864 600.6283447376127M532.4755717670864 733.7522298250751A266.24777017492477 266.24777017492477 0 1 1 798.7233419420112 467.5044596501504A266.24777017492477 266.24777017492477 0 0 1 532.4755717670864 733.7522298250751zM649.9108069969915 866.8761149125376L679.6773077025481 807.3431135014243L716.4660933464683 733.7522298250751H931.8472270294736V133.1238850874623H133.1039165046993V733.7522298250751H348.5249873532309L385.3204291914055 807.3431135014243L415.0869298969621 866.8761149125376H649.9108069969915M732.1613993982801 999.9999999999998H332.7897441358928L266.2278015921617 866.8761149125376H133.1039165046993A133.5166005484704 133.5166005484704 0 0 1 -0.0199685827631 733.7522298250751V133.1238850874623A133.5166005484704 133.5166005484704 0 0 1 133.1039165046993 0H931.8472270294736A133.5166005484704 133.5166005484704 0 0 1 1064.971112116936 133.1238850874623V733.7522298250751A133.5166005484704 133.5166005484704 0 0 1 931.8472270294736 866.8761149125376H798.7233419420112L732.1613993982801 999.9999999999998z" />
    <glyph glyph-name="photos-1"
      unicode="&#x70;&#x68;&#x6F;&#x74;&#x6F;&#x73;"
      horiz-adv-x="7000" d="M532.4755717670864 600.6283447376127A133.12388508746238 133.12388508746238 0 1 0 399.3516866796241 467.5044596501504A133.27697755531295 133.27697755531295 0 0 0 532.4755717670864 600.6283447376127M532.4755717670864 733.7522298250751A266.24777017492477 266.24777017492477 0 1 1 798.7233419420112 467.5044596501504A266.24777017492477 266.24777017492477 0 0 1 532.4755717670864 733.7522298250751zM649.9108069969915 866.8761149125376L679.6773077025481 807.3431135014243L716.4660933464683 733.7522298250751H931.8472270294736V133.1238850874623H133.1039165046993V733.7522298250751H348.524987353231L385.3204291914055 807.3431135014243L415.0869298969621 866.8761149125376H649.9108069969915M732.1613993982801 999.9999999999998H332.7897441358928L266.2278015921617 866.8761149125376H133.1039165046993A133.5166005484704 133.5166005484704 0 0 1 -0.0199685827631 733.7522298250751V133.1238850874623A133.5166005484704 133.5166005484704 0 0 1 133.1039165046993 0H931.8472270294736A133.5166005484704 133.5166005484704 0 0 1 1064.971112116936 133.1238850874623V733.7522298250751A133.5166005484704 133.5166005484704 0 0 1 931.8472270294736 866.8761149125376H798.7233419420112L732.1613993982801 999.9999999999998z" />
    <glyph glyph-name="play-circle"
      unicode="&#xF12F;"
      horiz-adv-x="7000" d="M712.61875 452.8687500000001L423.86875 292.44375A53.918749999999996 53.918749999999996 0 0 0 343.75 339.5750000000001V660.425A53.925000000000004 53.925000000000004 0 0 0 423.85625 707.5625L712.60625 547.1374999999999A53.918749999999996 53.918749999999996 0 0 0 712.61875 452.8687500000001zM500 874.9875A375 375 0 1 0 125 499.9875A375.425 375.425 0 0 0 500 874.9875M500 999.9875A500 500 0 1 1 1000 499.9875A500 500 0 0 1 500 999.9875z" />
    <glyph glyph-name="play-circle-1"
      unicode="&#x70;&#x6C;&#x61;&#x79;&#x2D;&#x63;&#x69;&#x72;&#x63;&#x6C;&#x65;"
      horiz-adv-x="7000" d="M712.61875 452.8687500000001L423.86875 292.44375A53.918749999999996 53.918749999999996 0 0 0 343.75 339.5750000000001V660.425A53.925000000000004 53.925000000000004 0 0 0 423.85625 707.5625L712.60625 547.1374999999999A53.918749999999996 53.918749999999996 0 0 0 712.61875 452.8687500000001zM500 874.9875A375 375 0 1 0 125 499.9875A375.425 375.425 0 0 0 500 874.9875M500 999.9875A500 500 0 1 1 1000 499.9875A500 500 0 0 1 500 999.9875z" />
    <glyph glyph-name="play"
      unicode="&#xF130;"
      horiz-adv-x="7000" d="M873.8385126294824 572.8476545246965L123.8197621607206 989.5247381184532A83.29374901039195 83.29374901039195 0 0 1 0 916.647916197905V83.2937490103921A83.3354167187513 83.3354167187513 0 0 1 123.8197621607207 10.4502612565315L873.8385126294824 427.1273448502881A83.3354167187513 83.3354167187513 0 0 1 873.8385126294824 572.8059868163372zM166.6708334375026 224.9639574322693V775.0777102760903L661.7582106219321 499.9708326041486z" />
    <glyph glyph-name="play-1"
      unicode="&#x70;&#x6C;&#x61;&#x79;"
      horiz-adv-x="7000" d="M873.8385126294824 572.8476545246965L123.8197621607206 989.5247381184532A83.29374901039195 83.29374901039195 0 0 1 0 916.647916197905V83.2937490103921A83.3354167187513 83.3354167187513 0 0 1 123.8197621607207 10.4502612565315L873.8385126294824 427.1273448502882A83.3354167187513 83.3354167187513 0 0 1 873.8385126294824 572.8059868163372zM166.6708334375026 224.9639574322693V775.0777102760903L661.7582106219321 499.9708326041486z" />
    <glyph glyph-name="plus"
      unicode="&#xF131;"
      horiz-adv-x="7000" d="M928.55 571.4285714285714H571.4071428571428V928.5714285714286A71.42857142857143 71.42857142857143 0 0 1 428.55 928.5714285714286V571.4285714285714H71.4071428571429A71.42857142857143 71.42857142857143 0 0 1 71.4071428571429 428.5714285714286H428.55V71.4285714285715A71.42857142857143 71.42857142857143 0 0 1 571.4071428571428 71.4285714285715V428.5714285714286H928.55A71.42857142857143 71.42857142857143 0 0 1 928.55 571.4285714285714z" />
    <glyph glyph-name="plus-1"
      unicode="&#x70;&#x6C;&#x75;&#x73;"
      horiz-adv-x="7000" d="M928.55 571.4285714285714H571.4071428571428V928.5714285714286A71.42857142857143 71.42857142857143 0 0 1 428.55 928.5714285714286V571.4285714285714H71.4071428571429A71.42857142857143 71.42857142857143 0 0 1 71.4071428571429 428.5714285714286H428.55V71.4285714285715A71.42857142857143 71.42857142857143 0 0 1 571.4071428571428 71.4285714285715V428.5714285714286H928.55A71.42857142857143 71.42857142857143 0 0 1 928.55 571.4285714285714z" />
    <glyph glyph-name="pluse-circle"
      unicode="&#xF132;"
      horiz-adv-x="7000" d="M500 1000A500 500 0 1 1 1000 500A500 500 0 0 1 500 1000zM718.75 437.5H562.5V281.25A62.5 62.5 0 0 0 437.5 281.25V437.5H281.25A62.5 62.5 0 0 0 281.25 562.5H437.5V718.75A62.5 62.5 0 0 0 562.5 718.75V562.5H718.75A62.5 62.5 0 0 0 718.75 437.5z" />
    <glyph glyph-name="pluse-circle-1"
      unicode="&#x70;&#x6C;&#x75;&#x73;&#x65;&#x2D;&#x63;&#x69;&#x72;&#x63;&#x6C;&#x65;"
      horiz-adv-x="7000" d="M500 1000A500 500 0 1 1 1000 500A500 500 0 0 1 500 1000zM718.75 437.5H562.5V281.25A62.5 62.5 0 0 0 437.5 281.25V437.5H281.25A62.5 62.5 0 0 0 281.25 562.5H437.5V718.75A62.5 62.5 0 0 0 562.5 718.75V562.5H718.75A62.5 62.5 0 0 0 718.75 437.5z" />
    <glyph glyph-name="previous"
      unicode="&#xF133;"
      horiz-adv-x="7000" d="M1083.2972234258857 -0.041665277824A83.13889537015432 83.13889537015432 0 0 0 1042.848571714276 10.4496516782774L292.8735708809706 427.1024299190027A83.33055564814505 83.33055564814505 0 0 0 292.8735708809706 572.772574247525L1042.848571714276 989.4253524882502A83.33055564814505 83.33055564814505 0 0 0 1166.6277790740307 916.5944468517716V83.288890370321A83.28055731475617 83.28055731475617 0 0 0 1083.2972234258857 -0.041665277824zM504.9081697276757 499.9416686110463L999.9666677777406 224.9508349721675V775.0324989167027zM83.3305556481451 -0.041665277824A83.33055564814505 83.33055564814505 0 0 0 0 83.288890370321V916.5944468517716A83.33055564814505 83.33055564814505 0 0 0 166.6611112962901 916.5944468517716V83.288890370321A83.33055564814505 83.33055564814505 0 0 0 83.3305556481451 -0.041665277824z" />
    <glyph glyph-name="previous-1"
      unicode="&#x70;&#x72;&#x65;&#x76;&#x69;&#x6F;&#x75;&#x73;"
      horiz-adv-x="7000" d="M1083.2972234258857 -0.041665277824A83.13889537015432 83.13889537015432 0 0 0 1042.848571714276 10.4496516782774L292.8735708809706 427.1024299190027A83.33055564814505 83.33055564814505 0 0 0 292.8735708809706 572.772574247525L1042.848571714276 989.4253524882502A83.33055564814505 83.33055564814505 0 0 0 1166.6277790740307 916.5944468517716V83.288890370321A83.28055731475617 83.28055731475617 0 0 0 1083.2972234258857 -0.041665277824zM504.9081697276757 499.9416686110463L999.9666677777406 224.9508349721675V775.0324989167027zM83.3305556481451 -0.041665277824A83.33055564814505 83.33055564814505 0 0 0 0 83.288890370321V916.5944468517716A83.33055564814505 83.33055564814505 0 0 0 166.6611112962901 916.5944468517716V83.288890370321A83.33055564814505 83.33055564814505 0 0 0 83.3305556481451 -0.041665277824z" />
    <glyph glyph-name="print"
      unicode="&#xF134;"
      horiz-adv-x="7000" d="M937.50625 374.9875000000001H875.00625V687.4875A63.262499999999996 63.262499999999996 0 0 1 856.6437500000001 731.7312499999999L606.7312499999999 981.65A63.318749999999994 63.318749999999994 0 0 1 562.50625 999.9875H187.50625A62.5 62.5 0 0 1 125.00625 937.4875V374.9875000000001H62.50625A62.5 62.5 0 0 1 0.00625 312.4875000000001V62.4875000000001A62.5 62.5 0 0 1 62.50625 -0.0124999999999H937.50625A62.5 62.5 0 0 1 1000.00625 62.4875000000001V312.4875000000001A62.5 62.5 0 0 1 937.50625 374.9875000000001zM875.00625 249.9875000000001V124.9875000000001H125.00625V249.9875000000001zM562.50625 849.125L724.125 687.4875H562.50625zM250.00625 874.9875H437.50625V624.9875A62.5 62.5 0 0 1 500.00625 562.4875H750.00625V374.9875000000001H250.00625z" />
    <glyph glyph-name="print-1"
      unicode="&#x70;&#x72;&#x69;&#x6E;&#x74;"
      horiz-adv-x="7000" d="M937.50625 374.9875000000002H875.00625V687.4875A63.262499999999996 63.262499999999996 0 0 1 856.6437500000001 731.7312499999999L606.7312499999999 981.65A63.318749999999994 63.318749999999994 0 0 1 562.50625 999.9875H187.50625A62.5 62.5 0 0 1 125.00625 937.4875V374.9875000000002H62.50625A62.5 62.5 0 0 1 0.00625 312.4875000000002V62.4875000000001A62.5 62.5 0 0 1 62.50625 -0.0124999999999H937.50625A62.5 62.5 0 0 1 1000.00625 62.4875000000001V312.4875000000002A62.5 62.5 0 0 1 937.50625 374.9875000000002zM875.00625 249.9875000000001V124.9875000000001H125.00625V249.9875000000001zM562.50625 849.125L724.125 687.4875H562.50625zM250.00625 874.9875H437.50625V624.9875A62.5 62.5 0 0 1 500.00625 562.4875H750.00625V374.9875000000002H250.00625z" />
    <glyph glyph-name="profile"
      unicode="&#xF135;"
      horiz-adv-x="7000" d="M500 999.9875A500 500 0 1 1 1000 499.9875A500 500 0 0 1 500 999.9875zM500 874.9875A374.46875 374.46875 0 0 0 806.55625 284.7062500000001A565.425 565.425 0 0 1 193.43125 284.7062500000001A374.475 374.475 0 0 0 500 874.9875zM284.375 193.6875A440.68125000000003 440.68125000000003 0 0 0 715.5812500000001 193.6875A372.72499999999997 372.72499999999997 0 0 0 284.3750000000001 193.6875zM500 437.4875000000001A187.5 187.5 0 1 1 312.5 624.9875A187.71874999999997 187.71874999999997 0 0 1 500 437.4875000000001zM500 687.4875A62.5 62.5 0 1 0 437.5 624.9875A62.5 62.5 0 0 0 500 687.4875z" />
    <glyph glyph-name="profile-1"
      unicode="&#x70;&#x72;&#x6F;&#x66;&#x69;&#x6C;&#x65;"
      horiz-adv-x="7000" d="M500 999.9875A500 500 0 1 1 1000 499.9875A500 500 0 0 1 500 999.9875zM500 874.9875A374.46875 374.46875 0 0 0 806.55625 284.7062500000002A565.425 565.425 0 0 1 193.43125 284.7062500000002A374.475 374.475 0 0 0 500 874.9875zM284.375 193.6875A440.68125000000003 440.68125000000003 0 0 0 715.5812500000001 193.6875A372.72499999999997 372.72499999999997 0 0 0 284.3750000000001 193.6875zM500 437.4875000000002A187.5 187.5 0 1 1 312.5 624.9875A187.71874999999997 187.71874999999997 0 0 1 500 437.4875000000002zM500 687.4875A62.5 62.5 0 1 0 437.5 624.9875A62.5 62.5 0 0 0 500 687.4875z" />
    <glyph glyph-name="rate"
      unicode="&#xF136;"
      horiz-adv-x="7000" d="M258.3625 0A98.9375 98.9375 0 0 0 164.08125 128.275L237.0000000000001 362.09375L38.38125 516.4375A98.8125 98.8125 0 0 0 98.88125 693.3125H327.25L406.3375 932.275A98.65625000000001 98.65625000000001 0 0 0 593.6999999999999 932.275L672.7812499999999 693.3H901.1187499999997A98.825 98.825 0 0 0 961.6499999999997 516.425L761.7499999999999 361.1375000000001L833.6625000000001 129.375A98.75000000000001 98.75000000000001 0 0 0 679.0375 21.875L500.09375 160.475L318.525 20.56875A98.60624999999999 98.60624999999999 0 0 0 258.3625 0zM175.34375 568.2875L382.1125 407.63125L308.10625 170.3625L500.25625 318.3875L689.6312499999999 171.7374999999999L616.74375 406.7374999999999L824.64375 568.2812499999998H582.53125L499.98125 817.58125L417.48125 568.2875z" />
    <glyph glyph-name="rate-1"
      unicode="&#x72;&#x61;&#x74;&#x65;"
      horiz-adv-x="7000" d="M258.3625 0A98.9375 98.9375 0 0 0 164.08125 128.275L237.0000000000001 362.09375L38.38125 516.4375A98.8125 98.8125 0 0 0 98.88125 693.3125H327.25L406.3375 932.275A98.65625000000001 98.65625000000001 0 0 0 593.6999999999999 932.275L672.7812499999999 693.3H901.1187499999997A98.825 98.825 0 0 0 961.6499999999997 516.425L761.7499999999999 361.1375000000001L833.6625000000001 129.375A98.75000000000001 98.75000000000001 0 0 0 679.0375 21.875L500.09375 160.475L318.525 20.56875A98.60624999999999 98.60624999999999 0 0 0 258.3625 0zM175.34375 568.2875L382.1125 407.63125L308.10625 170.3625L500.25625 318.3875L689.6312499999999 171.7374999999999L616.74375 406.7374999999999L824.64375 568.2812499999998H582.53125L499.98125 817.58125L417.48125 568.2875z" />
    <glyph glyph-name="refresh"
      unicode="&#xF137;"
      horiz-adv-x="7000" d="M937.5125 562.4875A62.5 62.5 0 0 1 875.0124999999999 499.9875A381.0625 381.0625 0 0 0 871.2624999999999 446.8625000000001A375.1125 375.1125 0 1 0 779.48125 749.9875H656.2624999999999A62.5 62.5 0 1 1 656.2624999999999 624.9875H906.2625A62.5 62.5 0 0 1 968.7625 687.4875V937.4875A62.5 62.5 0 0 1 843.7624999999999 937.4875V861.96875A499.24375 499.24375 0 1 1 995.06875 429.4687500000001A506.24999999999994 506.24999999999994 0 0 1 1000.0125 499.9875A62.5 62.5 0 0 1 937.5125 562.4875z" />
    <glyph glyph-name="refresh-1"
      unicode="&#x72;&#x65;&#x66;&#x72;&#x65;&#x73;&#x68;"
      horiz-adv-x="7000" d="M937.5125 562.4875A62.5 62.5 0 0 1 875.0124999999999 499.9875A381.0625 381.0625 0 0 0 871.2624999999999 446.8625000000002A375.1125 375.1125 0 1 0 779.48125 749.9875H656.2624999999999A62.5 62.5 0 1 1 656.2624999999999 624.9875H906.2625A62.5 62.5 0 0 1 968.7625 687.4875V937.4875A62.5 62.5 0 0 1 843.7624999999999 937.4875V861.96875A499.24375 499.24375 0 1 1 995.06875 429.4687500000001A506.24999999999994 506.24999999999994 0 0 1 1000.0125 499.9875A62.5 62.5 0 0 1 937.5125 562.4875z" />
    <glyph glyph-name="save"
      unicode="&#xF138;"
      horiz-adv-x="7000" d="M995.18125 773.88125A62.30625 62.30625 0 0 1 981.6375 794.24375L794.2312499999999 981.65A63.318749999999994 63.318749999999994 0 0 1 750.0124999999999 999.9875H62.5125A62.5 62.5 0 0 1 0.0125 937.4875V62.4875000000001A62.5 62.5 0 0 1 62.5125 -0.0124999999999H937.5125A62.5 62.5 0 0 1 1000.0125 62.4875000000001V749.9875A62.44375 62.44375 0 0 1 995.18125 773.88125zM750.0124999999999 437.4875000000001H250.0125A62.5 62.5 0 0 1 187.5125 374.9875000000001V124.9875000000001H125.0125V874.9875H250.0125V687.4875A62.5 62.5 0 0 1 312.5125000000001 624.9875H687.5124999999999A62.5 62.5 0 0 1 750.0124999999999 687.4875V849.125L875.0124999999999 724.125V124.9875000000001H812.5124999999999V374.9875000000001A62.5 62.5 0 0 1 750.0124999999999 437.4875000000001zM625.0124999999999 749.9875H500.0125V874.9875H625.0124999999999zM312.5125000000001 124.9875000000001V312.4875000000001H687.5124999999999V124.9875000000001z" />
    <glyph glyph-name="save-1"
      unicode="&#x73;&#x61;&#x76;&#x65;"
      horiz-adv-x="7000" d="M995.18125 773.88125A62.30625 62.30625 0 0 1 981.6375 794.24375L794.2312499999999 981.65A63.318749999999994 63.318749999999994 0 0 1 750.0124999999999 999.9875H62.5125A62.5 62.5 0 0 1 0.0125 937.4875V62.4875000000001A62.5 62.5 0 0 1 62.5125 -0.0124999999999H937.5125A62.5 62.5 0 0 1 1000.0125 62.4875000000001V749.9875A62.44375 62.44375 0 0 1 995.18125 773.88125zM750.0124999999999 437.4875000000002H250.0125A62.5 62.5 0 0 1 187.5125 374.9875000000002V124.9875000000001H125.0125V874.9875H250.0125V687.4875A62.5 62.5 0 0 1 312.5125000000001 624.9875H687.5124999999999A62.5 62.5 0 0 1 750.0124999999999 687.4875V849.125L875.0124999999999 724.125V124.9875000000001H812.5124999999999V374.9875000000002A62.5 62.5 0 0 1 750.0124999999999 437.4875000000002zM625.0124999999999 749.9875H500.0125V874.9875H625.0124999999999zM312.5125000000001 124.9875000000001V312.4875000000002H687.5124999999999V124.9875000000001z" />
    <glyph glyph-name="search"
      unicode="&#xF139;"
      horiz-adv-x="7000" d="M981.69375 106.6875L733.98125 354.375A407.30625 407.30625 0 1 1 645.60625 266L893.3125000000001 18.29375A62.5 62.5 0 1 1 981.69375 106.6687499999999zM124.98125 593.75A281.25 281.25 0 1 0 406.23125 312.5A281.56874999999997 281.56874999999997 0 0 0 124.98125 593.75z" />
    <glyph glyph-name="search-1"
      unicode="&#x73;&#x65;&#x61;&#x72;&#x63;&#x68;"
      horiz-adv-x="7000" d="M981.69375 106.6875L733.98125 354.375A407.30625 407.30625 0 1 1 645.60625 266L893.3125000000001 18.29375A62.5 62.5 0 1 1 981.69375 106.6687499999999zM124.98125 593.75A281.25 281.25 0 1 0 406.23125 312.5A281.56874999999997 281.56874999999997 0 0 0 124.98125 593.75z" />
    <glyph glyph-name="secure"
      unicode="&#xF13A;"
      horiz-adv-x="7000" d="M342.9375 218.75A62.5 62.5 0 0 1 405.4375 281.25V343.75A62.5 62.5 0 0 1 280.4375 343.75V281.25A62.5 62.5 0 0 1 342.9375 218.75zM626.13125 625H593.75V750A250 250 0 0 1 93.75 750V625H61.36875A61.550000000000004 61.550000000000004 0 0 1 0 563.63125V343.75A344.75624999999997 344.75624999999997 0 0 1 343.75 0H343.75A344.7625 344.7625 0 0 1 687.5 343.75V563.6312499999999A61.550000000000004 61.550000000000004 0 0 1 626.13125 625zM218.75 750A125 125 0 0 0 468.75 750V625H218.75zM562.5 343.75A218.75 218.75 0 0 0 125 343.75V500H562.5z" />
    <glyph glyph-name="secure-1"
      unicode="&#x73;&#x65;&#x63;&#x75;&#x72;&#x65;"
      horiz-adv-x="7000" d="M342.9375 218.75A62.5 62.5 0 0 1 405.4375 281.25V343.75A62.5 62.5 0 0 1 280.4375 343.75V281.25A62.5 62.5 0 0 1 342.9375 218.75zM626.13125 625H593.75V750A250 250 0 0 1 93.75 750V625H61.36875A61.550000000000004 61.550000000000004 0 0 1 0 563.63125V343.75A344.75624999999997 344.75624999999997 0 0 1 343.75 0H343.75A344.7625 344.7625 0 0 1 687.5 343.75V563.6312499999999A61.550000000000004 61.550000000000004 0 0 1 626.13125 625zM218.75 750A125 125 0 0 0 468.75 750V625H218.75zM562.5 343.75A218.75 218.75 0 0 0 125 343.75V500H562.5z" />
    <glyph glyph-name="send"
      unicode="&#xF13B;"
      horiz-adv-x="7000" d="M625.0140626757834 -0.006250078126A62.500781259765745 62.500781259765745 0 0 0 569.100863760797 34.5379317241466L390.9298866235828 390.9361367017089L34.5441818022725 569.100863760797A62.500781259765745 62.500781259765745 0 0 0 41.5005187564845 683.8772984662309L916.5114563932048 996.3812047650596A62.500781259765745 62.500781259765745 0 0 0 996.3499543744296 916.486456080701L683.846048075601 41.4755184439806A62.500781259765745 62.500781259765745 0 0 0 628.7891098638733 0.1250015625196C627.514093926174 0.0312503906299 626.2265778322228 -0.006250078126 625.0140626757834 -0.006250078126zM513.5501693771172 425.1740646758084L615.4264428305353 221.4215177689721L834.3041788022348 834.2541781772271L221.4340179252241 615.3951924399055L425.1865648320604 513.5564194552433L518.3127289091113 606.6825835322942A62.500781259765745 62.500781259765745 0 0 0 606.695083688546 518.3064788309855z" />
    <glyph glyph-name="send-1"
      unicode="&#x73;&#x65;&#x6E;&#x64;"
      horiz-adv-x="7000" d="M625.0140626757834 -0.006250078126A62.500781259765745 62.500781259765745 0 0 0 569.100863760797 34.5379317241466L390.9298866235828 390.9361367017089L34.5441818022725 569.100863760797A62.500781259765745 62.500781259765745 0 0 0 41.5005187564845 683.8772984662309L916.5114563932048 996.3812047650596A62.500781259765745 62.500781259765745 0 0 0 996.3499543744296 916.486456080701L683.846048075601 41.4755184439806A62.500781259765745 62.500781259765745 0 0 0 628.7891098638733 0.1250015625196C627.514093926174 0.0312503906299 626.2265778322228 -0.006250078126 625.0140626757834 -0.006250078126zM513.5501693771172 425.1740646758084L615.4264428305353 221.4215177689721L834.3041788022348 834.2541781772271L221.4340179252241 615.3951924399055L425.1865648320604 513.5564194552433L518.3127289091113 606.6825835322942A62.500781259765745 62.500781259765745 0 0 0 606.695083688546 518.3064788309855z" />
    <glyph glyph-name="settings"
      unicode="&#xF13C;"
      horiz-adv-x="7000" d="M978.63125 569.625L858.63125 609.625A373.26875 373.26875 0 0 1 831.06875 675.99375L887.675 789.2125A31.25 31.25 0 0 1 881.8249999999999 825.2874999999999L825.2874999999999 881.8187499999999A31.25 31.25 0 0 1 789.21875 887.675L675.99375 831.0687499999999A372.91249999999997 372.91249999999997 0 0 1 609.63125 858.625L569.63125 978.625A31.25 31.25 0 0 1 539.98125 1000H460.025A31.25 31.25 0 0 1 430.375 978.63125L390.375 858.63125A372.34375 372.34375 0 0 1 324.00625 831.06875L210.7875 887.675A31.25 31.25 0 0 1 174.7125 881.81875L118.18125 825.2875A31.25 31.25 0 0 1 112.31875 789.2125L168.93125 675.99375A372.97499999999997 372.97499999999997 0 0 1 141.375 609.625L21.375 569.625A31.25 31.25 0 0 1 -0.01875 540V460A31.25 31.25 0 0 1 21.34375 430.35L141.34375 390.35A373.25000000000006 373.25000000000006 0 0 1 168.9 323.9812500000001L112.2875 210.7624999999999A31.25 31.25 0 0 1 118.15 174.6875L174.68125 118.15625A31.25 31.25 0 0 1 210.75625 112.3L323.975 168.9062499999999A372.97499999999997 372.97499999999997 0 0 1 390.34375 141.35L430.34375 21.35A31.25 31.25 0 0 1 460.025 0H539.98125A31.25 31.25 0 0 1 569.625 21.3687500000001L609.6250000000001 141.3687500000001A372.45000000000005 372.45000000000005 0 0 1 675.9875000000001 168.925L789.2125000000001 112.31875A31.25 31.25 0 0 1 825.2812500000001 118.1750000000001L881.8187500000001 174.7062500000001A31.25 31.25 0 0 1 887.6687500000002 210.78125L831.0562500000002 323.9937500000001A373.08125 373.08125 0 0 1 858.6250000000002 390.3687500000001L978.6250000000002 430.3687500000001A31.25 31.25 0 0 1 999.98125 460V540A31.25 31.25 0 0 1 978.63125 569.625zM499.98125 250A250 250 0 1 0 749.98125 500A250.2875 250.2875 0 0 0 499.98125 250z" />
    <glyph glyph-name="settings-1"
      unicode="&#x73;&#x65;&#x74;&#x74;&#x69;&#x6E;&#x67;&#x73;"
      horiz-adv-x="7000" d="M978.63125 569.625L858.63125 609.625A373.26875 373.26875 0 0 1 831.06875 675.99375L887.675 789.2125A31.25 31.25 0 0 1 881.8249999999999 825.2874999999999L825.2874999999999 881.8187499999999A31.25 31.25 0 0 1 789.21875 887.675L675.99375 831.0687499999999A372.91249999999997 372.91249999999997 0 0 1 609.63125 858.625L569.63125 978.625A31.25 31.25 0 0 1 539.98125 1000H460.025A31.25 31.25 0 0 1 430.375 978.63125L390.375 858.63125A372.34375 372.34375 0 0 1 324.00625 831.06875L210.7875 887.675A31.25 31.25 0 0 1 174.7125 881.81875L118.18125 825.2875A31.25 31.25 0 0 1 112.31875 789.2125L168.93125 675.99375A372.97499999999997 372.97499999999997 0 0 1 141.375 609.625L21.375 569.625A31.25 31.25 0 0 1 -0.01875 540V460A31.25 31.25 0 0 1 21.34375 430.35L141.34375 390.35A373.25000000000006 373.25000000000006 0 0 1 168.9 323.9812500000001L112.2875 210.7624999999999A31.25 31.25 0 0 1 118.15 174.6875L174.68125 118.15625A31.25 31.25 0 0 1 210.75625 112.3L323.975 168.9062499999999A372.97499999999997 372.97499999999997 0 0 1 390.34375 141.35L430.34375 21.35A31.25 31.25 0 0 1 460.025 0H539.98125A31.25 31.25 0 0 1 569.625 21.3687500000001L609.6250000000001 141.3687500000001A372.45000000000005 372.45000000000005 0 0 1 675.9875000000001 168.925L789.2125000000001 112.31875A31.25 31.25 0 0 1 825.2812500000001 118.1750000000001L881.8187500000001 174.7062500000001A31.25 31.25 0 0 1 887.6687500000002 210.78125L831.0562500000002 323.9937500000001A373.08125 373.08125 0 0 1 858.6250000000002 390.3687500000001L978.6250000000002 430.3687500000001A31.25 31.25 0 0 1 999.98125 460V540A31.25 31.25 0 0 1 978.63125 569.625zM499.98125 250A250 250 0 1 0 749.98125 500A250.2875 250.2875 0 0 0 499.98125 250z" />
    <glyph glyph-name="share"
      unicode="&#xF13D;"
      horiz-adv-x="7000" d="M0 1000H999.9937500390624V0.0062499609377H0V1000zM781.1263679602004 375.0039062255861A179.8676258273386 179.8676258273386 0 0 1 657.8958881506992 327.5042030987306L403.4662283360729 468.8595696276898A186.4425847338454 186.4425847338454 0 0 1 402.8412322422986 530.852932169174L657.2458922131738 672.1707989325066A188.20507371828927 188.20507371828927 0 1 1 597.0837682264486 781.7138642883482L342.6791082555734 640.3647477203267A187.38632883544483 187.38632883544483 0 1 1 297.6793895038157 329.9854375910151A185.4050912181799 185.4050912181799 0 0 1 342.0916119274255 359.9852500921869L596.5087718201762 218.6548834069787A187.34882906981832 187.34882906981832 0 1 1 781.1263679602004 375.0039062255861zM754.9390316310523 869.144567846451A61.743364103974365 61.743364103974365 0 0 0 781.1263679602004 875.0007812451172A62.499609377441395 62.499609377441395 0 0 0 807.5449528440449 755.8577758889007A61.71836426022338 61.71836426022338 0 0 0 781.3638664758345 750.0015624902344A62.499609377441395 62.499609377441395 0 0 0 754.9390316310522 869.144567846451zM245.0484684470722 443.3597290016937A61.71836426022338 61.71836426022338 0 0 0 218.867382078862 437.5035156030275A62.499609377441395 62.499609377441395 0 0 0 192.4425472340798 556.646520959244A61.743364103974365 61.743364103974365 0 0 0 218.6298835632277 562.5027343579102A62.499609377441395 62.499609377441395 0 0 0 245.0484684470722 443.3597290016937zM807.5449528440448 130.8616821144867A61.71836426022338 61.71836426022338 0 0 0 781.3638664758345 125.0054687158205A62.499609377441395 62.499609377441395 0 0 0 754.9390316310522 244.148474072037A61.743364103974365 61.743364103974365 0 0 0 781.1263679602004 250.0046874707033A62.499609377441395 62.499609377441395 0 0 0 807.5449528440449 130.8616821144867z" />
    </font>
</defs>
</svg>
