<?xml version="1.0" standalone="no"?>
<!DOCTYPE svg PUBLIC "-//W3C//DTD SVG 1.1//EN" "http://www.w3.org/Graphics/SVG/1.1/DTD/svg11.dtd" >
<svg xmlns="http://www.w3.org/2000/svg">
<defs>
  <font id="wsu-icons" horiz-adv-x="1000">
    <font-face font-family="wsu-icons"
      units-per-em="1000" ascent="1000"
      descent="0" />
    <missing-glyph horiz-adv-x="0" />
    <glyph glyph-name="alarm-drk"
      unicode="&#xF101;"
      horiz-adv-x="1000" d="M500 812.5C687.5 812.5 843.75 656.25 843.75 468.75S693.75 125 500 125S156.25 281.25 156.25 468.75S312.5 812.5 500 812.5M500 937.5C243.75 937.5 31.25 725 31.25 468.75S243.75 0 500 0S968.75 212.5 968.75 468.75S762.5 937.5 500 937.5zM656.25 281.25C643.75 281.25 631.25 287.5 618.75 293.75L437.5 437.5V656.25C437.5 693.75 462.5 718.75 500 718.75C537.5 718.75 562.5 693.75 562.5 656.25V500L693.75 393.75C718.75 375 725 331.25 700 306.25C693.75 287.5 675 281.25 656.25 281.25zM937.5 812.5C918.75 812.5 906.25 818.75 893.75 831.25L831.25 893.75C806.25 918.75 806.25 956.25 831.25 981.25C856.2500000000001 1006.25 893.75 1006.25 918.7500000000002 981.25C918.7500000000002 981.25 918.7500000000002 981.25 918.7500000000002 981.25L981.2500000000002 918.75C1006.2500000000002 893.75 1006.2500000000002 856.25 981.2500000000002 831.25C975 818.75 956.25 812.5 937.5 812.5zM62.5 812.5C50 812.5 31.25 818.75 18.75 831.25C-6.25 856.25 -6.25 893.75 18.75 918.75L81.25 981.25C106.25 1006.25 143.75 1006.25 168.75 981.25C168.75 981.25 168.75 981.25 168.75 981.25C193.75 956.25 193.75 918.75 168.75 893.75L106.25 831.25C100 818.75 81.25 812.5 62.5 812.5z" />
    <glyph glyph-name="alarm-drk-1"
      unicode="&#x61;&#x6C;&#x61;&#x72;&#x6D;&#x2D;&#x64;&#x72;&#x6B;"
      horiz-adv-x="1000" d="M500 812.5C687.5 812.5 843.75 656.25 843.75 468.75S693.75 125 500 125S156.25 281.25 156.25 468.75S312.5 812.5 500 812.5M500 937.5C243.75 937.5 31.25 725 31.25 468.75S243.75 0 500 0S968.75 212.5 968.75 468.75S762.5 937.5 500 937.5zM656.25 281.25C643.75 281.25 631.25 287.5 618.75 293.75L437.5 437.5V656.25C437.5 693.75 462.5 718.75 500 718.75C537.5 718.75 562.5 693.75 562.5 656.25V500L693.75 393.75C718.75 375 725 331.25 700 306.25C693.75 287.5 675 281.25 656.25 281.25zM937.5 812.5C918.75 812.5 906.25 818.75 893.75 831.25L831.25 893.75C806.25 918.75 806.25 956.25 831.25 981.25C856.2500000000001 1006.25 893.75 1006.25 918.7500000000002 981.25C918.7500000000002 981.25 918.7500000000002 981.25 918.7500000000002 981.25L981.2500000000002 918.75C1006.2500000000002 893.75 1006.2500000000002 856.25 981.2500000000002 831.25C975 818.75 956.25 812.5 937.5 812.5zM62.5 812.5C50 812.5 31.25 818.75 18.75 831.25C-6.25 856.25 -6.25 893.75 18.75 918.75L81.25 981.25C106.25 1006.25 143.75 1006.25 168.75 981.25C168.75 981.25 168.75 981.25 168.75 981.25C193.75 956.25 193.75 918.75 168.75 893.75L106.25 831.25C100 818.75 81.25 812.5 62.5 812.5z" />
    <glyph glyph-name="alarm-lht"
      unicode="&#xF102;"
      horiz-adv-x="1000" d="M501.8749999999999 812.5A343.74999999999994 343.74999999999994 0 1 0 158.125 468.75A343.74999999999994 343.74999999999994 0 0 0 501.8749999999999 812.5M501.8749999999999 937.5A468.74999999999994 468.74999999999994 0 1 1 970.625 468.75A468.74999999999994 468.74999999999994 0 0 1 501.8749999999999 937.5zM656.25 281.25A62.5 62.5 0 0 0 617.5 295L439.375 437.5V656.25A62.5 62.5 0 1 0 564.3750000000001 656.25V500L697.5 393.75A62.5 62.5 0 0 0 706.875 306.25A62.5 62.5 0 0 0 656.25 281.25zM939.375 812.5A62.5 62.5 0 0 0 895 831.25L832.5 893.75A62.5 62.5 0 0 0 832.5 981.875A62.5 62.5 0 0 0 921.25 981.875L983.75 919.375A62.5 62.5 0 0 0 939.375 812.5zM64.375 812.5A62.5 62.5 0 0 0 20 831.25A62.5 62.5 0 0 0 20 919.375L82.5 981.875A62.5 62.5 0 0 0 171.25 981.875A62.5 62.5 0 0 0 171.25 893.75L108.75 831.25A62.5 62.5 0 0 0 64.375 812.5z" />
    <glyph glyph-name="alarm-lht-1"
      unicode="&#x61;&#x6C;&#x61;&#x72;&#x6D;&#x2D;&#x6C;&#x68;&#x74;"
      horiz-adv-x="1000" d="M501.8749999999999 812.5A343.74999999999994 343.74999999999994 0 1 0 158.125 468.75A343.74999999999994 343.74999999999994 0 0 0 501.8749999999999 812.5M501.8749999999999 937.5A468.74999999999994 468.74999999999994 0 1 1 970.625 468.75A468.74999999999994 468.74999999999994 0 0 1 501.8749999999999 937.5zM656.25 281.25A62.5 62.5 0 0 0 617.5 295L439.375 437.5V656.25A62.5 62.5 0 1 0 564.3750000000001 656.25V500L697.5 393.75A62.5 62.5 0 0 0 706.875 306.25A62.5 62.5 0 0 0 656.25 281.25zM939.375 812.5A62.5 62.5 0 0 0 895 831.25L832.5 893.75A62.5 62.5 0 0 0 832.5 981.875A62.5 62.5 0 0 0 921.25 981.875L983.75 919.375A62.5 62.5 0 0 0 939.375 812.5zM64.375 812.5A62.5 62.5 0 0 0 20 831.25A62.5 62.5 0 0 0 20 919.375L82.5 981.875A62.5 62.5 0 0 0 171.25 981.875A62.5 62.5 0 0 0 171.25 893.75L108.75 831.25A62.5 62.5 0 0 0 64.375 812.5z" />
    <glyph glyph-name="alert-notification-drk"
      unicode="&#xF103;"
      horiz-adv-x="1000" d="M782.5 500L782.5 500V610.625A293.12500000000006 293.12500000000006 0 0 1 562.5 898.125A49.37500000000001 49.37500000000001 0 0 1 562.5 906.25A62.5 62.5 0 0 1 437.5 906.25S437.5 901.875 437.5 899.375A281.25 281.25 0 0 1 218.75 625V500L218.75 500A468.125 468.125 0 0 1 36.875 196.25A62.5 62.5 0 0 1 99.375 125H375A125 125 0 0 1 625 125H901.25A62.5 62.5 0 0 1 963.75 196.875A468.125 468.125 0 0 1 782.5 500zM180 250A338.125 338.125 0 0 0 293.125 398.75L343.75 437.5V625A156.25 156.25 0 0 0 500 781.25H514.375A167.50000000000003 167.50000000000003 0 0 0 656.25 610.625V500L656.25 437.5L705.625 400A338.125 338.125 0 0 0 820 250z" />
    <glyph glyph-name="alert-notification-drk-1"
      unicode="&#x61;&#x6C;&#x65;&#x72;&#x74;&#x2D;&#x6E;&#x6F;&#x74;&#x69;&#x66;&#x69;&#x63;&#x61;&#x74;&#x69;&#x6F;&#x6E;&#x2D;&#x64;&#x72;&#x6B;"
      horiz-adv-x="1000" d="M782.5 500L782.5 500V610.625A293.12500000000006 293.12500000000006 0 0 1 562.5 898.125A49.37500000000001 49.37500000000001 0 0 1 562.5 906.25A62.5 62.5 0 0 1 437.5 906.25S437.5 901.875 437.5 899.375A281.25 281.25 0 0 1 218.75 625V500L218.75 500A468.125 468.125 0 0 1 36.875 196.25A62.5 62.5 0 0 1 99.375 125H375A125 125 0 0 1 625 125H901.25A62.5 62.5 0 0 1 963.75 196.875A468.125 468.125 0 0 1 782.5 500zM180 250A338.125 338.125 0 0 0 293.125 398.75L343.75 437.5V625A156.25 156.25 0 0 0 500 781.25H514.375A167.50000000000003 167.50000000000003 0 0 0 656.25 610.625V500L656.25 437.5L705.625 400A338.125 338.125 0 0 0 820 250z" />
    <glyph glyph-name="alert-notification-lht"
      unicode="&#xF104;"
      horiz-adv-x="1000" d="M782.5 500L782.5 500V610.625A293.12500000000006 293.12500000000006 0 0 1 562.5 898.125A49.37500000000001 49.37500000000001 0 0 1 562.5 906.25A62.5 62.5 0 0 1 437.5 906.25S437.5 901.875 437.5 899.375A281.25 281.25 0 0 1 218.75 625V500L218.75 500A468.125 468.125 0 0 1 36.875 196.25A62.5 62.5 0 0 1 99.375 125H375A125 125 0 0 1 625 125H901.25A62.5 62.5 0 0 1 963.75 196.875A468.125 468.125 0 0 1 782.5 500zM180 250A338.125 338.125 0 0 0 293.125 398.75L343.75 437.5V625A156.25 156.25 0 0 0 500 781.25H514.375A167.50000000000003 167.50000000000003 0 0 0 656.25 610.625V500L656.25 437.5L705.625 400A338.125 338.125 0 0 0 820 250z" />
    <glyph glyph-name="alert-notification-lht-1"
      unicode="&#x61;&#x6C;&#x65;&#x72;&#x74;&#x2D;&#x6E;&#x6F;&#x74;&#x69;&#x66;&#x69;&#x63;&#x61;&#x74;&#x69;&#x6F;&#x6E;&#x2D;&#x6C;&#x68;&#x74;"
      horiz-adv-x="1000" d="M782.5 500L782.5 500V610.625A293.12500000000006 293.12500000000006 0 0 1 562.5 898.125A49.37500000000001 49.37500000000001 0 0 1 562.5 906.25A62.5 62.5 0 0 1 437.5 906.25S437.5 901.875 437.5 899.375A281.25 281.25 0 0 1 218.75 625V500L218.75 500A468.125 468.125 0 0 1 36.875 196.25A62.5 62.5 0 0 1 99.375 125H375A125 125 0 0 1 625 125H901.25A62.5 62.5 0 0 1 963.75 196.875A468.125 468.125 0 0 1 782.5 500zM180 250A338.125 338.125 0 0 0 293.125 398.75L343.75 437.5V625A156.25 156.25 0 0 0 500 781.25H514.375A167.50000000000003 167.50000000000003 0 0 0 656.25 610.625V500L656.25 437.5L705.625 400A338.125 338.125 0 0 0 820 250z" />
    <glyph glyph-name="arrow-down-carrot-drk"
      unicode="&#xF105;"
      horiz-adv-x="1000" d="M919.375 731.875A62.5 62.5 0 0 1 830.6250000000001 731.875L500 400.625L169.375 731.875A62.5 62.5 0 0 1 80.625 643.125L455.625 268.125A62.5 62.5 0 0 1 544.375 268.125L919.375 643.125A62.5 62.5 0 0 1 919.375 731.875z" />
    <glyph glyph-name="arrow-down-carrot-drk-1"
      unicode="&#x61;&#x72;&#x72;&#x6F;&#x77;&#x2D;&#x64;&#x6F;&#x77;&#x6E;&#x2D;&#x63;&#x61;&#x72;&#x72;&#x6F;&#x74;&#x2D;&#x64;&#x72;&#x6B;"
      horiz-adv-x="1000" d="M919.375 731.875A62.5 62.5 0 0 1 830.6250000000001 731.875L500 400.625L169.375 731.875A62.5 62.5 0 0 1 80.625 643.125L455.625 268.125A62.5 62.5 0 0 1 544.375 268.125L919.375 643.125A62.5 62.5 0 0 1 919.375 731.875z" />
    <glyph glyph-name="arrow-down-carrot-lht"
      unicode="&#xF106;"
      horiz-adv-x="1000" d="M919.375 731.875A62.5 62.5 0 0 1 830.6250000000001 731.875L500 400.625L169.375 731.875A62.5 62.5 0 0 1 80.625 643.125L455.625 268.125A62.5 62.5 0 0 1 544.375 268.125L919.375 643.125A62.5 62.5 0 0 1 919.375 731.875z" />
    <glyph glyph-name="arrow-down-carrot-lht-1"
      unicode="&#x61;&#x72;&#x72;&#x6F;&#x77;&#x2D;&#x64;&#x6F;&#x77;&#x6E;&#x2D;&#x63;&#x61;&#x72;&#x72;&#x6F;&#x74;&#x2D;&#x6C;&#x68;&#x74;"
      horiz-adv-x="1000" d="M919.375 731.875A62.5 62.5 0 0 1 830.6250000000001 731.875L500 400.625L169.375 731.875A62.5 62.5 0 0 1 80.625 643.125L455.625 268.125A62.5 62.5 0 0 1 544.375 268.125L919.375 643.125A62.5 62.5 0 0 1 919.375 731.875z" />
    <glyph glyph-name="arrow-down-drk"
      unicode="&#xF107;"
      horiz-adv-x="1000" d="M80.625 393.125L455.625 18.125A62.5 62.5 0 0 1 544.375 18.125L919.375 393.125A62.5 62.5 0 0 1 919.375 481.8749999999999A62.5 62.5 0 0 1 830.6250000000001 481.8749999999999L562.5 211.875V937.5A62.5 62.5 0 0 1 437.5 937.5V215L169.375 481.875A62.5 62.5 0 0 1 80.625 481.875A62.5 62.5 0 0 1 80.625 393.125z" />
    <glyph glyph-name="arrow-down-drk-1"
      unicode="&#x61;&#x72;&#x72;&#x6F;&#x77;&#x2D;&#x64;&#x6F;&#x77;&#x6E;&#x2D;&#x64;&#x72;&#x6B;"
      horiz-adv-x="1000" d="M80.625 393.125L455.625 18.125A62.5 62.5 0 0 1 544.375 18.125L919.375 393.125A62.5 62.5 0 0 1 919.375 481.8749999999999A62.5 62.5 0 0 1 830.6250000000001 481.8749999999999L562.5 211.875V937.5A62.5 62.5 0 0 1 437.5 937.5V215L169.375 481.875A62.5 62.5 0 0 1 80.625 481.875A62.5 62.5 0 0 1 80.625 393.125z" />
    <glyph glyph-name="arrow-down-lht"
      unicode="&#xF108;"
      horiz-adv-x="1000" d="M80.625 393.125L455.625 18.125A62.5 62.5 0 0 1 544.375 18.125L919.375 393.125A62.5 62.5 0 0 1 919.375 481.8749999999999A62.5 62.5 0 0 1 830.6250000000001 481.8749999999999L562.5 211.875V937.5A62.5 62.5 0 0 1 437.5 937.5V215L169.375 481.875A62.5 62.5 0 0 1 80.625 481.875A62.5 62.5 0 0 1 80.625 393.125z" />
    <glyph glyph-name="arrow-down-lht-1"
      unicode="&#x61;&#x72;&#x72;&#x6F;&#x77;&#x2D;&#x64;&#x6F;&#x77;&#x6E;&#x2D;&#x6C;&#x68;&#x74;"
      horiz-adv-x="1000" d="M80.625 393.125L455.625 18.125A62.5 62.5 0 0 1 544.375 18.125L919.375 393.125A62.5 62.5 0 0 1 919.375 481.8749999999999A62.5 62.5 0 0 1 830.6250000000001 481.8749999999999L562.5 211.875V937.5A62.5 62.5 0 0 1 437.5 937.5V215L169.375 481.875A62.5 62.5 0 0 1 80.625 481.875A62.5 62.5 0 0 1 80.625 393.125z" />
    <glyph glyph-name="arrow-left-carrot-drk"
      unicode="&#xF109;"
      horiz-adv-x="1000" d="M400.625 500L731.875 830.625A62.5 62.5 0 1 1 643.1250000000001 919.375L268.1250000000001 544.375A62.5 62.5 0 0 1 268.1250000000001 455.625L643.1250000000001 80.625A62.5 62.5 0 0 1 731.875 80.625A62.5 62.5 0 0 1 731.875 169.3749999999999z" />
    <glyph glyph-name="arrow-left-carrot-drk-1"
      unicode="&#x61;&#x72;&#x72;&#x6F;&#x77;&#x2D;&#x6C;&#x65;&#x66;&#x74;&#x2D;&#x63;&#x61;&#x72;&#x72;&#x6F;&#x74;&#x2D;&#x64;&#x72;&#x6B;"
      horiz-adv-x="1000" d="M400.625 500L731.875 830.625A62.5 62.5 0 1 1 643.1250000000001 919.375L268.1250000000001 544.375A62.5 62.5 0 0 1 268.1250000000001 455.625L643.1250000000001 80.625A62.5 62.5 0 0 1 731.875 80.625A62.5 62.5 0 0 1 731.875 169.3749999999999z" />
    <glyph glyph-name="arrow-left-carrot-lht"
      unicode="&#xF10A;"
      horiz-adv-x="1000" d="M400.625 500L731.875 830.625A62.5 62.5 0 1 1 643.1250000000001 919.375L268.1250000000001 544.375A62.5 62.5 0 0 1 268.1250000000001 455.625L643.1250000000001 80.625A62.5 62.5 0 0 1 731.875 80.625A62.5 62.5 0 0 1 731.875 169.3749999999999z" />
    <glyph glyph-name="arrow-left-carrot-lht-1"
      unicode="&#x61;&#x72;&#x72;&#x6F;&#x77;&#x2D;&#x6C;&#x65;&#x66;&#x74;&#x2D;&#x63;&#x61;&#x72;&#x72;&#x6F;&#x74;&#x2D;&#x6C;&#x68;&#x74;"
      horiz-adv-x="1000" d="M400.625 500L731.875 830.625A62.5 62.5 0 1 1 643.1250000000001 919.375L268.1250000000001 544.375A62.5 62.5 0 0 1 268.1250000000001 455.625L643.1250000000001 80.625A62.5 62.5 0 0 1 731.875 80.625A62.5 62.5 0 0 1 731.875 169.3749999999999z" />
    <glyph glyph-name="arrow-left-drk"
      unicode="&#xF10B;"
      horiz-adv-x="1000" d="M393.125 919.375L18.125 544.375A62.5 62.5 0 0 1 18.125 455.625L393.125 80.625A62.5 62.5 0 0 1 481.875 80.625A62.5 62.5 0 0 1 481.875 169.3749999999999L211.875 437.5H937.5A62.5 62.5 0 0 1 937.5 562.5H215L481.875 830.625A62.5 62.5 0 0 1 481.875 919.375A62.5 62.5 0 0 1 393.125 919.375z" />
    <glyph glyph-name="arrow-left-drk-1"
      unicode="&#x61;&#x72;&#x72;&#x6F;&#x77;&#x2D;&#x6C;&#x65;&#x66;&#x74;&#x2D;&#x64;&#x72;&#x6B;"
      horiz-adv-x="1000" d="M393.125 919.375L18.125 544.375A62.5 62.5 0 0 1 18.125 455.625L393.125 80.625A62.5 62.5 0 0 1 481.875 80.625A62.5 62.5 0 0 1 481.875 169.3749999999999L211.875 437.5H937.5A62.5 62.5 0 0 1 937.5 562.5H215L481.875 830.625A62.5 62.5 0 0 1 481.875 919.375A62.5 62.5 0 0 1 393.125 919.375z" />
    <glyph glyph-name="arrow-left-lht"
      unicode="&#xF10C;"
      horiz-adv-x="1000" d="M393.125 919.375L18.125 544.375A62.5 62.5 0 0 1 18.125 455.625L393.125 80.625A62.5 62.5 0 0 1 481.875 80.625A62.5 62.5 0 0 1 481.875 169.3749999999999L211.875 437.5H937.5A62.5 62.5 0 0 1 937.5 562.5H215L481.875 830.625A62.5 62.5 0 0 1 481.875 919.375A62.5 62.5 0 0 1 393.125 919.375z" />
    <glyph glyph-name="arrow-left-lht-1"
      unicode="&#x61;&#x72;&#x72;&#x6F;&#x77;&#x2D;&#x6C;&#x65;&#x66;&#x74;&#x2D;&#x6C;&#x68;&#x74;"
      horiz-adv-x="1000" d="M393.125 919.375L18.125 544.375A62.5 62.5 0 0 1 18.125 455.625L393.125 80.625A62.5 62.5 0 0 1 481.875 80.625A62.5 62.5 0 0 1 481.875 169.3749999999999L211.875 437.5H937.5A62.5 62.5 0 0 1 937.5 562.5H215L481.875 830.625A62.5 62.5 0 0 1 481.875 919.375A62.5 62.5 0 0 1 393.125 919.375z" />
    <glyph glyph-name="arrow-right-carrot-drk"
      unicode="&#xF10D;"
      horiz-adv-x="1000" d="M731.875 544.375L356.8750000000001 919.375A62.5 62.5 0 0 1 268.125 830.625L599.375 500L268.125 169.375A62.5 62.5 0 0 1 268.125 80.6250000000001A62.5 62.5 0 0 1 356.875 80.6250000000001L731.875 455.6250000000001A62.5 62.5 0 0 1 731.875 544.375z" />
    <glyph glyph-name="arrow-right-carrot-drk-1"
      unicode="&#x61;&#x72;&#x72;&#x6F;&#x77;&#x2D;&#x72;&#x69;&#x67;&#x68;&#x74;&#x2D;&#x63;&#x61;&#x72;&#x72;&#x6F;&#x74;&#x2D;&#x64;&#x72;&#x6B;"
      horiz-adv-x="1000" d="M731.875 544.375L356.8750000000001 919.375A62.5 62.5 0 0 1 268.125 830.625L599.375 500L268.125 169.375A62.5 62.5 0 0 1 268.125 80.6250000000001A62.5 62.5 0 0 1 356.875 80.6250000000001L731.875 455.6250000000001A62.5 62.5 0 0 1 731.875 544.375z" />
    <glyph glyph-name="arrow-right-carrot-lht"
      unicode="&#xF10E;"
      horiz-adv-x="1000" d="M731.875 544.375L356.8750000000001 919.375A62.5 62.5 0 0 1 268.125 830.625L599.375 500L268.125 169.375A62.5 62.5 0 0 1 268.125 80.6250000000001A62.5 62.5 0 0 1 356.875 80.6250000000001L731.875 455.6250000000001A62.5 62.5 0 0 1 731.875 544.375z" />
    <glyph glyph-name="arrow-right-carrot-lht-1"
      unicode="&#x61;&#x72;&#x72;&#x6F;&#x77;&#x2D;&#x72;&#x69;&#x67;&#x68;&#x74;&#x2D;&#x63;&#x61;&#x72;&#x72;&#x6F;&#x74;&#x2D;&#x6C;&#x68;&#x74;"
      horiz-adv-x="1000" d="M731.875 544.375L356.8750000000001 919.375A62.5 62.5 0 0 1 268.125 830.625L599.375 500L268.125 169.375A62.5 62.5 0 0 1 268.125 80.6250000000001A62.5 62.5 0 0 1 356.875 80.6250000000001L731.875 455.6250000000001A62.5 62.5 0 0 1 731.875 544.375z" />
    <glyph glyph-name="arrow-right-drk"
      unicode="&#xF10F;"
      horiz-adv-x="1000" d="M606.875 80.625L981.875 455.625A62.5 62.5 0 0 1 981.875 544.375L606.875 919.375A62.5 62.5 0 0 1 518.1250000000001 919.375A62.5 62.5 0 0 1 518.1250000000001 830.625L788.125 562.5H62.5A62.5 62.5 0 0 1 62.5 437.5H785L518.125 169.375A62.5 62.5 0 0 1 518.125 80.6250000000001A62.5 62.5 0 0 1 606.875 80.625z" />
    <glyph glyph-name="arrow-right-drk-1"
      unicode="&#x61;&#x72;&#x72;&#x6F;&#x77;&#x2D;&#x72;&#x69;&#x67;&#x68;&#x74;&#x2D;&#x64;&#x72;&#x6B;"
      horiz-adv-x="1000" d="M606.875 80.625L981.875 455.625A62.5 62.5 0 0 1 981.875 544.375L606.875 919.375A62.5 62.5 0 0 1 518.1250000000001 919.375A62.5 62.5 0 0 1 518.1250000000001 830.625L788.125 562.5H62.5A62.5 62.5 0 0 1 62.5 437.5H785L518.125 169.375A62.5 62.5 0 0 1 518.125 80.6250000000001A62.5 62.5 0 0 1 606.875 80.625z" />
    <glyph glyph-name="arrow-right-lht"
      unicode="&#xF110;"
      horiz-adv-x="1000" d="M606.875 80.625L981.875 455.625A62.5 62.5 0 0 1 981.875 544.375L606.875 919.375A62.5 62.5 0 0 1 518.1250000000001 919.375A62.5 62.5 0 0 1 518.1250000000001 830.625L788.125 562.5H62.5A62.5 62.5 0 0 1 62.5 437.5H785L518.125 169.375A62.5 62.5 0 0 1 518.125 80.6250000000001A62.5 62.5 0 0 1 606.875 80.625z" />
    <glyph glyph-name="arrow-right-lht-1"
      unicode="&#x61;&#x72;&#x72;&#x6F;&#x77;&#x2D;&#x72;&#x69;&#x67;&#x68;&#x74;&#x2D;&#x6C;&#x68;&#x74;"
      horiz-adv-x="1000" d="M606.875 80.625L981.875 455.625A62.5 62.5 0 0 1 981.875 544.375L606.875 919.375A62.5 62.5 0 0 1 518.1250000000001 919.375A62.5 62.5 0 0 1 518.1250000000001 830.625L788.125 562.5H62.5A62.5 62.5 0 0 1 62.5 437.5H785L518.125 169.375A62.5 62.5 0 0 1 518.125 80.6250000000001A62.5 62.5 0 0 1 606.875 80.625z" />
    <glyph glyph-name="arrow-up-carrot-drk"
      unicode="&#xF111;"
      horiz-adv-x="1000" d="M919.375 356.875L544.375 731.875A62.5 62.5 0 0 1 455.6250000000001 731.875L80.6250000000001 356.875A62.5 62.5 0 0 1 80.6250000000001 268.1250000000001A62.5 62.5 0 0 1 169.3750000000001 268.1250000000001L500 599.375L830.625 268.125A62.5 62.5 0 0 1 919.3749999999998 268.125A62.5 62.5 0 0 1 919.375 356.875z" />
    <glyph glyph-name="arrow-up-carrot-drk-1"
      unicode="&#x61;&#x72;&#x72;&#x6F;&#x77;&#x2D;&#x75;&#x70;&#x2D;&#x63;&#x61;&#x72;&#x72;&#x6F;&#x74;&#x2D;&#x64;&#x72;&#x6B;"
      horiz-adv-x="1000" d="M919.375 356.875L544.375 731.875A62.5 62.5 0 0 1 455.6250000000001 731.875L80.6250000000001 356.875A62.5 62.5 0 0 1 80.6250000000001 268.1250000000001A62.5 62.5 0 0 1 169.3750000000001 268.1250000000001L500 599.375L830.625 268.125A62.5 62.5 0 0 1 919.3749999999998 268.125A62.5 62.5 0 0 1 919.375 356.875z" />
    <glyph glyph-name="arrow-up-carrot-lht"
      unicode="&#xF112;"
      horiz-adv-x="1000" d="M919.375 356.875L544.375 731.875A62.5 62.5 0 0 1 455.6250000000001 731.875L80.6250000000001 356.875A62.5 62.5 0 0 1 80.6250000000001 268.1250000000001A62.5 62.5 0 0 1 169.3750000000001 268.1250000000001L500 599.375L830.625 268.125A62.5 62.5 0 0 1 919.3749999999998 268.125A62.5 62.5 0 0 1 919.375 356.875z" />
    <glyph glyph-name="arrow-up-carrot-lht-1"
      unicode="&#x61;&#x72;&#x72;&#x6F;&#x77;&#x2D;&#x75;&#x70;&#x2D;&#x63;&#x61;&#x72;&#x72;&#x6F;&#x74;&#x2D;&#x6C;&#x68;&#x74;"
      horiz-adv-x="1000" d="M919.375 356.875L544.375 731.875A62.5 62.5 0 0 1 455.6250000000001 731.875L80.6250000000001 356.875A62.5 62.5 0 0 1 80.6250000000001 268.1250000000001A62.5 62.5 0 0 1 169.3750000000001 268.1250000000001L500 599.375L830.625 268.125A62.5 62.5 0 0 1 919.3749999999998 268.125A62.5 62.5 0 0 1 919.375 356.875z" />
    <glyph glyph-name="arrow-up-drk"
      unicode="&#xF113;"
      horiz-adv-x="1000" d="M919.375 606.875L544.375 981.875A62.5 62.5 0 0 1 455.6250000000001 981.875L80.6250000000001 606.875A62.5 62.5 0 0 1 80.6250000000001 518.125A62.5 62.5 0 0 1 169.3750000000001 518.125L437.5 788.125V62.5A62.5 62.5 0 0 1 562.5 62.5V785L829.375 518.125A62.5 62.5 0 0 1 918.125 518.125A62.5 62.5 0 0 1 919.375 606.875z" />
    <glyph glyph-name="arrow-up-drk-1"
      unicode="&#x61;&#x72;&#x72;&#x6F;&#x77;&#x2D;&#x75;&#x70;&#x2D;&#x64;&#x72;&#x6B;"
      horiz-adv-x="1000" d="M919.375 606.875L544.375 981.875A62.5 62.5 0 0 1 455.6250000000001 981.875L80.6250000000001 606.875A62.5 62.5 0 0 1 80.6250000000001 518.125A62.5 62.5 0 0 1 169.3750000000001 518.125L437.5 788.125V62.5A62.5 62.5 0 0 1 562.5 62.5V785L829.375 518.125A62.5 62.5 0 0 1 918.125 518.125A62.5 62.5 0 0 1 919.375 606.875z" />
    <glyph glyph-name="arrow-up-lht"
      unicode="&#xF114;"
      horiz-adv-x="1000" d="M919.375 606.875L544.375 981.875A62.5 62.5 0 0 1 455.6250000000001 981.875L80.6250000000001 606.875A62.5 62.5 0 0 1 80.6250000000001 518.125A62.5 62.5 0 0 1 169.3750000000001 518.125L437.5 788.125V62.5A62.5 62.5 0 0 1 562.5 62.5V785L829.375 518.125A62.5 62.5 0 0 1 918.125 518.125A62.5 62.5 0 0 1 919.375 606.875z" />
    <glyph glyph-name="arrow-up-lht-1"
      unicode="&#x61;&#x72;&#x72;&#x6F;&#x77;&#x2D;&#x75;&#x70;&#x2D;&#x6C;&#x68;&#x74;"
      horiz-adv-x="1000" d="M919.375 606.875L544.375 981.875A62.5 62.5 0 0 1 455.6250000000001 981.875L80.6250000000001 606.875A62.5 62.5 0 0 1 80.6250000000001 518.125A62.5 62.5 0 0 1 169.3750000000001 518.125L437.5 788.125V62.5A62.5 62.5 0 0 1 562.5 62.5V785L829.375 518.125A62.5 62.5 0 0 1 918.125 518.125A62.5 62.5 0 0 1 919.375 606.875z" />
    <glyph glyph-name="attachment-drk"
      unicode="&#xF115;"
      horiz-adv-x="1000" d="" />
    <glyph glyph-name="attachment-drk-1"
      unicode="&#x61;&#x74;&#x74;&#x61;&#x63;&#x68;&#x6D;&#x65;&#x6E;&#x74;&#x2D;&#x64;&#x72;&#x6B;"
      horiz-adv-x="1000" d="" />
    <glyph glyph-name="attachment-lht"
      unicode="&#xF116;"
      horiz-adv-x="1000" d="" />
    <glyph glyph-name="attachment-lht-1"
      unicode="&#x61;&#x74;&#x74;&#x61;&#x63;&#x68;&#x6D;&#x65;&#x6E;&#x74;&#x2D;&#x6C;&#x68;&#x74;"
      horiz-adv-x="1000" d="" />
    <glyph glyph-name="basket-drk"
      unicode="&#xF117;"
      horiz-adv-x="1000" d="" />
    <glyph glyph-name="basket-drk-1"
      unicode="&#x62;&#x61;&#x73;&#x6B;&#x65;&#x74;&#x2D;&#x64;&#x72;&#x6B;"
      horiz-adv-x="1000" d="" />
    <glyph glyph-name="basket-lht"
      unicode="&#xF118;"
      horiz-adv-x="1000" d="" />
    <glyph glyph-name="basket-lht-1"
      unicode="&#x62;&#x61;&#x73;&#x6B;&#x65;&#x74;&#x2D;&#x6C;&#x68;&#x74;"
      horiz-adv-x="1000" d="" />
    <glyph glyph-name="bookmark-drk"
      unicode="&#xF119;"
      horiz-adv-x="1000" d="" />
    <glyph glyph-name="bookmark-drk-1"
      unicode="&#x62;&#x6F;&#x6F;&#x6B;&#x6D;&#x61;&#x72;&#x6B;&#x2D;&#x64;&#x72;&#x6B;"
      horiz-adv-x="1000" d="" />
    <glyph glyph-name="bookmark-lht"
      unicode="&#xF11A;"
      horiz-adv-x="1000" d="" />
    <glyph glyph-name="bookmark-lht-1"
      unicode="&#x62;&#x6F;&#x6F;&#x6B;&#x6D;&#x61;&#x72;&#x6B;&#x2D;&#x6C;&#x68;&#x74;"
      horiz-adv-x="1000" d="" />
    <glyph glyph-name="calendar-drk"
      unicode="&#xF11B;"
      horiz-adv-x="1000" d="" />
    <glyph glyph-name="calendar-drk-1"
      unicode="&#x63;&#x61;&#x6C;&#x65;&#x6E;&#x64;&#x61;&#x72;&#x2D;&#x64;&#x72;&#x6B;"
      horiz-adv-x="1000" d="" />
    <glyph glyph-name="calendar-lht"
      unicode="&#xF11C;"
      horiz-adv-x="1000" d="" />
    <glyph glyph-name="calendar-lht-1"
      unicode="&#x63;&#x61;&#x6C;&#x65;&#x6E;&#x64;&#x61;&#x72;&#x2D;&#x6C;&#x68;&#x74;"
      horiz-adv-x="1000" d="" />
    <glyph glyph-name="cart-drk"
      unicode="&#xF11D;"
      horiz-adv-x="1000" d="" />
    <glyph glyph-name="cart-drk-1"
      unicode="&#x63;&#x61;&#x72;&#x74;&#x2D;&#x64;&#x72;&#x6B;"
      horiz-adv-x="1000" d="" />
    <glyph glyph-name="cart-lht"
      unicode="&#xF11E;"
      horiz-adv-x="1000" d="" />
    <glyph glyph-name="cart-lht-1"
      unicode="&#x63;&#x61;&#x72;&#x74;&#x2D;&#x6C;&#x68;&#x74;"
      horiz-adv-x="1000" d="" />
    <glyph glyph-name="check-drk"
      unicode="&#xF11F;"
      horiz-adv-x="1000" d="" />
    <glyph glyph-name="check-drk-1"
      unicode="&#x63;&#x68;&#x65;&#x63;&#x6B;&#x2D;&#x64;&#x72;&#x6B;"
      horiz-adv-x="1000" d="" />
    <glyph glyph-name="check-lht"
      unicode="&#xF120;"
      horiz-adv-x="1000" d="" />
    <glyph glyph-name="check-lht-1"
      unicode="&#x63;&#x68;&#x65;&#x63;&#x6B;&#x2D;&#x6C;&#x68;&#x74;"
      horiz-adv-x="1000" d="" />
    <glyph glyph-name="comment-drk"
      unicode="&#xF121;"
      horiz-adv-x="1000" d="" />
    <glyph glyph-name="comment-drk-1"
      unicode="&#x63;&#x6F;&#x6D;&#x6D;&#x65;&#x6E;&#x74;&#x2D;&#x64;&#x72;&#x6B;"
      horiz-adv-x="1000" d="" />
    <glyph glyph-name="comment-lht"
      unicode="&#xF122;"
      horiz-adv-x="1000" d="" />
    <glyph glyph-name="comment-lht-1"
      unicode="&#x63;&#x6F;&#x6D;&#x6D;&#x65;&#x6E;&#x74;&#x2D;&#x6C;&#x68;&#x74;"
      horiz-adv-x="1000" d="" />
    <glyph glyph-name="discussion-drk"
      unicode="&#xF123;"
      horiz-adv-x="1000" d="" />
    <glyph glyph-name="discussion-drk-1"
      unicode="&#x64;&#x69;&#x73;&#x63;&#x75;&#x73;&#x73;&#x69;&#x6F;&#x6E;&#x2D;&#x64;&#x72;&#x6B;"
      horiz-adv-x="1000" d="" />
    <glyph glyph-name="discussion-lht"
      unicode="&#xF124;"
      horiz-adv-x="1000" d="" />
    <glyph glyph-name="discussion-lht-1"
      unicode="&#x64;&#x69;&#x73;&#x63;&#x75;&#x73;&#x73;&#x69;&#x6F;&#x6E;&#x2D;&#x6C;&#x68;&#x74;"
      horiz-adv-x="1000" d="" />
    <glyph glyph-name="document-drk"
      unicode="&#xF125;"
      horiz-adv-x="1000" d="" />
    <glyph glyph-name="document-drk-1"
      unicode="&#x64;&#x6F;&#x63;&#x75;&#x6D;&#x65;&#x6E;&#x74;&#x2D;&#x64;&#x72;&#x6B;"
      horiz-adv-x="1000" d="" />
    <glyph glyph-name="document-lht"
      unicode="&#xF126;"
      horiz-adv-x="1000" d="" />
    <glyph glyph-name="document-lht-1"
      unicode="&#x64;&#x6F;&#x63;&#x75;&#x6D;&#x65;&#x6E;&#x74;&#x2D;&#x6C;&#x68;&#x74;"
      horiz-adv-x="1000" d="" />
    <glyph glyph-name="edit-write-drk"
      unicode="&#xF127;"
      horiz-adv-x="1000" d="" />
    <glyph glyph-name="edit-write-drk-1"
      unicode="&#x65;&#x64;&#x69;&#x74;&#x2D;&#x77;&#x72;&#x69;&#x74;&#x65;&#x2D;&#x64;&#x72;&#x6B;"
      horiz-adv-x="1000" d="" />
    <glyph glyph-name="edit-write-lht"
      unicode="&#xF128;"
      horiz-adv-x="1000" d="" />
    <glyph glyph-name="edit-write-lht-1"
      unicode="&#x65;&#x64;&#x69;&#x74;&#x2D;&#x77;&#x72;&#x69;&#x74;&#x65;&#x2D;&#x6C;&#x68;&#x74;"
      horiz-adv-x="1000" d="" />
    <glyph glyph-name="email-drk"
      unicode="&#xF129;"
      horiz-adv-x="1000" d="" />
    <glyph glyph-name="email-drk-1"
      unicode="&#x65;&#x6D;&#x61;&#x69;&#x6C;&#x2D;&#x64;&#x72;&#x6B;"
      horiz-adv-x="1000" d="" />
    <glyph glyph-name="email-lht"
      unicode="&#xF12A;"
      horiz-adv-x="1000" d="" />
    <glyph glyph-name="email-lht-1"
      unicode="&#x65;&#x6D;&#x61;&#x69;&#x6C;&#x2D;&#x6C;&#x68;&#x74;"
      horiz-adv-x="1000" d="" />
    <glyph glyph-name="facebook-colr"
      unicode="&#xF12B;"
      horiz-adv-x="1000" d="" />
    <glyph glyph-name="facebook-colr-1"
      unicode="&#x66;&#x61;&#x63;&#x65;&#x62;&#x6F;&#x6F;&#x6B;&#x2D;&#x63;&#x6F;&#x6C;&#x72;"
      horiz-adv-x="1000" d="" />
    <glyph glyph-name="facebook-drk"
      unicode="&#xF12C;"
      horiz-adv-x="1000" d="" />
    <glyph glyph-name="facebook-drk-1"
      unicode="&#x66;&#x61;&#x63;&#x65;&#x62;&#x6F;&#x6F;&#x6B;&#x2D;&#x64;&#x72;&#x6B;"
      horiz-adv-x="1000" d="" />
    <glyph glyph-name="facebook-lht"
      unicode="&#xF12D;"
      horiz-adv-x="1000" d="" />
    <glyph glyph-name="facebook-lht-1"
      unicode="&#x66;&#x61;&#x63;&#x65;&#x62;&#x6F;&#x6F;&#x6B;&#x2D;&#x6C;&#x68;&#x74;"
      horiz-adv-x="1000" d="" />
    <glyph glyph-name="favorite-drk"
      unicode="&#xF12E;"
      horiz-adv-x="1000" d="" />
    <glyph glyph-name="favorite-drk-1"
      unicode="&#x66;&#x61;&#x76;&#x6F;&#x72;&#x69;&#x74;&#x65;&#x2D;&#x64;&#x72;&#x6B;"
      horiz-adv-x="1000" d="" />
    <glyph glyph-name="favorite-lht"
      unicode="&#xF12F;"
      horiz-adv-x="1000" d="" />
    <glyph glyph-name="favorite-lht-1"
      unicode="&#x66;&#x61;&#x76;&#x6F;&#x72;&#x69;&#x74;&#x65;&#x2D;&#x6C;&#x68;&#x74;"
      horiz-adv-x="1000" d="" />
    <glyph glyph-name="feedback-drk"
      unicode="&#xF130;"
      horiz-adv-x="1000" d="" />
    <glyph glyph-name="feedback-drk-1"
      unicode="&#x66;&#x65;&#x65;&#x64;&#x62;&#x61;&#x63;&#x6B;&#x2D;&#x64;&#x72;&#x6B;"
      horiz-adv-x="1000" d="" />
    <glyph glyph-name="feedback-lht"
      unicode="&#xF131;"
      horiz-adv-x="1000" d="" />
    <glyph glyph-name="feedback-lht-1"
      unicode="&#x66;&#x65;&#x65;&#x64;&#x62;&#x61;&#x63;&#x6B;&#x2D;&#x6C;&#x68;&#x74;"
      horiz-adv-x="1000" d="" />
    <glyph glyph-name="home-drk"
      unicode="&#xF132;"
      horiz-adv-x="1000" d="" />
    <glyph glyph-name="home-drk-1"
      unicode="&#x68;&#x6F;&#x6D;&#x65;&#x2D;&#x64;&#x72;&#x6B;"
      horiz-adv-x="1000" d="" />
    <glyph glyph-name="home-lht"
      unicode="&#xF133;"
      horiz-adv-x="1000" d="" />
    <glyph glyph-name="home-lht-1"
      unicode="&#x68;&#x6F;&#x6D;&#x65;&#x2D;&#x6C;&#x68;&#x74;"
      horiz-adv-x="1000" d="" />
    <glyph glyph-name="info-drk"
      unicode="&#xF134;"
      horiz-adv-x="1000" d="" />
    <glyph glyph-name="info-drk-1"
      unicode="&#x69;&#x6E;&#x66;&#x6F;&#x2D;&#x64;&#x72;&#x6B;"
      horiz-adv-x="1000" d="" />
    <glyph glyph-name="info-lht"
      unicode="&#xF135;"
      horiz-adv-x="1000" d="" />
    <glyph glyph-name="info-lht-1"
      unicode="&#x69;&#x6E;&#x66;&#x6F;&#x2D;&#x6C;&#x68;&#x74;"
      horiz-adv-x="1000" d="" />
    <glyph glyph-name="instagram-colr"
      unicode="&#xF136;"
      horiz-adv-x="1000" d="M500 692.5A192.50000000000003 192.50000000000003 0 1 1 692.5 500A192.50000000000003 192.50000000000003 0 0 1 500 692.5zM500 375A125 125 0 1 0 625 500A125 125 0 0 0 500 375zM654.9999999999999 700A45 45 0 0 1 745 700A45 45 0 0 1 654.9999999999999 700M662.5 806.25A143.75 143.75 0 0 0 806.2499999999999 662.5V337.4999999999999A143.75 143.75 0 0 0 662.4999999999999 193.7499999999999H337.5A143.75 143.75 0 0 0 193.75 337.4999999999999V662.5A143.75 143.75 0 0 0 337.5 806.25H662.5000000000001M662.5000000000001 875H337.5A212.5 212.5 0 0 1 125 662.5V337.4999999999999A212.5 212.5 0 0 1 337.5 125H662.5000000000001A212.5 212.5 0 0 1 875 337.5V662.5A212.5 212.5 0 0 1 662.5 875z" />
    <glyph glyph-name="instagram-colr-1"
      unicode="&#x69;&#x6E;&#x73;&#x74;&#x61;&#x67;&#x72;&#x61;&#x6D;&#x2D;&#x63;&#x6F;&#x6C;&#x72;"
      horiz-adv-x="1000" d="M500 692.5A192.50000000000003 192.50000000000003 0 1 1 692.5 500A192.50000000000003 192.50000000000003 0 0 1 500 692.5zM500 375A125 125 0 1 0 625 500A125 125 0 0 0 500 375zM654.9999999999999 700A45 45 0 0 1 745 700A45 45 0 0 1 654.9999999999999 700M662.5 806.25A143.75 143.75 0 0 0 806.2499999999999 662.5V337.4999999999999A143.75 143.75 0 0 0 662.4999999999999 193.7499999999999H337.5A143.75 143.75 0 0 0 193.75 337.4999999999999V662.5A143.75 143.75 0 0 0 337.5 806.25H662.5000000000001M662.5000000000001 875H337.5A212.5 212.5 0 0 1 125 662.5V337.4999999999999A212.5 212.5 0 0 1 337.5 125H662.5000000000001A212.5 212.5 0 0 1 875 337.5V662.5A212.5 212.5 0 0 1 662.5 875z" />
    <glyph glyph-name="instagram-drk"
      unicode="&#xF137;"
      horiz-adv-x="1000" d="M500 692.5A192.50000000000003 192.50000000000003 0 1 1 692.5 500A192.50000000000003 192.50000000000003 0 0 1 500 692.5zM500 375A125 125 0 1 0 625 500A125 125 0 0 0 500 375zM654.9999999999999 700A45 45 0 0 1 745 700A45 45 0 0 1 654.9999999999999 700M662.5 806.25A143.75 143.75 0 0 0 806.2499999999999 662.5V337.4999999999999A143.75 143.75 0 0 0 662.4999999999999 193.7499999999999H337.5A143.75 143.75 0 0 0 193.75 337.4999999999999V662.5A143.75 143.75 0 0 0 337.5 806.25H662.5000000000001M662.5000000000001 875H337.5A212.5 212.5 0 0 1 125 662.5V337.4999999999999A212.5 212.5 0 0 1 337.5 125H662.5000000000001A212.5 212.5 0 0 1 875 337.5V662.5A212.5 212.5 0 0 1 662.5 875z" />
    <glyph glyph-name="instagram-drk-1"
      unicode="&#x69;&#x6E;&#x73;&#x74;&#x61;&#x67;&#x72;&#x61;&#x6D;&#x2D;&#x64;&#x72;&#x6B;"
      horiz-adv-x="1000" d="M500 692.5A192.50000000000003 192.50000000000003 0 1 1 692.5 500A192.50000000000003 192.50000000000003 0 0 1 500 692.5zM500 375A125 125 0 1 0 625 500A125 125 0 0 0 500 375zM654.9999999999999 700A45 45 0 0 1 745 700A45 45 0 0 1 654.9999999999999 700M662.5 806.25A143.75 143.75 0 0 0 806.2499999999999 662.5V337.4999999999999A143.75 143.75 0 0 0 662.4999999999999 193.7499999999999H337.5A143.75 143.75 0 0 0 193.75 337.4999999999999V662.5A143.75 143.75 0 0 0 337.5 806.25H662.5000000000001M662.5000000000001 875H337.5A212.5 212.5 0 0 1 125 662.5V337.4999999999999A212.5 212.5 0 0 1 337.5 125H662.5000000000001A212.5 212.5 0 0 1 875 337.5V662.5A212.5 212.5 0 0 1 662.5 875z" />
    <glyph glyph-name="instagram-lht"
      unicode="&#xF138;"
      horiz-adv-x="1000" d="M500 692.5A192.50000000000003 192.50000000000003 0 1 1 692.5 500A192.50000000000003 192.50000000000003 0 0 1 500 692.5zM500 375A125 125 0 1 0 625 500A125 125 0 0 0 500 375zM654.9999999999999 700A45 45 0 0 1 745 700A45 45 0 0 1 654.9999999999999 700M662.5 806.25A143.75 143.75 0 0 0 806.2499999999999 662.5V337.4999999999999A143.75 143.75 0 0 0 662.4999999999999 193.7499999999999H337.5A143.75 143.75 0 0 0 193.75 337.4999999999999V662.5A143.75 143.75 0 0 0 337.5 806.25H662.5000000000001M662.5000000000001 875H337.5A212.5 212.5 0 0 1 125 662.5V337.4999999999999A212.5 212.5 0 0 1 337.5 125H662.5000000000001A212.5 212.5 0 0 1 875 337.5V662.5A212.5 212.5 0 0 1 662.5 875z" />
    <glyph glyph-name="instagram-lht-1"
      unicode="&#x69;&#x6E;&#x73;&#x74;&#x61;&#x67;&#x72;&#x61;&#x6D;&#x2D;&#x6C;&#x68;&#x74;"
      horiz-adv-x="1000" d="M500 692.5A192.50000000000003 192.50000000000003 0 1 1 692.5 500A192.50000000000003 192.50000000000003 0 0 1 500 692.5zM500 375A125 125 0 1 0 625 500A125 125 0 0 0 500 375zM654.9999999999999 700A45 45 0 0 1 745 700A45 45 0 0 1 654.9999999999999 700M662.5 806.25A143.75 143.75 0 0 0 806.2499999999999 662.5V337.4999999999999A143.75 143.75 0 0 0 662.4999999999999 193.7499999999999H337.5A143.75 143.75 0 0 0 193.75 337.4999999999999V662.5A143.75 143.75 0 0 0 337.5 806.25H662.5000000000001M662.5000000000001 875H337.5A212.5 212.5 0 0 1 125 662.5V337.4999999999999A212.5 212.5 0 0 1 337.5 125H662.5000000000001A212.5 212.5 0 0 1 875 337.5V662.5A212.5 212.5 0 0 1 662.5 875z" />
    <glyph glyph-name="link-drk"
      unicode="&#xF139;"
      horiz-adv-x="1000" d="M375 312.5A62.5 62.5 0 0 0 330.625 330.625A62.5 62.5 0 0 0 330.625 419.3749999999999L580.625 669.375A62.5 62.5 0 1 0 669.3749999999999 580.625L419.375 330.625A62.5 62.5 0 0 0 375 312.5zM793.75 329.375A62.5 62.5 0 0 0 750 437.5L812.5 500A221.87499999999997 221.87499999999997 0 0 1 500 812.5L437.5 750A62.5 62.5 0 0 0 347.5 750A62.5 62.5 0 0 0 347.5 838.125L410 900.625A346.875 346.875 0 0 0 900.625 410L838.125 347.5A62.5 62.5 0 0 0 793.75 329.375zM346.25 0A346.875 346.875 0 0 0 101.25 591.875L163.75 654.375A62.5 62.5 0 1 0 250 562.5L187.5 500A221.87499999999997 221.87499999999997 0 0 1 500 187.5L562.5 250A62.5 62.5 0 0 0 650.625 250A62.5 62.5 0 0 0 650.625 161.875L588.125 99.375A345.625 345.625 0 0 0 346.25 0z" />
    <glyph glyph-name="link-drk-1"
      unicode="&#x6C;&#x69;&#x6E;&#x6B;&#x2D;&#x64;&#x72;&#x6B;"
      horiz-adv-x="1000" d="M375 312.5A62.5 62.5 0 0 0 330.625 330.625A62.5 62.5 0 0 0 330.625 419.3749999999999L580.625 669.375A62.5 62.5 0 1 0 669.3749999999999 580.625L419.375 330.625A62.5 62.5 0 0 0 375 312.5zM793.75 329.375A62.5 62.5 0 0 0 750 437.5L812.5 500A221.87499999999997 221.87499999999997 0 0 1 500 812.5L437.5 750A62.5 62.5 0 0 0 347.5 750A62.5 62.5 0 0 0 347.5 838.125L410 900.625A346.875 346.875 0 0 0 900.625 410L838.125 347.5A62.5 62.5 0 0 0 793.75 329.375zM346.25 0A346.875 346.875 0 0 0 101.25 591.875L163.75 654.375A62.5 62.5 0 1 0 250 562.5L187.5 500A221.87499999999997 221.87499999999997 0 0 1 500 187.5L562.5 250A62.5 62.5 0 0 0 650.625 250A62.5 62.5 0 0 0 650.625 161.875L588.125 99.375A345.625 345.625 0 0 0 346.25 0z" />
    <glyph glyph-name="link-lht"
      unicode="&#xF13A;"
      horiz-adv-x="1000" d="M375 312.5A62.5 62.5 0 0 0 330.625 330.625A62.5 62.5 0 0 0 330.625 419.3749999999999L580.625 669.375A62.5 62.5 0 1 0 669.3749999999999 580.625L419.375 330.625A62.5 62.5 0 0 0 375 312.5zM793.75 329.375A62.5 62.5 0 0 0 750 437.5L812.5 500A221.87499999999997 221.87499999999997 0 0 1 500 812.5L437.5 750A62.5 62.5 0 0 0 347.5 750A62.5 62.5 0 0 0 347.5 838.125L410 900.625A346.875 346.875 0 0 0 900.625 410L838.125 347.5A62.5 62.5 0 0 0 793.75 329.375zM346.25 0A346.875 346.875 0 0 0 101.25 591.875L163.75 654.375A62.5 62.5 0 1 0 250 562.5L187.5 500A221.87499999999997 221.87499999999997 0 0 1 500 187.5L562.5 250A62.5 62.5 0 0 0 650.625 250A62.5 62.5 0 0 0 650.625 161.875L588.125 99.375A345.625 345.625 0 0 0 346.25 0z" />
    <glyph glyph-name="link-lht-1"
      unicode="&#x6C;&#x69;&#x6E;&#x6B;&#x2D;&#x6C;&#x68;&#x74;"
      horiz-adv-x="1000" d="M375 312.5A62.5 62.5 0 0 0 330.625 330.625A62.5 62.5 0 0 0 330.625 419.3749999999999L580.625 669.375A62.5 62.5 0 1 0 669.3749999999999 580.625L419.375 330.625A62.5 62.5 0 0 0 375 312.5zM793.75 329.375A62.5 62.5 0 0 0 750 437.5L812.5 500A221.87499999999997 221.87499999999997 0 0 1 500 812.5L437.5 750A62.5 62.5 0 0 0 347.5 750A62.5 62.5 0 0 0 347.5 838.125L410 900.625A346.875 346.875 0 0 0 900.625 410L838.125 347.5A62.5 62.5 0 0 0 793.75 329.375zM346.25 0A346.875 346.875 0 0 0 101.25 591.875L163.75 654.375A62.5 62.5 0 1 0 250 562.5L187.5 500A221.87499999999997 221.87499999999997 0 0 1 500 187.5L562.5 250A62.5 62.5 0 0 0 650.625 250A62.5 62.5 0 0 0 650.625 161.875L588.125 99.375A345.625 345.625 0 0 0 346.25 0z" />
    <glyph glyph-name="linkedin-colr"
      unicode="&#xF13B;"
      horiz-adv-x="1000" d="" />
    <glyph glyph-name="linkedin-colr-1"
      unicode="&#x6C;&#x69;&#x6E;&#x6B;&#x65;&#x64;&#x69;&#x6E;&#x2D;&#x63;&#x6F;&#x6C;&#x72;"
      horiz-adv-x="1000" d="" />
    <glyph glyph-name="linkedin-drk"
      unicode="&#xF13C;"
      horiz-adv-x="1000" d="" />
    <glyph glyph-name="linkedin-drk-1"
      unicode="&#x6C;&#x69;&#x6E;&#x6B;&#x65;&#x64;&#x69;&#x6E;&#x2D;&#x64;&#x72;&#x6B;"
      horiz-adv-x="1000" d="" />
    <glyph glyph-name="linkedin-lht"
      unicode="&#xF13D;"
      horiz-adv-x="1000" d="" />
    <glyph glyph-name="linkedin-lht-1"
      unicode="&#x6C;&#x69;&#x6E;&#x6B;&#x65;&#x64;&#x69;&#x6E;&#x2D;&#x6C;&#x68;&#x74;"
      horiz-adv-x="1000" d="" />
    <glyph glyph-name="location-drk"
      unicode="&#xF13E;"
      horiz-adv-x="1000" d="M500 1000A312.5 312.5 0 0 1 187.5 687.5C187.5 478.75 360 202.5 448.75 73.75A62.5 62.5 0 0 1 551.25 73.75C640 202.5 812.5 478.75 812.5 687.5A312.5 312.5 0 0 1 500 1000zM463.125 871.25A187.5 187.5 0 1 0 316.25 724.375A187.5 187.5 0 0 0 463.125 871.25z" />
    <glyph glyph-name="location-drk-1"
      unicode="&#x6C;&#x6F;&#x63;&#x61;&#x74;&#x69;&#x6F;&#x6E;&#x2D;&#x64;&#x72;&#x6B;"
      horiz-adv-x="1000" d="M500 1000A312.5 312.5 0 0 1 187.5 687.5C187.5 478.75 360 202.5 448.75 73.75A62.5 62.5 0 0 1 551.25 73.75C640 202.5 812.5 478.75 812.5 687.5A312.5 312.5 0 0 1 500 1000zM463.125 871.25A187.5 187.5 0 1 0 316.25 724.375A187.5 187.5 0 0 0 463.125 871.25z" />
    <glyph glyph-name="location-lht"
      unicode="&#xF13F;"
      horiz-adv-x="1000" d="M500 1000A312.5 312.5 0 0 1 187.5 687.5C187.5 478.75 360 202.5 448.75 73.75A62.5 62.5 0 0 1 551.25 73.75C640 202.5 812.5 478.75 812.5 687.5A312.5 312.5 0 0 1 500 1000zM463.125 871.25A187.5 187.5 0 1 0 316.25 724.375A187.5 187.5 0 0 0 463.125 871.25z" />
    <glyph glyph-name="location-lht-1"
      unicode="&#x6C;&#x6F;&#x63;&#x61;&#x74;&#x69;&#x6F;&#x6E;&#x2D;&#x6C;&#x68;&#x74;"
      horiz-adv-x="1000" d="M500 1000A312.5 312.5 0 0 1 187.5 687.5C187.5 478.75 360 202.5 448.75 73.75A62.5 62.5 0 0 1 551.25 73.75C640 202.5 812.5 478.75 812.5 687.5A312.5 312.5 0 0 1 500 1000zM463.125 871.25A187.5 187.5 0 1 0 316.25 724.375A187.5 187.5 0 0 0 463.125 871.25z" />
    <glyph glyph-name="map-drk"
      unicode="&#xF140;"
      horiz-adv-x="1000" d="" />
    <glyph glyph-name="map-drk-1"
      unicode="&#x6D;&#x61;&#x70;&#x2D;&#x64;&#x72;&#x6B;"
      horiz-adv-x="1000" d="" />
    <glyph glyph-name="map-lht"
      unicode="&#xF141;"
      horiz-adv-x="1000" d="" />
    <glyph glyph-name="map-lht-1"
      unicode="&#x6D;&#x61;&#x70;&#x2D;&#x6C;&#x68;&#x74;"
      horiz-adv-x="1000" d="" />
    <glyph glyph-name="menu-drk"
      unicode="&#xF142;"
      horiz-adv-x="1000" d="M937.5 812.5H62.5A62.5 62.5 0 0 0 62.5 937.5H937.5A62.5 62.5 0 0 0 937.5 812.5zM937.5 437.5H62.5A62.5 62.5 0 0 0 62.5 562.5H937.5A62.5 62.5 0 0 0 937.5 437.5zM562.5 62.5H62.5A62.5 62.5 0 0 0 62.5 187.5H562.5A62.5 62.5 0 0 0 562.5 62.5z" />
    <glyph glyph-name="menu-drk-1"
      unicode="&#x6D;&#x65;&#x6E;&#x75;&#x2D;&#x64;&#x72;&#x6B;"
      horiz-adv-x="1000" d="M937.5 812.5H62.5A62.5 62.5 0 0 0 62.5 937.5H937.5A62.5 62.5 0 0 0 937.5 812.5zM937.5 437.5H62.5A62.5 62.5 0 0 0 62.5 562.5H937.5A62.5 62.5 0 0 0 937.5 437.5zM562.5 62.5H62.5A62.5 62.5 0 0 0 62.5 187.5H562.5A62.5 62.5 0 0 0 562.5 62.5z" />
    <glyph glyph-name="menu-lht"
      unicode="&#xF143;"
      horiz-adv-x="1000" d="M937.5 812.5H62.5A62.5 62.5 0 0 0 62.5 937.5H937.5A62.5 62.5 0 0 0 937.5 812.5zM937.5 437.5H62.5A62.5 62.5 0 0 0 62.5 562.5H937.5A62.5 62.5 0 0 0 937.5 437.5zM562.5 62.5H62.5A62.5 62.5 0 0 0 62.5 187.5H562.5A62.5 62.5 0 0 0 562.5 62.5z" />
    <glyph glyph-name="menu-lht-1"
      unicode="&#x6D;&#x65;&#x6E;&#x75;&#x2D;&#x6C;&#x68;&#x74;"
      horiz-adv-x="1000" d="M937.5 812.5H62.5A62.5 62.5 0 0 0 62.5 937.5H937.5A62.5 62.5 0 0 0 937.5 812.5zM937.5 437.5H62.5A62.5 62.5 0 0 0 62.5 562.5H937.5A62.5 62.5 0 0 0 937.5 437.5zM562.5 62.5H62.5A62.5 62.5 0 0 0 62.5 187.5H562.5A62.5 62.5 0 0 0 562.5 62.5z" />
    <glyph glyph-name="minus-circle-drk"
      unicode="&#xF144;"
      horiz-adv-x="1000" d="M0 500A500 500 0 0 1 1000 500A500 500 0 0 1 0 500M718.75 437.5H281.25A62.5 62.5 0 0 0 281.25 562.5H718.75A62.5 62.5 0 0 0 718.75 437.5z" />
    <glyph glyph-name="minus-circle-drk-1"
      unicode="&#x6D;&#x69;&#x6E;&#x75;&#x73;&#x2D;&#x63;&#x69;&#x72;&#x63;&#x6C;&#x65;&#x2D;&#x64;&#x72;&#x6B;"
      horiz-adv-x="1000" d="M0 500A500 500 0 0 1 1000 500A500 500 0 0 1 0 500M718.75 437.5H281.25A62.5 62.5 0 0 0 281.25 562.5H718.75A62.5 62.5 0 0 0 718.75 437.5z" />
    <glyph glyph-name="minus-circle-lht"
      unicode="&#xF145;"
      horiz-adv-x="1000" d="M0 500A500 500 0 0 1 1000 500A500 500 0 0 1 0 500M718.75 437.5H281.25A62.5 62.5 0 0 0 281.25 562.5H718.75A62.5 62.5 0 0 0 718.75 437.5z" />
    <glyph glyph-name="minus-circle-lht-1"
      unicode="&#x6D;&#x69;&#x6E;&#x75;&#x73;&#x2D;&#x63;&#x69;&#x72;&#x63;&#x6C;&#x65;&#x2D;&#x6C;&#x68;&#x74;"
      horiz-adv-x="1000" d="M0 500A500 500 0 0 1 1000 500A500 500 0 0 1 0 500M718.75 437.5H281.25A62.5 62.5 0 0 0 281.25 562.5H718.75A62.5 62.5 0 0 0 718.75 437.5z" />
    <glyph glyph-name="minus-drk"
      unicode="&#xF146;"
      horiz-adv-x="1000" d="M875 437.5H125A62.5 62.5 0 0 0 125 562.5H875A62.5 62.5 0 0 0 875 437.5z" />
    <glyph glyph-name="minus-drk-1"
      unicode="&#x6D;&#x69;&#x6E;&#x75;&#x73;&#x2D;&#x64;&#x72;&#x6B;"
      horiz-adv-x="1000" d="M875 437.5H125A62.5 62.5 0 0 0 125 562.5H875A62.5 62.5 0 0 0 875 437.5z" />
    <glyph glyph-name="minus-lht"
      unicode="&#xF147;"
      horiz-adv-x="1000" d="M875 437.5H125A62.5 62.5 0 0 0 125 562.5H875A62.5 62.5 0 0 0 875 437.5z" />
    <glyph glyph-name="minus-lht-1"
      unicode="&#x6D;&#x69;&#x6E;&#x75;&#x73;&#x2D;&#x6C;&#x68;&#x74;"
      horiz-adv-x="1000" d="M875 437.5H125A62.5 62.5 0 0 0 125 562.5H875A62.5 62.5 0 0 0 875 437.5z" />
    <glyph glyph-name="more-drk"
      unicode="&#xF148;"
      horiz-adv-x="1000" d="M405.625 500A93.75 93.75 0 0 1 593.125 500A93.75 93.75 0 0 1 405.625 500M62.5 500A93.75 93.75 0 0 1 250 500A93.75 93.75 0 0 1 62.5 500M750 500A93.75 93.75 0 0 1 937.5 500A93.75 93.75 0 0 1 750 500" />
    <glyph glyph-name="more-drk-1"
      unicode="&#x6D;&#x6F;&#x72;&#x65;&#x2D;&#x64;&#x72;&#x6B;"
      horiz-adv-x="1000" d="M405.625 500A93.75 93.75 0 0 1 593.125 500A93.75 93.75 0 0 1 405.625 500M62.5 500A93.75 93.75 0 0 1 250 500A93.75 93.75 0 0 1 62.5 500M750 500A93.75 93.75 0 0 1 937.5 500A93.75 93.75 0 0 1 750 500" />
    <glyph glyph-name="more-lht"
      unicode="&#xF149;"
      horiz-adv-x="1000" d="M405.625 500A93.75 93.75 0 0 1 593.125 500A93.75 93.75 0 0 1 405.625 500M62.5 500A93.75 93.75 0 0 1 250 500A93.75 93.75 0 0 1 62.5 500M750 500A93.75 93.75 0 0 1 937.5 500A93.75 93.75 0 0 1 750 500" />
    <glyph glyph-name="more-lht-1"
      unicode="&#x6D;&#x6F;&#x72;&#x65;&#x2D;&#x6C;&#x68;&#x74;"
      horiz-adv-x="1000" d="M405.625 500A93.75 93.75 0 0 1 593.125 500A93.75 93.75 0 0 1 405.625 500M62.5 500A93.75 93.75 0 0 1 250 500A93.75 93.75 0 0 1 62.5 500M750 500A93.75 93.75 0 0 1 937.5 500A93.75 93.75 0 0 1 750 500" />
    <glyph glyph-name="next-drk"
      unicode="&#xF14A;"
      horiz-adv-x="1000" d="" />
    <glyph glyph-name="next-drk-1"
      unicode="&#x6E;&#x65;&#x78;&#x74;&#x2D;&#x64;&#x72;&#x6B;"
      horiz-adv-x="1000" d="" />
    <glyph glyph-name="next-lht"
      unicode="&#xF14B;"
      horiz-adv-x="1000" d="" />
    <glyph glyph-name="next-lht-1"
      unicode="&#x6E;&#x65;&#x78;&#x74;&#x2D;&#x6C;&#x68;&#x74;"
      horiz-adv-x="1000" d="" />
    <glyph glyph-name="pause-drk"
      unicode="&#xF14C;"
      horiz-adv-x="1000" d="" />
    <glyph glyph-name="pause-drk-1"
      unicode="&#x70;&#x61;&#x75;&#x73;&#x65;&#x2D;&#x64;&#x72;&#x6B;"
      horiz-adv-x="1000" d="" />
    <glyph glyph-name="pause-lht"
      unicode="&#xF14D;"
      horiz-adv-x="1000" d="" />
    <glyph glyph-name="pause-lht-1"
      unicode="&#x70;&#x61;&#x75;&#x73;&#x65;&#x2D;&#x6C;&#x68;&#x74;"
      horiz-adv-x="1000" d="" />
    <glyph glyph-name="phone-drk"
      unicode="&#xF14E;"
      horiz-adv-x="1000" d="M937.5 347.5A62.5 62.5 0 0 1 881.25 410L675 430.625A62.5 62.5 0 0 1 609.375 388.125L578.125 294.375A833.1249999999999 833.1249999999999 0 0 0 294.375 578.125L388.125 609.375A62.5 62.5 0 0 1 430.625 671.875L410 881.25A62.5 62.5 0 0 1 347.5 937.5H116.25A62.5 62.5 0 0 1 62.5 866.25A943.7500000000001 943.7500000000001 0 0 1 866.25 62.5H875A62.5 62.5 0 0 1 937.5 116.25A62.5 62.5 0 0 1 937.5 125z" />
    <glyph glyph-name="phone-drk-1"
      unicode="&#x70;&#x68;&#x6F;&#x6E;&#x65;&#x2D;&#x64;&#x72;&#x6B;"
      horiz-adv-x="1000" d="M937.5 347.5A62.5 62.5 0 0 1 881.25 410L675 430.625A62.5 62.5 0 0 1 609.375 388.125L578.125 294.375A833.1249999999999 833.1249999999999 0 0 0 294.375 578.125L388.125 609.375A62.5 62.5 0 0 1 430.625 671.875L410 881.25A62.5 62.5 0 0 1 347.5 937.5H116.25A62.5 62.5 0 0 1 62.5 866.25A943.7500000000001 943.7500000000001 0 0 1 866.25 62.5H875A62.5 62.5 0 0 1 937.5 116.25A62.5 62.5 0 0 1 937.5 125z" />
    <glyph glyph-name="phone-lht"
      unicode="&#xF14F;"
      horiz-adv-x="1000" d="M937.5 347.5A62.5 62.5 0 0 1 881.25 410L675 430.625A62.5 62.5 0 0 1 609.375 388.125L578.125 294.375A833.1249999999999 833.1249999999999 0 0 0 294.375 578.125L388.125 609.375A62.5 62.5 0 0 1 430.625 671.875L410 881.25A62.5 62.5 0 0 1 347.5 937.5H116.25A62.5 62.5 0 0 1 62.5 866.25A943.7500000000001 943.7500000000001 0 0 1 866.25 62.5H875A62.5 62.5 0 0 1 937.5 116.25A62.5 62.5 0 0 1 937.5 125z" />
    <glyph glyph-name="phone-lht-1"
      unicode="&#x70;&#x68;&#x6F;&#x6E;&#x65;&#x2D;&#x6C;&#x68;&#x74;"
      horiz-adv-x="1000" d="M937.5 347.5A62.5 62.5 0 0 1 881.25 410L675 430.625A62.5 62.5 0 0 1 609.375 388.125L578.125 294.375A833.1249999999999 833.1249999999999 0 0 0 294.375 578.125L388.125 609.375A62.5 62.5 0 0 1 430.625 671.875L410 881.25A62.5 62.5 0 0 1 347.5 937.5H116.25A62.5 62.5 0 0 1 62.5 866.25A943.7500000000001 943.7500000000001 0 0 1 866.25 62.5H875A62.5 62.5 0 0 1 937.5 116.25A62.5 62.5 0 0 1 937.5 125z" />
    <glyph glyph-name="photos-drk"
      unicode="&#xF150;"
      horiz-adv-x="1000" d="" />
    <glyph glyph-name="photos-drk-1"
      unicode="&#x70;&#x68;&#x6F;&#x74;&#x6F;&#x73;&#x2D;&#x64;&#x72;&#x6B;"
      horiz-adv-x="1000" d="" />
    <glyph glyph-name="photos-lht"
      unicode="&#xF151;"
      horiz-adv-x="1000" d="" />
    <glyph glyph-name="photos-lht-1"
      unicode="&#x70;&#x68;&#x6F;&#x74;&#x6F;&#x73;&#x2D;&#x6C;&#x68;&#x74;"
      horiz-adv-x="1000" d="" />
    <glyph glyph-name="play-circle-drk"
      unicode="&#xF152;"
      horiz-adv-x="1000" d="" />
    <glyph glyph-name="play-circle-drk-1"
      unicode="&#x70;&#x6C;&#x61;&#x79;&#x2D;&#x63;&#x69;&#x72;&#x63;&#x6C;&#x65;&#x2D;&#x64;&#x72;&#x6B;"
      horiz-adv-x="1000" d="" />
    <glyph glyph-name="play-circle-lht"
      unicode="&#xF153;"
      horiz-adv-x="1000" d="" />
    <glyph glyph-name="play-circle-lht-1"
      unicode="&#x70;&#x6C;&#x61;&#x79;&#x2D;&#x63;&#x69;&#x72;&#x63;&#x6C;&#x65;&#x2D;&#x6C;&#x68;&#x74;"
      horiz-adv-x="1000" d="" />
    <glyph glyph-name="play-drk"
      unicode="&#xF154;"
      horiz-adv-x="1000" d="" />
    <glyph glyph-name="play-drk-1"
      unicode="&#x70;&#x6C;&#x61;&#x79;&#x2D;&#x64;&#x72;&#x6B;"
      horiz-adv-x="1000" d="" />
    <glyph glyph-name="play-lht"
      unicode="&#xF155;"
      horiz-adv-x="1000" d="" />
    <glyph glyph-name="play-lht-1"
      unicode="&#x70;&#x6C;&#x61;&#x79;&#x2D;&#x6C;&#x68;&#x74;"
      horiz-adv-x="1000" d="" />
    <glyph glyph-name="plus-circle-drk"
      unicode="&#xF156;"
      horiz-adv-x="1000" d="M0 500A500 500 0 0 1 1000 500A500 500 0 0 1 0 500M718.75 562.5H562.5V718.75A62.5 62.5 0 0 1 437.5 718.75V562.5H281.25A62.5 62.5 0 0 1 281.25 437.5H437.5V281.25A62.5 62.5 0 0 1 562.5 281.25V437.5H718.75A62.5 62.5 0 0 1 718.75 562.5z" />
    <glyph glyph-name="plus-circle-drk-1"
      unicode="&#x70;&#x6C;&#x75;&#x73;&#x2D;&#x63;&#x69;&#x72;&#x63;&#x6C;&#x65;&#x2D;&#x64;&#x72;&#x6B;"
      horiz-adv-x="1000" d="M0 500A500 500 0 0 1 1000 500A500 500 0 0 1 0 500M718.75 562.5H562.5V718.75A62.5 62.5 0 0 1 437.5 718.75V562.5H281.25A62.5 62.5 0 0 1 281.25 437.5H437.5V281.25A62.5 62.5 0 0 1 562.5 281.25V437.5H718.75A62.5 62.5 0 0 1 718.75 562.5z" />
    <glyph glyph-name="plus-circle-lht"
      unicode="&#xF157;"
      horiz-adv-x="1000" d="M0 500A500 500 0 0 1 1000 500A500 500 0 0 1 0 500M718.75 562.5H562.5V718.75A62.5 62.5 0 0 1 437.5 718.75V562.5H281.25A62.5 62.5 0 0 1 281.25 437.5H437.5V281.25A62.5 62.5 0 0 1 562.5 281.25V437.5H718.75A62.5 62.5 0 0 1 718.75 562.5z" />
    <glyph glyph-name="plus-circle-lht-1"
      unicode="&#x70;&#x6C;&#x75;&#x73;&#x2D;&#x63;&#x69;&#x72;&#x63;&#x6C;&#x65;&#x2D;&#x6C;&#x68;&#x74;"
      horiz-adv-x="1000" d="M0 500A500 500 0 0 1 1000 500A500 500 0 0 1 0 500M718.75 562.5H562.5V718.75A62.5 62.5 0 0 1 437.5 718.75V562.5H281.25A62.5 62.5 0 0 1 281.25 437.5H437.5V281.25A62.5 62.5 0 0 1 562.5 281.25V437.5H718.75A62.5 62.5 0 0 1 718.75 562.5z" />
    <glyph glyph-name="plus-drk"
      unicode="&#xF158;"
      horiz-adv-x="1000" d="M875 562.5H562.5V875A62.5 62.5 0 0 1 437.5 875V562.5H125A62.5 62.5 0 0 1 125 437.5H437.5V125A62.5 62.5 0 0 1 562.5 125V437.5H875A62.5 62.5 0 0 1 875 562.5z" />
    <glyph glyph-name="plus-drk-1"
      unicode="&#x70;&#x6C;&#x75;&#x73;&#x2D;&#x64;&#x72;&#x6B;"
      horiz-adv-x="1000" d="M875 562.5H562.5V875A62.5 62.5 0 0 1 437.5 875V562.5H125A62.5 62.5 0 0 1 125 437.5H437.5V125A62.5 62.5 0 0 1 562.5 125V437.5H875A62.5 62.5 0 0 1 875 562.5z" />
    <glyph glyph-name="plus-lht"
      unicode="&#xF159;"
      horiz-adv-x="1000" d="M875 562.5H562.5V875A62.5 62.5 0 0 1 437.5 875V562.5H125A62.5 62.5 0 0 1 125 437.5H437.5V125A62.5 62.5 0 0 1 562.5 125V437.5H875A62.5 62.5 0 0 1 875 562.5z" />
    <glyph glyph-name="plus-lht-1"
      unicode="&#x70;&#x6C;&#x75;&#x73;&#x2D;&#x6C;&#x68;&#x74;"
      horiz-adv-x="1000" d="M875 562.5H562.5V875A62.5 62.5 0 0 1 437.5 875V562.5H125A62.5 62.5 0 0 1 125 437.5H437.5V125A62.5 62.5 0 0 1 562.5 125V437.5H875A62.5 62.5 0 0 1 875 562.5z" />
    <glyph glyph-name="previous-drk"
      unicode="&#xF15A;"
      horiz-adv-x="1000" d="" />
    <glyph glyph-name="previous-drk-1"
      unicode="&#x70;&#x72;&#x65;&#x76;&#x69;&#x6F;&#x75;&#x73;&#x2D;&#x64;&#x72;&#x6B;"
      horiz-adv-x="1000" d="" />
    <glyph glyph-name="previous-lht"
      unicode="&#xF15B;"
      horiz-adv-x="1000" d="" />
    <glyph glyph-name="previous-lht-1"
      unicode="&#x70;&#x72;&#x65;&#x76;&#x69;&#x6F;&#x75;&#x73;&#x2D;&#x6C;&#x68;&#x74;"
      horiz-adv-x="1000" d="" />
    <glyph glyph-name="profile-drk"
      unicode="&#xF15C;"
      horiz-adv-x="1000" d="M500 1000A500 500 0 1 1 1000 500A500 500 0 0 1 500 1000zM500 875A375 375 0 0 0 875 500A370.00000000000006 370.00000000000006 0 0 0 806.25 285A566.25 566.25 0 0 1 193.75 285A370.00000000000006 370.00000000000006 0 0 0 125 500A375 375 0 0 0 500 875zM284.375 193.75A441.25 441.25 0 0 0 715.625 193.75A375 375 0 0 0 284.375 193.75zM500 437.5A187.5 187.5 0 1 1 312.5 625A187.5 187.5 0 0 1 500 437.5zM500 687.5A62.5 62.5 0 1 0 437.5 625A62.5 62.5 0 0 0 500 687.5z" />
    <glyph glyph-name="profile-drk-1"
      unicode="&#x70;&#x72;&#x6F;&#x66;&#x69;&#x6C;&#x65;&#x2D;&#x64;&#x72;&#x6B;"
      horiz-adv-x="1000" d="M500 1000A500 500 0 1 1 1000 500A500 500 0 0 1 500 1000zM500 875A375 375 0 0 0 875 500A370.00000000000006 370.00000000000006 0 0 0 806.25 285A566.25 566.25 0 0 1 193.75 285A370.00000000000006 370.00000000000006 0 0 0 125 500A375 375 0 0 0 500 875zM284.375 193.75A441.25 441.25 0 0 0 715.625 193.75A375 375 0 0 0 284.375 193.75zM500 437.5A187.5 187.5 0 1 1 312.5 625A187.5 187.5 0 0 1 500 437.5zM500 687.5A62.5 62.5 0 1 0 437.5 625A62.5 62.5 0 0 0 500 687.5z" />
    <glyph glyph-name="profile-lht"
      unicode="&#xF15D;"
      horiz-adv-x="1000" d="M500 1000A500 500 0 1 1 1000 500A500 500 0 0 1 500 1000zM500 875A375 375 0 0 0 875 500A370.00000000000006 370.00000000000006 0 0 0 806.25 285A566.25 566.25 0 0 1 193.75 285A370.00000000000006 370.00000000000006 0 0 0 125 500A375 375 0 0 0 500 875zM284.375 193.75A441.25 441.25 0 0 0 715.625 193.75A375 375 0 0 0 284.375 193.75zM500 437.5A187.5 187.5 0 1 1 312.5 625A187.5 187.5 0 0 1 500 437.5zM500 687.5A62.5 62.5 0 1 0 437.5 625A62.5 62.5 0 0 0 500 687.5z" />
    <glyph glyph-name="profile-lht-1"
      unicode="&#x70;&#x72;&#x6F;&#x66;&#x69;&#x6C;&#x65;&#x2D;&#x6C;&#x68;&#x74;"
      horiz-adv-x="1000" d="M500 1000A500 500 0 1 1 1000 500A500 500 0 0 1 500 1000zM500 875A375 375 0 0 0 875 500A370.00000000000006 370.00000000000006 0 0 0 806.25 285A566.25 566.25 0 0 1 193.75 285A370.00000000000006 370.00000000000006 0 0 0 125 500A375 375 0 0 0 500 875zM284.375 193.75A441.25 441.25 0 0 0 715.625 193.75A375 375 0 0 0 284.375 193.75zM500 437.5A187.5 187.5 0 1 1 312.5 625A187.5 187.5 0 0 1 500 437.5zM500 687.5A62.5 62.5 0 1 0 437.5 625A62.5 62.5 0 0 0 500 687.5z" />
    <glyph glyph-name="rate-drk"
      unicode="&#xF15E;"
      horiz-adv-x="1000" d="M258.125 0A98.125 98.125 0 0 0 164.375 125L236.875 358.75L38.125 516.25A98.75000000000001 98.75000000000001 0 0 0 100.625 693.125H327.5L406.25 932.5A98.75000000000001 98.75000000000001 0 0 0 593.75 932.5L672.5 693.125H901.25A98.75000000000001 98.75000000000001 0 0 0 963.75 516.25L763.7499999999999 361.25L835.625 129.375A98.75000000000001 98.75000000000001 0 0 0 680.6249999999999 21.875L500 160.625L318.75 20.625A100 100 0 0 0 258.125 0zM175.625 568.125L381.875 407.5L308.125 170.625L500 318.125L687.5 171.875L616.875 406.875L824.375 568.125H582.5L500 817.5L417.5 567.5z" />
    <glyph glyph-name="rate-drk-1"
      unicode="&#x72;&#x61;&#x74;&#x65;&#x2D;&#x64;&#x72;&#x6B;"
      horiz-adv-x="1000" d="M258.125 0A98.125 98.125 0 0 0 164.375 125L236.875 358.75L38.125 516.25A98.75000000000001 98.75000000000001 0 0 0 100.625 693.125H327.5L406.25 932.5A98.75000000000001 98.75000000000001 0 0 0 593.75 932.5L672.5 693.125H901.25A98.75000000000001 98.75000000000001 0 0 0 963.75 516.25L763.7499999999999 361.25L835.625 129.375A98.75000000000001 98.75000000000001 0 0 0 680.6249999999999 21.875L500 160.625L318.75 20.625A100 100 0 0 0 258.125 0zM175.625 568.125L381.875 407.5L308.125 170.625L500 318.125L687.5 171.875L616.875 406.875L824.375 568.125H582.5L500 817.5L417.5 567.5z" />
    <glyph glyph-name="rate-lht"
      unicode="&#xF15F;"
      horiz-adv-x="1000" d="M258.125 0A98.125 98.125 0 0 0 164.375 125L236.875 358.75L38.125 516.25A98.75000000000001 98.75000000000001 0 0 0 100.625 693.125H327.5L406.25 932.5A98.75000000000001 98.75000000000001 0 0 0 593.75 932.5L672.5 693.125H901.25A98.75000000000001 98.75000000000001 0 0 0 963.75 516.25L763.7499999999999 361.25L835.625 129.375A98.75000000000001 98.75000000000001 0 0 0 680.6249999999999 21.875L500 160.625L318.75 20.625A100 100 0 0 0 258.125 0zM175.625 568.125L381.875 407.5L308.125 170.625L500 318.125L687.5 171.875L616.875 406.875L824.375 568.125H582.5L500 817.5L417.5 567.5z" />
    <glyph glyph-name="rate-lht-1"
      unicode="&#x72;&#x61;&#x74;&#x65;&#x2D;&#x6C;&#x68;&#x74;"
      horiz-adv-x="1000" d="M258.125 0A98.125 98.125 0 0 0 164.375 125L236.875 358.75L38.125 516.25A98.75000000000001 98.75000000000001 0 0 0 100.625 693.125H327.5L406.25 932.5A98.75000000000001 98.75000000000001 0 0 0 593.75 932.5L672.5 693.125H901.25A98.75000000000001 98.75000000000001 0 0 0 963.75 516.25L763.7499999999999 361.25L835.625 129.375A98.75000000000001 98.75000000000001 0 0 0 680.6249999999999 21.875L500 160.625L318.75 20.625A100 100 0 0 0 258.125 0zM175.625 568.125L381.875 407.5L308.125 170.625L500 318.125L687.5 171.875L616.875 406.875L824.375 568.125H582.5L500 817.5L417.5 567.5z" />
    <glyph glyph-name="search-drk"
      unicode="&#xF160;"
      horiz-adv-x="1000" d="M981.875 106.875L731.875 356.875A407.5 407.5 0 1 1 643.75 268.75L893.75 18.75A62.5 62.5 0 0 1 982.5 18.75A62.5 62.5 0 0 1 981.875 106.875zM125 593.75A281.25 281.25 0 1 0 406.25 312.5A281.875 281.875 0 0 0 125 593.75z" />
    <glyph glyph-name="search-drk-1"
      unicode="&#x73;&#x65;&#x61;&#x72;&#x63;&#x68;&#x2D;&#x64;&#x72;&#x6B;"
      horiz-adv-x="1000" d="M981.875 106.875L731.875 356.875A407.5 407.5 0 1 1 643.75 268.75L893.75 18.75A62.5 62.5 0 0 1 982.5 18.75A62.5 62.5 0 0 1 981.875 106.875zM125 593.75A281.25 281.25 0 1 0 406.25 312.5A281.875 281.875 0 0 0 125 593.75z" />
    <glyph glyph-name="search-lht"
      unicode="&#xF161;"
      horiz-adv-x="1000" d="M981.875 106.875L731.875 356.875A407.5 407.5 0 1 1 643.75 268.75L893.75 18.75A62.5 62.5 0 0 1 982.5 18.75A62.5 62.5 0 0 1 981.875 106.875zM125 593.75A281.25 281.25 0 1 0 406.25 312.5A281.875 281.875 0 0 0 125 593.75z" />
    <glyph glyph-name="search-lht-1"
      unicode="&#x73;&#x65;&#x61;&#x72;&#x63;&#x68;&#x2D;&#x6C;&#x68;&#x74;"
      horiz-adv-x="1000" d="M981.875 106.875L731.875 356.875A407.5 407.5 0 1 1 643.75 268.75L893.75 18.75A62.5 62.5 0 0 1 982.5 18.75A62.5 62.5 0 0 1 981.875 106.875zM125 593.75A281.25 281.25 0 1 0 406.25 312.5A281.875 281.875 0 0 0 125 593.75z" />
    <glyph glyph-name="secure-drk"
      unicode="&#xF162;"
      horiz-adv-x="1000" d="" />
    <glyph glyph-name="secure-drk-1"
      unicode="&#x73;&#x65;&#x63;&#x75;&#x72;&#x65;&#x2D;&#x64;&#x72;&#x6B;"
      horiz-adv-x="1000" d="" />
    <glyph glyph-name="secure-lht"
      unicode="&#xF163;"
      horiz-adv-x="1000" d="" />
    <glyph glyph-name="secure-lht-1"
      unicode="&#x73;&#x65;&#x63;&#x75;&#x72;&#x65;&#x2D;&#x6C;&#x68;&#x74;"
      horiz-adv-x="1000" d="" />
    <glyph glyph-name="send-drk"
      unicode="&#xF164;"
      horiz-adv-x="1000" d="M981.875 981.875A62.5 62.5 0 0 1 916.25 996.25L41.25 683.75A62.5 62.5 0 0 1 0 628.75A62.5 62.5 0 0 1 34.375 569.375L390.625 390.625L569.375 34.375A62.5 62.5 0 0 1 625 0H628.75A62.5 62.5 0 0 1 683.7500000000001 41.25L996.2500000000002 916.25A62.5 62.5 0 0 1 981.875 981.875zM221.25 615.625L696.875 785L425 513.75zM615.625 221.25L513.75 425L785 696.875z" />
    <glyph glyph-name="send-drk-1"
      unicode="&#x73;&#x65;&#x6E;&#x64;&#x2D;&#x64;&#x72;&#x6B;"
      horiz-adv-x="1000" d="M981.875 981.875A62.5 62.5 0 0 1 916.25 996.25L41.25 683.75A62.5 62.5 0 0 1 0 628.75A62.5 62.5 0 0 1 34.375 569.375L390.625 390.625L569.375 34.375A62.5 62.5 0 0 1 625 0H628.75A62.5 62.5 0 0 1 683.7500000000001 41.25L996.2500000000002 916.25A62.5 62.5 0 0 1 981.875 981.875zM221.25 615.625L696.875 785L425 513.75zM615.625 221.25L513.75 425L785 696.875z" />
    <glyph glyph-name="send-lht"
      unicode="&#xF165;"
      horiz-adv-x="1000" d="M981.875 981.875A62.5 62.5 0 0 1 916.25 996.25L41.25 683.75A62.5 62.5 0 0 1 0 628.75A62.5 62.5 0 0 1 34.375 569.375L390.625 390.625L569.375 34.375A62.5 62.5 0 0 1 625 0H628.75A62.5 62.5 0 0 1 683.7500000000001 41.25L996.2500000000002 916.25A62.5 62.5 0 0 1 981.875 981.875zM221.25 615.625L696.875 785L425 513.75zM615.625 221.25L513.75 425L785 696.875z" />
    <glyph glyph-name="send-lht-1"
      unicode="&#x73;&#x65;&#x6E;&#x64;&#x2D;&#x6C;&#x68;&#x74;"
      horiz-adv-x="1000" d="M981.875 981.875A62.5 62.5 0 0 1 916.25 996.25L41.25 683.75A62.5 62.5 0 0 1 0 628.75A62.5 62.5 0 0 1 34.375 569.375L390.625 390.625L569.375 34.375A62.5 62.5 0 0 1 625 0H628.75A62.5 62.5 0 0 1 683.7500000000001 41.25L996.2500000000002 916.25A62.5 62.5 0 0 1 981.875 981.875zM221.25 615.625L696.875 785L425 513.75zM615.625 221.25L513.75 425L785 696.875z" />
    <glyph glyph-name="settings-drk"
      unicode="&#xF166;"
      horiz-adv-x="1000" d="" />
    <glyph glyph-name="settings-drk-1"
      unicode="&#x73;&#x65;&#x74;&#x74;&#x69;&#x6E;&#x67;&#x73;&#x2D;&#x64;&#x72;&#x6B;"
      horiz-adv-x="1000" d="" />
    <glyph glyph-name="settings-lht"
      unicode="&#xF167;"
      horiz-adv-x="1000" d="" />
    <glyph glyph-name="settings-lht-1"
      unicode="&#x73;&#x65;&#x74;&#x74;&#x69;&#x6E;&#x67;&#x73;&#x2D;&#x6C;&#x68;&#x74;"
      horiz-adv-x="1000" d="" />
    <glyph glyph-name="stop-drk"
      unicode="&#xF168;"
      horiz-adv-x="1000" d="" />
    <glyph glyph-name="stop-drk-1"
      unicode="&#x73;&#x74;&#x6F;&#x70;&#x2D;&#x64;&#x72;&#x6B;"
      horiz-adv-x="1000" d="" />
    <glyph glyph-name="stop-lht"
      unicode="&#xF169;"
      horiz-adv-x="1000" d="" />
    <glyph glyph-name="stop-lht-1"
      unicode="&#x73;&#x74;&#x6F;&#x70;&#x2D;&#x6C;&#x68;&#x74;"
      horiz-adv-x="1000" d="" />
    <glyph glyph-name="time-drk"
      unicode="&#xF16A;"
      horiz-adv-x="1000" d="" />
    <glyph glyph-name="time-drk-1"
      unicode="&#x74;&#x69;&#x6D;&#x65;&#x2D;&#x64;&#x72;&#x6B;"
      horiz-adv-x="1000" d="" />
    <glyph glyph-name="time-lht"
      unicode="&#xF16B;"
      horiz-adv-x="1000" d="" />
    <glyph glyph-name="time-lht-1"
      unicode="&#x74;&#x69;&#x6D;&#x65;&#x2D;&#x6C;&#x68;&#x74;"
      horiz-adv-x="1000" d="" />
    <glyph glyph-name="trash-drk"
      unicode="&#xF16C;"
      horiz-adv-x="1000" d="" />
    <glyph glyph-name="trash-drk-1"
      unicode="&#x74;&#x72;&#x61;&#x73;&#x68;&#x2D;&#x64;&#x72;&#x6B;"
      horiz-adv-x="1000" d="" />
    <glyph glyph-name="trash-lht"
      unicode="&#xF16D;"
      horiz-adv-x="1000" d="" />
    <glyph glyph-name="trash-lht-1"
      unicode="&#x74;&#x72;&#x61;&#x73;&#x68;&#x2D;&#x6C;&#x68;&#x74;"
      horiz-adv-x="1000" d="" />
    <glyph glyph-name="twitter-colr"
      unicode="&#xF16E;"
      horiz-adv-x="1000" d="" />
    <glyph glyph-name="twitter-colr-1"
      unicode="&#x74;&#x77;&#x69;&#x74;&#x74;&#x65;&#x72;&#x2D;&#x63;&#x6F;&#x6C;&#x72;"
      horiz-adv-x="1000" d="" />
    <glyph glyph-name="twitter-drk"
      unicode="&#xF16F;"
      horiz-adv-x="1000" d="" />
    <glyph glyph-name="twitter-drk-1"
      unicode="&#x74;&#x77;&#x69;&#x74;&#x74;&#x65;&#x72;&#x2D;&#x64;&#x72;&#x6B;"
      horiz-adv-x="1000" d="" />
    <glyph glyph-name="twitter-lht"
      unicode="&#xF170;"
      horiz-adv-x="1000" d="" />
    <glyph glyph-name="twitter-lht-1"
      unicode="&#x74;&#x77;&#x69;&#x74;&#x74;&#x65;&#x72;&#x2D;&#x6C;&#x68;&#x74;"
      horiz-adv-x="1000" d="" />
    <glyph glyph-name="video-slideshow-drk"
      unicode="&#xF171;"
      horiz-adv-x="1000" d="" />
    <glyph glyph-name="video-slideshow-drk-1"
      unicode="&#x76;&#x69;&#x64;&#x65;&#x6F;&#x2D;&#x73;&#x6C;&#x69;&#x64;&#x65;&#x73;&#x68;&#x6F;&#x77;&#x2D;&#x64;&#x72;&#x6B;"
      horiz-adv-x="1000" d="" />
    <glyph glyph-name="video-slideshow-lht"
      unicode="&#xF172;"
      horiz-adv-x="1000" d="" />
    <glyph glyph-name="video-slideshow-lht-1"
      unicode="&#x76;&#x69;&#x64;&#x65;&#x6F;&#x2D;&#x73;&#x6C;&#x69;&#x64;&#x65;&#x73;&#x68;&#x6F;&#x77;&#x2D;&#x6C;&#x68;&#x74;"
      horiz-adv-x="1000" d="" />
    <glyph glyph-name="x-circle-drk"
      unicode="&#xF173;"
      horiz-adv-x="1000" d="M0 500A500 500 0 0 1 1000 500A500 500 0 0 1 0 500M588.125 500L731.875 643.125A62.5 62.5 0 1 1 643.1250000000001 731.875L500 588.125L356.875 731.875A62.5 62.5 0 0 1 268.125 643.125L411.875 500L268.125 356.875A62.5 62.5 0 0 1 268.125 268.1250000000001A62.5 62.5 0 0 1 356.875 268.1250000000001L500 411.875L643.125 268.125A62.5 62.5 0 0 1 731.8749999999999 268.125A62.5 62.5 0 0 1 731.8749999999999 356.8749999999999z" />
    <glyph glyph-name="x-circle-drk-1"
      unicode="&#x78;&#x2D;&#x63;&#x69;&#x72;&#x63;&#x6C;&#x65;&#x2D;&#x64;&#x72;&#x6B;"
      horiz-adv-x="1000" d="M0 500A500 500 0 0 1 1000 500A500 500 0 0 1 0 500M588.125 500L731.875 643.125A62.5 62.5 0 1 1 643.1250000000001 731.875L500 588.125L356.875 731.875A62.5 62.5 0 0 1 268.125 643.125L411.875 500L268.125 356.875A62.5 62.5 0 0 1 268.125 268.1250000000001A62.5 62.5 0 0 1 356.875 268.1250000000001L500 411.875L643.125 268.125A62.5 62.5 0 0 1 731.8749999999999 268.125A62.5 62.5 0 0 1 731.8749999999999 356.8749999999999z" />
    <glyph glyph-name="x-circle-lht"
      unicode="&#xF174;"
      horiz-adv-x="1000" d="M0 500A500 500 0 0 1 1000 500A500 500 0 0 1 0 500M588.125 500L731.875 643.125A62.5 62.5 0 1 1 643.1250000000001 731.875L500 588.125L356.875 731.875A62.5 62.5 0 0 1 268.125 643.125L411.875 500L268.125 356.875A62.5 62.5 0 0 1 268.125 268.1250000000001A62.5 62.5 0 0 1 356.875 268.1250000000001L500 411.875L643.125 268.125A62.5 62.5 0 0 1 731.8749999999999 268.125A62.5 62.5 0 0 1 731.8749999999999 356.8749999999999z" />
    <glyph glyph-name="x-circle-lht-1"
      unicode="&#x78;&#x2D;&#x63;&#x69;&#x72;&#x63;&#x6C;&#x65;&#x2D;&#x6C;&#x68;&#x74;"
      horiz-adv-x="1000" d="M0 500A500 500 0 0 1 1000 500A500 500 0 0 1 0 500M588.125 500L731.875 643.125A62.5 62.5 0 1 1 643.1250000000001 731.875L500 588.125L356.875 731.875A62.5 62.5 0 0 1 268.125 643.125L411.875 500L268.125 356.875A62.5 62.5 0 0 1 268.125 268.1250000000001A62.5 62.5 0 0 1 356.875 268.1250000000001L500 411.875L643.125 268.125A62.5 62.5 0 0 1 731.8749999999999 268.125A62.5 62.5 0 0 1 731.8749999999999 356.8749999999999z" />
    <glyph glyph-name="x-drk"
      unicode="&#xF175;"
      horiz-adv-x="1000" d="M588.125 500L856.875 768.125A62.5 62.5 0 1 1 768.1250000000001 856.875L500 588.125L231.875 856.875A62.5 62.5 0 0 1 143.125 768.125L411.875 500L143.125 231.875A62.5 62.5 0 0 1 143.125 143.1250000000001A62.5 62.5 0 0 1 231.875 143.1250000000001L500 411.875L767.5000000000001 144.3749999999999A62.5 62.5 0 0 1 812.5 125A62.5 62.5 0 0 1 856.875 143.75A62.5 62.5 0 0 1 856.875 231.875z" />
    <glyph glyph-name="x-drk-1"
      unicode="&#x78;&#x2D;&#x64;&#x72;&#x6B;"
      horiz-adv-x="1000" d="M588.125 500L856.875 768.125A62.5 62.5 0 1 1 768.1250000000001 856.875L500 588.125L231.875 856.875A62.5 62.5 0 0 1 143.125 768.125L411.875 500L143.125 231.875A62.5 62.5 0 0 1 143.125 143.1250000000001A62.5 62.5 0 0 1 231.875 143.1250000000001L500 411.875L767.5000000000001 144.3749999999999A62.5 62.5 0 0 1 812.5 125A62.5 62.5 0 0 1 856.875 143.75A62.5 62.5 0 0 1 856.875 231.875z" />
    <glyph glyph-name="x-lht"
      unicode="&#xF176;"
      horiz-adv-x="1000" d="M588.125 500L856.875 768.125A62.5 62.5 0 1 1 768.1250000000001 856.875L500 588.125L231.875 856.875A62.5 62.5 0 0 1 143.125 768.125L411.875 500L143.125 231.875A62.5 62.5 0 0 1 143.125 143.1250000000001A62.5 62.5 0 0 1 231.875 143.1250000000001L500 411.875L767.5000000000001 144.3749999999999A62.5 62.5 0 0 1 812.5 125A62.5 62.5 0 0 1 856.875 143.75A62.5 62.5 0 0 1 856.875 231.875z" />
    <glyph glyph-name="x-lht-1"
      unicode="&#x78;&#x2D;&#x6C;&#x68;&#x74;"
      horiz-adv-x="1000" d="M588.125 500L856.875 768.125A62.5 62.5 0 1 1 768.1250000000001 856.875L500 588.125L231.875 856.875A62.5 62.5 0 0 1 143.125 768.125L411.875 500L143.125 231.875A62.5 62.5 0 0 1 143.125 143.1250000000001A62.5 62.5 0 0 1 231.875 143.1250000000001L500 411.875L767.5000000000001 144.3749999999999A62.5 62.5 0 0 1 812.5 125A62.5 62.5 0 0 1 856.875 143.75A62.5 62.5 0 0 1 856.875 231.875z" />
    <glyph glyph-name="youtube-colr"
      unicode="&#xF177;"
      horiz-adv-x="1000" d="" />
    <glyph glyph-name="youtube-colr-1"
      unicode="&#x79;&#x6F;&#x75;&#x74;&#x75;&#x62;&#x65;&#x2D;&#x63;&#x6F;&#x6C;&#x72;"
      horiz-adv-x="1000" d="" />
    <glyph glyph-name="youtube-drk"
      unicode="&#xF178;"
      horiz-adv-x="1000" d="" />
    <glyph glyph-name="youtube-drk-1"
      unicode="&#x79;&#x6F;&#x75;&#x74;&#x75;&#x62;&#x65;&#x2D;&#x64;&#x72;&#x6B;"
      horiz-adv-x="1000" d="" />
    <glyph glyph-name="youtube-lht"
      unicode="&#xF179;"
      horiz-adv-x="1000" d="" />
    <glyph glyph-name="youtube-lht-1"
      unicode="&#x79;&#x6F;&#x75;&#x74;&#x75;&#x62;&#x65;&#x2D;&#x6C;&#x68;&#x74;"
      horiz-adv-x="1000" d="" />
  </font>
</defs>
</svg>
