<?xml version="1.0" standalone="no"?>
<!DOCTYPE svg PUBLIC "-//W3C//DTD SVG 1.1//EN" "http://www.w3.org/Graphics/SVG/1.1/DTD/svg11.dtd" >
<svg xmlns="http://www.w3.org/2000/svg">
<defs>
  <font id="wsu-icons" horiz-adv-x="1000">
    <font-face font-family="wsu-icons"
      units-per-em="1000" ascent="1000"
      descent="0" />
    <missing-glyph horiz-adv-x="0" />
    <glyph glyph-name="alarm-drk"
      unicode="&#xF101;"
      horiz-adv-x="1000" d="M0 1000H1000V0H0V1000zM501.8749999999999 812.5A343.74999999999994 343.74999999999994 0 1 0 158.125 468.75A343.74999999999994 343.74999999999994 0 0 0 501.8749999999999 812.5M501.8749999999999 937.5A468.74999999999994 468.74999999999994 0 1 1 970.625 468.75A468.74999999999994 468.74999999999994 0 0 1 501.8749999999999 937.5zM656.25 281.25A62.5 62.5 0 0 0 617.5 295L439.375 437.5V656.25A62.5 62.5 0 1 0 564.3750000000001 656.25V500L697.5 393.75A62.5 62.5 0 0 0 706.875 306.25A62.5 62.5 0 0 0 656.25 281.25zM939.375 812.5A62.5 62.5 0 0 0 895 831.25L832.5 893.75A62.5 62.5 0 0 0 832.5 981.875A62.5 62.5 0 0 0 921.25 981.875L983.75 919.375A62.5 62.5 0 0 0 939.375 812.5zM64.375 812.5A62.5 62.5 0 0 0 20 831.25A62.5 62.5 0 0 0 20 919.375L82.5 981.875A62.5 62.5 0 0 0 171.25 981.875A62.5 62.5 0 0 0 171.25 893.75L108.75 831.25A62.5 62.5 0 0 0 64.375 812.5z" />
    <glyph glyph-name="alarm-drk-1"
      unicode="&#x61;&#x6C;&#x61;&#x72;&#x6D;&#x2D;&#x64;&#x72;&#x6B;"
      horiz-adv-x="1000" d="M0 1000H1000V0H0V1000zM501.8749999999999 812.5A343.74999999999994 343.74999999999994 0 1 0 158.125 468.75A343.74999999999994 343.74999999999994 0 0 0 501.8749999999999 812.5M501.8749999999999 937.5A468.74999999999994 468.74999999999994 0 1 1 970.625 468.75A468.74999999999994 468.74999999999994 0 0 1 501.8749999999999 937.5zM656.25 281.25A62.5 62.5 0 0 0 617.5 295L439.375 437.5V656.25A62.5 62.5 0 1 0 564.3750000000001 656.25V500L697.5 393.75A62.5 62.5 0 0 0 706.875 306.25A62.5 62.5 0 0 0 656.25 281.25zM939.375 812.5A62.5 62.5 0 0 0 895 831.25L832.5 893.75A62.5 62.5 0 0 0 832.5 981.875A62.5 62.5 0 0 0 921.25 981.875L983.75 919.375A62.5 62.5 0 0 0 939.375 812.5zM64.375 812.5A62.5 62.5 0 0 0 20 831.25A62.5 62.5 0 0 0 20 919.375L82.5 981.875A62.5 62.5 0 0 0 171.25 981.875A62.5 62.5 0 0 0 171.25 893.75L108.75 831.25A62.5 62.5 0 0 0 64.375 812.5z" />
    <glyph glyph-name="alarm-lht"
      unicode="&#xF102;"
      horiz-adv-x="1000" d="M0 1000H1000V0H0V1000zM501.8749999999999 812.5A343.74999999999994 343.74999999999994 0 1 0 158.125 468.75A343.74999999999994 343.74999999999994 0 0 0 501.8749999999999 812.5M501.8749999999999 937.5A468.74999999999994 468.74999999999994 0 1 1 970.625 468.75A468.74999999999994 468.74999999999994 0 0 1 501.8749999999999 937.5zM656.25 281.25A62.5 62.5 0 0 0 617.5 295L439.375 437.5V656.25A62.5 62.5 0 1 0 564.3750000000001 656.25V500L697.5 393.75A62.5 62.5 0 0 0 706.875 306.25A62.5 62.5 0 0 0 656.25 281.25zM939.375 812.5A62.5 62.5 0 0 0 895 831.25L832.5 893.75A62.5 62.5 0 0 0 832.5 981.875A62.5 62.5 0 0 0 921.25 981.875L983.75 919.375A62.5 62.5 0 0 0 939.375 812.5zM64.375 812.5A62.5 62.5 0 0 0 20 831.25A62.5 62.5 0 0 0 20 919.375L82.5 981.875A62.5 62.5 0 0 0 171.25 981.875A62.5 62.5 0 0 0 171.25 893.75L108.75 831.25A62.5 62.5 0 0 0 64.375 812.5z" />
    <glyph glyph-name="alarm-lht-1"
      unicode="&#x61;&#x6C;&#x61;&#x72;&#x6D;&#x2D;&#x6C;&#x68;&#x74;"
      horiz-adv-x="1000" d="M0 1000H1000V0H0V1000zM501.8749999999999 812.5A343.74999999999994 343.74999999999994 0 1 0 158.125 468.75A343.74999999999994 343.74999999999994 0 0 0 501.8749999999999 812.5M501.8749999999999 937.5A468.74999999999994 468.74999999999994 0 1 1 970.625 468.75A468.74999999999994 468.74999999999994 0 0 1 501.8749999999999 937.5zM656.25 281.25A62.5 62.5 0 0 0 617.5 295L439.375 437.5V656.25A62.5 62.5 0 1 0 564.3750000000001 656.25V500L697.5 393.75A62.5 62.5 0 0 0 706.875 306.25A62.5 62.5 0 0 0 656.25 281.25zM939.375 812.5A62.5 62.5 0 0 0 895 831.25L832.5 893.75A62.5 62.5 0 0 0 832.5 981.875A62.5 62.5 0 0 0 921.25 981.875L983.75 919.375A62.5 62.5 0 0 0 939.375 812.5zM64.375 812.5A62.5 62.5 0 0 0 20 831.25A62.5 62.5 0 0 0 20 919.375L82.5 981.875A62.5 62.5 0 0 0 171.25 981.875A62.5 62.5 0 0 0 171.25 893.75L108.75 831.25A62.5 62.5 0 0 0 64.375 812.5z" />
    <glyph glyph-name="alert-notification-drk"
      unicode="&#xF103;"
      horiz-adv-x="1000" d="M782.5 500L782.5 500V610.625A293.12500000000006 293.12500000000006 0 0 1 562.5 898.125A49.37500000000001 49.37500000000001 0 0 1 562.5 906.25A62.5 62.5 0 0 1 437.5 906.25S437.5 901.875 437.5 899.375A281.25 281.25 0 0 1 218.75 625V500L218.75 500A468.125 468.125 0 0 1 36.875 196.25A62.5 62.5 0 0 1 99.375 125H375A125 125 0 0 1 625 125H901.25A62.5 62.5 0 0 1 963.75 196.875A468.125 468.125 0 0 1 782.5 500zM180 250A338.125 338.125 0 0 0 293.125 398.75L343.75 437.5V625A156.25 156.25 0 0 0 500 781.25H514.375A167.50000000000003 167.50000000000003 0 0 0 656.25 610.625V500L656.25 437.5L705.625 400A338.125 338.125 0 0 0 820 250zM0 1000H1000V0H0V1000z" />
    <glyph glyph-name="alert-notification-drk-1"
      unicode="&#x61;&#x6C;&#x65;&#x72;&#x74;&#x2D;&#x6E;&#x6F;&#x74;&#x69;&#x66;&#x69;&#x63;&#x61;&#x74;&#x69;&#x6F;&#x6E;&#x2D;&#x64;&#x72;&#x6B;"
      horiz-adv-x="1000" d="M782.5 500L782.5 500V610.625A293.12500000000006 293.12500000000006 0 0 1 562.5 898.125A49.37500000000001 49.37500000000001 0 0 1 562.5 906.25A62.5 62.5 0 0 1 437.5 906.25S437.5 901.875 437.5 899.375A281.25 281.25 0 0 1 218.75 625V500L218.75 500A468.125 468.125 0 0 1 36.875 196.25A62.5 62.5 0 0 1 99.375 125H375A125 125 0 0 1 625 125H901.25A62.5 62.5 0 0 1 963.75 196.875A468.125 468.125 0 0 1 782.5 500zM180 250A338.125 338.125 0 0 0 293.125 398.75L343.75 437.5V625A156.25 156.25 0 0 0 500 781.25H514.375A167.50000000000003 167.50000000000003 0 0 0 656.25 610.625V500L656.25 437.5L705.625 400A338.125 338.125 0 0 0 820 250zM0 1000H1000V0H0V1000z" />
    <glyph glyph-name="alert-notification-lht"
      unicode="&#xF104;"
      horiz-adv-x="1000" d="M782.5 500L782.5 500V610.625A293.12500000000006 293.12500000000006 0 0 1 562.5 898.125A49.37500000000001 49.37500000000001 0 0 1 562.5 906.25A62.5 62.5 0 0 1 437.5 906.25S437.5 901.875 437.5 899.375A281.25 281.25 0 0 1 218.75 625V500L218.75 500A468.125 468.125 0 0 1 36.875 196.25A62.5 62.5 0 0 1 99.375 125H375A125 125 0 0 1 625 125H901.25A62.5 62.5 0 0 1 963.75 196.875A468.125 468.125 0 0 1 782.5 500zM180 250A338.125 338.125 0 0 0 293.125 398.75L343.75 437.5V625A156.25 156.25 0 0 0 500 781.25H514.375A167.50000000000003 167.50000000000003 0 0 0 656.25 610.625V500L656.25 437.5L705.625 400A338.125 338.125 0 0 0 820 250zM0 1000H1000V0H0V1000z" />
    <glyph glyph-name="alert-notification-lht-1"
      unicode="&#x61;&#x6C;&#x65;&#x72;&#x74;&#x2D;&#x6E;&#x6F;&#x74;&#x69;&#x66;&#x69;&#x63;&#x61;&#x74;&#x69;&#x6F;&#x6E;&#x2D;&#x6C;&#x68;&#x74;"
      horiz-adv-x="1000" d="M782.5 500L782.5 500V610.625A293.12500000000006 293.12500000000006 0 0 1 562.5 898.125A49.37500000000001 49.37500000000001 0 0 1 562.5 906.25A62.5 62.5 0 0 1 437.5 906.25S437.5 901.875 437.5 899.375A281.25 281.25 0 0 1 218.75 625V500L218.75 500A468.125 468.125 0 0 1 36.875 196.25A62.5 62.5 0 0 1 99.375 125H375A125 125 0 0 1 625 125H901.25A62.5 62.5 0 0 1 963.75 196.875A468.125 468.125 0 0 1 782.5 500zM180 250A338.125 338.125 0 0 0 293.125 398.75L343.75 437.5V625A156.25 156.25 0 0 0 500 781.25H514.375A167.50000000000003 167.50000000000003 0 0 0 656.25 610.625V500L656.25 437.5L705.625 400A338.125 338.125 0 0 0 820 250zM0 1000H1000V0H0V1000z" />
    <glyph glyph-name="arrow-down-carrot-drk"
      unicode="&#xF105;"
      horiz-adv-x="1000" d="M919.375 731.875A62.5 62.5 0 0 1 830.6250000000001 731.875L500 400.625L169.375 731.875A62.5 62.5 0 0 1 80.625 643.125L455.625 268.125A62.5 62.5 0 0 1 544.375 268.125L919.375 643.125A62.5 62.5 0 0 1 919.375 731.875zM0 1000H1000V0H0V1000z" />
    <glyph glyph-name="arrow-down-carrot-drk-1"
      unicode="&#x61;&#x72;&#x72;&#x6F;&#x77;&#x2D;&#x64;&#x6F;&#x77;&#x6E;&#x2D;&#x63;&#x61;&#x72;&#x72;&#x6F;&#x74;&#x2D;&#x64;&#x72;&#x6B;"
      horiz-adv-x="1000" d="M919.375 731.875A62.5 62.5 0 0 1 830.6250000000001 731.875L500 400.625L169.375 731.875A62.5 62.5 0 0 1 80.625 643.125L455.625 268.125A62.5 62.5 0 0 1 544.375 268.125L919.375 643.125A62.5 62.5 0 0 1 919.375 731.875zM0 1000H1000V0H0V1000z" />
    <glyph glyph-name="arrow-down-carrot-lht"
      unicode="&#xF106;"
      horiz-adv-x="1000" d="M919.375 731.875A62.5 62.5 0 0 1 830.6250000000001 731.875L500 400.625L169.375 731.875A62.5 62.5 0 0 1 80.625 643.125L455.625 268.125A62.5 62.5 0 0 1 544.375 268.125L919.375 643.125A62.5 62.5 0 0 1 919.375 731.875zM0 1000H1000V0H0V1000z" />
    <glyph glyph-name="arrow-down-carrot-lht-1"
      unicode="&#x61;&#x72;&#x72;&#x6F;&#x77;&#x2D;&#x64;&#x6F;&#x77;&#x6E;&#x2D;&#x63;&#x61;&#x72;&#x72;&#x6F;&#x74;&#x2D;&#x6C;&#x68;&#x74;"
      horiz-adv-x="1000" d="M919.375 731.875A62.5 62.5 0 0 1 830.6250000000001 731.875L500 400.625L169.375 731.875A62.5 62.5 0 0 1 80.625 643.125L455.625 268.125A62.5 62.5 0 0 1 544.375 268.125L919.375 643.125A62.5 62.5 0 0 1 919.375 731.875zM0 1000H1000V0H0V1000z" />
    <glyph glyph-name="arrow-down-drk"
      unicode="&#xF107;"
      horiz-adv-x="1000" d="M80.625 393.125L455.625 18.125A62.5 62.5 0 0 1 544.375 18.125L919.375 393.125A62.5 62.5 0 0 1 919.375 481.8749999999999A62.5 62.5 0 0 1 830.6250000000001 481.8749999999999L562.5 211.875V937.5A62.5 62.5 0 0 1 437.5 937.5V215L169.375 481.875A62.5 62.5 0 0 1 80.625 481.875A62.5 62.5 0 0 1 80.625 393.125zM1000 0L0 -2e-13L-1e-13 999.9999999999998L999.9999999999998 999.9999999999998L1000 0z" />
    <glyph glyph-name="arrow-down-drk-1"
      unicode="&#x61;&#x72;&#x72;&#x6F;&#x77;&#x2D;&#x64;&#x6F;&#x77;&#x6E;&#x2D;&#x64;&#x72;&#x6B;"
      horiz-adv-x="1000" d="M80.625 393.125L455.625 18.125A62.5 62.5 0 0 1 544.375 18.125L919.375 393.125A62.5 62.5 0 0 1 919.375 481.8749999999999A62.5 62.5 0 0 1 830.6250000000001 481.8749999999999L562.5 211.875V937.5A62.5 62.5 0 0 1 437.5 937.5V215L169.375 481.875A62.5 62.5 0 0 1 80.625 481.875A62.5 62.5 0 0 1 80.625 393.125zM1000 0L0 -2e-13L-1e-13 999.9999999999998L999.9999999999998 999.9999999999998L1000 0z" />
    <glyph glyph-name="arrow-down-lht"
      unicode="&#xF108;"
      horiz-adv-x="1000" d="M80.625 393.125L455.625 18.125A62.5 62.5 0 0 1 544.375 18.125L919.375 393.125A62.5 62.5 0 0 1 919.375 481.8749999999999A62.5 62.5 0 0 1 830.6250000000001 481.8749999999999L562.5 211.875V937.5A62.5 62.5 0 0 1 437.5 937.5V215L169.375 481.875A62.5 62.5 0 0 1 80.625 481.875A62.5 62.5 0 0 1 80.625 393.125zM1000 0L0 -2e-13L-1e-13 999.9999999999998L999.9999999999998 999.9999999999998L1000 0z" />
    <glyph glyph-name="arrow-down-lht-1"
      unicode="&#x61;&#x72;&#x72;&#x6F;&#x77;&#x2D;&#x64;&#x6F;&#x77;&#x6E;&#x2D;&#x6C;&#x68;&#x74;"
      horiz-adv-x="1000" d="M80.625 393.125L455.625 18.125A62.5 62.5 0 0 1 544.375 18.125L919.375 393.125A62.5 62.5 0 0 1 919.375 481.8749999999999A62.5 62.5 0 0 1 830.6250000000001 481.8749999999999L562.5 211.875V937.5A62.5 62.5 0 0 1 437.5 937.5V215L169.375 481.875A62.5 62.5 0 0 1 80.625 481.875A62.5 62.5 0 0 1 80.625 393.125zM1000 0L0 -2e-13L-1e-13 999.9999999999998L999.9999999999998 999.9999999999998L1000 0z" />
    <glyph glyph-name="arrow-left-carrot-drk"
      unicode="&#xF109;"
      horiz-adv-x="1000" d="M400.625 500L731.875 830.625A62.5 62.5 0 1 1 643.1250000000001 919.375L268.1250000000001 544.375A62.5 62.5 0 0 1 268.1250000000001 455.625L643.1250000000001 80.625A62.5 62.5 0 0 1 731.875 80.625A62.5 62.5 0 0 1 731.875 169.3749999999999zM0 1000H1000V0H0V1000z" />
    <glyph glyph-name="arrow-left-carrot-drk-1"
      unicode="&#x61;&#x72;&#x72;&#x6F;&#x77;&#x2D;&#x6C;&#x65;&#x66;&#x74;&#x2D;&#x63;&#x61;&#x72;&#x72;&#x6F;&#x74;&#x2D;&#x64;&#x72;&#x6B;"
      horiz-adv-x="1000" d="M400.625 500L731.875 830.625A62.5 62.5 0 1 1 643.1250000000001 919.375L268.1250000000001 544.375A62.5 62.5 0 0 1 268.1250000000001 455.625L643.1250000000001 80.625A62.5 62.5 0 0 1 731.875 80.625A62.5 62.5 0 0 1 731.875 169.3749999999999zM0 1000H1000V0H0V1000z" />
    <glyph glyph-name="arrow-left-carrot-lht"
      unicode="&#xF10A;"
      horiz-adv-x="1000" d="M400.625 500L731.875 830.625A62.5 62.5 0 1 1 643.1250000000001 919.375L268.1250000000001 544.375A62.5 62.5 0 0 1 268.1250000000001 455.625L643.1250000000001 80.625A62.5 62.5 0 0 1 731.875 80.625A62.5 62.5 0 0 1 731.875 169.3749999999999zM0 1000H1000V0H0V1000z" />
    <glyph glyph-name="arrow-left-carrot-lht-1"
      unicode="&#x61;&#x72;&#x72;&#x6F;&#x77;&#x2D;&#x6C;&#x65;&#x66;&#x74;&#x2D;&#x63;&#x61;&#x72;&#x72;&#x6F;&#x74;&#x2D;&#x6C;&#x68;&#x74;"
      horiz-adv-x="1000" d="M400.625 500L731.875 830.625A62.5 62.5 0 1 1 643.1250000000001 919.375L268.1250000000001 544.375A62.5 62.5 0 0 1 268.1250000000001 455.625L643.1250000000001 80.625A62.5 62.5 0 0 1 731.875 80.625A62.5 62.5 0 0 1 731.875 169.3749999999999zM0 1000H1000V0H0V1000z" />
    <glyph glyph-name="arrow-left-drk"
      unicode="&#xF10B;"
      horiz-adv-x="1000" d="M393.125 919.375L18.125 544.375A62.5 62.5 0 0 1 18.125 455.625L393.125 80.625A62.5 62.5 0 0 1 481.875 80.625A62.5 62.5 0 0 1 481.875 169.3749999999999L211.875 437.5H937.5A62.5 62.5 0 0 1 937.5 562.5H215L481.875 830.625A62.5 62.5 0 0 1 481.875 919.375A62.5 62.5 0 0 1 393.125 919.375zM0 0L1e-13 1000L1000 999.9999999999998L999.9999999999998 0L-1e-13 1e-13z" />
    <glyph glyph-name="arrow-left-drk-1"
      unicode="&#x61;&#x72;&#x72;&#x6F;&#x77;&#x2D;&#x6C;&#x65;&#x66;&#x74;&#x2D;&#x64;&#x72;&#x6B;"
      horiz-adv-x="1000" d="M393.125 919.375L18.125 544.375A62.5 62.5 0 0 1 18.125 455.625L393.125 80.625A62.5 62.5 0 0 1 481.875 80.625A62.5 62.5 0 0 1 481.875 169.3749999999999L211.875 437.5H937.5A62.5 62.5 0 0 1 937.5 562.5H215L481.875 830.625A62.5 62.5 0 0 1 481.875 919.375A62.5 62.5 0 0 1 393.125 919.375zM0 0L1e-13 1000L1000 999.9999999999998L999.9999999999998 0L-1e-13 1e-13z" />
    <glyph glyph-name="arrow-left-lht"
      unicode="&#xF10C;"
      horiz-adv-x="1000" d="M393.125 919.375L18.125 544.375A62.5 62.5 0 0 1 18.125 455.625L393.125 80.625A62.5 62.5 0 0 1 481.875 80.625A62.5 62.5 0 0 1 481.875 169.3749999999999L211.875 437.5H937.5A62.5 62.5 0 0 1 937.5 562.5H215L481.875 830.625A62.5 62.5 0 0 1 481.875 919.375A62.5 62.5 0 0 1 393.125 919.375zM0 0L1e-13 1000L1000 999.9999999999998L999.9999999999998 0L-1e-13 1e-13z" />
    <glyph glyph-name="arrow-left-lht-1"
      unicode="&#x61;&#x72;&#x72;&#x6F;&#x77;&#x2D;&#x6C;&#x65;&#x66;&#x74;&#x2D;&#x6C;&#x68;&#x74;"
      horiz-adv-x="1000" d="M393.125 919.375L18.125 544.375A62.5 62.5 0 0 1 18.125 455.625L393.125 80.625A62.5 62.5 0 0 1 481.875 80.625A62.5 62.5 0 0 1 481.875 169.3749999999999L211.875 437.5H937.5A62.5 62.5 0 0 1 937.5 562.5H215L481.875 830.625A62.5 62.5 0 0 1 481.875 919.375A62.5 62.5 0 0 1 393.125 919.375zM0 0L1e-13 1000L1000 999.9999999999998L999.9999999999998 0L-1e-13 1e-13z" />
    <glyph glyph-name="arrow-right-carrot-drk"
      unicode="&#xF10D;"
      horiz-adv-x="1000" d="M731.875 544.375L356.8750000000001 919.375A62.5 62.5 0 0 1 268.125 830.625L599.375 500L268.125 169.375A62.5 62.5 0 0 1 268.125 80.6250000000001A62.5 62.5 0 0 1 356.875 80.6250000000001L731.875 455.6250000000001A62.5 62.5 0 0 1 731.875 544.375zM0 1000H1000V0H0V1000z" />
    <glyph glyph-name="arrow-right-carrot-drk-1"
      unicode="&#x61;&#x72;&#x72;&#x6F;&#x77;&#x2D;&#x72;&#x69;&#x67;&#x68;&#x74;&#x2D;&#x63;&#x61;&#x72;&#x72;&#x6F;&#x74;&#x2D;&#x64;&#x72;&#x6B;"
      horiz-adv-x="1000" d="M731.875 544.375L356.8750000000001 919.375A62.5 62.5 0 0 1 268.125 830.625L599.375 500L268.125 169.375A62.5 62.5 0 0 1 268.125 80.6250000000001A62.5 62.5 0 0 1 356.875 80.6250000000001L731.875 455.6250000000001A62.5 62.5 0 0 1 731.875 544.375zM0 1000H1000V0H0V1000z" />
    <glyph glyph-name="arrow-right-carrot-lht"
      unicode="&#xF10E;"
      horiz-adv-x="1000" d="M731.875 544.375L356.8750000000001 919.375A62.5 62.5 0 0 1 268.125 830.625L599.375 500L268.125 169.375A62.5 62.5 0 0 1 268.125 80.6250000000001A62.5 62.5 0 0 1 356.875 80.6250000000001L731.875 455.6250000000001A62.5 62.5 0 0 1 731.875 544.375zM0 1000H1000V0H0V1000z" />
    <glyph glyph-name="arrow-right-carrot-lht-1"
      unicode="&#x61;&#x72;&#x72;&#x6F;&#x77;&#x2D;&#x72;&#x69;&#x67;&#x68;&#x74;&#x2D;&#x63;&#x61;&#x72;&#x72;&#x6F;&#x74;&#x2D;&#x6C;&#x68;&#x74;"
      horiz-adv-x="1000" d="M731.875 544.375L356.8750000000001 919.375A62.5 62.5 0 0 1 268.125 830.625L599.375 500L268.125 169.375A62.5 62.5 0 0 1 268.125 80.6250000000001A62.5 62.5 0 0 1 356.875 80.6250000000001L731.875 455.6250000000001A62.5 62.5 0 0 1 731.875 544.375zM0 1000H1000V0H0V1000z" />
    <glyph glyph-name="arrow-right-drk"
      unicode="&#xF10F;"
      horiz-adv-x="1000" d="M606.875 80.625L981.875 455.625A62.5 62.5 0 0 1 981.875 544.375L606.875 919.375A62.5 62.5 0 0 1 518.1250000000001 919.375A62.5 62.5 0 0 1 518.1250000000001 830.625L788.125 562.5H62.5A62.5 62.5 0 0 1 62.5 437.5H785L518.125 169.375A62.5 62.5 0 0 1 518.125 80.6250000000001A62.5 62.5 0 0 1 606.875 80.625zM1000 1000L1000 0L0 0L-1e-13 1000L999.9999999999998 1000.0000000000002z" />
    <glyph glyph-name="arrow-right-drk-1"
      unicode="&#x61;&#x72;&#x72;&#x6F;&#x77;&#x2D;&#x72;&#x69;&#x67;&#x68;&#x74;&#x2D;&#x64;&#x72;&#x6B;"
      horiz-adv-x="1000" d="M606.875 80.625L981.875 455.625A62.5 62.5 0 0 1 981.875 544.375L606.875 919.375A62.5 62.5 0 0 1 518.1250000000001 919.375A62.5 62.5 0 0 1 518.1250000000001 830.625L788.125 562.5H62.5A62.5 62.5 0 0 1 62.5 437.5H785L518.125 169.375A62.5 62.5 0 0 1 518.125 80.6250000000001A62.5 62.5 0 0 1 606.875 80.625zM1000 1000L1000 0L0 0L-1e-13 1000L999.9999999999998 1000.0000000000002z" />
    <glyph glyph-name="arrow-right-lht"
      unicode="&#xF110;"
      horiz-adv-x="1000" d="M606.875 80.625L981.875 455.625A62.5 62.5 0 0 1 981.875 544.375L606.875 919.375A62.5 62.5 0 0 1 518.1250000000001 919.375A62.5 62.5 0 0 1 518.1250000000001 830.625L788.125 562.5H62.5A62.5 62.5 0 0 1 62.5 437.5H785L518.125 169.375A62.5 62.5 0 0 1 518.125 80.6250000000001A62.5 62.5 0 0 1 606.875 80.625zM1000 1000L1000 0L0 0L-1e-13 1000L999.9999999999998 1000.0000000000002z" />
    <glyph glyph-name="arrow-right-lht-1"
      unicode="&#x61;&#x72;&#x72;&#x6F;&#x77;&#x2D;&#x72;&#x69;&#x67;&#x68;&#x74;&#x2D;&#x6C;&#x68;&#x74;"
      horiz-adv-x="1000" d="M606.875 80.625L981.875 455.625A62.5 62.5 0 0 1 981.875 544.375L606.875 919.375A62.5 62.5 0 0 1 518.1250000000001 919.375A62.5 62.5 0 0 1 518.1250000000001 830.625L788.125 562.5H62.5A62.5 62.5 0 0 1 62.5 437.5H785L518.125 169.375A62.5 62.5 0 0 1 518.125 80.6250000000001A62.5 62.5 0 0 1 606.875 80.625zM1000 1000L1000 0L0 0L-1e-13 1000L999.9999999999998 1000.0000000000002z" />
    <glyph glyph-name="arrow-up-carrot-drk"
      unicode="&#xF111;"
      horiz-adv-x="1000" d="M919.375 356.875L544.375 731.875A62.5 62.5 0 0 1 455.6250000000001 731.875L80.6250000000001 356.875A62.5 62.5 0 0 1 80.6250000000001 268.1250000000001A62.5 62.5 0 0 1 169.3750000000001 268.1250000000001L500 599.375L830.625 268.125A62.5 62.5 0 0 1 919.3749999999998 268.125A62.5 62.5 0 0 1 919.375 356.875zM0 1000H1000V0H0V1000z" />
    <glyph glyph-name="arrow-up-carrot-drk-1"
      unicode="&#x61;&#x72;&#x72;&#x6F;&#x77;&#x2D;&#x75;&#x70;&#x2D;&#x63;&#x61;&#x72;&#x72;&#x6F;&#x74;&#x2D;&#x64;&#x72;&#x6B;"
      horiz-adv-x="1000" d="M919.375 356.875L544.375 731.875A62.5 62.5 0 0 1 455.6250000000001 731.875L80.6250000000001 356.875A62.5 62.5 0 0 1 80.6250000000001 268.1250000000001A62.5 62.5 0 0 1 169.3750000000001 268.1250000000001L500 599.375L830.625 268.125A62.5 62.5 0 0 1 919.3749999999998 268.125A62.5 62.5 0 0 1 919.375 356.875zM0 1000H1000V0H0V1000z" />
    <glyph glyph-name="arrow-up-carrot-lht"
      unicode="&#xF112;"
      horiz-adv-x="1000" d="M919.375 356.875L544.375 731.875A62.5 62.5 0 0 1 455.6250000000001 731.875L80.6250000000001 356.875A62.5 62.5 0 0 1 80.6250000000001 268.1250000000001A62.5 62.5 0 0 1 169.3750000000001 268.1250000000001L500 599.375L830.625 268.125A62.5 62.5 0 0 1 919.3749999999998 268.125A62.5 62.5 0 0 1 919.375 356.875zM0 1000H1000V0H0V1000z" />
    <glyph glyph-name="arrow-up-carrot-lht-1"
      unicode="&#x61;&#x72;&#x72;&#x6F;&#x77;&#x2D;&#x75;&#x70;&#x2D;&#x63;&#x61;&#x72;&#x72;&#x6F;&#x74;&#x2D;&#x6C;&#x68;&#x74;"
      horiz-adv-x="1000" d="M919.375 356.875L544.375 731.875A62.5 62.5 0 0 1 455.6250000000001 731.875L80.6250000000001 356.875A62.5 62.5 0 0 1 80.6250000000001 268.1250000000001A62.5 62.5 0 0 1 169.3750000000001 268.1250000000001L500 599.375L830.625 268.125A62.5 62.5 0 0 1 919.3749999999998 268.125A62.5 62.5 0 0 1 919.375 356.875zM0 1000H1000V0H0V1000z" />
    <glyph glyph-name="arrow-up-drk"
      unicode="&#xF113;"
      horiz-adv-x="1000" d="M919.375 606.875L544.375 981.875A62.5 62.5 0 0 1 455.6250000000001 981.875L80.6250000000001 606.875A62.5 62.5 0 0 1 80.6250000000001 518.125A62.5 62.5 0 0 1 169.3750000000001 518.125L437.5 788.125V62.5A62.5 62.5 0 0 1 562.5 62.5V785L829.375 518.125A62.5 62.5 0 0 1 918.125 518.125A62.5 62.5 0 0 1 919.375 606.875zM0 1000H1000V0H0V1000z" />
    <glyph glyph-name="arrow-up-drk-1"
      unicode="&#x61;&#x72;&#x72;&#x6F;&#x77;&#x2D;&#x75;&#x70;&#x2D;&#x64;&#x72;&#x6B;"
      horiz-adv-x="1000" d="M919.375 606.875L544.375 981.875A62.5 62.5 0 0 1 455.6250000000001 981.875L80.6250000000001 606.875A62.5 62.5 0 0 1 80.6250000000001 518.125A62.5 62.5 0 0 1 169.3750000000001 518.125L437.5 788.125V62.5A62.5 62.5 0 0 1 562.5 62.5V785L829.375 518.125A62.5 62.5 0 0 1 918.125 518.125A62.5 62.5 0 0 1 919.375 606.875zM0 1000H1000V0H0V1000z" />
    <glyph glyph-name="arrow-up-lht"
      unicode="&#xF114;"
      horiz-adv-x="1000" d="M919.375 606.875L544.375 981.875A62.5 62.5 0 0 1 455.6250000000001 981.875L80.6250000000001 606.875A62.5 62.5 0 0 1 80.6250000000001 518.125A62.5 62.5 0 0 1 169.3750000000001 518.125L437.5 788.125V62.5A62.5 62.5 0 0 1 562.5 62.5V785L829.375 518.125A62.5 62.5 0 0 1 918.125 518.125A62.5 62.5 0 0 1 919.375 606.875zM0 1000H1000V0H0V1000z" />
    <glyph glyph-name="arrow-up-lht-1"
      unicode="&#x61;&#x72;&#x72;&#x6F;&#x77;&#x2D;&#x75;&#x70;&#x2D;&#x6C;&#x68;&#x74;"
      horiz-adv-x="1000" d="M919.375 606.875L544.375 981.875A62.5 62.5 0 0 1 455.6250000000001 981.875L80.6250000000001 606.875A62.5 62.5 0 0 1 80.6250000000001 518.125A62.5 62.5 0 0 1 169.3750000000001 518.125L437.5 788.125V62.5A62.5 62.5 0 0 1 562.5 62.5V785L829.375 518.125A62.5 62.5 0 0 1 918.125 518.125A62.5 62.5 0 0 1 919.375 606.875zM0 1000H1000V0H0V1000z" />
    <glyph glyph-name="attachment-drk"
      unicode="&#xF115;"
      horiz-adv-x="1000" d="M0 1000H1000V0H0V1000zM531.25 1000A344.375 344.375 0 0 1 187.5 656.25V250A250 250 0 0 1 687.5 250V656.25A156.25 156.25 0 0 1 375 656.25V250A62.5 62.5 0 0 1 500 250V656.25A31.25 31.25 0 0 0 562.5 656.25V250A125 125 0 0 0 312.5 250V656.25A218.75 218.75 0 0 0 750 656.25V250A62.5 62.5 0 0 1 875 250V656.25A344.375 344.375 0 0 1 531.25 1000z" />
    <glyph glyph-name="attachment-drk-1"
      unicode="&#x61;&#x74;&#x74;&#x61;&#x63;&#x68;&#x6D;&#x65;&#x6E;&#x74;&#x2D;&#x64;&#x72;&#x6B;"
      horiz-adv-x="1000" d="M0 1000H1000V0H0V1000zM531.25 1000A344.375 344.375 0 0 1 187.5 656.25V250A250 250 0 0 1 687.5 250V656.25A156.25 156.25 0 0 1 375 656.25V250A62.5 62.5 0 0 1 500 250V656.25A31.25 31.25 0 0 0 562.5 656.25V250A125 125 0 0 0 312.5 250V656.25A218.75 218.75 0 0 0 750 656.25V250A62.5 62.5 0 0 1 875 250V656.25A344.375 344.375 0 0 1 531.25 1000z" />
    <glyph glyph-name="attachment-lht"
      unicode="&#xF116;"
      horiz-adv-x="1000" d="M0 1000H1000V0H0V1000zM531.25 1000A344.375 344.375 0 0 1 187.5 656.25V250A250 250 0 0 1 687.5 250V656.25A156.25 156.25 0 0 1 375 656.25V250A62.5 62.5 0 0 1 500 250V656.25A31.25 31.25 0 0 0 562.5 656.25V250A125 125 0 0 0 312.5 250V656.25A218.75 218.75 0 0 0 750 656.25V250A62.5 62.5 0 0 1 875 250V656.25A344.375 344.375 0 0 1 531.25 1000z" />
    <glyph glyph-name="attachment-lht-1"
      unicode="&#x61;&#x74;&#x74;&#x61;&#x63;&#x68;&#x6D;&#x65;&#x6E;&#x74;&#x2D;&#x6C;&#x68;&#x74;"
      horiz-adv-x="1000" d="M0 1000H1000V0H0V1000zM531.25 1000A344.375 344.375 0 0 1 187.5 656.25V250A250 250 0 0 1 687.5 250V656.25A156.25 156.25 0 0 1 375 656.25V250A62.5 62.5 0 0 1 500 250V656.25A31.25 31.25 0 0 0 562.5 656.25V250A125 125 0 0 0 312.5 250V656.25A218.75 218.75 0 0 0 750 656.25V250A62.5 62.5 0 0 1 875 250V656.25A344.375 344.375 0 0 1 531.25 1000z" />
    <glyph glyph-name="basket-drk"
      unicode="&#xF117;"
      horiz-adv-x="1000" d="M0 1000H1000V0H0V1000zM781.25 0H218.75A62.5 62.5 0 0 0 156.25 43.75L0 543.75A62.5 62.5 0 0 0 62.5 625H937.5A62.5 62.5 0 0 0 1000 543.75L843.75 43.75A62.5 62.5 0 0 0 781.25 0zM265 125H735L852.5 500H147.5zM500 687.5A62.5 62.5 0 0 0 437.5 750V937.5A62.5 62.5 0 0 0 562.5 937.5V750A62.5 62.5 0 0 0 500 687.5z" />
    <glyph glyph-name="basket-drk-1"
      unicode="&#x62;&#x61;&#x73;&#x6B;&#x65;&#x74;&#x2D;&#x64;&#x72;&#x6B;"
      horiz-adv-x="1000" d="M0 1000H1000V0H0V1000zM781.25 0H218.75A62.5 62.5 0 0 0 156.25 43.75L0 543.75A62.5 62.5 0 0 0 62.5 625H937.5A62.5 62.5 0 0 0 1000 543.75L843.75 43.75A62.5 62.5 0 0 0 781.25 0zM265 125H735L852.5 500H147.5zM500 687.5A62.5 62.5 0 0 0 437.5 750V937.5A62.5 62.5 0 0 0 562.5 937.5V750A62.5 62.5 0 0 0 500 687.5z" />
    <glyph glyph-name="basket-lht"
      unicode="&#xF118;"
      horiz-adv-x="1000" d="M0 1000H1000V0H0V1000zM781.25 0H218.75A62.5 62.5 0 0 0 156.25 43.75L0 543.75A62.5 62.5 0 0 0 62.5 625H937.5A62.5 62.5 0 0 0 1000 543.75L843.75 43.75A62.5 62.5 0 0 0 781.25 0zM265 125H735L852.5 500H147.5zM500 687.5A62.5 62.5 0 0 0 437.5 750V937.5A62.5 62.5 0 0 0 562.5 937.5V750A62.5 62.5 0 0 0 500 687.5z" />
    <glyph glyph-name="basket-lht-1"
      unicode="&#x62;&#x61;&#x73;&#x6B;&#x65;&#x74;&#x2D;&#x6C;&#x68;&#x74;"
      horiz-adv-x="1000" d="M0 1000H1000V0H0V1000zM781.25 0H218.75A62.5 62.5 0 0 0 156.25 43.75L0 543.75A62.5 62.5 0 0 0 62.5 625H937.5A62.5 62.5 0 0 0 1000 543.75L843.75 43.75A62.5 62.5 0 0 0 781.25 0zM265 125H735L852.5 500H147.5zM500 687.5A62.5 62.5 0 0 0 437.5 750V937.5A62.5 62.5 0 0 0 562.5 937.5V750A62.5 62.5 0 0 0 500 687.5z" />
    <glyph glyph-name="bookmark-drk"
      unicode="&#xF119;"
      horiz-adv-x="1000" d="M0 1000H1000V0H0V1000zM187.5 1000V32.5A36.25 36.25 0 0 1 226.875 0A45.62499999999999 45.62499999999999 0 0 1 254.3750000000001 9.375L500 187.5L745.625 9.375A45.62499999999999 45.62499999999999 0 0 1 773.125 0A36.25 36.25 0 0 1 812.5 32.5V1000zM687.5 871.875V750H315.625V871.875zM575 291.25L500 345.625L425 291.25L315.625 211.875V625H687.5V213.125z" />
    <glyph glyph-name="bookmark-drk-1"
      unicode="&#x62;&#x6F;&#x6F;&#x6B;&#x6D;&#x61;&#x72;&#x6B;&#x2D;&#x64;&#x72;&#x6B;"
      horiz-adv-x="1000" d="M0 1000H1000V0H0V1000zM187.5 1000V32.5A36.25 36.25 0 0 1 226.875 0A45.62499999999999 45.62499999999999 0 0 1 254.3750000000001 9.375L500 187.5L745.625 9.375A45.62499999999999 45.62499999999999 0 0 1 773.125 0A36.25 36.25 0 0 1 812.5 32.5V1000zM687.5 871.875V750H315.625V871.875zM575 291.25L500 345.625L425 291.25L315.625 211.875V625H687.5V213.125z" />
    <glyph glyph-name="bookmark-lht"
      unicode="&#xF11A;"
      horiz-adv-x="1000" d="M0 1000H1000V0H0V1000zM187.5 1000V32.5A36.25 36.25 0 0 1 226.875 0A45.62499999999999 45.62499999999999 0 0 1 254.3750000000001 9.375L500 187.5L745.625 9.375A45.62499999999999 45.62499999999999 0 0 1 773.125 0A36.25 36.25 0 0 1 812.5 32.5V1000zM687.5 871.875V750H315.625V871.875zM575 291.25L500 345.625L425 291.25L315.625 211.875V625H687.5V213.125z" />
    <glyph glyph-name="bookmark-lht-1"
      unicode="&#x62;&#x6F;&#x6F;&#x6B;&#x6D;&#x61;&#x72;&#x6B;&#x2D;&#x6C;&#x68;&#x74;"
      horiz-adv-x="1000" d="M0 1000H1000V0H0V1000zM187.5 1000V32.5A36.25 36.25 0 0 1 226.875 0A45.62499999999999 45.62499999999999 0 0 1 254.3750000000001 9.375L500 187.5L745.625 9.375A45.62499999999999 45.62499999999999 0 0 1 773.125 0A36.25 36.25 0 0 1 812.5 32.5V1000zM687.5 871.875V750H315.625V871.875zM575 291.25L500 345.625L425 291.25L315.625 211.875V625H687.5V213.125z" />
    <glyph glyph-name="calendar-drk"
      unicode="&#xF11B;"
      horiz-adv-x="1000" d="M0 1000H1000V0H0V1000zM937.5 875H812.5V937.5A62.5 62.5 0 0 1 687.5 937.5V875H312.5V937.5A62.5 62.5 0 0 1 187.5 937.5V875H62.5A62.5 62.5 0 0 1 0 812.5V62.5A62.5 62.5 0 0 1 62.5 0H687.5A62.5 62.5 0 0 1 731.25 18.125H731.25L981.25 268.125H981.25S981.25 268.125 981.25 268.125A57.50000000000001 57.50000000000001 0 0 1 993.7499999999998 287.5A72.5 72.5 0 0 1 998.1249999999998 306.875S1000 312.5 1000 312.5V812.5A62.5 62.5 0 0 1 937.5 875zM687.5 151.25V312.5H847.5zM875 750V437.5H625A62.5 62.5 0 0 1 562.5 375V125H125V750z" />
    <glyph glyph-name="calendar-drk-1"
      unicode="&#x63;&#x61;&#x6C;&#x65;&#x6E;&#x64;&#x61;&#x72;&#x2D;&#x64;&#x72;&#x6B;"
      horiz-adv-x="1000" d="M0 1000H1000V0H0V1000zM937.5 875H812.5V937.5A62.5 62.5 0 0 1 687.5 937.5V875H312.5V937.5A62.5 62.5 0 0 1 187.5 937.5V875H62.5A62.5 62.5 0 0 1 0 812.5V62.5A62.5 62.5 0 0 1 62.5 0H687.5A62.5 62.5 0 0 1 731.25 18.125H731.25L981.25 268.125H981.25S981.25 268.125 981.25 268.125A57.50000000000001 57.50000000000001 0 0 1 993.7499999999998 287.5A72.5 72.5 0 0 1 998.1249999999998 306.875S1000 312.5 1000 312.5V812.5A62.5 62.5 0 0 1 937.5 875zM687.5 151.25V312.5H847.5zM875 750V437.5H625A62.5 62.5 0 0 1 562.5 375V125H125V750z" />
    <glyph glyph-name="calendar-lht"
      unicode="&#xF11C;"
      horiz-adv-x="1000" d="M0 1000H1000V0H0V1000zM937.5 875H812.5V937.5A62.5 62.5 0 0 1 687.5 937.5V875H312.5V937.5A62.5 62.5 0 0 1 187.5 937.5V875H62.5A62.5 62.5 0 0 1 0 812.5V62.5A62.5 62.5 0 0 1 62.5 0H687.5A62.5 62.5 0 0 1 731.25 18.125H731.25L981.25 268.125H981.25S981.25 268.125 981.25 268.125A57.50000000000001 57.50000000000001 0 0 1 993.7499999999998 287.5A72.5 72.5 0 0 1 998.1249999999998 306.875S1000 312.5 1000 312.5V812.5A62.5 62.5 0 0 1 937.5 875zM687.5 151.25V312.5H847.5zM875 750V437.5H625A62.5 62.5 0 0 1 562.5 375V125H125V750z" />
    <glyph glyph-name="calendar-lht-1"
      unicode="&#x63;&#x61;&#x6C;&#x65;&#x6E;&#x64;&#x61;&#x72;&#x2D;&#x6C;&#x68;&#x74;"
      horiz-adv-x="1000" d="M0 1000H1000V0H0V1000zM937.5 875H812.5V937.5A62.5 62.5 0 0 1 687.5 937.5V875H312.5V937.5A62.5 62.5 0 0 1 187.5 937.5V875H62.5A62.5 62.5 0 0 1 0 812.5V62.5A62.5 62.5 0 0 1 62.5 0H687.5A62.5 62.5 0 0 1 731.25 18.125H731.25L981.25 268.125H981.25S981.25 268.125 981.25 268.125A57.50000000000001 57.50000000000001 0 0 1 993.7499999999998 287.5A72.5 72.5 0 0 1 998.1249999999998 306.875S1000 312.5 1000 312.5V812.5A62.5 62.5 0 0 1 937.5 875zM687.5 151.25V312.5H847.5zM875 750V437.5H625A62.5 62.5 0 0 1 562.5 375V125H125V750z" />
    <glyph glyph-name="cart-drk"
      unicode="&#xF11D;"
      horiz-adv-x="1000" d="M0 1000H1000V0H0V1000zM281.25 125A62.5 62.5 0 0 1 406.25 125A62.5 62.5 0 0 1 281.25 125M718.75 125A62.5 62.5 0 0 1 843.75 125A62.5 62.5 0 0 1 718.75 125M987.5 787.5A62.5 62.5 0 0 1 937.5 812.5H265.625L250 888.75A62.5 62.5 0 0 1 187.5 937.5H62.5A62.5 62.5 0 0 1 62.5 812.5H137.5L153.75 738.125A6.874999999999999 6.874999999999999 0 0 0 153.75 738.125L250.625 300.625A62.5 62.5 0 0 1 312.5 250H812.5A62.5 62.5 0 0 1 875 295.625L1000 733.125A62.5 62.5 0 0 1 987.5 787.5zM765.625 375H362.5L293.125 687.5H855.6250000000001z" />
    <glyph glyph-name="cart-drk-1"
      unicode="&#x63;&#x61;&#x72;&#x74;&#x2D;&#x64;&#x72;&#x6B;"
      horiz-adv-x="1000" d="M0 1000H1000V0H0V1000zM281.25 125A62.5 62.5 0 0 1 406.25 125A62.5 62.5 0 0 1 281.25 125M718.75 125A62.5 62.5 0 0 1 843.75 125A62.5 62.5 0 0 1 718.75 125M987.5 787.5A62.5 62.5 0 0 1 937.5 812.5H265.625L250 888.75A62.5 62.5 0 0 1 187.5 937.5H62.5A62.5 62.5 0 0 1 62.5 812.5H137.5L153.75 738.125A6.874999999999999 6.874999999999999 0 0 0 153.75 738.125L250.625 300.625A62.5 62.5 0 0 1 312.5 250H812.5A62.5 62.5 0 0 1 875 295.625L1000 733.125A62.5 62.5 0 0 1 987.5 787.5zM765.625 375H362.5L293.125 687.5H855.6250000000001z" />
    <glyph glyph-name="cart-lht"
      unicode="&#xF11E;"
      horiz-adv-x="1000" d="M0 1000H1000V0H0V1000zM281.25 125A62.5 62.5 0 0 1 406.25 125A62.5 62.5 0 0 1 281.25 125M718.75 125A62.5 62.5 0 0 1 843.75 125A62.5 62.5 0 0 1 718.75 125M987.5 787.5A62.5 62.5 0 0 1 937.5 812.5H265.625L250 888.75A62.5 62.5 0 0 1 187.5 937.5H62.5A62.5 62.5 0 0 1 62.5 812.5H137.5L153.75 738.125A6.874999999999999 6.874999999999999 0 0 0 153.75 738.125L250.625 300.625A62.5 62.5 0 0 1 312.5 250H812.5A62.5 62.5 0 0 1 875 295.625L1000 733.125A62.5 62.5 0 0 1 987.5 787.5zM765.625 375H362.5L293.125 687.5H855.6250000000001z" />
    <glyph glyph-name="cart-lht-1"
      unicode="&#x63;&#x61;&#x72;&#x74;&#x2D;&#x6C;&#x68;&#x74;"
      horiz-adv-x="1000" d="M0 1000H1000V0H0V1000zM281.25 125A62.5 62.5 0 0 1 406.25 125A62.5 62.5 0 0 1 281.25 125M718.75 125A62.5 62.5 0 0 1 843.75 125A62.5 62.5 0 0 1 718.75 125M987.5 787.5A62.5 62.5 0 0 1 937.5 812.5H265.625L250 888.75A62.5 62.5 0 0 1 187.5 937.5H62.5A62.5 62.5 0 0 1 62.5 812.5H137.5L153.75 738.125A6.874999999999999 6.874999999999999 0 0 0 153.75 738.125L250.625 300.625A62.5 62.5 0 0 1 312.5 250H812.5A62.5 62.5 0 0 1 875 295.625L1000 733.125A62.5 62.5 0 0 1 987.5 787.5zM765.625 375H362.5L293.125 687.5H855.6250000000001z" />
    <glyph glyph-name="check-drk"
      unicode="&#xF11F;"
      horiz-adv-x="1000" d="M0 1000H1000V0H0V1000zM979.375 858.75A62.5 62.5 0 0 1 891.25 854.375L375 278.125L106.875 544.375A62.5 62.5 0 1 1 18.125 455.625L330.625 143.125H330.625S330.625 143.125 330.625 143.125A36.87499999999999 36.87499999999999 0 0 1 343.125 135.625L350.0000000000001 131.25A68.75 68.75 0 0 1 375 125H375A68.12500000000001 68.12500000000001 0 0 1 399.375 130L406.25 135A57.50000000000001 57.50000000000001 0 0 1 419.375 143.1250000000001S419.375 143.1250000000001 419.375 143.1250000000001H419.375L981.875 768.125A62.5 62.5 0 0 1 979.375 858.75z" />
    <glyph glyph-name="check-drk-1"
      unicode="&#x63;&#x68;&#x65;&#x63;&#x6B;&#x2D;&#x64;&#x72;&#x6B;"
      horiz-adv-x="1000" d="M0 1000H1000V0H0V1000zM979.375 858.75A62.5 62.5 0 0 1 891.25 854.375L375 278.125L106.875 544.375A62.5 62.5 0 1 1 18.125 455.625L330.625 143.125H330.625S330.625 143.125 330.625 143.125A36.87499999999999 36.87499999999999 0 0 1 343.125 135.625L350.0000000000001 131.25A68.75 68.75 0 0 1 375 125H375A68.12500000000001 68.12500000000001 0 0 1 399.375 130L406.25 135A57.50000000000001 57.50000000000001 0 0 1 419.375 143.1250000000001S419.375 143.1250000000001 419.375 143.1250000000001H419.375L981.875 768.125A62.5 62.5 0 0 1 979.375 858.75z" />
    <glyph glyph-name="check-lht"
      unicode="&#xF120;"
      horiz-adv-x="1000" d="M0 1000H1000V0H0V1000zM979.375 858.75A62.5 62.5 0 0 1 891.25 854.375L375 278.125L106.875 544.375A62.5 62.5 0 1 1 18.125 455.625L330.625 143.125H330.625S330.625 143.125 330.625 143.125A36.87499999999999 36.87499999999999 0 0 1 343.125 135.625L350.0000000000001 131.25A68.75 68.75 0 0 1 375 125H375A68.12500000000001 68.12500000000001 0 0 1 399.375 130L406.25 135A57.50000000000001 57.50000000000001 0 0 1 419.375 143.1250000000001S419.375 143.1250000000001 419.375 143.1250000000001H419.375L981.875 768.125A62.5 62.5 0 0 1 979.375 858.75z" />
    <glyph glyph-name="check-lht-1"
      unicode="&#x63;&#x68;&#x65;&#x63;&#x6B;&#x2D;&#x6C;&#x68;&#x74;"
      horiz-adv-x="1000" d="M0 1000H1000V0H0V1000zM979.375 858.75A62.5 62.5 0 0 1 891.25 854.375L375 278.125L106.875 544.375A62.5 62.5 0 1 1 18.125 455.625L330.625 143.125H330.625S330.625 143.125 330.625 143.125A36.87499999999999 36.87499999999999 0 0 1 343.125 135.625L350.0000000000001 131.25A68.75 68.75 0 0 1 375 125H375A68.12500000000001 68.12500000000001 0 0 1 399.375 130L406.25 135A57.50000000000001 57.50000000000001 0 0 1 419.375 143.1250000000001S419.375 143.1250000000001 419.375 143.1250000000001H419.375L981.875 768.125A62.5 62.5 0 0 1 979.375 858.75z" />
    <glyph glyph-name="comment-drk"
      unicode="&#xF121;"
      horiz-adv-x="1000" d="M0 1000H1000V0H0V1000zM937.5 1000H62.5A62.5 62.5 0 0 1 0 937.5V62.5A62.5 62.5 0 0 1 5 38.75A62.5 62.5 0 0 1 38.75 4.9999999999999A62.5 62.5 0 0 1 62.5 0A62.5 62.5 0 0 1 86.25 5A62.5 62.5 0 0 1 106.875 18.1250000000001L338.125 250H937.5A62.5 62.5 0 0 1 1000 312.5V937.5A62.5 62.5 0 0 1 937.5 1000zM312.5 375A62.5 62.5 0 0 1 288.75 370A62.5 62.5 0 0 1 268.125 356.8749999999999L125 213.125V875H875V375z" />
    <glyph glyph-name="comment-drk-1"
      unicode="&#x63;&#x6F;&#x6D;&#x6D;&#x65;&#x6E;&#x74;&#x2D;&#x64;&#x72;&#x6B;"
      horiz-adv-x="1000" d="M0 1000H1000V0H0V1000zM937.5 1000H62.5A62.5 62.5 0 0 1 0 937.5V62.5A62.5 62.5 0 0 1 5 38.75A62.5 62.5 0 0 1 38.75 4.9999999999999A62.5 62.5 0 0 1 62.5 0A62.5 62.5 0 0 1 86.25 5A62.5 62.5 0 0 1 106.875 18.1250000000001L338.125 250H937.5A62.5 62.5 0 0 1 1000 312.5V937.5A62.5 62.5 0 0 1 937.5 1000zM312.5 375A62.5 62.5 0 0 1 288.75 370A62.5 62.5 0 0 1 268.125 356.8749999999999L125 213.125V875H875V375z" />
    <glyph glyph-name="comment-lht"
      unicode="&#xF122;"
      horiz-adv-x="1000" d="M0 1000H1000V0H0V1000zM937.5 1000H62.5A62.5 62.5 0 0 1 0 937.5V62.5A62.5 62.5 0 0 1 5 38.75A62.5 62.5 0 0 1 38.75 4.9999999999999A62.5 62.5 0 0 1 62.5 0A62.5 62.5 0 0 1 86.25 5A62.5 62.5 0 0 1 106.875 18.1250000000001L338.125 250H937.5A62.5 62.5 0 0 1 1000 312.5V937.5A62.5 62.5 0 0 1 937.5 1000zM312.5 375A62.5 62.5 0 0 1 288.75 370A62.5 62.5 0 0 1 268.125 356.8749999999999L125 213.125V875H875V375z" />
    <glyph glyph-name="comment-lht-1"
      unicode="&#x63;&#x6F;&#x6D;&#x6D;&#x65;&#x6E;&#x74;&#x2D;&#x6C;&#x68;&#x74;"
      horiz-adv-x="1000" d="M0 1000H1000V0H0V1000zM937.5 1000H62.5A62.5 62.5 0 0 1 0 937.5V62.5A62.5 62.5 0 0 1 5 38.75A62.5 62.5 0 0 1 38.75 4.9999999999999A62.5 62.5 0 0 1 62.5 0A62.5 62.5 0 0 1 86.25 5A62.5 62.5 0 0 1 106.875 18.1250000000001L338.125 250H937.5A62.5 62.5 0 0 1 1000 312.5V937.5A62.5 62.5 0 0 1 937.5 1000zM312.5 375A62.5 62.5 0 0 1 288.75 370A62.5 62.5 0 0 1 268.125 356.8749999999999L125 213.125V875H875V375z" />
    <glyph glyph-name="discussion-drk"
      unicode="&#xF123;"
      horiz-adv-x="1000" d="M0 1000H1000V0H0V1000zM937.5 1000H62.5A62.5 62.5 0 0 1 0 937.5V62.5A62.5 62.5 0 0 1 5 38.75A62.5 62.5 0 0 1 38.75 4.9999999999999A62.5 62.5 0 0 1 62.5 0A62.5 62.5 0 0 1 86.25 5A62.5 62.5 0 0 1 106.875 18.1250000000001L338.125 250H937.5A62.5 62.5 0 0 1 1000 312.5V937.5A62.5 62.5 0 0 1 937.5 1000zM312.5 375A62.5 62.5 0 0 1 288.75 370A62.5 62.5 0 0 1 268.125 356.8749999999999L125 213.125V875H875V375zM718.75 781.25H281.25A62.5 62.5 0 0 1 281.25 656.25H718.75A62.5 62.5 0 0 1 718.75 781.25zM625 593.75H281.25A62.5 62.5 0 0 1 281.25 468.75H625A62.5 62.5 0 0 1 625 593.75z" />
    <glyph glyph-name="discussion-drk-1"
      unicode="&#x64;&#x69;&#x73;&#x63;&#x75;&#x73;&#x73;&#x69;&#x6F;&#x6E;&#x2D;&#x64;&#x72;&#x6B;"
      horiz-adv-x="1000" d="M0 1000H1000V0H0V1000zM937.5 1000H62.5A62.5 62.5 0 0 1 0 937.5V62.5A62.5 62.5 0 0 1 5 38.75A62.5 62.5 0 0 1 38.75 4.9999999999999A62.5 62.5 0 0 1 62.5 0A62.5 62.5 0 0 1 86.25 5A62.5 62.5 0 0 1 106.875 18.1250000000001L338.125 250H937.5A62.5 62.5 0 0 1 1000 312.5V937.5A62.5 62.5 0 0 1 937.5 1000zM312.5 375A62.5 62.5 0 0 1 288.75 370A62.5 62.5 0 0 1 268.125 356.8749999999999L125 213.125V875H875V375zM718.75 781.25H281.25A62.5 62.5 0 0 1 281.25 656.25H718.75A62.5 62.5 0 0 1 718.75 781.25zM625 593.75H281.25A62.5 62.5 0 0 1 281.25 468.75H625A62.5 62.5 0 0 1 625 593.75z" />
    <glyph glyph-name="discussion-lht"
      unicode="&#xF124;"
      horiz-adv-x="1000" d="M0 1000H1000V0H0V1000zM937.5 1000H62.5A62.5 62.5 0 0 1 0 937.5V62.5A62.5 62.5 0 0 1 5 38.75A62.5 62.5 0 0 1 38.75 4.9999999999999A62.5 62.5 0 0 1 62.5 0A62.5 62.5 0 0 1 86.25 5A62.5 62.5 0 0 1 106.875 18.1250000000001L338.125 250H937.5A62.5 62.5 0 0 1 1000 312.5V937.5A62.5 62.5 0 0 1 937.5 1000zM312.5 375A62.5 62.5 0 0 1 288.75 370A62.5 62.5 0 0 1 268.125 356.8749999999999L125 213.125V875H875V375zM718.75 781.25H281.25A62.5 62.5 0 0 1 281.25 656.25H718.75A62.5 62.5 0 0 1 718.75 781.25zM625 593.75H281.25A62.5 62.5 0 0 1 281.25 468.75H625A62.5 62.5 0 0 1 625 593.75z" />
    <glyph glyph-name="discussion-lht-1"
      unicode="&#x64;&#x69;&#x73;&#x63;&#x75;&#x73;&#x73;&#x69;&#x6F;&#x6E;&#x2D;&#x6C;&#x68;&#x74;"
      horiz-adv-x="1000" d="M0 1000H1000V0H0V1000zM937.5 1000H62.5A62.5 62.5 0 0 1 0 937.5V62.5A62.5 62.5 0 0 1 5 38.75A62.5 62.5 0 0 1 38.75 4.9999999999999A62.5 62.5 0 0 1 62.5 0A62.5 62.5 0 0 1 86.25 5A62.5 62.5 0 0 1 106.875 18.1250000000001L338.125 250H937.5A62.5 62.5 0 0 1 1000 312.5V937.5A62.5 62.5 0 0 1 937.5 1000zM312.5 375A62.5 62.5 0 0 1 288.75 370A62.5 62.5 0 0 1 268.125 356.8749999999999L125 213.125V875H875V375zM718.75 781.25H281.25A62.5 62.5 0 0 1 281.25 656.25H718.75A62.5 62.5 0 0 1 718.75 781.25zM625 593.75H281.25A62.5 62.5 0 0 1 281.25 468.75H625A62.5 62.5 0 0 1 625 593.75z" />
    <glyph glyph-name="document-drk"
      unicode="&#xF125;"
      horiz-adv-x="1000" d="M0 1000H1000V0H0V1000zM870 711.25A62.5 62.5 0 0 1 856.8749999999999 731.875L606.8749999999999 981.875A62.5 62.5 0 0 1 586.25 995A62.5 62.5 0 0 1 562.5 1000H187.5A62.5 62.5 0 0 1 125 937.5V62.5A62.5 62.5 0 0 1 187.5 0H812.5A62.5 62.5 0 0 1 875 62.5V687.5A62.5 62.5 0 0 1 870 711.25zM724.375 687.5H562.5V849.375zM437.5 625A62.5 62.5 0 0 1 500 562.5H750V125H250V875H437.5z" />
    <glyph glyph-name="document-drk-1"
      unicode="&#x64;&#x6F;&#x63;&#x75;&#x6D;&#x65;&#x6E;&#x74;&#x2D;&#x64;&#x72;&#x6B;"
      horiz-adv-x="1000" d="M0 1000H1000V0H0V1000zM870 711.25A62.5 62.5 0 0 1 856.8749999999999 731.875L606.8749999999999 981.875A62.5 62.5 0 0 1 586.25 995A62.5 62.5 0 0 1 562.5 1000H187.5A62.5 62.5 0 0 1 125 937.5V62.5A62.5 62.5 0 0 1 187.5 0H812.5A62.5 62.5 0 0 1 875 62.5V687.5A62.5 62.5 0 0 1 870 711.25zM724.375 687.5H562.5V849.375zM437.5 625A62.5 62.5 0 0 1 500 562.5H750V125H250V875H437.5z" />
    <glyph glyph-name="document-lht"
      unicode="&#xF126;"
      horiz-adv-x="1000" d="M0 1000H1000V0H0V1000zM870 711.25A62.5 62.5 0 0 1 856.8749999999999 731.875L606.8749999999999 981.875A62.5 62.5 0 0 1 586.25 995A62.5 62.5 0 0 1 562.5 1000H187.5A62.5 62.5 0 0 1 125 937.5V62.5A62.5 62.5 0 0 1 187.5 0H812.5A62.5 62.5 0 0 1 875 62.5V687.5A62.5 62.5 0 0 1 870 711.25zM724.375 687.5H562.5V849.375zM437.5 625A62.5 62.5 0 0 1 500 562.5H750V125H250V875H437.5z" />
    <glyph glyph-name="document-lht-1"
      unicode="&#x64;&#x6F;&#x63;&#x75;&#x6D;&#x65;&#x6E;&#x74;&#x2D;&#x6C;&#x68;&#x74;"
      horiz-adv-x="1000" d="M0 1000H1000V0H0V1000zM870 711.25A62.5 62.5 0 0 1 856.8749999999999 731.875L606.8749999999999 981.875A62.5 62.5 0 0 1 586.25 995A62.5 62.5 0 0 1 562.5 1000H187.5A62.5 62.5 0 0 1 125 937.5V62.5A62.5 62.5 0 0 1 187.5 0H812.5A62.5 62.5 0 0 1 875 62.5V687.5A62.5 62.5 0 0 1 870 711.25zM724.375 687.5H562.5V849.375zM437.5 625A62.5 62.5 0 0 1 500 562.5H750V125H250V875H437.5z" />
    <glyph glyph-name="edit-write-drk"
      unicode="&#xF127;"
      horiz-adv-x="1000" d="M0 1000H1000V0H0V1000zM981.875 794.375L794.375 981.875A62.5 62.5 0 0 1 705.6250000000001 981.875L18.1250000000001 294.375A62.5 62.5 0 0 1 0 250V62.5A62.5 62.5 0 0 1 62.5 0H250A62.5 62.5 0 0 1 294.375 18.125L981.875 705.625A62.5 62.5 0 0 1 981.875 794.375zM224.375 125H125V224.375L593.75 693.125L693.125 593.75zM781.25 681.875L681.875 781.25L750 849.375L849.375 750z" />
    <glyph glyph-name="edit-write-drk-1"
      unicode="&#x65;&#x64;&#x69;&#x74;&#x2D;&#x77;&#x72;&#x69;&#x74;&#x65;&#x2D;&#x64;&#x72;&#x6B;"
      horiz-adv-x="1000" d="M0 1000H1000V0H0V1000zM981.875 794.375L794.375 981.875A62.5 62.5 0 0 1 705.6250000000001 981.875L18.1250000000001 294.375A62.5 62.5 0 0 1 0 250V62.5A62.5 62.5 0 0 1 62.5 0H250A62.5 62.5 0 0 1 294.375 18.125L981.875 705.625A62.5 62.5 0 0 1 981.875 794.375zM224.375 125H125V224.375L593.75 693.125L693.125 593.75zM781.25 681.875L681.875 781.25L750 849.375L849.375 750z" />
    <glyph glyph-name="edit-write-lht"
      unicode="&#xF128;"
      horiz-adv-x="1000" d="M0 1000H1000V0H0V1000zM981.875 794.375L794.375 981.875A62.5 62.5 0 0 1 705.6250000000001 981.875L18.1250000000001 294.375A62.5 62.5 0 0 1 0 250V62.5A62.5 62.5 0 0 1 62.5 0H250A62.5 62.5 0 0 1 294.375 18.125L981.875 705.625A62.5 62.5 0 0 1 981.875 794.375zM224.375 125H125V224.375L593.75 693.125L693.125 593.75zM781.25 681.875L681.875 781.25L750 849.375L849.375 750z" />
    <glyph glyph-name="edit-write-lht-1"
      unicode="&#x65;&#x64;&#x69;&#x74;&#x2D;&#x77;&#x72;&#x69;&#x74;&#x65;&#x2D;&#x6C;&#x68;&#x74;"
      horiz-adv-x="1000" d="M0 1000H1000V0H0V1000zM981.875 794.375L794.375 981.875A62.5 62.5 0 0 1 705.6250000000001 981.875L18.1250000000001 294.375A62.5 62.5 0 0 1 0 250V62.5A62.5 62.5 0 0 1 62.5 0H250A62.5 62.5 0 0 1 294.375 18.125L981.875 705.625A62.5 62.5 0 0 1 981.875 794.375zM224.375 125H125V224.375L593.75 693.125L693.125 593.75zM781.25 681.875L681.875 781.25L750 849.375L849.375 750z" />
    <glyph glyph-name="email-drk"
      unicode="&#xF129;"
      horiz-adv-x="1000" d="M1000 1000L1000 0L0 0L-1e-13 1000L999.9999999999998 1000.0000000000002zM939.375 875H64.375A62.5 62.5 0 0 1 1.875 812.5V187.5A62.5 62.5 0 0 1 64.375 125H939.375A62.5 62.5 0 0 1 1001.8750000000002 187.5V812.5A62.5 62.5 0 0 1 939.375 875zM501.8749999999999 518.75L229.375 744.375H770.625zM130.625 255.625V664.375L459.9999999999999 389.375L469.375 384.375A37.5 37.5 0 0 1 476.25 380.625A54.99999999999999 54.99999999999999 0 0 1 501.8749999999999 375H501.8749999999999A53.125 53.125 0 0 1 525.625 380.625A37.5 37.5 0 0 1 532.5 384.375L541.875 389.375L871.25 664.375V255.625z" />
    <glyph glyph-name="email-drk-1"
      unicode="&#x65;&#x6D;&#x61;&#x69;&#x6C;&#x2D;&#x64;&#x72;&#x6B;"
      horiz-adv-x="1000" d="M1000 1000L1000 0L0 0L-1e-13 1000L999.9999999999998 1000.0000000000002zM939.375 875H64.375A62.5 62.5 0 0 1 1.875 812.5V187.5A62.5 62.5 0 0 1 64.375 125H939.375A62.5 62.5 0 0 1 1001.8750000000002 187.5V812.5A62.5 62.5 0 0 1 939.375 875zM501.8749999999999 518.75L229.375 744.375H770.625zM130.625 255.625V664.375L459.9999999999999 389.375L469.375 384.375A37.5 37.5 0 0 1 476.25 380.625A54.99999999999999 54.99999999999999 0 0 1 501.8749999999999 375H501.8749999999999A53.125 53.125 0 0 1 525.625 380.625A37.5 37.5 0 0 1 532.5 384.375L541.875 389.375L871.25 664.375V255.625z" />
    <glyph glyph-name="email-lht"
      unicode="&#xF12A;"
      horiz-adv-x="1000" d="M1000 1000L1000 0L0 0L-1e-13 1000L999.9999999999998 1000.0000000000002zM939.375 875H64.375A62.5 62.5 0 0 1 1.875 812.5V187.5A62.5 62.5 0 0 1 64.375 125H939.375A62.5 62.5 0 0 1 1001.8750000000002 187.5V812.5A62.5 62.5 0 0 1 939.375 875zM501.8749999999999 518.75L229.375 744.375H770.625zM130.625 255.625V664.375L459.9999999999999 389.375L469.375 384.375A37.5 37.5 0 0 1 476.25 380.625A54.99999999999999 54.99999999999999 0 0 1 501.8749999999999 375H501.8749999999999A53.125 53.125 0 0 1 525.625 380.625A37.5 37.5 0 0 1 532.5 384.375L541.875 389.375L871.25 664.375V255.625z" />
    <glyph glyph-name="email-lht-1"
      unicode="&#x65;&#x6D;&#x61;&#x69;&#x6C;&#x2D;&#x6C;&#x68;&#x74;"
      horiz-adv-x="1000" d="M1000 1000L1000 0L0 0L-1e-13 1000L999.9999999999998 1000.0000000000002zM939.375 875H64.375A62.5 62.5 0 0 1 1.875 812.5V187.5A62.5 62.5 0 0 1 64.375 125H939.375A62.5 62.5 0 0 1 1001.8750000000002 187.5V812.5A62.5 62.5 0 0 1 939.375 875zM501.8749999999999 518.75L229.375 744.375H770.625zM130.625 255.625V664.375L459.9999999999999 389.375L469.375 384.375A37.5 37.5 0 0 1 476.25 380.625A54.99999999999999 54.99999999999999 0 0 1 501.8749999999999 375H501.8749999999999A53.125 53.125 0 0 1 525.625 380.625A37.5 37.5 0 0 1 532.5 384.375L541.875 389.375L871.25 664.375V255.625z" />
    <glyph glyph-name="facebook-colr"
      unicode="&#xF12B;"
      horiz-adv-x="1000" d="M0 1000H1000V0H0V1000zM875 500A375 375 0 1 1 441.25 129.375V391.875H346.25V500H441.25V582.5A132.5 132.5 0 0 0 583.125 728.75A555.625 555.625 0 0 0 666.875 721.25V628.75H620A53.75 53.75 0 0 1 557.5 570.625V500H662.5L646.25 391.875H558.75V129.375A375 375 0 0 1 875 500zM646.25 391.875L662.5 500H558.75V570.625A53.75 53.75 0 0 0 621.25 628.75H668.125V721.25A555.625 555.625 0 0 1 584.375 728.75A132.5 132.5 0 0 1 441.25 582.5V500H346.25V391.875H441.25V129.375A396.875 396.875 0 0 1 558.75 129.375V391.875z" />
    <glyph glyph-name="facebook-colr-1"
      unicode="&#x66;&#x61;&#x63;&#x65;&#x62;&#x6F;&#x6F;&#x6B;&#x2D;&#x63;&#x6F;&#x6C;&#x72;"
      horiz-adv-x="1000" d="M0 1000H1000V0H0V1000zM875 500A375 375 0 1 1 441.25 129.375V391.875H346.25V500H441.25V582.5A132.5 132.5 0 0 0 583.125 728.75A555.625 555.625 0 0 0 666.875 721.25V628.75H620A53.75 53.75 0 0 1 557.5 570.625V500H662.5L646.25 391.875H558.75V129.375A375 375 0 0 1 875 500zM646.25 391.875L662.5 500H558.75V570.625A53.75 53.75 0 0 0 621.25 628.75H668.125V721.25A555.625 555.625 0 0 1 584.375 728.75A132.5 132.5 0 0 1 441.25 582.5V500H346.25V391.875H441.25V129.375A396.875 396.875 0 0 1 558.75 129.375V391.875z" />
    <glyph glyph-name="facebook-drk"
      unicode="&#xF12C;"
      horiz-adv-x="1000" d="M0 1000H1000V0H0V1000zM875 500A375 375 0 1 1 441.25 129.375V391.875H346.25V500H441.25V582.5A132.5 132.5 0 0 0 583.125 728.75A555.625 555.625 0 0 0 666.875 721.25V628.75H620A53.75 53.75 0 0 1 557.5 570.625V500H662.5L646.25 391.875H558.75V129.375A375 375 0 0 1 875 500zM646.25 391.875L662.5 500H558.75V570.625A53.75 53.75 0 0 0 621.25 628.75H668.125V721.25A555.625 555.625 0 0 1 584.375 728.75A132.5 132.5 0 0 1 441.25 582.5V500H346.25V391.875H441.25V129.375A396.875 396.875 0 0 1 558.75 129.375V391.875z" />
    <glyph glyph-name="facebook-drk-1"
      unicode="&#x66;&#x61;&#x63;&#x65;&#x62;&#x6F;&#x6F;&#x6B;&#x2D;&#x64;&#x72;&#x6B;"
      horiz-adv-x="1000" d="M0 1000H1000V0H0V1000zM875 500A375 375 0 1 1 441.25 129.375V391.875H346.25V500H441.25V582.5A132.5 132.5 0 0 0 583.125 728.75A555.625 555.625 0 0 0 666.875 721.25V628.75H620A53.75 53.75 0 0 1 557.5 570.625V500H662.5L646.25 391.875H558.75V129.375A375 375 0 0 1 875 500zM646.25 391.875L662.5 500H558.75V570.625A53.75 53.75 0 0 0 621.25 628.75H668.125V721.25A555.625 555.625 0 0 1 584.375 728.75A132.5 132.5 0 0 1 441.25 582.5V500H346.25V391.875H441.25V129.375A396.875 396.875 0 0 1 558.75 129.375V391.875z" />
    <glyph glyph-name="facebook-lht"
      unicode="&#xF12D;"
      horiz-adv-x="1000" d="M0 1000H1000V0H0V1000zM875 500A375 375 0 1 1 441.25 129.375V391.875H346.25V500H441.25V582.5A132.5 132.5 0 0 0 583.125 728.75A555.625 555.625 0 0 0 666.875 721.25V628.75H620A53.75 53.75 0 0 1 557.5 570.625V500H662.5L646.25 391.875H558.75V129.375A375 375 0 0 1 875 500zM646.25 391.875L662.5 500H558.75V570.625A53.75 53.75 0 0 0 621.25 628.75H668.125V721.25A555.625 555.625 0 0 1 584.375 728.75A132.5 132.5 0 0 1 441.25 582.5V500H346.25V391.875H441.25V129.375A396.875 396.875 0 0 1 558.75 129.375V391.875z" />
    <glyph glyph-name="facebook-lht-1"
      unicode="&#x66;&#x61;&#x63;&#x65;&#x62;&#x6F;&#x6F;&#x6B;&#x2D;&#x6C;&#x68;&#x74;"
      horiz-adv-x="1000" d="M0 1000H1000V0H0V1000zM875 500A375 375 0 1 1 441.25 129.375V391.875H346.25V500H441.25V582.5A132.5 132.5 0 0 0 583.125 728.75A555.625 555.625 0 0 0 666.875 721.25V628.75H620A53.75 53.75 0 0 1 557.5 570.625V500H662.5L646.25 391.875H558.75V129.375A375 375 0 0 1 875 500zM646.25 391.875L662.5 500H558.75V570.625A53.75 53.75 0 0 0 621.25 628.75H668.125V721.25A555.625 555.625 0 0 1 584.375 728.75A132.5 132.5 0 0 1 441.25 582.5V500H346.25V391.875H441.25V129.375A396.875 396.875 0 0 1 558.75 129.375V391.875z" />
    <glyph glyph-name="favorite-drk"
      unicode="&#xF12E;"
      horiz-adv-x="1000" d="M0 1000H1000V0H0V1000zM719.375 812.5A157.5 157.5 0 0 0 830.625 768.125A146.25 146.25 0 0 0 876.875 663.75A148.125 148.125 0 0 0 831.2499999999999 558.125L812.4999999999999 539.375L501.8749999999999 236.875L189.375 538.125L169.375 562.5A143.75 143.75 0 0 0 169.375 770A161.875 161.875 0 0 0 392.5 770L413.125 750L501.8749999999999 661.875L589.375 750L607.4999999999999 768.75A158.75 158.75 0 0 0 719.375 812.5M719.375 937.5A280.625 280.625 0 0 1 520.625 857.5L501.8749999999999 837.5L481.2499999999999 857.5A286.87499999999994 286.87499999999994 0 0 1 83.7499999999999 857.5A270 270 0 0 1 83.7499999999999 470L103.7499999999999 450L458.1249999999999 105A62.5 62.5 0 0 1 501.8749999999999 87.5A62.5 62.5 0 0 1 544.9999999999999 105L898.125 450L918.125 470A270 270 0 0 1 918.125 857.5A283.125 283.125 0 0 1 719.375 937.5z" />
    <glyph glyph-name="favorite-drk-1"
      unicode="&#x66;&#x61;&#x76;&#x6F;&#x72;&#x69;&#x74;&#x65;&#x2D;&#x64;&#x72;&#x6B;"
      horiz-adv-x="1000" d="M0 1000H1000V0H0V1000zM719.375 812.5A157.5 157.5 0 0 0 830.625 768.125A146.25 146.25 0 0 0 876.875 663.75A148.125 148.125 0 0 0 831.2499999999999 558.125L812.4999999999999 539.375L501.8749999999999 236.875L189.375 538.125L169.375 562.5A143.75 143.75 0 0 0 169.375 770A161.875 161.875 0 0 0 392.5 770L413.125 750L501.8749999999999 661.875L589.375 750L607.4999999999999 768.75A158.75 158.75 0 0 0 719.375 812.5M719.375 937.5A280.625 280.625 0 0 1 520.625 857.5L501.8749999999999 837.5L481.2499999999999 857.5A286.87499999999994 286.87499999999994 0 0 1 83.7499999999999 857.5A270 270 0 0 1 83.7499999999999 470L103.7499999999999 450L458.1249999999999 105A62.5 62.5 0 0 1 501.8749999999999 87.5A62.5 62.5 0 0 1 544.9999999999999 105L898.125 450L918.125 470A270 270 0 0 1 918.125 857.5A283.125 283.125 0 0 1 719.375 937.5z" />
    <glyph glyph-name="favorite-lht"
      unicode="&#xF12F;"
      horiz-adv-x="1000" d="M0 1000H1000V0H0V1000zM719.375 812.5A157.5 157.5 0 0 0 830.625 768.125A146.25 146.25 0 0 0 876.875 663.75A148.125 148.125 0 0 0 831.2499999999999 558.125L812.4999999999999 539.375L501.8749999999999 236.875L189.375 538.125L169.375 562.5A143.75 143.75 0 0 0 169.375 770A161.875 161.875 0 0 0 392.5 770L413.125 750L501.8749999999999 661.875L589.375 750L607.4999999999999 768.75A158.75 158.75 0 0 0 719.375 812.5M719.375 937.5A280.625 280.625 0 0 1 520.625 857.5L501.8749999999999 837.5L481.2499999999999 857.5A286.87499999999994 286.87499999999994 0 0 1 83.7499999999999 857.5A270 270 0 0 1 83.7499999999999 470L103.7499999999999 450L458.1249999999999 105A62.5 62.5 0 0 1 501.8749999999999 87.5A62.5 62.5 0 0 1 544.9999999999999 105L898.125 450L918.125 470A270 270 0 0 1 918.125 857.5A283.125 283.125 0 0 1 719.375 937.5z" />
    <glyph glyph-name="favorite-lht-1"
      unicode="&#x66;&#x61;&#x76;&#x6F;&#x72;&#x69;&#x74;&#x65;&#x2D;&#x6C;&#x68;&#x74;"
      horiz-adv-x="1000" d="M0 1000H1000V0H0V1000zM719.375 812.5A157.5 157.5 0 0 0 830.625 768.125A146.25 146.25 0 0 0 876.875 663.75A148.125 148.125 0 0 0 831.2499999999999 558.125L812.4999999999999 539.375L501.8749999999999 236.875L189.375 538.125L169.375 562.5A143.75 143.75 0 0 0 169.375 770A161.875 161.875 0 0 0 392.5 770L413.125 750L501.8749999999999 661.875L589.375 750L607.4999999999999 768.75A158.75 158.75 0 0 0 719.375 812.5M719.375 937.5A280.625 280.625 0 0 1 520.625 857.5L501.8749999999999 837.5L481.2499999999999 857.5A286.87499999999994 286.87499999999994 0 0 1 83.7499999999999 857.5A270 270 0 0 1 83.7499999999999 470L103.7499999999999 450L458.1249999999999 105A62.5 62.5 0 0 1 501.8749999999999 87.5A62.5 62.5 0 0 1 544.9999999999999 105L898.125 450L918.125 470A270 270 0 0 1 918.125 857.5A283.125 283.125 0 0 1 719.375 937.5z" />
    <glyph glyph-name="feedback-drk"
      unicode="&#xF130;"
      horiz-adv-x="1000" d="M0 1000H1000V0H0V1000zM1000 687.5A62.5 62.5 0 0 1 937.5 750H750V937.5A62.5 62.5 0 0 1 687.5 1000H62.5A62.5 62.5 0 0 1 0 937.5V491.2499999999999A62.5 62.5 0 0 1 62.5 428.75H250V241.25A62.5 62.5 0 0 1 312.5 178.75H733.125L893.1250000000001 18.125A62.5 62.5 0 0 1 913.7500000000002 4.9999999999999A58.74999999999999 58.74999999999999 0 0 1 961.25 4.9999999999999A62.5 62.5 0 0 1 995.0000000000002 38.7499999999999A62.5 62.5 0 0 1 1000 62.5zM782.5 298.7500000000001A62.5 62.5 0 0 1 758.7499999999999 303.7500000000001H375V625H875V213.125L803.125 285A51.87499999999999 51.87499999999999 0 0 1 782.5 298.75zM125 553.75V875H625V750H312.5A62.5 62.5 0 0 1 250 687.5V553.75z" />
    <glyph glyph-name="feedback-drk-1"
      unicode="&#x66;&#x65;&#x65;&#x64;&#x62;&#x61;&#x63;&#x6B;&#x2D;&#x64;&#x72;&#x6B;"
      horiz-adv-x="1000" d="M0 1000H1000V0H0V1000zM1000 687.5A62.5 62.5 0 0 1 937.5 750H750V937.5A62.5 62.5 0 0 1 687.5 1000H62.5A62.5 62.5 0 0 1 0 937.5V491.2499999999999A62.5 62.5 0 0 1 62.5 428.75H250V241.25A62.5 62.5 0 0 1 312.5 178.75H733.125L893.1250000000001 18.125A62.5 62.5 0 0 1 913.7500000000002 4.9999999999999A58.74999999999999 58.74999999999999 0 0 1 961.25 4.9999999999999A62.5 62.5 0 0 1 995.0000000000002 38.7499999999999A62.5 62.5 0 0 1 1000 62.5zM782.5 298.7500000000001A62.5 62.5 0 0 1 758.7499999999999 303.7500000000001H375V625H875V213.125L803.125 285A51.87499999999999 51.87499999999999 0 0 1 782.5 298.75zM125 553.75V875H625V750H312.5A62.5 62.5 0 0 1 250 687.5V553.75z" />
    <glyph glyph-name="feedback-lht"
      unicode="&#xF131;"
      horiz-adv-x="1000" d="M0 1000H1000V0H0V1000zM1000 687.5A62.5 62.5 0 0 1 937.5 750H750V937.5A62.5 62.5 0 0 1 687.5 1000H62.5A62.5 62.5 0 0 1 0 937.5V491.2499999999999A62.5 62.5 0 0 1 62.5 428.75H250V241.25A62.5 62.5 0 0 1 312.5 178.75H733.125L893.1250000000001 18.125A62.5 62.5 0 0 1 913.7500000000002 4.9999999999999A58.74999999999999 58.74999999999999 0 0 1 961.25 4.9999999999999A62.5 62.5 0 0 1 995.0000000000002 38.7499999999999A62.5 62.5 0 0 1 1000 62.5zM782.5 298.7500000000001A62.5 62.5 0 0 1 758.7499999999999 303.7500000000001H375V625H875V213.125L803.125 285A51.87499999999999 51.87499999999999 0 0 1 782.5 298.75zM125 553.75V875H625V750H312.5A62.5 62.5 0 0 1 250 687.5V553.75z" />
    <glyph glyph-name="feedback-lht-1"
      unicode="&#x66;&#x65;&#x65;&#x64;&#x62;&#x61;&#x63;&#x6B;&#x2D;&#x6C;&#x68;&#x74;"
      horiz-adv-x="1000" d="M0 1000H1000V0H0V1000zM1000 687.5A62.5 62.5 0 0 1 937.5 750H750V937.5A62.5 62.5 0 0 1 687.5 1000H62.5A62.5 62.5 0 0 1 0 937.5V491.2499999999999A62.5 62.5 0 0 1 62.5 428.75H250V241.25A62.5 62.5 0 0 1 312.5 178.75H733.125L893.1250000000001 18.125A62.5 62.5 0 0 1 913.7500000000002 4.9999999999999A58.74999999999999 58.74999999999999 0 0 1 961.25 4.9999999999999A62.5 62.5 0 0 1 995.0000000000002 38.7499999999999A62.5 62.5 0 0 1 1000 62.5zM782.5 298.7500000000001A62.5 62.5 0 0 1 758.7499999999999 303.7500000000001H375V625H875V213.125L803.125 285A51.87499999999999 51.87499999999999 0 0 1 782.5 298.75zM125 553.75V875H625V750H312.5A62.5 62.5 0 0 1 250 687.5V553.75z" />
    <glyph glyph-name="home-drk"
      unicode="&#xF132;"
      horiz-adv-x="1000" d="M0 1000H1000V0H0V1000zM978.125 610L540.625 985A62.5 62.5 0 0 1 459.3750000000001 985L21.875 610A62.5 62.5 0 0 1 62.5 500V62.5A62.5 62.5 0 0 1 125 0H875A62.5 62.5 0 0 1 937.5 62.5V500A62.5 62.5 0 0 1 978.125 610zM500 375A62.5 62.5 0 0 1 437.5 312.5V125H187.5V587.5L500 855L812.5 587.5V125H562.5V312.5A62.5 62.5 0 0 1 500 375z" />
    <glyph glyph-name="home-drk-1"
      unicode="&#x68;&#x6F;&#x6D;&#x65;&#x2D;&#x64;&#x72;&#x6B;"
      horiz-adv-x="1000" d="M0 1000H1000V0H0V1000zM978.125 610L540.625 985A62.5 62.5 0 0 1 459.3750000000001 985L21.875 610A62.5 62.5 0 0 1 62.5 500V62.5A62.5 62.5 0 0 1 125 0H875A62.5 62.5 0 0 1 937.5 62.5V500A62.5 62.5 0 0 1 978.125 610zM500 375A62.5 62.5 0 0 1 437.5 312.5V125H187.5V587.5L500 855L812.5 587.5V125H562.5V312.5A62.5 62.5 0 0 1 500 375z" />
    <glyph glyph-name="home-lht"
      unicode="&#xF133;"
      horiz-adv-x="1000" d="M0 1000H1000V0H0V1000zM978.125 610L540.625 985A62.5 62.5 0 0 1 459.3750000000001 985L21.875 610A62.5 62.5 0 0 1 62.5 500V62.5A62.5 62.5 0 0 1 125 0H875A62.5 62.5 0 0 1 937.5 62.5V500A62.5 62.5 0 0 1 978.125 610zM500 375A62.5 62.5 0 0 1 437.5 312.5V125H187.5V587.5L500 855L812.5 587.5V125H562.5V312.5A62.5 62.5 0 0 1 500 375z" />
    <glyph glyph-name="home-lht-1"
      unicode="&#x68;&#x6F;&#x6D;&#x65;&#x2D;&#x6C;&#x68;&#x74;"
      horiz-adv-x="1000" d="M0 1000H1000V0H0V1000zM978.125 610L540.625 985A62.5 62.5 0 0 1 459.3750000000001 985L21.875 610A62.5 62.5 0 0 1 62.5 500V62.5A62.5 62.5 0 0 1 125 0H875A62.5 62.5 0 0 1 937.5 62.5V500A62.5 62.5 0 0 1 978.125 610zM500 375A62.5 62.5 0 0 1 437.5 312.5V125H187.5V587.5L500 855L812.5 587.5V125H562.5V312.5A62.5 62.5 0 0 1 500 375z" />
    <glyph glyph-name="info-drk"
      unicode="&#xF134;"
      horiz-adv-x="1000" d="M0 1000H1000V0H0V1000zM500 875A375 375 0 1 0 125 500A375 375 0 0 0 500 875M500 1000A500 500 0 1 1 1000 500A500 500 0 0 1 500 1000zM500 250A62.5 62.5 0 0 0 437.5 312.5V500A62.5 62.5 0 0 0 562.5 500V312.5A62.5 62.5 0 0 0 500 250zM437.5 687.5A62.5 62.5 0 0 1 562.5 687.5A62.5 62.5 0 0 1 437.5 687.5" />
    <glyph glyph-name="info-drk-1"
      unicode="&#x69;&#x6E;&#x66;&#x6F;&#x2D;&#x64;&#x72;&#x6B;"
      horiz-adv-x="1000" d="M0 1000H1000V0H0V1000zM500 875A375 375 0 1 0 125 500A375 375 0 0 0 500 875M500 1000A500 500 0 1 1 1000 500A500 500 0 0 1 500 1000zM500 250A62.5 62.5 0 0 0 437.5 312.5V500A62.5 62.5 0 0 0 562.5 500V312.5A62.5 62.5 0 0 0 500 250zM437.5 687.5A62.5 62.5 0 0 1 562.5 687.5A62.5 62.5 0 0 1 437.5 687.5" />
    <glyph glyph-name="info-lht"
      unicode="&#xF135;"
      horiz-adv-x="1000" d="M0 1000H1000V0H0V1000zM500 875A375 375 0 1 0 125 500A375 375 0 0 0 500 875M500 1000A500 500 0 1 1 1000 500A500 500 0 0 1 500 1000zM500 250A62.5 62.5 0 0 0 437.5 312.5V500A62.5 62.5 0 0 0 562.5 500V312.5A62.5 62.5 0 0 0 500 250zM437.5 687.5A62.5 62.5 0 0 1 562.5 687.5A62.5 62.5 0 0 1 437.5 687.5" />
    <glyph glyph-name="info-lht-1"
      unicode="&#x69;&#x6E;&#x66;&#x6F;&#x2D;&#x6C;&#x68;&#x74;"
      horiz-adv-x="1000" d="M0 1000H1000V0H0V1000zM500 875A375 375 0 1 0 125 500A375 375 0 0 0 500 875M500 1000A500 500 0 1 1 1000 500A500 500 0 0 1 500 1000zM500 250A62.5 62.5 0 0 0 437.5 312.5V500A62.5 62.5 0 0 0 562.5 500V312.5A62.5 62.5 0 0 0 500 250zM437.5 687.5A62.5 62.5 0 0 1 562.5 687.5A62.5 62.5 0 0 1 437.5 687.5" />
    <glyph glyph-name="instagram-colr"
      unicode="&#xF136;"
      horiz-adv-x="1000" d="M500 692.5A192.50000000000003 192.50000000000003 0 1 1 692.5 500A192.50000000000003 192.50000000000003 0 0 1 500 692.5zM500 375A125 125 0 1 0 625 500A125 125 0 0 0 500 375zM654.9999999999999 700A45 45 0 0 1 745 700A45 45 0 0 1 654.9999999999999 700M662.5 806.25A143.75 143.75 0 0 0 806.2499999999999 662.5V337.4999999999999A143.75 143.75 0 0 0 662.4999999999999 193.7499999999999H337.5A143.75 143.75 0 0 0 193.75 337.4999999999999V662.5A143.75 143.75 0 0 0 337.5 806.25H662.5000000000001M662.5000000000001 875H337.5A212.5 212.5 0 0 1 125 662.5V337.4999999999999A212.5 212.5 0 0 1 337.5 125H662.5000000000001A212.5 212.5 0 0 1 875 337.5V662.5A212.5 212.5 0 0 1 662.5 875zM0 1000H1000V0H0V1000z" />
    <glyph glyph-name="instagram-colr-1"
      unicode="&#x69;&#x6E;&#x73;&#x74;&#x61;&#x67;&#x72;&#x61;&#x6D;&#x2D;&#x63;&#x6F;&#x6C;&#x72;"
      horiz-adv-x="1000" d="M500 692.5A192.50000000000003 192.50000000000003 0 1 1 692.5 500A192.50000000000003 192.50000000000003 0 0 1 500 692.5zM500 375A125 125 0 1 0 625 500A125 125 0 0 0 500 375zM654.9999999999999 700A45 45 0 0 1 745 700A45 45 0 0 1 654.9999999999999 700M662.5 806.25A143.75 143.75 0 0 0 806.2499999999999 662.5V337.4999999999999A143.75 143.75 0 0 0 662.4999999999999 193.7499999999999H337.5A143.75 143.75 0 0 0 193.75 337.4999999999999V662.5A143.75 143.75 0 0 0 337.5 806.25H662.5000000000001M662.5000000000001 875H337.5A212.5 212.5 0 0 1 125 662.5V337.4999999999999A212.5 212.5 0 0 1 337.5 125H662.5000000000001A212.5 212.5 0 0 1 875 337.5V662.5A212.5 212.5 0 0 1 662.5 875zM0 1000H1000V0H0V1000z" />
    <glyph glyph-name="instagram-drk"
      unicode="&#xF137;"
      horiz-adv-x="1000" d="M500 692.5A192.50000000000003 192.50000000000003 0 1 1 692.5 500A192.50000000000003 192.50000000000003 0 0 1 500 692.5zM500 375A125 125 0 1 0 625 500A125 125 0 0 0 500 375zM654.9999999999999 700A45 45 0 0 1 745 700A45 45 0 0 1 654.9999999999999 700M662.5 806.25A143.75 143.75 0 0 0 806.2499999999999 662.5V337.4999999999999A143.75 143.75 0 0 0 662.4999999999999 193.7499999999999H337.5A143.75 143.75 0 0 0 193.75 337.4999999999999V662.5A143.75 143.75 0 0 0 337.5 806.25H662.5000000000001M662.5000000000001 875H337.5A212.5 212.5 0 0 1 125 662.5V337.4999999999999A212.5 212.5 0 0 1 337.5 125H662.5000000000001A212.5 212.5 0 0 1 875 337.5V662.5A212.5 212.5 0 0 1 662.5 875zM0 1000H1000V0H0V1000z" />
    <glyph glyph-name="instagram-drk-1"
      unicode="&#x69;&#x6E;&#x73;&#x74;&#x61;&#x67;&#x72;&#x61;&#x6D;&#x2D;&#x64;&#x72;&#x6B;"
      horiz-adv-x="1000" d="M500 692.5A192.50000000000003 192.50000000000003 0 1 1 692.5 500A192.50000000000003 192.50000000000003 0 0 1 500 692.5zM500 375A125 125 0 1 0 625 500A125 125 0 0 0 500 375zM654.9999999999999 700A45 45 0 0 1 745 700A45 45 0 0 1 654.9999999999999 700M662.5 806.25A143.75 143.75 0 0 0 806.2499999999999 662.5V337.4999999999999A143.75 143.75 0 0 0 662.4999999999999 193.7499999999999H337.5A143.75 143.75 0 0 0 193.75 337.4999999999999V662.5A143.75 143.75 0 0 0 337.5 806.25H662.5000000000001M662.5000000000001 875H337.5A212.5 212.5 0 0 1 125 662.5V337.4999999999999A212.5 212.5 0 0 1 337.5 125H662.5000000000001A212.5 212.5 0 0 1 875 337.5V662.5A212.5 212.5 0 0 1 662.5 875zM0 1000H1000V0H0V1000z" />
    <glyph glyph-name="instagram-lht"
      unicode="&#xF138;"
      horiz-adv-x="1000" d="M500 692.5A192.50000000000003 192.50000000000003 0 1 1 692.5 500A192.50000000000003 192.50000000000003 0 0 1 500 692.5zM500 375A125 125 0 1 0 625 500A125 125 0 0 0 500 375zM654.9999999999999 700A45 45 0 0 1 745 700A45 45 0 0 1 654.9999999999999 700M662.5 806.25A143.75 143.75 0 0 0 806.2499999999999 662.5V337.4999999999999A143.75 143.75 0 0 0 662.4999999999999 193.7499999999999H337.5A143.75 143.75 0 0 0 193.75 337.4999999999999V662.5A143.75 143.75 0 0 0 337.5 806.25H662.5000000000001M662.5000000000001 875H337.5A212.5 212.5 0 0 1 125 662.5V337.4999999999999A212.5 212.5 0 0 1 337.5 125H662.5000000000001A212.5 212.5 0 0 1 875 337.5V662.5A212.5 212.5 0 0 1 662.5 875zM0 1000H1000V0H0V1000z" />
    <glyph glyph-name="instagram-lht-1"
      unicode="&#x69;&#x6E;&#x73;&#x74;&#x61;&#x67;&#x72;&#x61;&#x6D;&#x2D;&#x6C;&#x68;&#x74;"
      horiz-adv-x="1000" d="M500 692.5A192.50000000000003 192.50000000000003 0 1 1 692.5 500A192.50000000000003 192.50000000000003 0 0 1 500 692.5zM500 375A125 125 0 1 0 625 500A125 125 0 0 0 500 375zM654.9999999999999 700A45 45 0 0 1 745 700A45 45 0 0 1 654.9999999999999 700M662.5 806.25A143.75 143.75 0 0 0 806.2499999999999 662.5V337.4999999999999A143.75 143.75 0 0 0 662.4999999999999 193.7499999999999H337.5A143.75 143.75 0 0 0 193.75 337.4999999999999V662.5A143.75 143.75 0 0 0 337.5 806.25H662.5000000000001M662.5000000000001 875H337.5A212.5 212.5 0 0 1 125 662.5V337.4999999999999A212.5 212.5 0 0 1 337.5 125H662.5000000000001A212.5 212.5 0 0 1 875 337.5V662.5A212.5 212.5 0 0 1 662.5 875zM0 1000H1000V0H0V1000z" />
    <glyph glyph-name="link-drk"
      unicode="&#xF139;"
      horiz-adv-x="1000" d="M375 312.5A62.5 62.5 0 0 0 330.625 330.625A62.5 62.5 0 0 0 330.625 419.3749999999999L580.625 669.375A62.5 62.5 0 1 0 669.3749999999999 580.625L419.375 330.625A62.5 62.5 0 0 0 375 312.5zM793.75 329.375A62.5 62.5 0 0 0 750 437.5L812.5 500A221.87499999999997 221.87499999999997 0 0 1 500 812.5L437.5 750A62.5 62.5 0 0 0 347.5 750A62.5 62.5 0 0 0 347.5 838.125L410 900.625A346.875 346.875 0 0 0 900.625 410L838.125 347.5A62.5 62.5 0 0 0 793.75 329.375zM346.25 0A346.875 346.875 0 0 0 101.25 591.875L163.75 654.375A62.5 62.5 0 1 0 250 562.5L187.5 500A221.87499999999997 221.87499999999997 0 0 1 500 187.5L562.5 250A62.5 62.5 0 0 0 650.625 250A62.5 62.5 0 0 0 650.625 161.875L588.125 99.375A345.625 345.625 0 0 0 346.25 0zM0 1000H1000V0H0V1000z" />
    <glyph glyph-name="link-drk-1"
      unicode="&#x6C;&#x69;&#x6E;&#x6B;&#x2D;&#x64;&#x72;&#x6B;"
      horiz-adv-x="1000" d="M375 312.5A62.5 62.5 0 0 0 330.625 330.625A62.5 62.5 0 0 0 330.625 419.3749999999999L580.625 669.375A62.5 62.5 0 1 0 669.3749999999999 580.625L419.375 330.625A62.5 62.5 0 0 0 375 312.5zM793.75 329.375A62.5 62.5 0 0 0 750 437.5L812.5 500A221.87499999999997 221.87499999999997 0 0 1 500 812.5L437.5 750A62.5 62.5 0 0 0 347.5 750A62.5 62.5 0 0 0 347.5 838.125L410 900.625A346.875 346.875 0 0 0 900.625 410L838.125 347.5A62.5 62.5 0 0 0 793.75 329.375zM346.25 0A346.875 346.875 0 0 0 101.25 591.875L163.75 654.375A62.5 62.5 0 1 0 250 562.5L187.5 500A221.87499999999997 221.87499999999997 0 0 1 500 187.5L562.5 250A62.5 62.5 0 0 0 650.625 250A62.5 62.5 0 0 0 650.625 161.875L588.125 99.375A345.625 345.625 0 0 0 346.25 0zM0 1000H1000V0H0V1000z" />
    <glyph glyph-name="link-lht"
      unicode="&#xF13A;"
      horiz-adv-x="1000" d="M375 312.5A62.5 62.5 0 0 0 330.625 330.625A62.5 62.5 0 0 0 330.625 419.3749999999999L580.625 669.375A62.5 62.5 0 1 0 669.3749999999999 580.625L419.375 330.625A62.5 62.5 0 0 0 375 312.5zM793.75 329.375A62.5 62.5 0 0 0 750 437.5L812.5 500A221.87499999999997 221.87499999999997 0 0 1 500 812.5L437.5 750A62.5 62.5 0 0 0 347.5 750A62.5 62.5 0 0 0 347.5 838.125L410 900.625A346.875 346.875 0 0 0 900.625 410L838.125 347.5A62.5 62.5 0 0 0 793.75 329.375zM346.25 0A346.875 346.875 0 0 0 101.25 591.875L163.75 654.375A62.5 62.5 0 1 0 250 562.5L187.5 500A221.87499999999997 221.87499999999997 0 0 1 500 187.5L562.5 250A62.5 62.5 0 0 0 650.625 250A62.5 62.5 0 0 0 650.625 161.875L588.125 99.375A345.625 345.625 0 0 0 346.25 0zM0 1000H1000V0H0V1000z" />
    <glyph glyph-name="link-lht-1"
      unicode="&#x6C;&#x69;&#x6E;&#x6B;&#x2D;&#x6C;&#x68;&#x74;"
      horiz-adv-x="1000" d="M375 312.5A62.5 62.5 0 0 0 330.625 330.625A62.5 62.5 0 0 0 330.625 419.3749999999999L580.625 669.375A62.5 62.5 0 1 0 669.3749999999999 580.625L419.375 330.625A62.5 62.5 0 0 0 375 312.5zM793.75 329.375A62.5 62.5 0 0 0 750 437.5L812.5 500A221.87499999999997 221.87499999999997 0 0 1 500 812.5L437.5 750A62.5 62.5 0 0 0 347.5 750A62.5 62.5 0 0 0 347.5 838.125L410 900.625A346.875 346.875 0 0 0 900.625 410L838.125 347.5A62.5 62.5 0 0 0 793.75 329.375zM346.25 0A346.875 346.875 0 0 0 101.25 591.875L163.75 654.375A62.5 62.5 0 1 0 250 562.5L187.5 500A221.87499999999997 221.87499999999997 0 0 1 500 187.5L562.5 250A62.5 62.5 0 0 0 650.625 250A62.5 62.5 0 0 0 650.625 161.875L588.125 99.375A345.625 345.625 0 0 0 346.25 0zM0 1000H1000V0H0V1000z" />
    <glyph glyph-name="linkedin-colr"
      unicode="&#xF13B;"
      horiz-adv-x="1000" d="M0 1000H1000V0H0V1000zM187.5 875H812.5A62.5 62.5 0 0 0 875 812.5V187.5A62.5 62.5 0 0 0 812.5 125H187.5A62.5 62.5 0 0 0 125 187.5V812.5A62.5 62.5 0 0 0 187.5 875zM769.375 242.5H653.75V430C653.75 476.875 636.8750000000001 508.7500000000001 595.0000000000001 508.7500000000001A62.5 62.5 0 0 1 536.2500000000001 466.875A78.75 78.75 0 0 1 532.5 437.5V243.125H416.875S416.875 555.625 416.875 590.625H532.5V541.25A113.75000000000001 113.75000000000001 0 0 0 636.25 598.75C712.5 598.75 769.3749999999999 549.375 769.3749999999999 442.5zM237.5 590H353.125V242.5H237.5000000000001V590zM230.625 701.25A64.375 64.375 0 0 1 359.375 701.25A64.375 64.375 0 0 1 230.625 701.25" />
    <glyph glyph-name="linkedin-colr-1"
      unicode="&#x6C;&#x69;&#x6E;&#x6B;&#x65;&#x64;&#x69;&#x6E;&#x2D;&#x63;&#x6F;&#x6C;&#x72;"
      horiz-adv-x="1000" d="M0 1000H1000V0H0V1000zM187.5 875H812.5A62.5 62.5 0 0 0 875 812.5V187.5A62.5 62.5 0 0 0 812.5 125H187.5A62.5 62.5 0 0 0 125 187.5V812.5A62.5 62.5 0 0 0 187.5 875zM769.375 242.5H653.75V430C653.75 476.875 636.8750000000001 508.7500000000001 595.0000000000001 508.7500000000001A62.5 62.5 0 0 1 536.2500000000001 466.875A78.75 78.75 0 0 1 532.5 437.5V243.125H416.875S416.875 555.625 416.875 590.625H532.5V541.25A113.75000000000001 113.75000000000001 0 0 0 636.25 598.75C712.5 598.75 769.3749999999999 549.375 769.3749999999999 442.5zM237.5 590H353.125V242.5H237.5000000000001V590zM230.625 701.25A64.375 64.375 0 0 1 359.375 701.25A64.375 64.375 0 0 1 230.625 701.25" />
    <glyph glyph-name="linkedin-drk"
      unicode="&#xF13C;"
      horiz-adv-x="1000" d="M0 1000H1000V0H0V1000zM187.5 875H812.5A62.5 62.5 0 0 0 875 812.5V187.5A62.5 62.5 0 0 0 812.5 125H187.5A62.5 62.5 0 0 0 125 187.5V812.5A62.5 62.5 0 0 0 187.5 875zM769.375 242.5H653.75V430C653.75 476.875 636.8750000000001 508.7500000000001 595.0000000000001 508.7500000000001A62.5 62.5 0 0 1 536.2500000000001 466.875A78.75 78.75 0 0 1 532.5 437.5V243.125H416.875S416.875 555.625 416.875 590.625H532.5V541.25A113.75000000000001 113.75000000000001 0 0 0 636.25 598.75C712.5 598.75 769.3749999999999 549.375 769.3749999999999 442.5zM237.5 590H353.125V242.5H237.5000000000001V590zM230.625 701.25A64.375 64.375 0 0 1 359.375 701.25A64.375 64.375 0 0 1 230.625 701.25" />
    <glyph glyph-name="linkedin-drk-1"
      unicode="&#x6C;&#x69;&#x6E;&#x6B;&#x65;&#x64;&#x69;&#x6E;&#x2D;&#x64;&#x72;&#x6B;"
      horiz-adv-x="1000" d="M0 1000H1000V0H0V1000zM187.5 875H812.5A62.5 62.5 0 0 0 875 812.5V187.5A62.5 62.5 0 0 0 812.5 125H187.5A62.5 62.5 0 0 0 125 187.5V812.5A62.5 62.5 0 0 0 187.5 875zM769.375 242.5H653.75V430C653.75 476.875 636.8750000000001 508.7500000000001 595.0000000000001 508.7500000000001A62.5 62.5 0 0 1 536.2500000000001 466.875A78.75 78.75 0 0 1 532.5 437.5V243.125H416.875S416.875 555.625 416.875 590.625H532.5V541.25A113.75000000000001 113.75000000000001 0 0 0 636.25 598.75C712.5 598.75 769.3749999999999 549.375 769.3749999999999 442.5zM237.5 590H353.125V242.5H237.5000000000001V590zM230.625 701.25A64.375 64.375 0 0 1 359.375 701.25A64.375 64.375 0 0 1 230.625 701.25" />
    <glyph glyph-name="linkedin-lht"
      unicode="&#xF13D;"
      horiz-adv-x="1000" d="M0 1000H1000V0H0V1000zM187.5 875H812.5A62.5 62.5 0 0 0 875 812.5V187.5A62.5 62.5 0 0 0 812.5 125H187.5A62.5 62.5 0 0 0 125 187.5V812.5A62.5 62.5 0 0 0 187.5 875zM769.375 242.5H653.75V430C653.75 476.875 636.8750000000001 508.7500000000001 595.0000000000001 508.7500000000001A62.5 62.5 0 0 1 536.2500000000001 466.875A78.75 78.75 0 0 1 532.5 437.5V243.125H416.875S416.875 555.625 416.875 590.625H532.5V541.25A113.75000000000001 113.75000000000001 0 0 0 636.25 598.75C712.5 598.75 769.3749999999999 549.375 769.3749999999999 442.5zM237.5 590H353.125V242.5H237.5000000000001V590zM230.625 701.25A64.375 64.375 0 0 1 359.375 701.25A64.375 64.375 0 0 1 230.625 701.25" />
    <glyph glyph-name="linkedin-lht-1"
      unicode="&#x6C;&#x69;&#x6E;&#x6B;&#x65;&#x64;&#x69;&#x6E;&#x2D;&#x6C;&#x68;&#x74;"
      horiz-adv-x="1000" d="M0 1000H1000V0H0V1000zM187.5 875H812.5A62.5 62.5 0 0 0 875 812.5V187.5A62.5 62.5 0 0 0 812.5 125H187.5A62.5 62.5 0 0 0 125 187.5V812.5A62.5 62.5 0 0 0 187.5 875zM769.375 242.5H653.75V430C653.75 476.875 636.8750000000001 508.7500000000001 595.0000000000001 508.7500000000001A62.5 62.5 0 0 1 536.2500000000001 466.875A78.75 78.75 0 0 1 532.5 437.5V243.125H416.875S416.875 555.625 416.875 590.625H532.5V541.25A113.75000000000001 113.75000000000001 0 0 0 636.25 598.75C712.5 598.75 769.3749999999999 549.375 769.3749999999999 442.5zM237.5 590H353.125V242.5H237.5000000000001V590zM230.625 701.25A64.375 64.375 0 0 1 359.375 701.25A64.375 64.375 0 0 1 230.625 701.25" />
    <glyph glyph-name="location-drk"
      unicode="&#xF13E;"
      horiz-adv-x="1000" d="M500 1000A312.5 312.5 0 0 1 187.5 687.5C187.5 478.75 360 202.5 448.75 73.75A62.5 62.5 0 0 1 551.25 73.75C640 202.5 812.5 478.75 812.5 687.5A312.5 312.5 0 0 1 500 1000zM463.125 871.25A187.5 187.5 0 1 0 316.25 724.375A187.5 187.5 0 0 0 463.125 871.25zM0 1000H1000V0H0V1000z" />
    <glyph glyph-name="location-drk-1"
      unicode="&#x6C;&#x6F;&#x63;&#x61;&#x74;&#x69;&#x6F;&#x6E;&#x2D;&#x64;&#x72;&#x6B;"
      horiz-adv-x="1000" d="M500 1000A312.5 312.5 0 0 1 187.5 687.5C187.5 478.75 360 202.5 448.75 73.75A62.5 62.5 0 0 1 551.25 73.75C640 202.5 812.5 478.75 812.5 687.5A312.5 312.5 0 0 1 500 1000zM463.125 871.25A187.5 187.5 0 1 0 316.25 724.375A187.5 187.5 0 0 0 463.125 871.25zM0 1000H1000V0H0V1000z" />
    <glyph glyph-name="location-lht"
      unicode="&#xF13F;"
      horiz-adv-x="1000" d="M500 1000A312.5 312.5 0 0 1 187.5 687.5C187.5 478.75 360 202.5 448.75 73.75A62.5 62.5 0 0 1 551.25 73.75C640 202.5 812.5 478.75 812.5 687.5A312.5 312.5 0 0 1 500 1000zM463.125 871.25A187.5 187.5 0 1 0 316.25 724.375A187.5 187.5 0 0 0 463.125 871.25zM0 1000H1000V0H0V1000z" />
    <glyph glyph-name="location-lht-1"
      unicode="&#x6C;&#x6F;&#x63;&#x61;&#x74;&#x69;&#x6F;&#x6E;&#x2D;&#x6C;&#x68;&#x74;"
      horiz-adv-x="1000" d="M500 1000A312.5 312.5 0 0 1 187.5 687.5C187.5 478.75 360 202.5 448.75 73.75A62.5 62.5 0 0 1 551.25 73.75C640 202.5 812.5 478.75 812.5 687.5A312.5 312.5 0 0 1 500 1000zM463.125 871.25A187.5 187.5 0 1 0 316.25 724.375A187.5 187.5 0 0 0 463.125 871.25zM0 1000H1000V0H0V1000z" />
    <glyph glyph-name="map-drk"
      unicode="&#xF140;"
      horiz-adv-x="1000" d="M0 1000H1000V0H0V1000zM687.5 62.5A62.5 62.5 0 0 0 647.5 76.875L375 295L101.25 76.25A62.5 62.5 0 0 0 35.625 68.7500000000001A62.5 62.5 0 0 0 0 125V625A62.5 62.5 0 0 0 23.75 673.75L336.25 923.75L336.25 923.75A71.25 71.25 0 0 0 362.5 937.5H362.5L375 937.5H375A62.5 62.5 0 0 0 406.875 928.75H406.875L683.75 762.5L900 925A62.5 62.5 0 0 0 962.5 930.625A62.5 62.5 0 0 0 1000 875V312.5A62.5 62.5 0 0 0 975 262.5L725 75L725 75H725A62.5 62.5 0 0 0 687.5 62.5zM750 656.25V250L875 343.75V750zM437.5 406.25L625 256.25V651.875L437.5 764.375zM125 593.75V253.7499999999999L312.5 403.7499999999999V745z" />
    <glyph glyph-name="map-drk-1"
      unicode="&#x6D;&#x61;&#x70;&#x2D;&#x64;&#x72;&#x6B;"
      horiz-adv-x="1000" d="M0 1000H1000V0H0V1000zM687.5 62.5A62.5 62.5 0 0 0 647.5 76.875L375 295L101.25 76.25A62.5 62.5 0 0 0 35.625 68.7500000000001A62.5 62.5 0 0 0 0 125V625A62.5 62.5 0 0 0 23.75 673.75L336.25 923.75L336.25 923.75A71.25 71.25 0 0 0 362.5 937.5H362.5L375 937.5H375A62.5 62.5 0 0 0 406.875 928.75H406.875L683.75 762.5L900 925A62.5 62.5 0 0 0 962.5 930.625A62.5 62.5 0 0 0 1000 875V312.5A62.5 62.5 0 0 0 975 262.5L725 75L725 75H725A62.5 62.5 0 0 0 687.5 62.5zM750 656.25V250L875 343.75V750zM437.5 406.25L625 256.25V651.875L437.5 764.375zM125 593.75V253.7499999999999L312.5 403.7499999999999V745z" />
    <glyph glyph-name="map-lht"
      unicode="&#xF141;"
      horiz-adv-x="1000" d="M0 1000H1000V0H0V1000zM687.5 62.5A62.5 62.5 0 0 0 647.5 76.875L375 295L101.25 76.25A62.5 62.5 0 0 0 35.625 68.7500000000001A62.5 62.5 0 0 0 0 125V625A62.5 62.5 0 0 0 23.75 673.75L336.25 923.75L336.25 923.75A71.25 71.25 0 0 0 362.5 937.5H362.5L375 937.5H375A62.5 62.5 0 0 0 406.875 928.75H406.875L683.75 762.5L900 925A62.5 62.5 0 0 0 962.5 930.625A62.5 62.5 0 0 0 1000 875V312.5A62.5 62.5 0 0 0 975 262.5L725 75L725 75H725A62.5 62.5 0 0 0 687.5 62.5zM750 656.25V250L875 343.75V750zM437.5 406.25L625 256.25V651.875L437.5 764.375zM125 593.75V253.7499999999999L312.5 403.7499999999999V745z" />
    <glyph glyph-name="map-lht-1"
      unicode="&#x6D;&#x61;&#x70;&#x2D;&#x6C;&#x68;&#x74;"
      horiz-adv-x="1000" d="M0 1000H1000V0H0V1000zM687.5 62.5A62.5 62.5 0 0 0 647.5 76.875L375 295L101.25 76.25A62.5 62.5 0 0 0 35.625 68.7500000000001A62.5 62.5 0 0 0 0 125V625A62.5 62.5 0 0 0 23.75 673.75L336.25 923.75L336.25 923.75A71.25 71.25 0 0 0 362.5 937.5H362.5L375 937.5H375A62.5 62.5 0 0 0 406.875 928.75H406.875L683.75 762.5L900 925A62.5 62.5 0 0 0 962.5 930.625A62.5 62.5 0 0 0 1000 875V312.5A62.5 62.5 0 0 0 975 262.5L725 75L725 75H725A62.5 62.5 0 0 0 687.5 62.5zM750 656.25V250L875 343.75V750zM437.5 406.25L625 256.25V651.875L437.5 764.375zM125 593.75V253.7499999999999L312.5 403.7499999999999V745z" />
    <glyph glyph-name="menu-drk"
      unicode="&#xF142;"
      horiz-adv-x="1000" d="M937.5 812.5H62.5A62.5 62.5 0 0 0 62.5 937.5H937.5A62.5 62.5 0 0 0 937.5 812.5zM937.5 437.5H62.5A62.5 62.5 0 0 0 62.5 562.5H937.5A62.5 62.5 0 0 0 937.5 437.5zM562.5 62.5H62.5A62.5 62.5 0 0 0 62.5 187.5H562.5A62.5 62.5 0 0 0 562.5 62.5zM0 1000H1000V0H0V1000z" />
    <glyph glyph-name="menu-drk-1"
      unicode="&#x6D;&#x65;&#x6E;&#x75;&#x2D;&#x64;&#x72;&#x6B;"
      horiz-adv-x="1000" d="M937.5 812.5H62.5A62.5 62.5 0 0 0 62.5 937.5H937.5A62.5 62.5 0 0 0 937.5 812.5zM937.5 437.5H62.5A62.5 62.5 0 0 0 62.5 562.5H937.5A62.5 62.5 0 0 0 937.5 437.5zM562.5 62.5H62.5A62.5 62.5 0 0 0 62.5 187.5H562.5A62.5 62.5 0 0 0 562.5 62.5zM0 1000H1000V0H0V1000z" />
    <glyph glyph-name="menu-lht"
      unicode="&#xF143;"
      horiz-adv-x="1000" d="M937.5 812.5H62.5A62.5 62.5 0 0 0 62.5 937.5H937.5A62.5 62.5 0 0 0 937.5 812.5zM937.5 437.5H62.5A62.5 62.5 0 0 0 62.5 562.5H937.5A62.5 62.5 0 0 0 937.5 437.5zM562.5 62.5H62.5A62.5 62.5 0 0 0 62.5 187.5H562.5A62.5 62.5 0 0 0 562.5 62.5zM0 1000H1000V0H0V1000z" />
    <glyph glyph-name="menu-lht-1"
      unicode="&#x6D;&#x65;&#x6E;&#x75;&#x2D;&#x6C;&#x68;&#x74;"
      horiz-adv-x="1000" d="M937.5 812.5H62.5A62.5 62.5 0 0 0 62.5 937.5H937.5A62.5 62.5 0 0 0 937.5 812.5zM937.5 437.5H62.5A62.5 62.5 0 0 0 62.5 562.5H937.5A62.5 62.5 0 0 0 937.5 437.5zM562.5 62.5H62.5A62.5 62.5 0 0 0 62.5 187.5H562.5A62.5 62.5 0 0 0 562.5 62.5zM0 1000H1000V0H0V1000z" />
    <glyph glyph-name="minus-circle-drk"
      unicode="&#xF144;"
      horiz-adv-x="1000" d="M0 500A500 500 0 0 1 1000 500A500 500 0 0 1 0 500M718.75 437.5H281.25A62.5 62.5 0 0 0 281.25 562.5H718.75A62.5 62.5 0 0 0 718.75 437.5z" />
    <glyph glyph-name="minus-circle-drk-1"
      unicode="&#x6D;&#x69;&#x6E;&#x75;&#x73;&#x2D;&#x63;&#x69;&#x72;&#x63;&#x6C;&#x65;&#x2D;&#x64;&#x72;&#x6B;"
      horiz-adv-x="1000" d="M0 500A500 500 0 0 1 1000 500A500 500 0 0 1 0 500M718.75 437.5H281.25A62.5 62.5 0 0 0 281.25 562.5H718.75A62.5 62.5 0 0 0 718.75 437.5z" />
    <glyph glyph-name="minus-circle-lht"
      unicode="&#xF145;"
      horiz-adv-x="1000" d="M0 500A500 500 0 0 1 1000 500A500 500 0 0 1 0 500M718.75 437.5H281.25A62.5 62.5 0 0 0 281.25 562.5H718.75A62.5 62.5 0 0 0 718.75 437.5z" />
    <glyph glyph-name="minus-circle-lht-1"
      unicode="&#x6D;&#x69;&#x6E;&#x75;&#x73;&#x2D;&#x63;&#x69;&#x72;&#x63;&#x6C;&#x65;&#x2D;&#x6C;&#x68;&#x74;"
      horiz-adv-x="1000" d="M0 500A500 500 0 0 1 1000 500A500 500 0 0 1 0 500M718.75 437.5H281.25A62.5 62.5 0 0 0 281.25 562.5H718.75A62.5 62.5 0 0 0 718.75 437.5z" />
    <glyph glyph-name="minus-drk"
      unicode="&#xF146;"
      horiz-adv-x="1000" d="M875 437.5H125A62.5 62.5 0 0 0 125 562.5H875A62.5 62.5 0 0 0 875 437.5zM0 1000H1000V0H0V1000z" />
    <glyph glyph-name="minus-drk-1"
      unicode="&#x6D;&#x69;&#x6E;&#x75;&#x73;&#x2D;&#x64;&#x72;&#x6B;"
      horiz-adv-x="1000" d="M875 437.5H125A62.5 62.5 0 0 0 125 562.5H875A62.5 62.5 0 0 0 875 437.5zM0 1000H1000V0H0V1000z" />
    <glyph glyph-name="minus-lht"
      unicode="&#xF147;"
      horiz-adv-x="1000" d="M875 437.5H125A62.5 62.5 0 0 0 125 562.5H875A62.5 62.5 0 0 0 875 437.5zM0 1000H1000V0H0V1000z" />
    <glyph glyph-name="minus-lht-1"
      unicode="&#x6D;&#x69;&#x6E;&#x75;&#x73;&#x2D;&#x6C;&#x68;&#x74;"
      horiz-adv-x="1000" d="M875 437.5H125A62.5 62.5 0 0 0 125 562.5H875A62.5 62.5 0 0 0 875 437.5zM0 1000H1000V0H0V1000z" />
    <glyph glyph-name="more-drk"
      unicode="&#xF148;"
      horiz-adv-x="1000" d="M405.625 500A93.75 93.75 0 0 1 593.125 500A93.75 93.75 0 0 1 405.625 500M62.5 500A93.75 93.75 0 0 1 250 500A93.75 93.75 0 0 1 62.5 500M750 500A93.75 93.75 0 0 1 937.5 500A93.75 93.75 0 0 1 750 500M0 1000H1000V0H0V1000z" />
    <glyph glyph-name="more-drk-1"
      unicode="&#x6D;&#x6F;&#x72;&#x65;&#x2D;&#x64;&#x72;&#x6B;"
      horiz-adv-x="1000" d="M405.625 500A93.75 93.75 0 0 1 593.125 500A93.75 93.75 0 0 1 405.625 500M62.5 500A93.75 93.75 0 0 1 250 500A93.75 93.75 0 0 1 62.5 500M750 500A93.75 93.75 0 0 1 937.5 500A93.75 93.75 0 0 1 750 500M0 1000H1000V0H0V1000z" />
    <glyph glyph-name="more-lht"
      unicode="&#xF149;"
      horiz-adv-x="1000" d="M405.625 500A93.75 93.75 0 0 1 593.125 500A93.75 93.75 0 0 1 405.625 500M62.5 500A93.75 93.75 0 0 1 250 500A93.75 93.75 0 0 1 62.5 500M750 500A93.75 93.75 0 0 1 937.5 500A93.75 93.75 0 0 1 750 500M0 1000H1000V0H0V1000z" />
    <glyph glyph-name="more-lht-1"
      unicode="&#x6D;&#x6F;&#x72;&#x65;&#x2D;&#x6C;&#x68;&#x74;"
      horiz-adv-x="1000" d="M405.625 500A93.75 93.75 0 0 1 593.125 500A93.75 93.75 0 0 1 405.625 500M62.5 500A93.75 93.75 0 0 1 250 500A93.75 93.75 0 0 1 62.5 500M750 500A93.75 93.75 0 0 1 937.5 500A93.75 93.75 0 0 1 750 500M0 1000H1000V0H0V1000z" />
    <glyph glyph-name="next-drk"
      unicode="&#xF14A;"
      horiz-adv-x="1000" d="M0 1000H1000V0H0V1000zM125 875A62.5 62.5 0 0 0 155.625 866.875L718.125 554.375A62.5 62.5 0 0 0 718.125 445.625L155.625 133.125A62.5 62.5 0 0 0 93.125 133.125A62.5 62.5 0 0 0 62.5 187.5V812.5A62.5 62.5 0 0 0 93.125 866.25A62.5 62.5 0 0 0 125 875zM558.75 500L187.5 706.25V293.75zM875 875A62.5 62.5 0 0 0 937.5 812.5V187.5A62.5 62.5 0 0 0 812.5 187.5V812.5A62.5 62.5 0 0 0 875 875z" />
    <glyph glyph-name="next-drk-1"
      unicode="&#x6E;&#x65;&#x78;&#x74;&#x2D;&#x64;&#x72;&#x6B;"
      horiz-adv-x="1000" d="M0 1000H1000V0H0V1000zM125 875A62.5 62.5 0 0 0 155.625 866.875L718.125 554.375A62.5 62.5 0 0 0 718.125 445.625L155.625 133.125A62.5 62.5 0 0 0 93.125 133.125A62.5 62.5 0 0 0 62.5 187.5V812.5A62.5 62.5 0 0 0 93.125 866.25A62.5 62.5 0 0 0 125 875zM558.75 500L187.5 706.25V293.75zM875 875A62.5 62.5 0 0 0 937.5 812.5V187.5A62.5 62.5 0 0 0 812.5 187.5V812.5A62.5 62.5 0 0 0 875 875z" />
    <glyph glyph-name="next-lht"
      unicode="&#xF14B;"
      horiz-adv-x="1000" d="M0 1000H1000V0H0V1000zM125 875A62.5 62.5 0 0 0 155.625 866.875L718.125 554.375A62.5 62.5 0 0 0 718.125 445.625L155.625 133.125A62.5 62.5 0 0 0 93.125 133.125A62.5 62.5 0 0 0 62.5 187.5V812.5A62.5 62.5 0 0 0 93.125 866.25A62.5 62.5 0 0 0 125 875zM558.75 500L187.5 706.25V293.75zM875 875A62.5 62.5 0 0 0 937.5 812.5V187.5A62.5 62.5 0 0 0 812.5 187.5V812.5A62.5 62.5 0 0 0 875 875z" />
    <glyph glyph-name="next-lht-1"
      unicode="&#x6E;&#x65;&#x78;&#x74;&#x2D;&#x6C;&#x68;&#x74;"
      horiz-adv-x="1000" d="M0 1000H1000V0H0V1000zM125 875A62.5 62.5 0 0 0 155.625 866.875L718.125 554.375A62.5 62.5 0 0 0 718.125 445.625L155.625 133.125A62.5 62.5 0 0 0 93.125 133.125A62.5 62.5 0 0 0 62.5 187.5V812.5A62.5 62.5 0 0 0 93.125 866.25A62.5 62.5 0 0 0 125 875zM558.75 500L187.5 706.25V293.75zM875 875A62.5 62.5 0 0 0 937.5 812.5V187.5A62.5 62.5 0 0 0 812.5 187.5V812.5A62.5 62.5 0 0 0 875 875z" />
    <glyph glyph-name="pause-drk"
      unicode="&#xF14C;"
      horiz-adv-x="1000" d="M0 1000H1000V0H0V1000zM343.75 125A62.5 62.5 0 0 0 281.25 187.5V812.5A62.5 62.5 0 0 0 406.25 812.5V187.5A62.5 62.5 0 0 0 343.75 125zM656.25 125A62.5 62.5 0 0 0 593.75 187.5V812.5A62.5 62.5 0 0 0 718.75 812.5V187.5A62.5 62.5 0 0 0 656.25 125z" />
    <glyph glyph-name="pause-drk-1"
      unicode="&#x70;&#x61;&#x75;&#x73;&#x65;&#x2D;&#x64;&#x72;&#x6B;"
      horiz-adv-x="1000" d="M0 1000H1000V0H0V1000zM343.75 125A62.5 62.5 0 0 0 281.25 187.5V812.5A62.5 62.5 0 0 0 406.25 812.5V187.5A62.5 62.5 0 0 0 343.75 125zM656.25 125A62.5 62.5 0 0 0 593.75 187.5V812.5A62.5 62.5 0 0 0 718.75 812.5V187.5A62.5 62.5 0 0 0 656.25 125z" />
    <glyph glyph-name="pause-lht"
      unicode="&#xF14D;"
      horiz-adv-x="1000" d="M0 1000H1000V0H0V1000zM343.75 125A62.5 62.5 0 0 0 281.25 187.5V812.5A62.5 62.5 0 0 0 406.25 812.5V187.5A62.5 62.5 0 0 0 343.75 125zM656.25 125A62.5 62.5 0 0 0 593.75 187.5V812.5A62.5 62.5 0 0 0 718.75 812.5V187.5A62.5 62.5 0 0 0 656.25 125z" />
    <glyph glyph-name="pause-lht-1"
      unicode="&#x70;&#x61;&#x75;&#x73;&#x65;&#x2D;&#x6C;&#x68;&#x74;"
      horiz-adv-x="1000" d="M0 1000H1000V0H0V1000zM343.75 125A62.5 62.5 0 0 0 281.25 187.5V812.5A62.5 62.5 0 0 0 406.25 812.5V187.5A62.5 62.5 0 0 0 343.75 125zM656.25 125A62.5 62.5 0 0 0 593.75 187.5V812.5A62.5 62.5 0 0 0 718.75 812.5V187.5A62.5 62.5 0 0 0 656.25 125z" />
    <glyph glyph-name="phone-drk"
      unicode="&#xF14E;"
      horiz-adv-x="1000" d="M937.5 347.5A62.5 62.5 0 0 1 881.25 410L675 430.625A62.5 62.5 0 0 1 609.375 388.125L578.125 294.375A833.1249999999999 833.1249999999999 0 0 0 294.375 578.125L388.125 609.375A62.5 62.5 0 0 1 430.625 671.875L410 881.25A62.5 62.5 0 0 1 347.5 937.5H116.25A62.5 62.5 0 0 1 62.5 866.25A943.7500000000001 943.7500000000001 0 0 1 866.25 62.5H875A62.5 62.5 0 0 1 937.5 116.25A62.5 62.5 0 0 1 937.5 125zM0 1000H1000V0H0V1000z" />
    <glyph glyph-name="phone-drk-1"
      unicode="&#x70;&#x68;&#x6F;&#x6E;&#x65;&#x2D;&#x64;&#x72;&#x6B;"
      horiz-adv-x="1000" d="M937.5 347.5A62.5 62.5 0 0 1 881.25 410L675 430.625A62.5 62.5 0 0 1 609.375 388.125L578.125 294.375A833.1249999999999 833.1249999999999 0 0 0 294.375 578.125L388.125 609.375A62.5 62.5 0 0 1 430.625 671.875L410 881.25A62.5 62.5 0 0 1 347.5 937.5H116.25A62.5 62.5 0 0 1 62.5 866.25A943.7500000000001 943.7500000000001 0 0 1 866.25 62.5H875A62.5 62.5 0 0 1 937.5 116.25A62.5 62.5 0 0 1 937.5 125zM0 1000H1000V0H0V1000z" />
    <glyph glyph-name="phone-lht"
      unicode="&#xF14F;"
      horiz-adv-x="1000" d="M937.5 347.5A62.5 62.5 0 0 1 881.25 410L675 430.625A62.5 62.5 0 0 1 609.375 388.125L578.125 294.375A833.1249999999999 833.1249999999999 0 0 0 294.375 578.125L388.125 609.375A62.5 62.5 0 0 1 430.625 671.875L410 881.25A62.5 62.5 0 0 1 347.5 937.5H116.25A62.5 62.5 0 0 1 62.5 866.25A943.7500000000001 943.7500000000001 0 0 1 866.25 62.5H875A62.5 62.5 0 0 1 937.5 116.25A62.5 62.5 0 0 1 937.5 125zM0 1000H1000V0H0V1000z" />
    <glyph glyph-name="phone-lht-1"
      unicode="&#x70;&#x68;&#x6F;&#x6E;&#x65;&#x2D;&#x6C;&#x68;&#x74;"
      horiz-adv-x="1000" d="M937.5 347.5A62.5 62.5 0 0 1 881.25 410L675 430.625A62.5 62.5 0 0 1 609.375 388.125L578.125 294.375A833.1249999999999 833.1249999999999 0 0 0 294.375 578.125L388.125 609.375A62.5 62.5 0 0 1 430.625 671.875L410 881.25A62.5 62.5 0 0 1 347.5 937.5H116.25A62.5 62.5 0 0 1 62.5 866.25A943.7500000000001 943.7500000000001 0 0 1 866.25 62.5H875A62.5 62.5 0 0 1 937.5 116.25A62.5 62.5 0 0 1 937.5 125zM0 1000H1000V0H0V1000z" />
    <glyph glyph-name="photos-drk"
      unicode="&#xF150;"
      horiz-adv-x="1000" d="M0 1000H1000V0H0V1000zM500 625A125 125 0 1 0 375 500A125 125 0 0 0 500 625M500 750A250 250 0 1 1 750 500A250 250 0 0 1 500 750zM610 875L638.1249999999999 819.375L672.5 750H875V187.5H125V750H327.5L361.875 819.375L390 875H610M687.5 1000H312.5L250 875H125A125 125 0 0 1 0 750V187.5A125 125 0 0 1 125 62.5H875A125 125 0 0 1 1000 187.5V750A125 125 0 0 1 875 875H750L687.5 1000z" />
    <glyph glyph-name="photos-drk-1"
      unicode="&#x70;&#x68;&#x6F;&#x74;&#x6F;&#x73;&#x2D;&#x64;&#x72;&#x6B;"
      horiz-adv-x="1000" d="M0 1000H1000V0H0V1000zM500 625A125 125 0 1 0 375 500A125 125 0 0 0 500 625M500 750A250 250 0 1 1 750 500A250 250 0 0 1 500 750zM610 875L638.1249999999999 819.375L672.5 750H875V187.5H125V750H327.5L361.875 819.375L390 875H610M687.5 1000H312.5L250 875H125A125 125 0 0 1 0 750V187.5A125 125 0 0 1 125 62.5H875A125 125 0 0 1 1000 187.5V750A125 125 0 0 1 875 875H750L687.5 1000z" />
    <glyph glyph-name="photos-lht"
      unicode="&#xF151;"
      horiz-adv-x="1000" d="M0 1000H1000V0H0V1000zM500 625A125 125 0 1 0 375 500A125 125 0 0 0 500 625M500 750A250 250 0 1 1 750 500A250 250 0 0 1 500 750zM610 875L638.1249999999999 819.375L672.5 750H875V187.5H125V750H327.5L361.875 819.375L390 875H610M687.5 1000H312.5L250 875H125A125 125 0 0 1 0 750V187.5A125 125 0 0 1 125 62.5H875A125 125 0 0 1 1000 187.5V750A125 125 0 0 1 875 875H750L687.5 1000z" />
    <glyph glyph-name="photos-lht-1"
      unicode="&#x70;&#x68;&#x6F;&#x74;&#x6F;&#x73;&#x2D;&#x6C;&#x68;&#x74;"
      horiz-adv-x="1000" d="M0 1000H1000V0H0V1000zM500 625A125 125 0 1 0 375 500A125 125 0 0 0 500 625M500 750A250 250 0 1 1 750 500A250 250 0 0 1 500 750zM610 875L638.1249999999999 819.375L672.5 750H875V187.5H125V750H327.5L361.875 819.375L390 875H610M687.5 1000H312.5L250 875H125A125 125 0 0 1 0 750V187.5A125 125 0 0 1 125 62.5H875A125 125 0 0 1 1000 187.5V750A125 125 0 0 1 875 875H750L687.5 1000z" />
    <glyph glyph-name="play-circle-drk"
      unicode="&#xF152;"
      horiz-adv-x="1000" d="M0 1000H1000V0H0V1000zM712.5 453.125L423.75 292.5A53.75 53.75 0 0 0 343.75 339.375V660.625A53.75 53.75 0 0 0 423.75 707.5L712.5 546.875A53.75 53.75 0 0 0 712.5 453.125zM500 875A375 375 0 1 0 125 500A375 375 0 0 0 500 875M500 1000A500 500 0 1 1 1000 500A500 500 0 0 1 500 1000z" />
    <glyph glyph-name="play-circle-drk-1"
      unicode="&#x70;&#x6C;&#x61;&#x79;&#x2D;&#x63;&#x69;&#x72;&#x63;&#x6C;&#x65;&#x2D;&#x64;&#x72;&#x6B;"
      horiz-adv-x="1000" d="M0 1000H1000V0H0V1000zM712.5 453.125L423.75 292.5A53.75 53.75 0 0 0 343.75 339.375V660.625A53.75 53.75 0 0 0 423.75 707.5L712.5 546.875A53.75 53.75 0 0 0 712.5 453.125zM500 875A375 375 0 1 0 125 500A375 375 0 0 0 500 875M500 1000A500 500 0 1 1 1000 500A500 500 0 0 1 500 1000z" />
    <glyph glyph-name="play-circle-lht"
      unicode="&#xF153;"
      horiz-adv-x="1000" d="M0 1000H1000V0H0V1000zM712.5 453.125L423.75 292.5A53.75 53.75 0 0 0 343.75 339.375V660.625A53.75 53.75 0 0 0 423.75 707.5L712.5 546.875A53.75 53.75 0 0 0 712.5 453.125zM500 875A375 375 0 1 0 125 500A375 375 0 0 0 500 875M500 1000A500 500 0 1 1 1000 500A500 500 0 0 1 500 1000z" />
    <glyph glyph-name="play-circle-lht-1"
      unicode="&#x70;&#x6C;&#x61;&#x79;&#x2D;&#x63;&#x69;&#x72;&#x63;&#x6C;&#x65;&#x2D;&#x6C;&#x68;&#x74;"
      horiz-adv-x="1000" d="M0 1000H1000V0H0V1000zM712.5 453.125L423.75 292.5A53.75 53.75 0 0 0 343.75 339.375V660.625A53.75 53.75 0 0 0 423.75 707.5L712.5 546.875A53.75 53.75 0 0 0 712.5 453.125zM500 875A375 375 0 1 0 125 500A375 375 0 0 0 500 875M500 1000A500 500 0 1 1 1000 500A500 500 0 0 1 500 1000z" />
    <glyph glyph-name="play-drk"
      unicode="&#xF154;"
      horiz-adv-x="1000" d="M0 1000H1000V0H0V1000zM843.125 554.375L280.625 866.875A62.5 62.5 0 0 1 218.125 866.875A62.5 62.5 0 0 1 187.5 812.5V187.5A62.5 62.5 0 0 1 218.125 133.75A62.5 62.5 0 0 1 250 125A62.5 62.5 0 0 1 280.625 133.125L843.125 445.625A62.5 62.5 0 0 1 843.125 554.375zM312.5 293.75V706.25L683.75 500z" />
    <glyph glyph-name="play-drk-1"
      unicode="&#x70;&#x6C;&#x61;&#x79;&#x2D;&#x64;&#x72;&#x6B;"
      horiz-adv-x="1000" d="M0 1000H1000V0H0V1000zM843.125 554.375L280.625 866.875A62.5 62.5 0 0 1 218.125 866.875A62.5 62.5 0 0 1 187.5 812.5V187.5A62.5 62.5 0 0 1 218.125 133.75A62.5 62.5 0 0 1 250 125A62.5 62.5 0 0 1 280.625 133.125L843.125 445.625A62.5 62.5 0 0 1 843.125 554.375zM312.5 293.75V706.25L683.75 500z" />
    <glyph glyph-name="play-lht"
      unicode="&#xF155;"
      horiz-adv-x="1000" d="M0 1000H1000V0H0V1000zM843.125 554.375L280.625 866.875A62.5 62.5 0 0 1 218.125 866.875A62.5 62.5 0 0 1 187.5 812.5V187.5A62.5 62.5 0 0 1 218.125 133.75A62.5 62.5 0 0 1 250 125A62.5 62.5 0 0 1 280.625 133.125L843.125 445.625A62.5 62.5 0 0 1 843.125 554.375zM312.5 293.75V706.25L683.75 500z" />
    <glyph glyph-name="play-lht-1"
      unicode="&#x70;&#x6C;&#x61;&#x79;&#x2D;&#x6C;&#x68;&#x74;"
      horiz-adv-x="1000" d="M0 1000H1000V0H0V1000zM843.125 554.375L280.625 866.875A62.5 62.5 0 0 1 218.125 866.875A62.5 62.5 0 0 1 187.5 812.5V187.5A62.5 62.5 0 0 1 218.125 133.75A62.5 62.5 0 0 1 250 125A62.5 62.5 0 0 1 280.625 133.125L843.125 445.625A62.5 62.5 0 0 1 843.125 554.375zM312.5 293.75V706.25L683.75 500z" />
    <glyph glyph-name="plus-circle-drk"
      unicode="&#xF156;"
      horiz-adv-x="1000" d="M0 500A500 500 0 0 1 1000 500A500 500 0 0 1 0 500M718.75 562.5H562.5V718.75A62.5 62.5 0 0 1 437.5 718.75V562.5H281.25A62.5 62.5 0 0 1 281.25 437.5H437.5V281.25A62.5 62.5 0 0 1 562.5 281.25V437.5H718.75A62.5 62.5 0 0 1 718.75 562.5z" />
    <glyph glyph-name="plus-circle-drk-1"
      unicode="&#x70;&#x6C;&#x75;&#x73;&#x2D;&#x63;&#x69;&#x72;&#x63;&#x6C;&#x65;&#x2D;&#x64;&#x72;&#x6B;"
      horiz-adv-x="1000" d="M0 500A500 500 0 0 1 1000 500A500 500 0 0 1 0 500M718.75 562.5H562.5V718.75A62.5 62.5 0 0 1 437.5 718.75V562.5H281.25A62.5 62.5 0 0 1 281.25 437.5H437.5V281.25A62.5 62.5 0 0 1 562.5 281.25V437.5H718.75A62.5 62.5 0 0 1 718.75 562.5z" />
    <glyph glyph-name="plus-circle-lht"
      unicode="&#xF157;"
      horiz-adv-x="1000" d="M0 500A500 500 0 0 1 1000 500A500 500 0 0 1 0 500M718.75 562.5H562.5V718.75A62.5 62.5 0 0 1 437.5 718.75V562.5H281.25A62.5 62.5 0 0 1 281.25 437.5H437.5V281.25A62.5 62.5 0 0 1 562.5 281.25V437.5H718.75A62.5 62.5 0 0 1 718.75 562.5z" />
    <glyph glyph-name="plus-circle-lht-1"
      unicode="&#x70;&#x6C;&#x75;&#x73;&#x2D;&#x63;&#x69;&#x72;&#x63;&#x6C;&#x65;&#x2D;&#x6C;&#x68;&#x74;"
      horiz-adv-x="1000" d="M0 500A500 500 0 0 1 1000 500A500 500 0 0 1 0 500M718.75 562.5H562.5V718.75A62.5 62.5 0 0 1 437.5 718.75V562.5H281.25A62.5 62.5 0 0 1 281.25 437.5H437.5V281.25A62.5 62.5 0 0 1 562.5 281.25V437.5H718.75A62.5 62.5 0 0 1 718.75 562.5z" />
    <glyph glyph-name="plus-drk"
      unicode="&#xF158;"
      horiz-adv-x="1000" d="M875 562.5H562.5V875A62.5 62.5 0 0 1 437.5 875V562.5H125A62.5 62.5 0 0 1 125 437.5H437.5V125A62.5 62.5 0 0 1 562.5 125V437.5H875A62.5 62.5 0 0 1 875 562.5zM0 1000H1000V0H0V1000z" />
    <glyph glyph-name="plus-drk-1"
      unicode="&#x70;&#x6C;&#x75;&#x73;&#x2D;&#x64;&#x72;&#x6B;"
      horiz-adv-x="1000" d="M875 562.5H562.5V875A62.5 62.5 0 0 1 437.5 875V562.5H125A62.5 62.5 0 0 1 125 437.5H437.5V125A62.5 62.5 0 0 1 562.5 125V437.5H875A62.5 62.5 0 0 1 875 562.5zM0 1000H1000V0H0V1000z" />
    <glyph glyph-name="plus-lht"
      unicode="&#xF159;"
      horiz-adv-x="1000" d="M875 562.5H562.5V875A62.5 62.5 0 0 1 437.5 875V562.5H125A62.5 62.5 0 0 1 125 437.5H437.5V125A62.5 62.5 0 0 1 562.5 125V437.5H875A62.5 62.5 0 0 1 875 562.5zM0 1000H1000V0H0V1000z" />
    <glyph glyph-name="plus-lht-1"
      unicode="&#x70;&#x6C;&#x75;&#x73;&#x2D;&#x6C;&#x68;&#x74;"
      horiz-adv-x="1000" d="M875 562.5H562.5V875A62.5 62.5 0 0 1 437.5 875V562.5H125A62.5 62.5 0 0 1 125 437.5H437.5V125A62.5 62.5 0 0 1 562.5 125V437.5H875A62.5 62.5 0 0 1 875 562.5zM0 1000H1000V0H0V1000z" />
    <glyph glyph-name="previous-drk"
      unicode="&#xF15A;"
      horiz-adv-x="1000" d="M1000 0L0 -2e-13L-1e-13 999.9999999999998L999.9999999999998 999.9999999999998L1000 0zM875 125A62.5 62.5 0 0 0 844.375 133.125L281.875 445.625A62.5 62.5 0 0 0 281.875 554.375L844.375 866.875A62.5 62.5 0 0 0 906.875 866.875A62.5 62.5 0 0 0 937.5 812.5V187.5A62.5 62.5 0 0 0 906.875 133.75A62.5 62.5 0 0 0 875 125zM441.25 500L812.5 293.75V706.25zM125 125A62.5 62.5 0 0 0 62.5 187.5V812.5A62.5 62.5 0 0 0 187.5 812.5V187.5A62.5 62.5 0 0 0 125 125z" />
    <glyph glyph-name="previous-drk-1"
      unicode="&#x70;&#x72;&#x65;&#x76;&#x69;&#x6F;&#x75;&#x73;&#x2D;&#x64;&#x72;&#x6B;"
      horiz-adv-x="1000" d="M1000 0L0 -2e-13L-1e-13 999.9999999999998L999.9999999999998 999.9999999999998L1000 0zM875 125A62.5 62.5 0 0 0 844.375 133.125L281.875 445.625A62.5 62.5 0 0 0 281.875 554.375L844.375 866.875A62.5 62.5 0 0 0 906.875 866.875A62.5 62.5 0 0 0 937.5 812.5V187.5A62.5 62.5 0 0 0 906.875 133.75A62.5 62.5 0 0 0 875 125zM441.25 500L812.5 293.75V706.25zM125 125A62.5 62.5 0 0 0 62.5 187.5V812.5A62.5 62.5 0 0 0 187.5 812.5V187.5A62.5 62.5 0 0 0 125 125z" />
    <glyph glyph-name="previous-lht"
      unicode="&#xF15B;"
      horiz-adv-x="1000" d="M1000 0L0 -2e-13L-1e-13 999.9999999999998L999.9999999999998 999.9999999999998L1000 0zM875 125A62.5 62.5 0 0 0 844.375 133.125L281.875 445.625A62.5 62.5 0 0 0 281.875 554.375L844.375 866.875A62.5 62.5 0 0 0 906.875 866.875A62.5 62.5 0 0 0 937.5 812.5V187.5A62.5 62.5 0 0 0 906.875 133.75A62.5 62.5 0 0 0 875 125zM441.25 500L812.5 293.75V706.25zM125 125A62.5 62.5 0 0 0 62.5 187.5V812.5A62.5 62.5 0 0 0 187.5 812.5V187.5A62.5 62.5 0 0 0 125 125z" />
    <glyph glyph-name="previous-lht-1"
      unicode="&#x70;&#x72;&#x65;&#x76;&#x69;&#x6F;&#x75;&#x73;&#x2D;&#x6C;&#x68;&#x74;"
      horiz-adv-x="1000" d="M1000 0L0 -2e-13L-1e-13 999.9999999999998L999.9999999999998 999.9999999999998L1000 0zM875 125A62.5 62.5 0 0 0 844.375 133.125L281.875 445.625A62.5 62.5 0 0 0 281.875 554.375L844.375 866.875A62.5 62.5 0 0 0 906.875 866.875A62.5 62.5 0 0 0 937.5 812.5V187.5A62.5 62.5 0 0 0 906.875 133.75A62.5 62.5 0 0 0 875 125zM441.25 500L812.5 293.75V706.25zM125 125A62.5 62.5 0 0 0 62.5 187.5V812.5A62.5 62.5 0 0 0 187.5 812.5V187.5A62.5 62.5 0 0 0 125 125z" />
    <glyph glyph-name="profile-drk"
      unicode="&#xF15C;"
      horiz-adv-x="1000" d="M500 1000A500 500 0 1 1 1000 500A500 500 0 0 1 500 1000zM500 875A375 375 0 0 0 875 500A370.00000000000006 370.00000000000006 0 0 0 806.25 285A566.25 566.25 0 0 1 193.75 285A370.00000000000006 370.00000000000006 0 0 0 125 500A375 375 0 0 0 500 875zM284.375 193.75A441.25 441.25 0 0 0 715.625 193.75A375 375 0 0 0 284.375 193.75zM500 437.5A187.5 187.5 0 1 1 312.5 625A187.5 187.5 0 0 1 500 437.5zM500 687.5A62.5 62.5 0 1 0 437.5 625A62.5 62.5 0 0 0 500 687.5zM0 1000H1000V0H0V1000z" />
    </font>
</defs>
</svg>
